<svg width="100" height="100" viewBox="0 0 100 100" fill="none" xmlns="http://www.w3.org/2000/svg">
<circle cx="50" cy="50" r="50" fill="#62CAD8"/>
<path d="M67.6777 32.3223C62.9559 27.6004 56.6777 25 50 25C43.3223 25 37.0441 27.6004 32.3223 32.3223C27.6005 37.0441 25 43.3223 25 50C25 56.6777 27.6005 62.9559 32.3223 67.6777C37.0441 72.3996 43.3223 75 50 75C56.6777 75 62.9559 72.3996 67.6777 67.6777C72.3995 62.9559 75 56.6777 75 50C75 43.3223 72.3995 37.0441 67.6777 32.3223ZM50 72.0703C37.8304 72.0703 27.9297 62.1696 27.9297 50C27.9297 37.8304 37.8304 27.9297 50 27.9297C62.1696 27.9297 72.0703 37.8304 72.0703 50C72.0703 62.1696 62.1696 72.0703 50 72.0703Z" fill="white"/>
<path d="M51.569 48.5352H48.431C46.6432 48.5352 45.1888 47.0808 45.1888 45.2931C45.1888 43.5053 46.6433 42.0509 48.431 42.0509H54.707C55.516 42.0509 56.1719 41.395 56.1719 40.5861C56.1719 39.7771 55.516 39.1212 54.707 39.1212H51.4649V35.879C51.4649 35.07 50.809 34.4142 50 34.4142C49.191 34.4142 48.5352 35.07 48.5352 35.879V39.1212H48.4311C45.0278 39.1212 42.2592 41.89 42.2592 45.2931C42.2592 48.6962 45.0279 51.4649 48.4311 51.4649H51.5691C53.3568 51.4649 54.8112 52.9194 54.8112 54.7071C54.8112 56.4948 53.3568 57.9492 51.5691 57.9492H45.2931C44.4841 57.9492 43.8282 58.6051 43.8282 59.4141C43.8282 60.2231 44.4841 60.8789 45.2931 60.8789H48.5352V64.1212C48.5352 64.9302 49.191 65.5861 50 65.5861C50.809 65.5861 51.4649 64.9302 51.4649 64.1212V60.8789H51.569C54.9722 60.8789 57.7408 58.1102 57.7408 54.7071C57.7408 51.3039 54.9722 48.5352 51.569 48.5352Z" fill="white"/>
</svg>
