<svg width="100" height="100" viewBox="0 0 100 100" fill="none" xmlns="http://www.w3.org/2000/svg">
<circle cx="50" cy="50" r="50" fill="#62CAD8"/>
<path d="M75.2501 25H24.1138C21.2908 25.0033 19.0033 27.2908 19 30.1138V64.8867C19.0033 67.7092 21.2908 69.9967 24.1138 70H75.2501C78.0732 69.9967 80.3607 67.7092 80.3639 64.8867V30.1138C80.3607 27.2908 78.0732 25.0033 75.2501 25V25ZM78.3185 64.8867C78.3185 66.581 76.9449 67.9546 75.2501 67.9546H24.1138C22.419 67.9546 21.0454 66.581 21.0454 64.8867V30.1138C21.0454 28.419 22.419 27.0454 24.1138 27.0454H75.2501C76.9449 27.0454 78.3185 28.419 78.3185 30.1138V64.8867Z" fill="white"/>
<path d="M24.1138 38.2955C24.6784 38.2955 25.1363 37.8376 25.1363 37.2726V32.1592C25.1363 32.0885 25.1438 32.0183 25.1579 31.9495C25.171 31.8853 25.1906 31.8226 25.2164 31.7622C25.2426 31.6999 25.2754 31.6405 25.3133 31.5843C25.3503 31.5295 25.3929 31.4785 25.4402 31.4321C25.486 31.3867 25.5361 31.3455 25.5895 31.309C25.6447 31.2725 25.7033 31.2411 25.7646 31.2149C25.8236 31.1901 25.8854 31.1709 25.9486 31.1578C26.0179 31.1433 26.0886 31.1363 26.1593 31.1363H31.2726C31.8377 31.1363 32.2956 30.6784 32.2956 30.1138C32.2956 29.5487 31.8377 29.0908 31.2726 29.0908H26.1593C25.9514 29.0913 25.744 29.1119 25.5403 29.1531C25.3432 29.1938 25.1504 29.2542 24.9645 29.3324C24.4181 29.5641 23.9504 29.9494 23.6176 30.441C23.5057 30.6053 23.4102 30.7804 23.3325 30.9635C23.2547 31.1484 23.1953 31.3399 23.1546 31.5361C23.1119 31.7411 23.0909 31.9499 23.0909 32.1592V37.2726C23.0909 37.8376 23.5488 38.2955 24.1138 38.2955Z" fill="white"/>
<path d="M31.2726 63.8636H26.1593C26.0226 63.8641 25.8873 63.8369 25.7613 63.784C25.7005 63.7578 25.6424 63.726 25.5876 63.689C25.5324 63.6515 25.4809 63.6089 25.4341 63.5621C25.3877 63.5158 25.3461 63.4652 25.3091 63.4109C25.273 63.3561 25.2417 63.2981 25.2164 63.2377C25.1897 63.1759 25.17 63.1117 25.1569 63.0457C25.1429 62.9783 25.1359 62.91 25.1363 62.8411V57.7273C25.1363 57.1627 24.6785 56.7048 24.1138 56.7048C23.5488 56.7048 23.0909 57.1627 23.0909 57.7273V62.8411C23.0904 63.0471 23.1115 63.2527 23.1532 63.4544C23.2323 63.8477 23.3886 64.2213 23.6134 64.5532C23.9467 65.0457 24.4149 65.432 24.9617 65.6656C25.3404 65.8267 25.7478 65.9095 26.1593 65.909H31.2726C31.8377 65.909 32.2956 65.4512 32.2956 64.8866C32.2956 64.3215 31.8377 63.8636 31.2726 63.8636Z" fill="white"/>
<path d="M75.2501 56.7048C74.6855 56.7048 74.2276 57.1627 74.2276 57.7273V62.8411C74.2271 62.91 74.2197 62.9783 74.2061 63.0457C74.193 63.1099 74.1733 63.1726 74.1476 63.2325C74.1213 63.2953 74.0886 63.3547 74.0506 63.4109C74.0137 63.4657 73.9711 63.5167 73.9238 63.5631C73.8779 63.6085 73.8278 63.6492 73.7744 63.6857C73.7192 63.7227 73.6607 63.7541 73.5993 63.7798C73.5403 63.8051 73.4785 63.8243 73.4153 63.8369C73.3465 63.8533 73.2758 63.8622 73.2047 63.8636H68.0913C67.5262 63.8636 67.0684 64.3215 67.0684 64.8866C67.0684 65.4512 67.5262 65.909 68.0913 65.909H73.2047C73.4107 65.9086 73.6166 65.888 73.8184 65.8468C74.0155 65.8061 74.2084 65.7461 74.3943 65.6679C74.9406 65.4357 75.4083 65.0509 75.7412 64.5593C75.8531 64.3945 75.9486 64.2194 76.0263 64.0364C76.104 63.8519 76.1635 63.66 76.2047 63.4638C76.2487 63.2592 76.2716 63.0504 76.273 62.8411V57.7273C76.273 57.1627 75.8152 56.7048 75.2501 56.7048Z" fill="white"/>
<path d="M76.0315 30.9635C75.9547 30.7823 75.8601 30.6091 75.7506 30.4462C75.4172 29.9532 74.9491 29.567 74.4022 29.3333C74.0235 29.1728 73.6162 29.0904 73.2047 29.0908H68.0913C67.5262 29.0908 67.0684 29.5487 67.0684 30.1138C67.0684 30.6784 67.5262 31.1363 68.0913 31.1363H73.2047C73.3414 31.1363 73.4767 31.1634 73.6026 31.2163C73.6635 31.2421 73.7215 31.2739 73.7763 31.3114C73.8315 31.3488 73.883 31.3909 73.9299 31.4382C73.9762 31.4846 74.0179 31.5351 74.0549 31.5894C74.0909 31.6438 74.1223 31.7018 74.1476 31.7622C74.1742 31.8249 74.1944 31.8905 74.207 31.9574C74.2206 32.0239 74.2276 32.0913 74.2276 32.1592V37.2726C74.2276 37.8376 74.6855 38.2955 75.2501 38.2955C75.8152 38.2955 76.273 37.8376 76.273 37.2726V32.1592C76.2735 31.9527 76.2524 31.7472 76.2108 31.5454C76.1705 31.346 76.1101 31.1512 76.0315 30.9635Z" fill="white"/>
<path d="M36.3864 54.659H34.341V39.318C34.341 38.9046 34.0919 38.532 33.7094 38.3737C33.3274 38.2155 32.8878 38.3026 32.5952 38.5952L29.5268 41.6635C29.1396 42.0648 29.1448 42.7024 29.5394 43.0971C29.9341 43.4918 30.5718 43.4969 30.973 43.1097L32.2956 41.7871V54.659H30.2501C29.685 54.659 29.2272 55.1173 29.2272 55.682C29.2272 56.2466 29.685 56.7049 30.2501 56.7049H36.3864C36.9515 56.7049 37.4094 56.2466 37.4094 55.682C37.4094 55.1173 36.9515 54.659 36.3864 54.659Z" fill="white"/>
<path d="M43.5456 38.2955C41.2863 38.2955 39.4548 40.127 39.4548 42.3864V52.6136C39.4548 54.873 41.2863 56.7049 43.5456 56.7049C45.805 56.7049 47.6365 54.873 47.6365 52.6136V42.3864C47.6365 40.127 45.805 38.2955 43.5456 38.2955ZM45.5911 52.6136C45.5911 53.7433 44.6753 54.659 43.5456 54.659C42.4159 54.659 41.5002 53.7433 41.5002 52.6136V42.3864C41.5002 41.2567 42.4159 40.341 43.5456 40.341C44.6753 40.341 45.5911 41.2567 45.5911 42.3864V52.6136Z" fill="white"/>
<path d="M70.1368 52.6136V42.3864C70.1368 40.127 68.3048 38.2955 66.0459 38.2955C63.7865 38.2955 61.9546 40.127 61.9546 42.3864V52.6136C61.9546 54.873 63.7865 56.7049 66.0459 56.7049C68.3048 56.7049 70.1368 54.873 70.1368 52.6136ZM68.0914 52.6136C68.0914 53.7433 67.1756 54.659 66.0459 54.659C64.9162 54.659 64 53.7433 64 52.6136V42.3864C64 41.2567 64.9162 40.341 66.0459 40.341C67.1756 40.341 68.0914 41.2567 68.0914 42.3864V52.6136Z" fill="white"/>
<path d="M59.9091 43.4094C59.9204 40.9964 58.2439 38.9046 55.8866 38.3897C53.5294 37.8751 51.1333 39.0779 50.138 41.2755C49.1422 43.473 49.8177 46.0676 51.7592 47.5002C49.9821 48.8116 49.248 51.1154 49.9381 53.2128C50.6286 55.3107 52.5874 56.7283 54.7958 56.7283C57.0041 56.7283 58.963 55.3107 59.6531 53.2128C60.3431 51.1154 59.609 48.8116 57.8323 47.5002C59.1339 46.5428 59.9049 45.025 59.9091 43.4094ZM57.8637 51.5911C57.8637 53.2854 56.4901 54.659 54.7958 54.659C53.101 54.659 51.7274 53.2854 51.7274 51.5911C51.7274 49.8963 53.101 48.5227 54.7958 48.5227C56.4901 48.5227 57.8637 49.8963 57.8637 51.5911ZM54.7958 46.4773C53.101 46.4773 51.7274 45.1037 51.7274 43.4094C51.7274 41.7146 53.101 40.341 54.7958 40.341C56.4901 40.341 57.8637 41.7146 57.8637 43.4094C57.8637 45.1037 56.4901 46.4773 54.7958 46.4773Z" fill="white"/>
</svg>
