<svg width="100" height="100" viewBox="0 0 100 100" fill="none" xmlns="http://www.w3.org/2000/svg">
<circle cx="50" cy="50" r="50" fill="#62CAD8"/>
<path d="M84.4781 56.121C84.3074 52.1955 83.6247 47.8432 82.6006 43.747C81.5766 39.8214 80.2965 36.1519 78.7604 33.3357C72.7867 22.8391 66.301 24.4606 58.5353 26.5087C56.0605 27.106 53.415 27.7888 50.6841 28.0448H49.8308C47.0999 27.7888 44.4545 27.106 41.9796 26.5087C34.2139 24.5459 27.7282 22.8391 21.7545 33.4211C20.2184 36.2372 18.853 39.9068 17.9143 43.8323C16.8902 47.9286 16.2075 52.2808 16.0368 56.2064C15.8661 60.5586 16.2928 63.7162 17.2316 65.9349C18.1703 67.9831 19.5357 69.2631 21.3278 69.7752C22.9492 70.2019 24.8267 70.0312 26.7894 69.1778C30.1176 67.8124 33.9579 64.9109 37.7127 61.412C40.3582 58.8519 45.3078 57.5718 50.2575 57.5718C55.2071 57.5718 60.1567 58.8519 62.8022 61.412C66.5571 64.9109 70.3973 67.8124 73.7255 69.1778C75.6882 69.9458 77.5657 70.2019 79.1871 69.7752C80.8939 69.2631 82.3446 68.0684 83.2833 65.8496C84.2221 63.7161 84.6488 60.5586 84.4781 56.121ZM80.3819 64.6549C79.8698 65.8496 79.1871 66.5323 78.3337 66.7883C77.395 67.0443 76.2003 66.8737 74.8349 66.3616C71.848 65.1669 68.3492 62.5214 64.9356 59.2786C61.6928 56.0357 55.9751 54.4143 50.2575 54.4143C44.5398 54.4143 38.8221 56.0357 35.4939 59.1079C31.9951 62.3507 28.4962 65.0816 25.5947 66.191C24.2293 66.703 23.0346 66.959 22.0958 66.6176C21.2425 66.3616 20.5598 65.6789 20.0477 64.4842C19.365 62.8628 19.0237 60.2173 19.1943 56.2917C19.365 52.6222 19.9624 48.4406 20.9864 44.515C21.9252 40.8455 23.1199 37.432 24.5706 34.8718C29.2643 26.4233 34.7259 27.7888 41.2116 29.4955C43.8571 30.1782 46.5879 30.8609 49.5748 31.1169C49.6601 31.1169 49.6601 31.1169 49.7454 31.1169H50.6841C50.7695 31.1169 50.7695 31.1169 50.8548 31.1169C53.927 30.8609 56.6578 30.1782 59.3033 29.4955C65.789 27.8741 71.2507 26.4233 75.9443 34.8718C77.395 37.432 78.5897 40.7602 79.5285 44.515C80.4672 48.4406 81.1499 52.5368 81.3206 56.2917C81.4912 60.2173 81.1499 62.8628 80.3819 64.6549Z" fill="white"/>
<path d="M42.4063 39.48C41.553 38.712 40.5289 38.1146 39.3342 38.0293C39.2488 36.9199 38.7368 35.8105 37.9687 35.0424L37.8834 34.9571C36.9447 34.0184 35.75 33.5063 34.3845 33.5063C33.0191 33.5063 31.7391 34.1037 30.8857 34.9571C30.1176 35.7251 29.5203 36.8345 29.4349 38.0293C28.2402 38.1146 27.2161 38.6266 26.3627 39.3947L26.2774 39.48C25.3387 40.4187 24.8267 41.6135 24.8267 42.9789C24.8267 44.3443 25.424 45.6244 26.2774 46.4778C27.1308 47.3311 28.1549 47.8432 29.4349 47.9285C29.5203 49.1232 30.0323 50.2326 30.8857 51.0007C31.8244 51.9394 33.0191 52.4514 34.3845 52.4514C35.75 52.4514 37.03 51.8541 37.8834 51.0007C38.6515 50.1473 39.2488 49.1232 39.3342 47.9285C40.5289 47.8432 41.6383 47.3311 42.4063 46.4778C43.3451 45.539 43.8571 44.3443 43.8571 42.9789C43.8571 41.6135 43.2597 40.3334 42.4063 39.48ZM40.2729 44.259C39.9315 44.6003 39.5048 44.771 38.9928 44.771H37.7981C36.9447 44.771 36.1766 45.4537 36.1766 46.3924V47.5018C36.1766 48.0138 36.006 48.4405 35.6646 48.7819C35.3233 49.1232 34.8966 49.2939 34.3845 49.2939C33.8725 49.2939 33.4458 49.1232 33.1045 48.7819C32.7631 48.4405 32.5924 48.0138 32.5924 47.5018V46.3071C32.5924 45.4537 31.9097 44.6857 30.971 44.6857H29.7763C29.2642 44.6857 28.8376 44.515 28.4962 44.1736C28.2402 43.9176 27.9842 43.4909 27.9842 42.9789C27.9842 42.4669 28.1549 42.0402 28.4962 41.6988C28.4962 41.6988 28.4962 41.6988 28.5815 41.6135C28.9229 41.3575 29.3496 41.1868 29.7763 41.1868H30.971C31.8244 41.1868 32.5924 40.5041 32.5924 39.5654V38.3706C32.5924 37.8586 32.7631 37.4319 33.1045 37.0906C33.4458 36.7492 33.8725 36.5785 34.3845 36.5785C34.8966 36.5785 35.3233 36.7492 35.6646 37.0906C35.6646 37.0906 35.6646 37.0906 35.75 37.1759C36.006 37.5172 36.1766 37.9439 36.1766 38.3706V39.5654C36.1766 40.4187 36.8593 41.1868 37.7981 41.1868H38.9928C39.5048 41.1868 39.9315 41.3575 40.2729 41.6988C40.6142 42.0402 40.7849 42.4669 40.7849 42.9789C40.7849 43.4909 40.6142 43.9176 40.2729 44.259Z" fill="white"/>
<path d="M65.1063 39.9068C66.7559 39.9068 68.0932 38.5695 68.0932 36.9199C68.0932 35.2704 66.7559 33.9331 65.1063 33.9331C63.4568 33.9331 62.1195 35.2704 62.1195 36.9199C62.1195 38.5695 63.4568 39.9068 65.1063 39.9068Z" fill="white"/>
<path d="M65.1063 52.0248C66.7559 52.0248 68.0932 50.6876 68.0932 49.038C68.0932 47.3884 66.7559 46.0511 65.1063 46.0511C63.4568 46.0511 62.1195 47.3884 62.1195 49.038C62.1195 50.6876 63.4568 52.0248 65.1063 52.0248Z" fill="white"/>
<path d="M59.0473 45.9659C60.6968 45.9659 62.0341 44.6286 62.0341 42.979C62.0341 41.3294 60.6968 39.9922 59.0473 39.9922C57.3977 39.9922 56.0604 41.3294 56.0604 42.979C56.0604 44.6286 57.3977 45.9659 59.0473 45.9659Z" fill="white"/>
<path d="M71.1653 45.9659C72.8149 45.9659 74.1521 44.6286 74.1521 42.979C74.1521 41.3294 72.8149 39.9922 71.1653 39.9922C69.5157 39.9922 68.1785 41.3294 68.1785 42.979C68.1785 44.6286 69.5157 45.9659 71.1653 45.9659Z" fill="white"/>
</svg>
