<svg width="100" height="100" viewBox="0 0 100 100" fill="none" xmlns="http://www.w3.org/2000/svg">
<circle cx="50" cy="50" r="50" fill="#62CAD8"/>
<path d="M71.6412 37.5054C68.3038 31.7247 62.9149 27.5899 56.4676 25.8623C50.0201 24.1346 43.2859 25.0213 37.5053 28.3587C31.7247 31.6963 27.5897 37.085 25.8622 43.5323C24.1347 49.9798 25.0213 56.7141 28.3587 62.4946C31.6961 68.2753 37.0848 72.4102 43.5322 74.1377C45.6851 74.7146 47.8698 75 50.0404 75C54.3704 74.9999 58.644 73.8644 62.4944 71.6411C68.275 68.3037 72.4099 62.915 74.1375 56.4676C75.8652 50.0202 74.9786 43.2859 71.6412 37.5054ZM71.624 55.7942C70.0763 61.5702 66.3721 66.3977 61.1933 69.3877C56.0148 72.3775 49.9818 73.1717 44.2059 71.6241C38.4298 70.0764 33.6022 66.3722 30.6124 61.1935C27.6226 56.0149 26.8282 49.9818 28.376 44.2058C29.9237 38.4298 33.6279 33.6024 38.8066 30.6123C42.2563 28.6206 46.0843 27.6033 49.9638 27.6033C51.9081 27.6033 53.8659 27.8592 55.7943 28.3758C61.5704 29.9235 66.3979 33.6277 69.3878 38.8065C72.3774 43.9851 73.1717 50.0182 71.624 55.7942Z" fill="white"/>
<path d="M45.5766 37.9999H42.3423C40.9073 37.9999 39.7399 39.1673 39.7399 40.6022V59.3979C39.7399 60.8329 40.9073 62.0003 42.3423 62.0003H45.5766C47.0116 62.0003 48.179 60.8329 48.179 59.3979V40.6022C48.179 39.1673 47.0116 37.9999 45.5766 37.9999ZM45.5766 59.3979H42.3423V40.6022H45.5766L45.5783 59.3977C45.5783 59.3977 45.5778 59.3979 45.5766 59.3979Z" fill="white"/>
<path d="M57.6577 37.9999H54.4233C52.9884 37.9999 51.821 39.1673 51.821 40.6022V59.3979C51.821 60.8329 52.9884 62.0003 54.4233 62.0003H57.6577C59.0927 62.0003 60.26 60.8329 60.26 59.3979V40.6022C60.26 39.1673 59.0926 37.9999 57.6577 37.9999ZM57.6575 59.3979H54.4231V40.6022H57.6575L57.6592 59.3977C57.6593 59.3977 57.6587 59.3979 57.6575 59.3979Z" fill="white"/>
</svg>
