<svg width="100" height="100" viewBox="0 0 100 100" fill="none" xmlns="http://www.w3.org/2000/svg">
<circle cx="50" cy="50" r="50" fill="#62CAD8"/>
<path d="M64.1233 35C59.2277 35 55.2451 38.9811 55.2451 43.8767C55.2451 44.6953 55.3922 45.4739 55.6016 46.2269L52.0442 51.8404C51.5726 51.7317 51.0865 51.6597 50.5845 51.6597C49.0129 51.6597 47.5883 52.2465 46.4675 53.185L35.8609 48.5308C35.8689 48.4045 35.8977 48.2878 35.8977 48.1615C35.8977 44.6057 33.0022 41.7135 29.4481 41.7135C25.8939 41.7135 23 44.6041 23 48.1615C23 51.7189 25.8939 54.6112 29.4481 54.6112C30.7719 54.6112 32.003 54.2115 33.0262 53.5224L44.1636 58.4116C44.3267 61.8251 47.1294 64.5606 50.5845 64.5606C54.1403 64.5606 57.0326 61.6668 57.0326 58.111C57.0326 57.844 56.9878 57.5882 56.9526 57.3292L62.9258 52.635C63.3191 52.691 63.7124 52.7565 64.1217 52.7565C69.0173 52.7565 73 48.7739 73 43.8783C73 38.9795 69.0173 35 64.1233 35ZM26.4247 48.1615C26.4247 46.4955 27.7821 45.1381 29.4481 45.1381C31.1156 45.1381 32.473 46.4939 32.473 48.1615C32.473 49.8291 31.1156 51.1849 29.4481 51.1849C27.7821 51.1849 26.4247 49.8291 26.4247 48.1615ZM50.5845 61.2367C48.8578 61.2367 47.454 59.8345 47.454 58.1078C47.454 56.3827 48.8578 54.9757 50.5845 54.9757C52.3096 54.9757 53.7134 56.3811 53.7134 58.1078C53.7134 59.8345 52.3096 61.2367 50.5845 61.2367ZM64.1233 48.9481C61.3254 48.9481 59.0519 46.673 59.0519 43.8767C59.0519 41.0803 61.3254 38.8052 64.1233 38.8052C66.9213 38.8052 69.1948 41.0803 69.1948 43.8767C69.1948 46.673 66.9213 48.9481 64.1233 48.9481Z" fill="white"/>
</svg>
