<svg width="100" height="100" viewBox="0 0 100 100" fill="none" xmlns="http://www.w3.org/2000/svg">
<circle cx="50" cy="50" r="50" fill="#62CAD8"/>
<path d="M63.4512 21.884L64.6269 20.7085C64.9541 20.8601 65.3542 20.8034 65.6244 20.5331L65.8337 20.324C66.1794 19.9775 66.1794 19.4154 65.8337 19.0693L64.3273 17.563C63.9805 17.2162 63.4188 17.2162 63.0723 17.563L62.8637 17.772C62.5172 18.1184 62.5172 18.6802 62.8637 19.0267L62.9103 19.0726L61.8217 20.162C59.0367 17.5894 55.4189 15.8923 51.3888 15.5268V14.4412H51.5463C52.3616 14.4412 53.0212 13.781 53.0212 12.9667V12.4747C53.0212 11.6599 52.3604 11 51.5463 11H48.0059C47.1909 11 46.5311 11.6603 46.5311 12.4746V12.9666C46.5311 13.7813 47.1914 14.4412 48.0059 14.4412H48.1628V15.5212C39.4763 16.2981 32.5174 23.3645 32.0274 32.244C31.4869 42.0312 39.0093 50.432 48.7966 50.9728C49.1298 50.9913 49.4601 51 49.7899 51C59.2153 51 67.0053 43.6226 67.5247 34.2031C67.7815 29.551 66.2146 25.2144 63.4512 21.884ZM65.1588 34.0717C64.6926 42.5208 57.4734 49.0729 48.9274 48.6056C40.4456 48.1371 33.9263 40.8562 34.394 32.3736C34.8445 24.2115 41.5947 17.8173 49.7625 17.8173C50.0493 17.8173 50.3352 17.8255 50.6256 17.8411C59.107 18.3094 65.6268 25.5909 65.1588 34.0717ZM52.5994 33.2227C52.5994 34.7818 51.3358 36.0455 49.7763 36.0455C48.2172 36.0455 46.9536 34.7818 46.9536 33.2227C46.9536 31.945 47.8038 30.8653 48.97 30.5183V22.0216C48.97 21.5764 49.3312 21.2147 49.7763 21.2147C50.2216 21.2147 50.5829 21.5764 50.5829 22.0216V30.5193C51.749 30.8663 52.5994 31.9451 52.5994 33.2227Z" fill="white"/>
<path d="M84.2926 56.6457C83.7789 55.7501 83.0095 55.0283 82.083 54.5728C81.2974 54.1749 80.4252 53.9787 79.5449 54.0018C78.6645 54.025 77.8038 54.2668 77.0402 54.7055L63.7219 62.3878C63.5059 61.2458 62.9191 60.207 62.0525 59.4325C61.0715 58.5774 59.8145 58.1061 58.5132 58.1054H50.3372C50.1627 58.1056 49.9899 58.0713 49.8287 58.0046C49.6675 57.9378 49.521 57.84 49.3977 57.7166L49.0739 57.3928C48.4597 56.7754 47.7292 56.286 46.9247 55.9527C46.1201 55.6195 45.2575 55.4491 44.3867 55.4513H34.1883C33.9879 55.4513 33.7902 55.4646 33.5247 55.4845C32.0005 55.636 30.5756 56.3102 29.4918 57.3928L26.0136 60.8737L24.7755 59.6355C24.5266 59.3867 24.1891 59.247 23.8372 59.247C23.4854 59.247 23.1479 59.3867 22.899 59.6355L15.3892 67.1294C15.2658 67.2526 15.1679 67.399 15.1012 67.5601C15.0344 67.7212 15 67.8939 15 68.0683C15 68.2427 15.0344 68.4154 15.1012 68.5765C15.1679 68.7376 15.2658 68.8839 15.3892 69.0072L34.1524 87.785C34.2757 87.9084 34.4221 88.0063 34.5832 88.0731C34.7443 88.1398 34.9169 88.1742 35.0913 88.1742C35.2657 88.1742 35.4384 88.1398 35.5995 88.0731C35.7606 88.0063 35.907 87.9084 36.0302 87.785L43.5414 80.2739C43.7901 80.025 43.9299 79.6875 43.9299 79.3357C43.9299 78.9838 43.7901 78.6463 43.5414 78.3974L42.489 77.3451L42.7637 77.0704C43.013 76.8225 43.3504 76.6836 43.7019 76.6842H58.4322C59.598 76.6868 60.7434 76.378 61.7499 75.7898L82.3458 63.8993C83.1568 63.4374 83.8301 62.7679 84.2966 61.9595C84.763 61.1511 85.0058 60.2331 84.9999 59.2998C84.9999 58.3685 84.7561 57.4534 84.2926 56.6457ZM35.0907 84.973L18.2039 68.0729L23.8359 62.4489L40.7253 79.3383L35.0907 84.973ZM81.0201 61.6009L60.4135 73.4993C59.8126 73.8495 59.1291 74.0327 58.4336 74.0301H43.7033C43.18 74.0284 42.6617 74.1307 42.1783 74.3309C41.6949 74.5312 41.256 74.8254 40.8872 75.1966L40.6125 75.4713L27.8901 62.7501L31.3709 59.2692C32.0153 58.6245 32.8622 58.2215 33.7689 58.128C33.9149 58.116 34.0516 58.1054 34.1883 58.1054H44.3867C44.9088 58.1042 45.4261 58.2064 45.9085 58.4062C46.3909 58.6059 46.829 58.8993 47.1974 59.2692L47.5212 59.593C47.89 59.9642 48.3288 60.2585 48.8122 60.4587C49.2956 60.6589 49.814 60.7612 50.3372 60.7595H58.5132C59.1683 60.7585 59.8016 60.9942 60.2968 61.4231C60.7956 61.8601 61.1088 62.4709 61.1726 63.131C61.2158 63.5463 61.1551 63.9658 60.9961 64.3519C60.8744 64.7077 60.6707 65.03 60.4016 65.2928C60.1559 65.5396 59.8636 65.7352 59.5417 65.8682C59.2198 66.0013 58.8748 66.0691 58.5265 66.0678H49.7944C49.4425 66.0678 49.1049 66.2076 48.8561 66.4564C48.6072 66.7053 48.4674 67.0429 48.4674 67.3948C48.4674 67.7468 48.6072 68.0843 48.8561 68.3332C49.1049 68.582 49.4425 68.7219 49.7944 68.7219H58.5265C59.2237 68.7233 59.9142 68.5865 60.5582 68.3193C61.2021 68.0521 61.7867 67.6599 62.2781 67.1652C62.7089 66.7387 63.0599 66.2384 63.3145 65.6882L78.3606 57.0013C78.7464 56.7824 79.1805 56.6629 79.6239 56.6537C80.0673 56.6444 80.5061 56.7456 80.9006 56.9482C81.3583 57.1725 81.7386 57.5283 81.9928 57.9701C82.2244 58.374 82.3466 58.8315 82.3471 59.2971C82.3504 59.7644 82.2291 60.224 81.9959 60.6289C81.7627 61.0338 81.4259 61.3693 81.0201 61.6009Z" fill="white"/>
</svg>
