<svg width="78" height="70" viewBox="0 0 78 70" fill="none" xmlns="http://www.w3.org/2000/svg">
<path d="M60.9235 15.5577C60.1734 15.5581 59.4244 15.6083 58.681 15.7081C55.1879 4.05519 42.9096 -2.5597 31.2567 0.933352C22.3706 3.59697 16.1058 11.5426 15.5886 20.8049C15.1466 20.7635 14.702 20.7427 14.2587 20.7427C6.38384 20.7427 0 27.1266 0 35.0014C0 42.8762 6.38384 49.2601 14.2587 49.2601H16.8512V53.1488C16.8512 53.8647 17.4316 54.4451 18.1474 54.4451H20.7399V57.0376H18.1474C17.4316 57.0376 16.8512 57.618 16.8512 58.3338V68.7038C16.8512 69.4196 17.4316 70 18.1474 70H59.6272C60.3431 70 60.9235 69.4196 60.9235 68.7038V58.3338C60.9235 57.618 60.3431 57.0376 59.6272 57.0376H57.0347V54.4451H59.6272C60.3431 54.4451 60.9235 53.8647 60.9235 53.1488V49.2601C70.2302 49.2601 77.7747 41.7156 77.7747 32.4089C77.7747 23.1022 70.2302 15.5577 60.9235 15.5577ZM58.331 59.63V67.4075H19.4437V59.63H58.331ZM23.3324 57.0376V54.4451H54.4423V57.0376H23.3324ZM58.331 51.8526H19.4437V44.0751H58.331V51.8526ZM63.8389 46.3656C62.88 46.5662 61.9031 46.6673 60.9235 46.6676V42.7789C60.9235 42.063 60.3431 41.4826 59.6272 41.4826H46.6648V29.8164H58.5695C59.2853 31.8413 61.5073 32.9025 63.532 32.1864C65.5569 31.4706 66.618 29.2487 65.902 27.2239C65.1862 25.199 62.9642 24.1379 60.9395 24.8539C59.832 25.2454 58.961 26.1166 58.5695 27.2239H45.3685C44.6527 27.2239 44.0723 27.8043 44.0723 28.5202V41.4826H37.5911V16.854H43.0146C43.7304 18.8789 45.9523 19.94 47.9771 19.224C50.002 18.5082 51.0631 16.2862 50.3471 14.2615C49.6312 12.2366 47.4093 11.1755 45.3846 11.8915C44.2771 12.2829 43.406 13.1542 43.0146 14.2615H36.2948C35.579 14.2615 34.9986 14.8419 34.9986 15.5577V41.4826H28.5174V32.4089C28.5174 31.6931 27.937 31.1127 27.2211 31.1127H20.5014C19.7855 29.0878 17.5636 28.0266 15.5389 28.7427C13.5142 29.4587 12.4529 31.6804 13.1689 33.7052C13.8849 35.7299 16.1066 36.7912 18.1314 36.0752C19.2389 35.6837 20.1099 34.8125 20.5014 33.7052H25.9249V41.4826H18.1474C17.4316 41.4826 16.8512 42.063 16.8512 42.7789V46.6676H14.2587C7.81554 46.6676 2.59249 41.4444 2.59249 35.0014C2.59249 28.5583 7.81554 23.3352 14.2587 23.3352C15.0476 23.3359 15.8344 23.4152 16.6075 23.5724C16.9918 23.6476 17.3896 23.5473 17.6924 23.2989C17.9941 23.0484 18.1662 22.6748 18.1604 22.2827C18.1604 22.2567 18.1487 22.0649 18.1474 22.039C18.1403 11.3062 26.835 2.59984 37.5677 2.59271C46.5562 2.58671 54.3758 8.74565 56.4761 17.4853C56.6394 18.1666 57.3144 18.5948 58.0004 18.4523C65.7086 16.84 73.264 21.7817 74.8762 29.4898C76.4884 37.1979 71.5468 44.7534 63.8389 46.3656ZM60.9235 28.5202C60.9235 27.8043 61.5039 27.2239 62.2197 27.2239C62.9356 27.2239 63.516 27.8043 63.516 28.5202C63.516 29.236 62.9356 29.8164 62.2197 29.8164C61.5039 29.8164 60.9235 29.236 60.9235 28.5202ZM45.3685 15.5577C45.3685 14.8419 45.9489 14.2615 46.6648 14.2615C47.3806 14.2615 47.961 14.8419 47.961 15.5577C47.961 16.2736 47.3806 16.854 46.6648 16.854C45.9489 16.854 45.3685 16.2736 45.3685 15.5577ZM18.1474 32.4089C18.1474 33.1248 17.567 33.7052 16.8512 33.7052C16.1353 33.7052 15.5549 33.1248 15.5549 32.4089C15.5549 31.6931 16.1353 31.1127 16.8512 31.1127C17.567 31.1127 18.1474 31.6929 18.1474 32.4089Z" fill="#62CAD8"/>
</svg>
