<svg width="79" height="70" viewBox="0 0 79 70" fill="none" xmlns="http://www.w3.org/2000/svg">
<path d="M73.8316 0H4.74351C2.12797 0 0 2.12797 0 4.74351V52.444C0 55.0595 2.12797 57.1875 4.74351 57.1875H28.4173V60.639C28.4173 63.803 25.8431 66.3773 22.6791 66.3773H17.4616C16.4613 66.3773 15.6503 67.1882 15.6503 68.1886C15.6503 69.1891 16.4613 70 17.4616 70H61.1132C62.1135 70 62.9246 69.1891 62.9246 68.1886C62.9246 67.1882 62.1135 66.3773 61.1132 66.3773H55.8956C52.7316 66.3773 50.1573 63.803 50.1573 60.639V57.1877H73.8312C76.4467 57.1877 78.5748 55.0597 78.5748 52.4441V4.74351C78.5751 2.12797 76.4472 0 73.8316 0ZM30.0673 66.3776C31.3021 64.7913 32.0404 62.8006 32.0404 60.6393V57.1878H46.5349V60.6393C46.5349 62.8006 47.2732 64.7915 48.508 66.3776H30.0673ZM74.9524 52.4441C74.9524 53.0621 74.4496 53.5651 73.8315 53.5651H4.74351C4.1255 53.5651 3.62259 53.0623 3.62259 52.4441V42.9241H74.9524V52.4441ZM74.9524 39.3012H3.62274V4.74351C3.62274 4.1255 4.1255 3.62259 4.74367 3.62259H73.8315C74.4495 3.62259 74.9525 4.12535 74.9525 4.74351V39.3012H74.9524Z" fill="#62CAD8"/>
</svg>
