<svg width="76" height="70" viewBox="0 0 76 70" fill="none" xmlns="http://www.w3.org/2000/svg">
<path d="M71.7997 24.5185L62.025 14.7437C59.4449 12.1637 55.2464 12.1634 52.6662 14.7437L50.4853 16.9246L46.308 12.7473C45.0582 11.4973 43.3962 10.8089 41.6285 10.8089H36.3237C35.1074 10.8089 34.1178 9.81931 34.1178 8.60302V0H29.706V8.60302C29.706 12.252 32.6747 15.2207 36.3237 15.2207H41.6285C42.2178 15.2207 42.7716 15.4503 43.1884 15.867L47.3658 20.0443L45.1793 22.2307C42.599 24.8111 42.599 29.0093 45.1793 31.5895L49.7665 36.1767H30.1471V27.3531C30.1471 23.2987 26.8486 20.0002 22.7942 20.0002H17.7942C16.1724 20.0002 14.853 18.6808 14.853 17.059V16.6179C14.853 14.9961 16.1724 13.6767 17.7942 13.6767C21.8486 13.6767 25.1471 10.3782 25.1471 6.32379V0H20.7354V6.32349C20.7354 7.94532 19.416 9.26469 17.7942 9.26469C13.7398 9.26469 10.4413 12.5632 10.4413 16.6176V17.0587C10.4413 21.1131 13.7398 24.4116 17.7942 24.4116H22.7942C24.416 24.4116 25.7354 25.731 25.7354 27.3528V36.1764H0V70H55.8825V42.1996C58.0592 43.9644 60.718 44.8473 63.377 44.8473C66.4273 44.8473 69.4776 43.6862 71.7999 41.364C76.4442 36.7197 76.4442 29.163 71.7997 24.5185ZM51.4708 65.5886H4.41171V40.5884H51.4706V65.5886H51.4708ZM68.6802 38.2446C67.2636 39.6612 65.3804 40.4413 63.3768 40.4413C61.3733 40.4413 59.4901 39.6612 58.0735 38.2446L48.2987 28.4698C47.4386 27.6097 47.4386 26.2103 48.2987 25.3501L50.4824 23.1665L55.4737 28.1578L58.5933 25.0383L53.6019 20.0469L55.7856 17.8633C56.2157 17.4334 56.7806 17.2181 57.3454 17.2181C57.9104 17.2181 58.4752 17.4332 58.9053 17.8633L68.68 27.6381C70.0966 29.0546 70.8768 30.9379 70.8768 32.9414C70.8768 34.9449 70.0969 36.8282 68.6802 38.2446Z" fill="#62CAD8"/>
</svg>
