<svg width="1366" height="6560" viewBox="0 0 1366 6560" fill="none" xmlns="http://www.w3.org/2000/svg">
<rect y="3" width="1366" height="6560" fill="#0A0C2B"/>
<g opacity="0.02" filter="url(#filter0_i)">
<path d="M114.444 2434.55C177.791 2474.85 235.944 2521.7 300.742 2558.64C399.137 2613.56 512.58 2641.87 626.368 2640.2C688.784 2638.9 764.116 2635.05 796.336 2688.13C840.689 2760.53 760.007 2837.83 702.048 2873.49C616.62 2926.22 514.499 2926.41 424.275 2889.96C316.318 2845.32 243.593 2761.08 172.42 2672.34C145.455 2638.1 121.508 2602.35 88.8247 2574.05C56.7658 2545.22 19.6134 2521.8 -20.4408 2505.09C-68.8396 2484.89 -120.546 2476 -170.295 2458.02C-191.57 2450.73 -220.479 2431.93 -215.227 2405.19C-209.468 2372.72 -162.072 2365.15 -135.82 2361.84C-49.663 2353 43.9998 2389.7 114.444 2434.55Z" fill="white"/>
</g>
<g opacity="0.02" filter="url(#filter1_i)">
<path d="M628.608 1084.7C643.6 1056.29 647.974 1021.82 634.102 995.998C617.327 964.801 579.23 953.268 543.336 947.992C507.442 942.717 468.936 940.98 439.781 921.404C387.507 886.347 384.138 808.937 346.317 758.686C321.623 725.867 281.625 705.778 238.743 704.594C78.8108 700.233 -13.3077 908.741 16.3761 1038.16C40.413 1142.67 129.921 1218.67 233.917 1242.69C333.173 1265.67 451.904 1233.09 542.999 1171.03C550.113 1166.2 557.184 1161.1 564.001 1155.88C589.532 1136.12 613.721 1113.03 628.608 1084.7Z" fill="white"/>
</g>
<g opacity="0.02" filter="url(#filter2_i)">
<path d="M751.949 1377.54C752.404 1369.9 749.798 1362.28 745.625 1355.87C742.089 1350.42 736.221 1342.58 729.988 1340.03C722.115 1336.8 714.825 1342.09 707.225 1343.13C700.427 1344.06 693.392 1341.11 686.777 1342.84C682.02 1344.08 678.102 1347.67 675.733 1351.97C673.345 1356.27 672.361 1361.21 672.088 1366.11C671.541 1375.59 673.564 1385.17 677.756 1393.67C679.851 1397.91 682.786 1401.23 685.41 1405.07C688.071 1408.99 689.912 1412.35 694.759 1413.99C699.06 1415.43 704.017 1414.81 707.826 1412.35C711.234 1410.14 713.64 1406.64 716.957 1404.29C723.081 1399.95 731.227 1400.37 738.152 1398.11C746.937 1395.25 751.42 1386.49 751.949 1377.54Z" fill="white"/>
</g>
<g opacity="0.01" filter="url(#filter3_i)">
<path d="M820.005 1402.72C815.513 1400.75 810.553 1400.4 806.662 1402.06C802.268 1403.95 799.509 1408.32 799.067 1413.31C798.625 1418.3 800.393 1423.81 803.541 1428.52C807.219 1434.03 813.038 1438.61 819.156 1439.74C825.832 1440.97 832.083 1437.74 834.621 1432.23C836.363 1428.46 836.398 1423.76 835.045 1419.25C833.754 1414.93 831.517 1411.92 828.263 1408.57C825.876 1406.11 823.056 1404.05 820.005 1402.72Z" fill="white"/>
</g>
<g opacity="0.02" filter="url(#filter4_i)">
<path d="M780.505 3040.37C776.348 3045.14 774.208 3051.44 773.704 3057.75C773.27 3063.11 773.159 3071.21 775.957 3076.04C779.491 3082.14 786.943 3082.38 792.452 3085.55C797.38 3088.39 800.502 3093.89 805.715 3096.11C809.461 3097.71 813.845 3097.35 817.572 3095.74C821.311 3094.13 824.452 3091.4 827.108 3088.33C832.255 3082.41 835.772 3075.11 837.314 3067.43C838.085 3063.59 837.837 3059.93 838.059 3056.09C838.293 3052.18 838.781 3049.05 836.43 3045.52C834.336 3042.4 830.772 3040.29 827.031 3039.97C823.682 3039.68 820.336 3040.75 816.973 3040.61C810.765 3040.34 805.634 3035.94 799.95 3033.9C792.743 3031.32 785.373 3034.79 780.505 3040.37Z" fill="white"/>
</g>
<g opacity="0.03" filter="url(#filter5_i)">
<path d="M304.214 2323.97C301.952 2323.39 299.787 2322.38 298.066 2320.86C294.452 2317.54 293.051 2312.32 294.07 2307.81C296.076 2298.52 306.298 2293.77 315.436 2294.24C320.153 2294.55 325.173 2297.05 327.192 2301.4C328.559 2304.28 328.428 2307.77 327.309 2310.64C326.191 2313.51 324.163 2315.84 321.964 2317.89C318.863 2320.82 315.073 2323.26 310.758 2324.09C308.663 2324.42 306.398 2324.48 304.214 2323.97Z" fill="white"/>
</g>
<g opacity="0.02" filter="url(#filter6_i)">
<path d="M596.443 2289.95C604.559 2287.67 614.504 2284.06 620.43 2274.81C624.673 2268.3 625.078 2261.09 622.611 2257.02C620.145 2252.94 615.484 2251.41 610.659 2250.67C593.697 2248.15 542.164 2258.97 525.063 2289.32C504.486 2325.68 584.194 2293.46 596.443 2289.95Z" fill="white"/>
</g>
<g opacity="0.02" filter="url(#filter7_i)">
<path d="M743.882 2185.21C655.973 2109.88 713.625 1960.3 824.078 1950.33C857.779 1947.58 893.021 1956.93 924.25 1943.68C965.775 1925.96 982.739 1874.54 982.79 1829.09C982.959 1783.29 971.181 1737.91 977.257 1692.66C987.775 1613.53 1072.35 1574.78 1144.43 1576.71C1223.55 1579.19 1298.17 1627.87 1340.12 1696.23C1382.18 1764.24 1393.65 1849.2 1379.83 1927.94C1364.64 2016.21 1316.63 2101.38 1240.6 2147.38C1198.74 2172.68 1149 2184.42 1100.49 2180.4C1061.98 2177.22 1025.18 2156.91 986.857 2156.49C947.06 2155.94 920.01 2188.01 885.236 2202.71C845.425 2219.88 798.568 2219.91 761.003 2197.41C755.025 2193.76 749.165 2189.77 743.882 2185.21Z" fill="white"/>
</g>
<g opacity="0.05" filter="url(#filter8_i)">
<path d="M459.521 3764.45C468.59 3764.94 480.957 3766.77 487.127 3757.58C491.683 3750.77 496.072 3740.47 504.011 3750.13C508.931 3756.13 510.392 3766.05 510.49 3773.88C510.676 3795.53 496.688 3815.28 478.3 3823.77C460.324 3832.06 435.638 3831.59 423.898 3813.14C419.67 3806.46 417.439 3797.69 418.887 3789.6C422.185 3770.64 443.937 3763.61 459.521 3764.45Z" fill="white"/>
</g>
<defs>
<filter id="filter0_i" x="-215.853" y="2360.52" width="1034.98" height="564.947" filterUnits="userSpaceOnUse" color-interpolation-filters="sRGB">
<feFlood flood-opacity="0" result="BackgroundImageFix"/>
<feBlend mode="normal" in="SourceGraphic" in2="BackgroundImageFix" result="shape"/>
<feColorMatrix in="SourceAlpha" type="matrix" values="0 0 0 0 0 0 0 0 0 0 0 0 0 0 0 0 0 0 127 0" result="hardAlpha"/>
<feOffset dx="10" dy="10"/>
<feGaussianBlur stdDeviation="75"/>
<feComposite in2="hardAlpha" operator="arithmetic" k2="-1" k3="1"/>
<feColorMatrix type="matrix" values="0 0 0 0 0.152941 0 0 0 0 0.160784 0 0 0 0 0.380392 0 0 0 1 0"/>
<feBlend mode="normal" in2="shape" result="effect1_innerShadow"/>
</filter>
<filter id="filter1_i" x="10.8487" y="704.527" width="651.642" height="565.541" filterUnits="userSpaceOnUse" color-interpolation-filters="sRGB">
<feFlood flood-opacity="0" result="BackgroundImageFix"/>
<feBlend mode="normal" in="SourceGraphic" in2="BackgroundImageFix" result="shape"/>
<feColorMatrix in="SourceAlpha" type="matrix" values="0 0 0 0 0 0 0 0 0 0 0 0 0 0 0 0 0 0 127 0" result="hardAlpha"/>
<feOffset dx="20" dy="20"/>
<feGaussianBlur stdDeviation="100"/>
<feComposite in2="hardAlpha" operator="arithmetic" k2="-1" k3="1"/>
<feColorMatrix type="matrix" values="0 0 0 0 0.152941 0 0 0 0 0.160784 0 0 0 0 0.380392 0 0 0 1 0"/>
<feBlend mode="multiply" in2="shape" result="effect1_innerShadow"/>
</filter>
<filter id="filter2_i" x="672" y="1339" width="80" height="80.7508" filterUnits="userSpaceOnUse" color-interpolation-filters="sRGB">
<feFlood flood-opacity="0" result="BackgroundImageFix"/>
<feBlend mode="normal" in="SourceGraphic" in2="BackgroundImageFix" result="shape"/>
<feColorMatrix in="SourceAlpha" type="matrix" values="0 0 0 0 0 0 0 0 0 0 0 0 0 0 0 0 0 0 127 0" result="hardAlpha"/>
<feOffset dy="5"/>
<feGaussianBlur stdDeviation="10"/>
<feComposite in2="hardAlpha" operator="arithmetic" k2="-1" k3="1"/>
<feColorMatrix type="matrix" values="0 0 0 0 0.152941 0 0 0 0 0.160784 0 0 0 0 0.380392 0 0 0 1 0"/>
<feBlend mode="normal" in2="shape" result="effect1_innerShadow"/>
</filter>
<filter id="filter3_i" x="799" y="1401" width="40" height="42" filterUnits="userSpaceOnUse" color-interpolation-filters="sRGB">
<feFlood flood-opacity="0" result="BackgroundImageFix"/>
<feBlend mode="normal" in="SourceGraphic" in2="BackgroundImageFix" result="shape"/>
<feColorMatrix in="SourceAlpha" type="matrix" values="0 0 0 0 0 0 0 0 0 0 0 0 0 0 0 0 0 0 127 0" result="hardAlpha"/>
<feOffset dx="3" dy="3"/>
<feGaussianBlur stdDeviation="2.5"/>
<feComposite in2="hardAlpha" operator="arithmetic" k2="-1" k3="1"/>
<feColorMatrix type="matrix" values="0 0 0 0 0.152941 0 0 0 0 0.160784 0 0 0 0 0.380392 0 0 0 1 0"/>
<feBlend mode="normal" in2="shape" result="effect1_innerShadow"/>
</filter>
<filter id="filter4_i" x="773.47" y="3033.03" width="64.7961" height="69.1086" filterUnits="userSpaceOnUse" color-interpolation-filters="sRGB">
<feFlood flood-opacity="0" result="BackgroundImageFix"/>
<feBlend mode="normal" in="SourceGraphic" in2="BackgroundImageFix" result="shape"/>
<feColorMatrix in="SourceAlpha" type="matrix" values="0 0 0 0 0 0 0 0 0 0 0 0 0 0 0 0 0 0 127 0" result="hardAlpha"/>
<feOffset dy="5"/>
<feGaussianBlur stdDeviation="10"/>
<feComposite in2="hardAlpha" operator="arithmetic" k2="-1" k3="1"/>
<feColorMatrix type="matrix" values="0 0 0 0 0.152941 0 0 0 0 0.160784 0 0 0 0 0.380392 0 0 0 1 0"/>
<feBlend mode="normal" in2="shape" result="effect1_innerShadow"/>
</filter>
<filter id="filter5_i" x="293.746" y="2294.21" width="34.4364" height="34.1379" filterUnits="userSpaceOnUse" color-interpolation-filters="sRGB">
<feFlood flood-opacity="0" result="BackgroundImageFix"/>
<feBlend mode="normal" in="SourceGraphic" in2="BackgroundImageFix" result="shape"/>
<feColorMatrix in="SourceAlpha" type="matrix" values="0 0 0 0 0 0 0 0 0 0 0 0 0 0 0 0 0 0 127 0" result="hardAlpha"/>
<feOffset dy="4"/>
<feGaussianBlur stdDeviation="10"/>
<feComposite in2="hardAlpha" operator="arithmetic" k2="-1" k3="1"/>
<feColorMatrix type="matrix" values="0 0 0 0 0.152941 0 0 0 0 0.160784 0 0 0 0 0.380392 0 0 0 1 0"/>
<feBlend mode="normal" in2="shape" result="effect1_innerShadow"/>
</filter>
<filter id="filter6_i" x="521.687" y="2250.31" width="102.444" height="60.1511" filterUnits="userSpaceOnUse" color-interpolation-filters="sRGB">
<feFlood flood-opacity="0" result="BackgroundImageFix"/>
<feBlend mode="normal" in="SourceGraphic" in2="BackgroundImageFix" result="shape"/>
<feColorMatrix in="SourceAlpha" type="matrix" values="0 0 0 0 0 0 0 0 0 0 0 0 0 0 0 0 0 0 127 0" result="hardAlpha"/>
<feOffset dy="4"/>
<feGaussianBlur stdDeviation="10"/>
<feComposite in2="hardAlpha" operator="arithmetic" k2="-1" k3="1"/>
<feColorMatrix type="matrix" values="0 0 0 0 0.152941 0 0 0 0 0.160784 0 0 0 0 0.380392 0 0 0 1 0"/>
<feBlend mode="normal" in2="shape" result="effect1_innerShadow"/>
</filter>
<filter id="filter7_i" x="701.049" y="1576.64" width="704.342" height="658.361" filterUnits="userSpaceOnUse" color-interpolation-filters="sRGB">
<feFlood flood-opacity="0" result="BackgroundImageFix"/>
<feBlend mode="normal" in="SourceGraphic" in2="BackgroundImageFix" result="shape"/>
<feColorMatrix in="SourceAlpha" type="matrix" values="0 0 0 0 0 0 0 0 0 0 0 0 0 0 0 0 0 0 127 0" result="hardAlpha"/>
<feOffset dx="20" dy="20"/>
<feGaussianBlur stdDeviation="100"/>
<feComposite in2="hardAlpha" operator="arithmetic" k2="-1" k3="1"/>
<feColorMatrix type="matrix" values="0 0 0 0 0.14902 0 0 0 0 0.160784 0 0 0 0 0.376471 0 0 0 1 0"/>
<feBlend mode="normal" in2="shape" result="effect1_innerShadow"/>
</filter>
<filter id="filter8_i" x="418.446" y="3746.19" width="97.0461" height="87.7333" filterUnits="userSpaceOnUse" color-interpolation-filters="sRGB">
<feFlood flood-opacity="0" result="BackgroundImageFix"/>
<feBlend mode="normal" in="SourceGraphic" in2="BackgroundImageFix" result="shape"/>
<feColorMatrix in="SourceAlpha" type="matrix" values="0 0 0 0 0 0 0 0 0 0 0 0 0 0 0 0 0 0 127 0" result="hardAlpha"/>
<feOffset dx="5" dy="5"/>
<feGaussianBlur stdDeviation="75"/>
<feComposite in2="hardAlpha" operator="arithmetic" k2="-1" k3="1"/>
<feColorMatrix type="matrix" values="0 0 0 0 0.14902 0 0 0 0 0.160784 0 0 0 0 0.376471 0 0 0 1 0"/>
<feBlend mode="normal" in2="shape" result="effect1_innerShadow"/>
</filter>
</defs>
</svg>
