<svg width="122" height="90" viewBox="0 0 122 90" fill="none" xmlns="http://www.w3.org/2000/svg">
<path d="M120.838 24.8619L97.2923 1.31543C96.5351 0.558067 95.3076 0.558067 94.55 1.31543L82.7768 13.0885C82.4133 13.452 82.2092 13.9453 82.2092 14.4596C82.2092 14.9739 82.4133 15.4671 82.7768 15.8306L83.9513 17.0051L81.2524 19.7035C79.5003 21.4549 76.7817 21.933 74.4878 20.8918C72.3371 19.9155 69.9462 19.3998 67.5731 19.3998C64.7553 19.3998 62.0016 20.1071 59.555 21.4469C58.5347 21.1955 57.4876 21.0667 56.43 21.0667C54.9006 21.0667 53.3984 21.3307 51.9652 21.8516C49.6768 22.683 47.2237 22.1677 45.5622 20.5067L40.7162 15.6604L41.2933 15.0832C41.6568 14.7197 41.861 14.2265 41.861 13.7122C41.861 13.1979 41.6568 12.7046 41.2933 12.3411L29.5202 0.568026C28.7626 -0.189342 27.5353 -0.189342 26.7779 0.568026L0.567848 26.7781C-0.189283 27.5354 -0.189283 28.763 0.567848 29.5201L12.3407 41.2932C12.7045 41.657 13.1974 41.8612 13.712 41.8612C14.2265 41.8612 14.7193 41.657 15.0833 41.2932L15.7854 40.5911L19.2033 44.009C20.0657 44.8714 20.6374 45.9482 20.8562 47.1227C21.9911 53.2127 24.9077 58.7492 29.2907 63.1346L29.9345 63.7783C28.6981 65.0804 28.018 66.7767 28.018 68.5789C28.018 70.4429 28.7441 72.1955 30.062 73.5136C31.4226 74.8742 33.2093 75.5543 34.9968 75.5543C35.1132 75.5543 35.2292 75.5512 35.3456 75.5453C35.2512 77.4468 35.9284 79.3795 37.3772 80.8288C38.6954 82.147 40.448 82.8728 42.312 82.8728C42.3639 82.8728 42.4156 82.8702 42.4675 82.869C42.4277 84.7065 43.1056 86.5567 44.5047 87.956C45.8228 89.2744 47.5754 90 49.4396 90C51.3036 90 53.056 89.2739 54.3744 87.956C54.4854 87.845 54.5899 87.7303 54.6921 87.6141C55.3786 87.8533 56.1047 87.9807 56.8386 87.9807C58.5821 87.9807 60.2201 87.3013 61.4484 86.069C62.1022 85.4155 62.5982 84.6467 62.9212 83.8095L63.1197 84.0079C64.3904 85.2787 66.0595 85.9141 67.7286 85.9141C69.3977 85.9141 71.0668 85.2787 72.3376 84.0079C73.0129 83.3326 73.5203 82.5352 73.8419 81.6656C74.9793 82.493 76.3259 82.9072 77.6733 82.9072C79.3424 82.9072 81.0124 82.2719 82.2843 81.0017C83.5153 79.7708 84.1932 78.1332 84.1932 76.3909C84.1932 75.8644 84.1301 75.3482 84.0099 74.8491C85.2517 74.5968 86.3927 73.9872 87.3083 73.0704C88.5392 71.8395 89.2171 70.2027 89.2171 68.4615C89.2171 67.0898 88.7945 65.7839 88.0142 64.6889L89.5697 63.1334C94.0036 58.6973 96.9328 53.0913 98.0409 46.9211C98.2265 45.888 98.7382 44.9283 99.5212 44.1451L105.307 38.3598L106.324 39.3768C106.702 39.7555 107.199 39.9447 107.695 39.9447C108.191 39.9447 108.687 39.7555 109.066 39.3768L120.839 27.6037C121.203 27.2402 121.407 26.747 121.407 26.2327C121.407 25.7184 121.202 25.2256 120.838 24.8619ZM13.712 37.1804L4.68097 28.1493L28.1487 4.68162L37.18 13.7126L13.712 37.1804ZM37.1892 70.772C35.9806 71.9804 34.0137 71.9809 32.8041 70.772C32.2184 70.1861 31.8959 69.4076 31.8959 68.5793C31.8959 67.7513 32.2187 66.9726 32.8043 66.3869C33.4088 65.7825 34.2024 65.4802 34.9965 65.4802C35.7904 65.4802 36.5848 65.7825 37.189 66.3869C38.3978 67.5958 38.3978 69.5629 37.1892 70.772ZM44.5039 78.0868C43.9187 78.6727 43.1403 78.9949 42.3115 78.9949C41.4835 78.9949 40.7048 78.6722 40.1193 78.0868C38.9102 76.8779 38.9102 74.9107 40.1193 73.7017C40.7237 73.0972 41.5174 72.7949 42.3117 72.7949C43.1054 72.7949 43.8998 73.0972 44.5039 73.7017C45.7133 74.9105 45.7133 76.8779 44.5039 78.0868ZM51.6314 85.2139C51.0457 85.7996 50.2672 86.1221 49.4392 86.1221C48.6109 86.1221 47.8322 85.7994 47.2467 85.2139C46.0376 84.0051 46.0376 82.0379 47.2467 80.8288C47.8512 80.2244 48.6448 79.9221 49.4392 79.9221C50.2328 79.9221 51.0272 80.2244 51.6314 80.8288C52.8404 82.0379 52.8404 84.0051 51.6314 85.2139ZM84.5648 70.3293C84.0663 70.8282 83.4036 71.103 82.6988 71.103C81.9941 71.103 81.3314 70.8282 80.832 70.3281L62.0211 51.5215C61.2633 50.7644 60.0359 50.7646 59.2788 51.522C58.5219 52.2791 58.5221 53.5069 59.2792 54.2641L79.5416 74.5242C80.0402 75.0227 80.3146 75.6857 80.3146 76.3909C80.3146 77.0975 80.04 77.7612 79.5423 78.2589C78.5115 79.2887 76.8353 79.289 75.8062 78.2596L72.3878 74.8413C72.3689 74.8216 72.3504 74.8017 72.3307 74.7822C72.325 74.7765 72.3186 74.7716 72.3127 74.7659L56.5993 59.0525C55.8417 58.2954 54.6143 58.2954 53.857 59.0525C53.0996 59.8096 53.0996 61.0374 53.857 61.7946L69.6208 77.5582C70.1027 78.0521 70.368 78.7056 70.368 79.399C70.368 80.1042 70.0932 80.7672 69.5948 81.2656C68.5661 82.295 66.8913 82.295 65.8618 81.2656L48.7688 64.1724C48.0112 63.4151 46.7839 63.4151 46.0265 64.1724C45.2691 64.9296 45.2691 66.1574 46.0265 66.9145L58.6969 79.5851C58.7004 79.5887 58.7033 79.5927 58.7071 79.596C59.2053 80.0933 59.4794 80.7551 59.4794 81.4596C59.4794 82.1645 59.2048 82.8275 58.7042 83.3281C58.2065 83.827 57.544 84.1018 56.8381 84.1018C56.6676 84.1018 56.5009 84.0843 56.3377 84.0535C56.6515 81.94 55.9972 79.7094 54.3739 78.0858C53.0557 76.7679 51.3032 76.0418 49.4392 76.0418C49.3872 76.0418 49.3355 76.0444 49.2836 76.0456C49.3234 74.2081 48.6458 72.3579 47.2465 70.9586C45.9281 69.6407 44.1758 68.9146 42.3115 68.9146C42.1948 68.9146 42.0789 68.9175 41.9632 68.9232C42.0564 67.0229 41.3792 65.0918 39.931 63.6434C38.1683 61.8809 35.6904 61.2618 33.4235 61.7827L32.033 60.3922C28.2058 56.5634 25.6596 51.729 24.6687 46.4115C24.3057 44.464 23.364 42.6847 21.9458 41.2662L18.5277 37.8481L37.9741 18.4017L42.8204 23.248C44.6832 25.1109 47.2195 26.1077 49.8171 26.1077C50.9805 26.1077 52.1568 25.9076 53.29 25.4957C53.8397 25.2958 54.4081 25.1524 54.984 25.0613L42.9781 37.0675C41.5091 38.5362 40.7 40.4892 40.7 42.5666C40.7 44.6438 41.5091 46.5967 42.9778 48.0655C44.494 49.5816 46.4849 50.3395 48.4767 50.3392C50.468 50.3392 52.4596 49.5809 53.976 48.0655L60.006 42.0354L61.6381 43.6687C61.6386 43.6692 61.6388 43.6694 61.6393 43.6699L61.7071 43.7377L61.7724 43.8029C61.7726 43.8032 61.7731 43.8037 61.7735 43.8039L61.7747 43.8051C61.7935 43.8236 61.8117 43.8411 61.83 43.8587L84.5655 66.5942C85.0641 67.0926 85.3385 67.7556 85.3385 68.4608C85.3385 69.1672 85.0641 69.8302 84.5648 70.3293ZM96.7782 41.4033C95.4328 42.7489 94.5492 44.4202 94.2234 46.2361C93.256 51.6235 90.6982 56.5186 86.8269 60.3918L85.3368 61.8821L73.0703 49.6155C73.3368 49.6352 73.6045 49.6482 73.8741 49.6482C75.1162 49.6482 76.3871 49.4306 77.6524 48.9129C78.6436 48.5074 79.1183 47.3752 78.7128 46.3843C78.3073 45.3933 77.176 44.9184 76.1841 45.3239C71.1937 47.3657 65.2106 41.7386 64.5445 41.09C64.5334 41.0791 64.5223 41.0685 64.5109 41.058L64.4421 40.9893C64.4419 40.989 64.4416 40.989 64.4414 40.9888L64.3814 40.929C64.3812 40.9288 64.3807 40.9283 64.3802 40.9281L62.7479 39.2945L64.5988 37.4433C65.3564 36.686 65.3564 35.4584 64.5991 34.701C63.8417 33.9441 62.6141 33.9439 61.857 34.701L58.6393 37.9188C58.6381 37.92 58.6366 37.9211 58.6355 37.9223C58.6343 37.9235 58.6331 37.9249 58.6319 37.9261L51.2337 45.3243C49.7133 46.8445 47.2401 46.844 45.7201 45.3243C44.9839 44.5881 44.5784 43.609 44.5784 42.5675C44.5784 41.5261 44.9839 40.547 45.7204 39.8108L58.4899 27.0408C59.2003 26.3306 59.9899 25.7058 60.8386 25.1825C62.8548 23.9362 65.1836 23.2774 67.5731 23.2774C69.3972 23.2774 71.234 23.6734 72.8853 24.423C76.6418 26.1274 81.1066 25.3333 83.9947 22.4458L86.6939 19.7472L102.564 35.6175L96.7782 41.4033ZM107.694 35.2642L86.89 14.4601L95.9212 5.42903L116.725 26.2332L107.694 35.2642Z" fill="#62CAD8"/>
</svg>
