<svg width="121" height="70" viewBox="0 0 121 70" fill="none" xmlns="http://www.w3.org/2000/svg">
<path d="M114.7 53.6812C112.089 50.5521 109.14 47.7582 106.287 45.0563C105.284 44.1066 104.247 43.1245 103.248 42.1494C103.248 42.1492 103.248 42.149 103.248 42.1487C101.904 40.8384 101.247 39.9084 101.178 39.2215C101.111 38.5463 101.572 37.5445 102.633 36.0638C104.22 33.8366 105.912 31.6056 107.548 29.4483C109.003 27.5306 110.506 25.5474 111.948 23.553L112.271 23.1052C115.083 19.213 117.991 15.1883 119.549 10.2838C119.994 8.87763 120.456 6.79671 119.341 4.96994C118.226 3.1427 116.159 2.60114 114.703 2.3531C113.991 2.23119 113.316 2.22111 112.688 2.22111L94.4465 2.20493C91.2928 2.15241 89.105 3.64722 87.9126 6.64901C86.9585 9.04642 85.8315 11.8248 84.5259 14.4604C82.0279 19.5485 78.8538 25.4089 74.2531 30.2916L74.0487 30.5091C73.7354 30.8435 73.2236 31.3902 72.9608 31.5156C72.4624 31.2024 71.8873 29.411 71.9136 28.4725C71.9143 28.4493 71.9145 28.4264 71.9145 28.4034L71.8983 7.32632C71.8983 7.21918 71.8908 7.11204 71.8765 7.00584C71.4674 3.99888 70.6699 0.984423 65.9107 0.0452475C65.7581 0.0150045 65.6029 0 65.4477 0H46.4731C42.9032 0 41.015 1.63477 39.5012 3.40715C39.0631 3.92386 37.8988 5.29581 38.492 6.97301C39.0921 8.67014 40.8805 9.00891 41.4675 9.12004C43.5353 9.51249 44.6046 10.6812 44.9356 12.9154C45.5899 17.2566 45.6701 21.9007 45.1883 27.5233C45.054 29.0329 44.8041 30.1802 44.4009 31.1344C44.2893 31.3986 44.1913 31.5623 44.1228 31.6586C44.0136 31.6145 43.8436 31.5301 43.6082 31.3691C42.1551 30.3748 41.06 28.8291 40.0011 27.3348C35.7713 21.3628 32.2134 14.767 29.1227 7.1676C27.8499 4.05351 25.4572 2.31418 22.3898 2.26917C16.5456 2.17187 11.1405 2.17422 5.8712 2.27667C3.38588 2.31981 1.64304 3.10214 0.690265 4.60233C-0.263681 6.10534 -0.228749 8.02167 0.794357 10.299C8.10802 26.5623 14.7488 38.3932 22.326 48.6604C27.6612 55.8887 33.0318 60.9062 39.2274 64.451C45.7369 68.1751 53.0783 70.0002 61.5951 70C62.5636 70 63.5489 69.9763 64.5474 69.9287C69.802 69.6894 71.9398 67.5993 72.1731 62.4817C72.3039 59.7769 72.605 57.5858 73.6494 55.6821C73.9415 55.1493 74.2711 54.792 74.5309 54.7266C74.8071 54.6576 75.2968 54.8267 75.8414 55.1804C76.8371 55.827 77.6945 56.7038 78.3994 57.4735C79.114 58.2558 79.8361 59.064 80.535 59.8454C82.022 61.5092 83.5597 63.2298 85.1708 64.8709C88.8148 68.5854 93.0155 70.2888 97.6614 69.932L114.355 69.9398C114.355 69.9398 114.356 69.9398 114.356 69.9398C114.409 69.9398 114.462 69.9381 114.515 69.9346C116.44 69.8064 118.105 68.7403 119.083 67.0092C120.26 64.9246 120.242 62.284 119.034 59.9431C117.774 57.5094 116.139 55.4146 114.7 53.6812ZM114.919 64.658C114.689 65.0657 114.405 65.14 114.258 65.1578L97.5681 65.1501C97.5677 65.1501 97.5672 65.1501 97.5665 65.1501C97.5006 65.1501 97.4347 65.1527 97.3693 65.1583C94.0813 65.4321 91.2865 64.2763 88.5838 61.5216C87.0508 59.9598 85.5509 58.2819 84.1004 56.6591C83.3935 55.8683 82.6628 55.0503 81.9285 54.2467C81.0179 53.2521 79.8924 52.1092 78.4461 51.1701C76.2808 49.7646 74.4864 49.807 73.3627 50.0902C72.2507 50.3704 70.6701 51.1698 69.4569 53.3839C67.8852 56.2486 67.5384 59.339 67.3973 62.2585C67.3157 64.044 67.0137 64.5157 66.8876 64.6355C66.7223 64.7926 66.17 65.0687 64.327 65.1529C55.4707 65.5693 48.0385 63.9833 41.6023 60.3009C36.0034 57.0975 31.1007 52.4961 26.1739 45.8213C18.8066 35.839 12.3242 24.2791 5.15616 8.33934C4.89639 7.76191 4.81621 7.40158 4.793 7.20863C4.97587 7.14861 5.33316 7.06961 5.95959 7.05812C11.1755 6.95707 16.524 6.95426 22.3155 7.05085C23.1083 7.06257 24.0112 7.30053 24.6948 8.97328C27.924 16.9136 31.6542 23.8238 36.0993 30.0993C37.2794 31.765 38.7485 33.8385 40.9074 35.3157C42.8849 36.6698 44.4897 36.6051 45.488 36.3125C46.4867 36.0197 47.8727 35.2062 48.8063 32.9959C49.4085 31.5712 49.7726 29.9669 49.9529 27.9399C50.468 21.9257 50.3766 16.9256 49.6657 12.2093C49.1647 8.83027 47.42 6.38926 44.6716 5.14273C45.1597 4.88859 45.7097 4.78262 46.4736 4.78262H65.2001C66.2537 5.01894 66.4623 5.29652 66.5338 5.39147C66.8372 5.79494 67.0107 6.74936 67.1167 7.49512L67.1326 28.3778C67.0904 30.3797 68.0633 34.8196 71.376 36.0371C71.4032 36.0471 71.4306 36.0565 71.4581 36.0654C74.4739 37.051 76.4688 34.922 77.5397 33.7782L77.7306 33.5752C82.7701 28.2264 86.1637 21.9766 88.815 16.5762C90.1968 13.7875 91.3671 10.903 92.3567 8.41648C92.8519 7.16948 93.3025 6.96411 94.3776 6.98685C94.3924 6.98732 94.4069 6.98732 94.4219 6.98732L112.686 7.00349C113.111 7.00349 113.554 7.00842 113.898 7.06726C114.768 7.21543 115.127 7.39595 115.245 7.47074C115.257 7.60929 115.254 8.00784 114.991 8.83965C113.667 13.0101 111.106 16.5535 108.396 20.305L108.072 20.7535C106.664 22.7022 105.177 24.6629 103.739 26.5593C102.081 28.7445 100.368 31.0038 98.7436 33.284C95.2706 38.1297 95.5758 41.3453 99.91 45.5728C100.934 46.5727 101.984 47.5672 103 48.5288C105.879 51.2561 108.599 53.8319 111.026 56.7404C112.296 58.2723 113.737 60.1119 114.787 62.1394C115.334 63.2007 115.2 64.1596 114.919 64.658Z" fill="#62CAD8"/>
</svg>
