<svg width="164" height="164" viewBox="0 0 164 164" fill="none" xmlns="http://www.w3.org/2000/svg">
<g clip-path="url(#clip0_135_810)">
<path d="M146.062 99.9376V8.96887C146.032 7.25263 145.326 5.61754 144.098 4.41827C142.87 3.21899 141.219 2.55223 139.503 2.56262H9.1225C7.40602 2.55223 5.75466 3.21899 4.52661 4.41827C3.29855 5.61754 2.59282 7.25263 2.5625 8.96887V134.531C2.59282 136.248 3.29855 137.883 4.52661 139.082C5.75466 140.281 7.40602 140.948 9.1225 140.938H146.062V99.9376Z" fill="white"/>
<path d="M139.503 2.56262H9.1225C7.40602 2.55223 5.75466 3.21899 4.52661 4.41827C3.29855 5.61755 2.59282 7.25263 2.5625 8.96887V28.1876H146.062V8.96887C146.032 7.25263 145.326 5.61755 144.098 4.41827C142.87 3.21899 141.219 2.55223 139.503 2.56262Z" fill="#E3EFFF"/>
<path d="M130.688 112.75C130.008 112.75 129.356 112.48 128.876 111.999C128.395 111.519 128.125 110.867 128.125 110.188V99.9375C128.125 99.2579 128.395 98.6061 128.876 98.1255C129.356 97.645 130.008 97.375 130.688 97.375C131.367 97.375 132.019 97.645 132.499 98.1255C132.98 98.6061 133.25 99.2579 133.25 99.9375V110.188C133.25 110.867 132.98 111.519 132.499 111.999C132.019 112.48 131.367 112.75 130.688 112.75ZM130.688 92.25C130.008 92.25 129.356 91.98 128.876 91.4995C128.395 91.0189 128.125 90.3671 128.125 89.6875V79.4375C128.125 78.7579 128.395 78.1061 128.876 77.6255C129.356 77.145 130.008 76.875 130.688 76.875C131.367 76.875 132.019 77.145 132.499 77.6255C132.98 78.1061 133.25 78.7579 133.25 79.4375V89.6875C133.25 90.3671 132.98 91.0189 132.499 91.4995C132.019 91.98 131.367 92.25 130.688 92.25ZM130.688 71.75C130.008 71.75 129.356 71.48 128.876 70.9995C128.395 70.5189 128.125 69.8671 128.125 69.1875V58.9375C128.125 58.2579 128.395 57.6061 128.876 57.1255C129.356 56.645 130.008 56.375 130.688 56.375C131.367 56.375 132.019 56.645 132.499 57.1255C132.98 57.6061 133.25 58.2579 133.25 58.9375V69.1875C133.25 69.8671 132.98 70.5189 132.499 70.9995C132.019 71.48 131.367 71.75 130.688 71.75Z" fill="#E3EFFF"/>
<path d="M130.688 51.25C130.008 51.25 129.356 50.98 128.876 50.4995C128.395 50.0189 128.125 49.3671 128.125 48.6875V46.125H125.562C124.883 46.125 124.231 45.855 123.751 45.3745C123.27 44.8939 123 44.2421 123 43.5625C123 42.8829 123.27 42.2311 123.751 41.7505C124.231 41.27 124.883 41 125.562 41H130.688C131.367 41 132.019 41.27 132.499 41.7505C132.98 42.2311 133.25 42.8829 133.25 43.5625V48.6875C133.25 49.3671 132.98 50.0189 132.499 50.4995C132.019 50.98 131.367 51.25 130.688 51.25Z" fill="#E3EFFF"/>
<path d="M116.251 46.125H106.936C106.256 46.125 105.604 45.855 105.124 45.3745C104.643 44.8939 104.373 44.2421 104.373 43.5625C104.373 42.8829 104.643 42.2311 105.124 41.7505C105.604 41.27 106.256 41 106.936 41H116.251C116.93 41 117.582 41.27 118.062 41.7505C118.543 42.2311 118.813 42.8829 118.813 43.5625C118.813 44.2421 118.543 44.8939 118.062 45.3745C117.582 45.855 116.93 46.125 116.251 46.125ZM97.6083 46.125H88.2936C87.614 46.125 86.9622 45.855 86.4817 45.3745C86.0011 44.8939 85.7311 44.2421 85.7311 43.5625C85.7311 42.8829 86.0011 42.2311 86.4817 41.7505C86.9622 41.27 87.614 41 88.2936 41H97.6083C98.2879 41 98.9397 41.27 99.4203 41.7505C99.9008 42.2311 100.171 42.8829 100.171 43.5625C100.171 44.2421 99.9008 44.8939 99.4203 45.3745C98.9397 45.855 98.2879 46.125 97.6083 46.125ZM78.9789 46.125H69.6514C68.9718 46.125 68.32 45.855 67.8395 45.3745C67.3589 44.8939 67.0889 44.2421 67.0889 43.5625C67.0889 42.8829 67.3589 42.2311 67.8395 41.7505C68.32 41.27 68.9718 41 69.6514 41H78.9661C79.6457 41 80.2975 41.27 80.7781 41.7505C81.2586 42.2311 81.5286 42.8829 81.5286 43.5625C81.5286 44.2421 81.2586 44.8939 80.7781 45.3745C80.2975 45.855 79.6457 46.125 78.9661 46.125H78.9789ZM60.3368 46.125H51.0221C50.3425 46.125 49.6907 45.855 49.2101 45.3745C48.7295 44.8939 48.4596 44.2421 48.4596 43.5625C48.4596 42.8829 48.7295 42.2311 49.2101 41.7505C49.6907 41.27 50.3425 41 51.0221 41H60.3368C61.0164 41 61.6682 41.27 62.1487 41.7505C62.6293 42.2311 62.8993 42.8829 62.8993 43.5625C62.8993 44.2421 62.6293 44.8939 62.1487 45.3745C61.6682 45.855 61.0164 46.125 60.3368 46.125ZM41.7074 46.125H32.3799C31.7003 46.125 31.0485 45.855 30.5679 45.3745C30.0874 44.8939 29.8174 44.2421 29.8174 43.5625C29.8174 42.8829 30.0874 42.2311 30.5679 41.7505C31.0485 41.27 31.7003 41 32.3799 41H41.6946C42.3742 41 43.026 41.27 43.5065 41.7505C43.9871 42.2311 44.2571 42.8829 44.2571 43.5625C44.2571 44.2421 43.9871 44.8939 43.5065 45.3745C43.026 45.855 42.3742 46.125 41.6946 46.125H41.7074Z" fill="#E3EFFF"/>
<path d="M17.9375 51.25C17.2579 51.25 16.6061 50.98 16.1255 50.4995C15.645 50.0189 15.375 49.3671 15.375 48.6875V43.5625C15.375 42.8829 15.645 42.2311 16.1255 41.7505C16.6061 41.27 17.2579 41 17.9375 41H23.0625C23.7421 41 24.3939 41.27 24.8745 41.7505C25.355 42.2311 25.625 42.8829 25.625 43.5625C25.625 44.2421 25.355 44.8939 24.8745 45.3745C24.3939 45.855 23.7421 46.125 23.0625 46.125H20.5V48.6875C20.5 49.3671 20.23 50.0189 19.7495 50.4995C19.2689 50.98 18.6171 51.25 17.9375 51.25Z" fill="#E3EFFF"/>
<path d="M17.9375 112.75C17.2579 112.75 16.6061 112.48 16.1255 111.999C15.645 111.519 15.375 110.867 15.375 110.188V99.9375C15.375 99.2579 15.645 98.6061 16.1255 98.1255C16.6061 97.645 17.2579 97.375 17.9375 97.375C18.6171 97.375 19.2689 97.645 19.7495 98.1255C20.23 98.6061 20.5 99.2579 20.5 99.9375V110.188C20.5 110.867 20.23 111.519 19.7495 111.999C19.2689 112.48 18.6171 112.75 17.9375 112.75ZM17.9375 92.25C17.2579 92.25 16.6061 91.98 16.1255 91.4995C15.645 91.0189 15.375 90.3671 15.375 89.6875V79.4375C15.375 78.7579 15.645 78.1061 16.1255 77.6255C16.6061 77.145 17.2579 76.875 17.9375 76.875C18.6171 76.875 19.2689 77.145 19.7495 77.6255C20.23 78.1061 20.5 78.7579 20.5 79.4375V89.6875C20.5 90.3671 20.23 91.0189 19.7495 91.4995C19.2689 91.98 18.6171 92.25 17.9375 92.25ZM17.9375 71.75C17.2579 71.75 16.6061 71.48 16.1255 70.9995C15.645 70.5189 15.375 69.8671 15.375 69.1875V58.9375C15.375 58.2579 15.645 57.6061 16.1255 57.1255C16.6061 56.645 17.2579 56.375 17.9375 56.375C18.6171 56.375 19.2689 56.645 19.7495 57.1255C20.23 57.6061 20.5 58.2579 20.5 58.9375V69.1875C20.5 69.8671 20.23 70.5189 19.7495 70.9995C19.2689 71.48 18.6171 71.75 17.9375 71.75Z" fill="#E3EFFF"/>
<path d="M23.0625 128.125H17.9375C17.2579 128.125 16.6061 127.855 16.1255 127.374C15.645 126.894 15.375 126.242 15.375 125.562V120.438C15.375 119.758 15.645 119.106 16.1255 118.626C16.6061 118.145 17.2579 117.875 17.9375 117.875C18.6171 117.875 19.2689 118.145 19.7495 118.626C20.23 119.106 20.5 119.758 20.5 120.438V123H23.0625C23.7421 123 24.3939 123.27 24.8745 123.751C25.355 124.231 25.625 124.883 25.625 125.562C25.625 126.242 25.355 126.894 24.8745 127.374C24.3939 127.855 23.7421 128.125 23.0625 128.125Z" fill="#E3EFFF"/>
<path d="M116.251 128.125H106.923C106.243 128.125 105.592 127.855 105.111 127.374C104.63 126.894 104.36 126.242 104.36 125.562C104.36 124.883 104.63 124.231 105.111 123.751C105.592 123.27 106.243 123 106.923 123H116.238C116.917 123 117.569 123.27 118.05 123.751C118.53 124.231 118.8 124.883 118.8 125.562C118.8 126.242 118.53 126.894 118.05 127.374C117.569 127.855 116.917 128.125 116.238 128.125H116.251ZM97.6211 128.125H88.2936C87.614 128.125 86.9622 127.855 86.4817 127.374C86.0011 126.894 85.7311 126.242 85.7311 125.562C85.7311 124.883 86.0011 124.231 86.4817 123.751C86.9622 123.27 87.614 123 88.2936 123H97.6083C98.2879 123 98.9397 123.27 99.4203 123.751C99.9008 124.231 100.171 124.883 100.171 125.562C100.171 126.242 99.9008 126.894 99.4203 127.374C98.9397 127.855 98.2879 128.125 97.6083 128.125H97.6211ZM78.9789 128.125H69.6514C68.9718 128.125 68.32 127.855 67.8395 127.374C67.3589 126.894 67.0889 126.242 67.0889 125.562C67.0889 124.883 67.3589 124.231 67.8395 123.751C68.32 123.27 68.9718 123 69.6514 123H78.9661C79.6457 123 80.2975 123.27 80.7781 123.751C81.2586 124.231 81.5286 124.883 81.5286 125.562C81.5286 126.242 81.2586 126.894 80.7781 127.374C80.2975 127.855 79.6457 128.125 78.9661 128.125H78.9789ZM60.3496 128.125H51.0221C50.3424 128.125 49.6907 127.855 49.2101 127.374C48.7295 126.894 48.4596 126.242 48.4596 125.562C48.4596 124.883 48.7295 124.231 49.2101 123.751C49.6907 123.27 50.3424 123 51.0221 123H60.3368C61.0164 123 61.6682 123.27 62.1487 123.751C62.6293 124.231 62.8993 124.883 62.8993 125.562C62.8993 126.242 62.6293 126.894 62.1487 127.374C61.6682 127.855 61.0164 128.125 60.3368 128.125H60.3496ZM41.7074 128.125H32.3799C31.7003 128.125 31.0485 127.855 30.5679 127.374C30.0874 126.894 29.8174 126.242 29.8174 125.562C29.8174 124.883 30.0874 124.231 30.5679 123.751C31.0485 123.27 31.7003 123 32.3799 123H41.6946C42.3742 123 43.026 123.27 43.5065 123.751C43.9871 124.231 44.2571 124.883 44.2571 125.562C44.2571 126.242 43.9871 126.894 43.5065 127.374C43.026 127.855 42.3742 128.125 41.6946 128.125H41.7074Z" fill="#E3EFFF"/>
<path d="M89.6875 89.6875L61.5 58.9375L33.3125 89.6875H48.6875V110.188H74.3125V89.6875H89.6875Z" fill="#67A8FF"/>
<path d="M74.3063 112.749H48.6813C48.0016 112.749 47.3499 112.479 46.8693 111.999C46.3887 111.518 46.1188 110.866 46.1188 110.187V92.2492H33.3063C32.8098 92.2478 32.3244 92.1022 31.9091 91.8301C31.4938 91.558 31.1665 91.1711 30.967 90.7164C30.7674 90.2617 30.7043 89.7589 30.7852 89.269C30.8662 88.7792 31.0877 88.3234 31.4228 87.957L59.6103 57.207C59.8562 56.9548 60.1501 56.7544 60.4747 56.6175C60.7993 56.4807 61.1479 56.4102 61.5002 56.4102C61.8524 56.4102 62.2011 56.4807 62.5257 56.6175C62.8502 56.7544 63.1441 56.9548 63.39 57.207L91.5775 87.957C91.9134 88.3242 92.1351 88.7811 92.2156 89.2722C92.2961 89.7632 92.2319 90.2671 92.0308 90.7223C91.8297 91.1774 91.5005 91.5642 91.0832 91.8353C90.666 92.1065 90.1789 92.2503 89.6813 92.2492H76.8688V110.187C76.8688 110.866 76.5988 111.518 76.1182 111.999C75.6377 112.479 74.9859 112.749 74.3063 112.749ZM51.2438 107.624H71.7438V89.6867C71.7438 89.0071 72.0137 88.3553 72.4943 87.8748C72.9749 87.3942 73.6267 87.1242 74.3063 87.1242H83.8516L61.4938 62.7805L39.136 87.1242H48.6813C49.3609 87.1242 50.0127 87.3942 50.4932 87.8748C50.9738 88.3553 51.2438 89.0071 51.2438 89.6867V107.624Z" fill="#67A8FF"/>
<path d="M146.062 30.75H2.5625C1.88288 30.75 1.2311 30.48 0.750539 29.9995C0.269977 29.5189 0 28.8671 0 28.1875C0 27.5079 0.269977 26.8561 0.750539 26.3755C1.2311 25.895 1.88288 25.625 2.5625 25.625H146.062C146.742 25.625 147.394 25.895 147.874 26.3755C148.355 26.8561 148.625 27.5079 148.625 28.1875C148.625 28.8671 148.355 29.5189 147.874 29.9995C147.394 30.48 146.742 30.75 146.062 30.75Z" fill="#CFE3FF"/>
<path d="M130.688 12.8125C130.181 12.8125 129.685 12.9628 129.264 13.2444C128.842 13.5259 128.514 13.9261 128.32 14.3944C128.126 14.8626 128.075 15.3778 128.174 15.8749C128.273 16.372 128.517 16.8286 128.876 17.187C129.234 17.5453 129.691 17.7894 130.188 17.8883C130.685 17.9871 131.2 17.9364 131.668 17.7424C132.136 17.5485 132.537 17.22 132.818 16.7986C133.1 16.3772 133.25 15.8818 133.25 15.375C133.25 14.6954 132.98 14.0436 132.499 13.563C132.019 13.0825 131.367 12.8125 130.688 12.8125Z" fill="#CFE3FF"/>
<path d="M120.438 12.8125C119.931 12.8125 119.435 12.9628 119.014 13.2444C118.592 13.5259 118.264 13.9261 118.07 14.3944C117.876 14.8626 117.825 15.3778 117.924 15.8749C118.023 16.372 118.267 16.8286 118.626 17.187C118.984 17.5453 119.441 17.7894 119.938 17.8883C120.435 17.9871 120.95 17.9364 121.418 17.7424C121.886 17.5485 122.287 17.22 122.568 16.7986C122.85 16.3772 123 15.8818 123 15.375C123 14.6954 122.73 14.0436 122.249 13.563C121.769 13.0825 121.117 12.8125 120.438 12.8125Z" fill="#CFE3FF"/>
<path d="M110.188 12.8125C109.681 12.8125 109.185 12.9628 108.764 13.2444C108.342 13.5259 108.014 13.9261 107.82 14.3944C107.626 14.8626 107.575 15.3778 107.674 15.8749C107.773 16.372 108.017 16.8286 108.376 17.187C108.734 17.5453 109.191 17.7894 109.688 17.8883C110.185 17.9871 110.7 17.9364 111.168 17.7424C111.636 17.5485 112.037 17.22 112.318 16.7986C112.6 16.3772 112.75 15.8818 112.75 15.375C112.75 14.6954 112.48 14.0436 111.999 13.563C111.519 13.0825 110.867 12.8125 110.188 12.8125Z" fill="#CFE3FF"/>
<path d="M79.4375 143.5H8.90469C6.53715 143.483 4.27233 142.531 2.6042 140.851C0.93606 139.17 -6.03959e-05 136.899 2.92253e-09 134.531V8.96875C-6.03959e-05 6.60115 0.93606 4.32957 2.6042 2.64943C4.27233 0.969291 6.53715 0.0169114 8.90469 0L139.72 0C142.088 0.0169114 144.353 0.969291 146.021 2.64943C147.689 4.32957 148.625 6.60115 148.625 8.96875V94.8125C148.625 95.4921 148.355 96.1439 147.874 96.6245C147.394 97.105 146.742 97.375 146.062 97.375C145.383 97.375 144.731 97.105 144.251 96.6245C143.77 96.1439 143.5 95.4921 143.5 94.8125V8.96875C143.5 7.96033 143.104 6.99224 142.397 6.27321C141.69 5.55418 140.729 5.14181 139.72 5.125H8.90469C7.8964 5.14181 6.93511 5.55418 6.22807 6.27321C5.52102 6.99224 5.12486 7.96033 5.125 8.96875V134.531C5.12486 135.54 5.52102 136.508 6.22807 137.227C6.93511 137.946 7.8964 138.358 8.90469 138.375H79.4375C80.1171 138.375 80.7689 138.645 81.2495 139.126C81.73 139.606 82 140.258 82 140.938C82 141.617 81.73 142.269 81.2495 142.749C80.7689 143.23 80.1171 143.5 79.4375 143.5Z" fill="#CFE3FF"/>
<path d="M161.438 161.438H89.6875V107.33V105.062H161.438V161.438Z" fill="#E3EFFF"/>
<path d="M161.438 164H89.6875C89.0079 164 88.3561 163.73 87.8755 163.249C87.395 162.769 87.125 162.117 87.125 161.438V105.062C87.125 104.383 87.395 103.731 87.8755 103.251C88.3561 102.77 89.0079 102.5 89.6875 102.5H161.438C162.117 102.5 162.769 102.77 163.249 103.251C163.73 103.731 164 104.383 164 105.062V161.438C164 162.117 163.73 162.769 163.249 163.249C162.769 163.73 162.117 164 161.438 164ZM92.25 158.875H158.875V107.625H92.25V158.875Z" fill="#CEE3FF"/>
<path d="M161.438 161.438L108.906 139.656L89.6875 150.637V161.438H161.438Z" fill="white"/>
<path d="M161.437 163.999H89.6875C89.0079 163.999 88.3561 163.729 87.8756 163.249C87.395 162.768 87.125 162.117 87.125 161.437V150.636C87.1232 150.184 87.2408 149.74 87.4658 149.349C87.6908 148.957 88.0152 148.632 88.4063 148.407L107.625 137.426C107.965 137.232 108.345 137.118 108.736 137.094C109.127 137.069 109.518 137.135 109.88 137.285L162.411 159.067C162.96 159.292 163.414 159.701 163.695 160.224C163.976 160.747 164.066 161.351 163.952 161.933C163.837 162.515 163.523 163.04 163.065 163.417C162.606 163.793 162.031 163.999 161.437 163.999ZM92.25 158.874H148.625L109.086 142.5L92.25 152.122V158.874Z" fill="#CFE3FF"/>
<path d="M118.167 143.501L138.795 132.226L161.435 143.462V161.438L118.167 143.501Z" fill="white"/>
<path d="M161.439 163.999C161.101 164.001 160.765 163.935 160.453 163.807L117.198 145.869C116.752 145.683 116.368 145.376 116.09 144.981C115.812 144.587 115.651 144.122 115.626 143.64C115.6 143.158 115.711 142.678 115.946 142.257C116.181 141.835 116.531 141.489 116.954 141.257L137.569 129.982C137.935 129.791 138.342 129.691 138.755 129.691C139.167 129.691 139.574 129.791 139.94 129.982L162.579 141.206C163.006 141.418 163.366 141.745 163.617 142.15C163.868 142.555 164.001 143.022 164.002 143.499V161.437C164.002 162.116 163.732 162.768 163.251 163.249C162.771 163.729 162.119 163.999 161.439 163.999ZM124.103 143.179L158.877 157.593V145.037L138.851 135.107L124.103 143.179Z" fill="#CFE3FF"/>
<path d="M112.75 130.688C116.996 130.688 120.438 127.246 120.438 123C120.438 118.754 116.996 115.312 112.75 115.312C108.504 115.312 105.062 118.754 105.062 123C105.062 127.246 108.504 130.688 112.75 130.688Z" fill="#F5F9FF"/>
<path d="M112.75 133.25C110.723 133.25 108.741 132.649 107.055 131.523C105.37 130.396 104.056 128.795 103.28 126.923C102.504 125.05 102.301 122.989 102.697 121C103.092 119.012 104.069 117.186 105.502 115.752C106.936 114.319 108.762 113.342 110.75 112.947C112.739 112.551 114.8 112.754 116.673 113.53C118.545 114.306 120.146 115.62 121.273 117.305C122.399 118.991 123 120.973 123 123C123 125.719 121.92 128.326 119.998 130.248C118.076 132.17 115.469 133.25 112.75 133.25ZM112.75 117.875C111.736 117.875 110.746 118.176 109.903 118.739C109.06 119.302 108.403 120.102 108.015 121.039C107.627 121.975 107.526 123.006 107.723 124C107.921 124.994 108.409 125.907 109.126 126.624C109.843 127.341 110.756 127.829 111.75 128.027C112.744 128.224 113.775 128.123 114.711 127.735C115.648 127.347 116.448 126.69 117.011 125.847C117.574 125.005 117.875 124.014 117.875 123C117.875 121.641 117.335 120.337 116.374 119.376C115.413 118.415 114.109 117.875 112.75 117.875Z" fill="#CFE3FF"/>
</g>
<defs>
<clipPath id="clip0_135_810">
<rect width="164" height="164" fill="white"/>
</clipPath>
</defs>
</svg>
