<svg width="80" height="73" viewBox="0 0 80 73" fill="none" xmlns="http://www.w3.org/2000/svg">
<path d="M64.95 0.262512H4.92361C2.20876 0.262512 0 2.47432 0 5.19293V55.2841C0 58.0027 2.20876 60.2144 4.92361 60.2144H44.2378C44.885 60.2144 45.4097 59.6889 45.4097 59.0409C45.4097 58.3928 44.885 57.8674 44.2378 57.8674H39.8603V50.275C39.8603 48.2782 38.671 46.4918 36.8304 45.724L30.6738 43.1551C30.177 42.9478 29.8559 42.4656 29.8559 41.9266V40.0943C31.4335 38.4876 32.357 36.2997 32.357 33.9954V28.9863C32.357 24.8867 28.4652 21.5513 23.6818 21.5513C18.8983 21.5513 15.0066 24.8866 15.0066 28.9863V33.9954C15.0066 36.2994 15.93 38.4874 17.5077 40.0943V41.9266C17.5077 42.4656 17.1866 42.9478 16.6897 43.1553L10.5333 45.724C8.69268 46.4919 7.5033 48.2783 7.5033 50.2751V57.8675H4.92361C3.5011 57.8675 2.34376 56.7086 2.34376 55.2843V15.1323H67.5297V34.6215C67.5297 35.2695 68.0544 35.7949 68.7016 35.7949C69.3488 35.7949 69.8735 35.2695 69.8735 34.6215V5.19293C69.8735 2.47432 67.6649 0.262512 64.95 0.262512ZM9.84706 50.275C9.84706 49.2287 10.4702 48.2927 11.4347 47.8903L17.5913 45.3216C18.9643 44.7487 19.8515 43.4161 19.8515 41.9266V41.6723C20.2816 41.6998 20.7108 41.4892 20.9416 41.0904C21.2658 40.5295 21.0747 39.8116 20.5147 39.4868C18.563 38.3552 17.3505 36.251 17.3505 33.9956V28.9865C17.3505 26.181 20.1908 23.8985 23.6819 23.8985C27.173 23.8985 30.0134 26.1809 30.0134 28.9865V33.9956C30.0134 36.252 28.8001 38.3566 26.8471 39.4882C26.2869 39.8127 26.0955 40.5306 26.4196 41.0917C26.6368 41.4676 27.0304 41.6778 27.4351 41.6778C27.4609 41.6778 27.4866 41.6745 27.5124 41.6728V41.9269C27.5124 43.4164 28.3996 44.7491 29.7727 45.3219L35.9293 47.8907C36.8937 48.293 37.5168 49.2292 37.5168 50.2753V57.8677H9.84706V50.275ZM67.5297 12.7853H2.34376V5.19293C2.34376 3.76846 3.5011 2.60951 4.92361 2.60951H64.95C66.3725 2.60951 67.5297 3.76846 67.5297 5.19293V12.7853Z" fill="#78b030"/>
<path d="M6.18592 6.52277H6.17342C5.52624 6.52277 5.00781 7.04869 5.00781 7.69741C5.00781 8.34613 5.53874 8.87206 6.18592 8.87206C6.8331 8.87206 7.35778 8.34613 7.35778 7.69741C7.35778 7.04869 6.8331 6.52277 6.18592 6.52277Z" fill="#78b030"/>
<path d="M13.6772 6.52277H13.6647C13.0175 6.52277 12.499 7.04869 12.499 7.69741C12.499 8.34613 13.03 8.87206 13.6772 8.87206C14.3243 8.87206 14.849 8.34613 14.849 7.69741C14.849 7.04869 14.3243 6.52277 13.6772 6.52277Z" fill="#78b030"/>
<path d="M9.92593 6.52277H9.91343C9.26624 6.52277 8.7478 7.04869 8.7478 7.69741C8.7478 8.34613 9.27874 8.87206 9.92593 8.87206C10.5731 8.87206 11.0978 8.34613 11.0978 7.69741C11.0978 7.04869 10.5731 6.52277 9.92593 6.52277Z" fill="#78b030"/>
<path d="M63.6983 6.52277H18.6785C18.0313 6.52277 17.5066 7.04869 17.5066 7.69741C17.5066 8.34613 18.0313 8.87206 18.6785 8.87206H63.6983C64.3455 8.87206 64.8702 8.34613 64.8702 7.69741C64.8702 7.04869 64.3455 6.52277 63.6983 6.52277Z" fill="#78b030"/>
<path d="M79.2137 42.5241L62.3313 36.6438C62.0819 36.5568 61.8107 36.5568 61.5613 36.6438L49.4208 40.8723C48.8095 41.0853 48.4864 41.7542 48.6989 42.3663C48.9116 42.9784 49.5795 43.3018 50.1906 43.0892L61.9461 38.9947L77.6006 44.4473C77.4642 45.9458 77.0051 49.3031 75.4829 53.3234C73.6273 58.2244 69.7794 65.0679 61.9461 70.173C54.1466 65.0895 50.3014 58.2829 48.442 53.4091C46.36 47.9517 46.2362 43.6491 46.2352 43.6063C46.2206 42.959 45.693 42.4473 45.0387 42.4592C44.3917 42.473 43.8783 43.0094 43.8919 43.6573C43.8959 43.8457 44.0147 48.3366 46.2177 54.1553C48.2495 59.522 52.5202 67.0714 61.3266 72.5602C61.5161 72.6784 61.731 72.7375 61.9458 72.7375C62.1607 72.7375 62.3755 72.6785 62.5651 72.5602C71.3715 67.0714 75.6421 59.522 77.674 54.1553C79.8771 48.3366 79.9959 43.8457 79.9998 43.6573C80.011 43.1488 79.6934 42.6911 79.2137 42.5241Z" fill="#78b030"/>
<path d="M69.5646 49.1424C69.107 48.6841 68.3649 48.6841 67.9074 49.1424L60.6618 56.3978L56.3522 52.0824C55.8946 51.6241 55.1526 51.6241 54.6951 52.0824C54.2374 52.5407 54.2374 53.2837 54.6951 53.7418L59.8332 58.8869C60.0619 59.1161 60.3619 59.2306 60.6618 59.2306C60.9616 59.2306 61.2616 59.1161 61.4904 58.8869L69.5646 50.8018C70.0223 50.3435 70.0223 49.6005 69.5646 49.1424Z" fill="#78b030"/>
<path d="M59.9474 20.2997H39.9385C38.6027 20.2997 37.5161 21.388 37.5161 22.7254V26.4823C37.5161 27.8199 38.6028 28.9079 39.9385 28.9079H59.9473C61.283 28.9081 62.3698 27.8199 62.3698 26.4823V22.7254C62.3698 21.3878 61.283 20.2997 59.9474 20.2997ZM60.0259 26.4823C60.0259 26.5258 59.9905 26.561 59.9473 26.561H39.9385C39.8952 26.5611 39.8599 26.5258 39.8599 26.4823V22.7254C39.8599 22.6819 39.8952 22.6467 39.9385 22.6467H59.9473C59.9907 22.6467 60.0259 22.6821 60.0259 22.7254V26.4823Z" fill="#78b030"/>
<path d="M54.9453 31.5693H39.9387C39.2915 31.5693 38.7668 32.0952 38.7668 32.7439C38.7668 33.3926 39.2915 33.9186 39.9387 33.9186H54.9453C55.5925 33.9186 56.1172 33.3926 56.1172 32.7439C56.1172 32.0952 55.5925 31.5693 54.9453 31.5693Z" fill="#78b030"/>
<path d="M48.6926 36.5786H39.9387C39.2915 36.5786 38.7668 37.1042 38.7668 37.7526C38.7668 38.401 39.2915 38.9267 39.9387 38.9267H48.6926C49.3398 38.9267 49.8645 38.401 49.8645 37.7526C49.8645 37.1042 49.3398 36.5786 48.6926 36.5786Z" fill="#78b030"/>
</svg>
