<svg width="80" height="80" viewBox="0 0 80 80" fill="none" xmlns="http://www.w3.org/2000/svg">
<path d="M72.1875 6.875H64.7395V4.6875C64.7395 2.10281 62.6367 0 60.052 0C57.4673 0 55.3645 2.10281 55.3645 4.6875V6.875H29.1145V4.6875C29.1145 2.10281 27.0117 0 24.427 0C21.8423 0 19.7395 2.10281 19.7395 4.6875V6.93281C19.6067 6.89609 19.4675 6.875 19.323 6.875H13.0973C8.78953 6.875 5.28484 10.3797 5.28484 14.6875V41.302C5.28484 42.165 5.98453 42.8645 6.84734 42.8645C7.71016 42.8645 8.40984 42.165 8.40984 41.302V22.9688H64.7395C65.6023 22.9688 66.302 22.2692 66.302 21.4062C66.302 20.5433 65.6023 19.8438 64.7395 19.8438H8.40984V14.6875C8.40984 12.1028 10.5127 10 13.0973 10H19.323C19.4675 10 19.6067 9.97875 19.7395 9.94219V11.9531C19.7395 14.5378 21.8423 16.6406 24.427 16.6406C27.0117 16.6406 29.1145 14.5378 29.1145 11.9531V10H55.3645V11.9531C55.3645 14.5378 57.4673 16.6406 60.052 16.6406C62.6367 16.6406 64.7395 14.5378 64.7395 11.9531V10H72.1875C74.7722 10 76.875 12.1028 76.875 14.6875V74.0616C76.875 75.6128 75.613 76.875 74.0616 76.875C72.5102 76.875 71.2481 75.6128 71.2481 74.0616V70.0195C71.2481 69.1566 70.5484 68.457 69.6856 68.457H51.5105C50.6477 68.457 49.948 69.1566 49.948 70.0195C49.948 70.8825 50.6477 71.582 51.5105 71.582H68.1231V74.0616C68.1231 75.0789 68.3806 76.037 68.8333 76.875H5.9375C4.38672 76.875 3.125 75.6133 3.125 74.0625V71.582H38.0977C38.9605 71.582 39.6602 70.8825 39.6602 70.0195C39.6602 69.1566 38.9605 68.457 38.0977 68.457H22.4858C25.2161 66.1056 26.9498 62.6275 26.9498 58.75C26.9498 51.6852 21.2022 45.9375 14.1373 45.9375C7.0725 45.9375 1.32484 51.6852 1.32484 58.75C1.32484 62.6275 3.05859 66.1056 5.78891 68.457H1.5625C0.699688 68.457 0 69.1566 0 70.0195V74.0625C0 77.3364 2.66359 80 5.9375 80H74.0616C77.3359 80 80 77.3361 80 74.0616V14.6875C80 10.3797 76.4953 6.875 72.1875 6.875ZM25.9895 11.9531C25.9895 12.8147 25.2886 13.5156 24.427 13.5156C23.5655 13.5156 22.8645 12.8147 22.8645 11.9531V4.6875C22.8645 3.82594 23.5655 3.125 24.427 3.125C25.2886 3.125 25.9895 3.82594 25.9895 4.6875V11.9531ZM61.6145 11.9531C61.6145 12.8147 60.9136 13.5156 60.052 13.5156C59.1905 13.5156 58.4895 12.8147 58.4895 11.9531V4.6875C58.4895 3.82594 59.1905 3.125 60.052 3.125C60.9136 3.125 61.6145 3.82594 61.6145 4.6875V11.9531ZM4.44984 58.75C4.44984 53.4083 8.79562 49.0625 14.1373 49.0625C19.4791 49.0625 23.8248 53.4083 23.8248 58.75C23.8248 64.0917 19.4791 68.4375 14.1373 68.4375C8.79562 68.4375 4.44984 64.0917 4.44984 58.75Z" fill="#FEB300"/>
<path d="M73.1734 20.3025C72.8829 20.0119 72.4798 19.8447 72.0688 19.8447C71.6578 19.8447 71.2548 20.0119 70.9642 20.3025C70.6735 20.5931 70.5063 20.9962 70.5063 21.4071C70.5063 21.818 70.6734 22.221 70.9642 22.5116C71.2549 22.8022 71.6578 22.9694 72.0688 22.9694C72.4798 22.9694 72.8829 22.8022 73.1734 22.5116C73.464 22.221 73.6313 21.818 73.6313 21.4071C73.6313 20.9962 73.4642 20.5931 73.1734 20.3025Z" fill="#FEB300"/>
<path d="M46.6639 68.9128C46.3734 68.6222 45.9703 68.4565 45.5593 68.4565C45.1484 68.4565 44.7453 68.6222 44.4546 68.9128C44.164 69.2051 43.9968 69.6067 43.9968 70.0177C43.9968 70.4302 44.1639 70.8318 44.4546 71.124C44.7453 71.4147 45.1484 71.5803 45.5593 71.5803C45.9703 71.5803 46.3734 71.4147 46.6639 71.124C46.9545 70.8318 47.1218 70.4286 47.1218 70.0177C47.1218 69.6067 46.9546 69.2051 46.6639 68.9128Z" fill="#FEB300"/>
<path d="M35.3506 47.5001C32.0767 47.5001 29.4131 50.1638 29.4131 53.4378C29.4131 56.7118 32.0767 59.3755 35.3506 59.3755C38.6245 59.3755 41.2881 56.7118 41.2881 53.4378C41.2881 50.1638 38.6245 47.5001 35.3506 47.5001ZM35.3506 56.2504C33.7998 56.2504 32.5381 54.9886 32.5381 53.4378C32.5381 51.887 33.7998 50.6252 35.3506 50.6252C36.9014 50.6252 38.1631 51.887 38.1631 53.4378C38.1631 54.9886 36.9014 56.2504 35.3506 56.2504Z" fill="#FEB300"/>
<path d="M49.9341 47.5001C46.6602 47.5001 43.9966 50.1638 43.9966 53.4378C43.9966 56.7118 46.6602 59.3755 49.9341 59.3755C53.208 59.3755 55.8716 56.7118 55.8716 53.4378C55.8716 50.1638 53.208 47.5001 49.9341 47.5001ZM49.9341 56.2504C48.3833 56.2504 47.1216 54.9886 47.1216 53.4378C47.1216 51.887 48.3833 50.6252 49.9341 50.6252C51.4849 50.6252 52.7466 51.887 52.7466 53.4378C52.7466 54.9886 51.4849 56.2504 49.9341 56.2504Z" fill="#FEB300"/>
<path d="M64.5176 47.5001C61.2437 47.5001 58.5801 50.1638 58.5801 53.4378C58.5801 56.7118 61.2437 59.3755 64.5176 59.3755C67.7915 59.3755 70.4551 56.7118 70.4551 53.4378C70.4551 50.1638 67.7915 47.5001 64.5176 47.5001ZM64.5176 56.2504C62.9668 56.2504 61.7051 54.9886 61.7051 53.4378C61.7051 51.887 62.9668 50.6252 64.5176 50.6252C66.0684 50.6252 67.3301 51.887 67.3301 53.4378C67.3301 54.9886 66.0684 56.2504 64.5176 56.2504Z" fill="#FEB300"/>
<path d="M20.7676 31.2495C17.4937 31.2495 14.8301 33.913 14.8301 37.187C14.8301 40.4609 17.4937 43.1245 20.7676 43.1245C24.0415 43.1245 26.7051 40.4609 26.7051 37.187C26.7051 33.913 24.0415 31.2495 20.7676 31.2495ZM20.7676 39.9995C19.2168 39.9995 17.9551 38.7377 17.9551 37.187C17.9551 35.6362 19.2168 34.3745 20.7676 34.3745C22.3184 34.3745 23.5801 35.6362 23.5801 37.187C23.5801 38.7377 22.3184 39.9995 20.7676 39.9995Z" fill="#FEB300"/>
<path d="M49.9341 31.2495C46.6602 31.2495 43.9966 33.913 43.9966 37.187C43.9966 40.4609 46.6602 43.1245 49.9341 43.1245C53.208 43.1245 55.8716 40.4609 55.8716 37.187C55.8716 33.913 53.208 31.2495 49.9341 31.2495ZM49.9341 39.9995C48.3833 39.9995 47.1216 38.7377 47.1216 37.187C47.1216 35.6362 48.3833 34.3745 49.9341 34.3745C51.4849 34.3745 52.7466 35.6362 52.7466 37.187C52.7466 38.7377 51.4849 39.9995 49.9341 39.9995Z" fill="#FEB300"/>
<path d="M64.5176 31.2495C61.2437 31.2495 58.5801 33.913 58.5801 37.187C58.5801 40.4609 61.2437 43.1245 64.5176 43.1245C67.7915 43.1245 70.4551 40.4609 70.4551 37.187C70.4551 33.913 67.7915 31.2495 64.5176 31.2495ZM64.5176 39.9995C62.9668 39.9995 61.7051 38.7377 61.7051 37.187C61.7051 35.6362 62.9668 34.3745 64.5176 34.3745C66.0684 34.3745 67.3301 35.6362 67.3301 37.187C67.3301 38.7377 66.0684 39.9995 64.5176 39.9995Z" fill="#FEB300"/>
<path d="M35.3506 31.2495C32.0767 31.2495 29.4131 33.913 29.4131 37.187C29.4131 40.4609 32.0767 43.1245 35.3506 43.1245C38.6245 43.1245 41.2881 40.4609 41.2881 37.187C41.2881 33.913 38.6245 31.2495 35.3506 31.2495ZM35.3506 39.9995C33.7998 39.9995 32.5381 38.7377 32.5381 37.187C32.5381 35.6362 33.7998 34.3745 35.3506 34.3745C36.9014 34.3745 38.1631 35.6362 38.1631 37.187C38.1631 38.7377 36.9014 39.9995 35.3506 39.9995Z" fill="#FEB300"/>
<path d="M19.7037 54.942C19.0934 54.3318 18.1043 54.3318 17.4939 54.942L12.4054 60.0305L10.6665 58.2916C10.0562 57.6814 9.06711 57.6814 8.45664 58.2916C7.84648 58.9017 7.84648 59.8911 8.45664 60.5014L11.3006 63.3449C11.5937 63.6379 11.991 63.8026 12.4054 63.8026C12.8198 63.8026 13.2171 63.6379 13.5103 63.3449L19.7037 57.1516C20.3139 56.5415 20.3139 55.5521 19.7037 54.942Z" fill="#FEB300"/>
</svg>
