<svg width="80" height="80" viewBox="0 0 80 80" fill="none" xmlns="http://www.w3.org/2000/svg">
<path d="M20.6451 43.8709C20.6451 39.6012 17.1728 36.1288 12.9031 36.1288C8.63341 36.1288 5.16113 39.6012 5.16113 43.8709C5.16113 48.1407 8.63341 51.613 12.9031 51.613C17.1728 51.613 20.6451 48.1407 20.6451 43.8709ZM7.74179 43.8709C7.74179 41.0244 10.0566 38.7095 12.9031 38.7095C15.7496 38.7095 18.0644 41.0244 18.0644 43.8709C18.0644 46.7174 15.7496 49.0323 12.9031 49.0323C10.0566 49.0323 7.74179 46.7174 7.74179 43.8709Z" fill="#FEB300"/>
<path d="M74.8387 51.6129V43.871H69.6774V38.7097H76.129V34.8387C76.129 28.9019 71.649 24 65.8929 23.3148C65.3187 22.8671 64.6916 22.5032 64.049 22.2916L52.8116 17.7974C52.8658 17.4606 52.9032 17.12 52.9032 16.7742C52.9032 14.0284 51.1716 11.6942 48.7484 10.7639C45.2994 4.12 38.5458 0 31.04 0H30.0064C27.0697 0 24.1135 0.664516 21.4594 1.92129L17.6413 3.73032L12.3703 1.62194C11.7071 1.4 11.0194 1.28903 10.3226 1.28903C7.54452 1.28903 5.08645 3.06194 4.20516 5.69935C3.68387 7.25935 3.79226 8.92 4.47097 10.409C1.65936 12.7394 0 16.1974 0 19.8942C0 24.0284 2.05419 27.8658 5.49419 30.16L7.60387 31.5665L7.56258 32.1394C3.10839 34.1755 0 38.6619 0 43.871C0 48.4284 2.38194 52.4335 5.96 54.729L5.22839 67.2206C2.25419 67.7948 0 70.4103 0 73.5484V80H33.5484V73.5484C33.5484 70.4064 31.289 67.7897 28.311 67.2194L25.1548 20.6129L53.3019 31.871C53.0503 32.8206 52.9032 33.8116 52.9032 34.8387V38.7097H59.3548V43.871H41.2903V51.6129H36.129V61.9355H51.6129V67.0968H38.7097V80H80V74.8387V64.5161V61.9355V60.6452V51.6129H74.8387ZM72.2581 51.6129H67.0968V46.4516H72.2581V51.6129ZM51.6129 51.6129V46.4516H56.7742V51.6129H51.6129ZM59.3548 46.4516H64.5161V51.6129H59.3548V46.4516ZM50.3226 16.7742C50.3226 16.7832 50.32 16.791 50.32 16.8L43.6374 14.1277C44.3561 13.3639 45.3626 12.9032 46.4516 12.9032C48.5858 12.9032 50.3226 14.64 50.3226 16.7742ZM22.5639 4.25419C24.8748 3.15871 27.4477 2.58065 30.0052 2.58065H31.0387C36.9639 2.58065 42.3471 5.53032 45.5406 10.3897C43.7484 10.6439 42.1613 11.6465 41.1432 13.1303L20.9097 5.03742L22.5639 4.25419ZM6.6529 6.51613C7.18194 4.9329 8.65548 3.86968 10.3226 3.86968C10.7406 3.86968 11.1548 3.93677 11.4813 4.04516L32.4606 12.4361L29.2594 19.4774L9.10065 11.4142C8.11871 11.0865 7.32387 10.3974 6.86194 9.47226C6.4 8.5471 6.32516 7.49677 6.6529 6.51613ZM6.92516 28.0116C4.20516 26.1987 2.58065 23.1639 2.58065 19.8942C2.58065 17.0297 3.83484 14.3406 5.97806 12.4994C6.6271 13.0955 7.38194 13.56 8.2129 13.8361L8.85161 14.0916L7.81548 28.6052L6.92516 28.0116ZM2.58065 43.871C2.58065 38.1794 7.21161 33.5484 12.9032 33.5484H23.4439L24.8426 54.1935H12.9032C7.21161 54.1935 2.58065 49.5626 2.58065 43.871ZM12.9032 56.7742H25.0168L25.7161 67.0968H7.81935L8.47097 55.9729C9.85548 56.4826 11.3445 56.7742 12.9032 56.7742ZM30.9677 73.5484V77.4193H2.58065V73.5484C2.58065 71.4142 4.31742 69.6774 6.45161 69.6774H27.0968C29.231 69.6774 30.9677 71.4142 30.9677 73.5484ZM23.2697 30.9677H12.9032C11.9806 30.9677 11.0813 31.0697 10.2129 31.2542L11.3677 15.0981L22.4968 19.5497L23.2697 30.9677ZM31.6594 20.4361L34.8606 13.3948L60.9019 23.8103C58.0142 24.7587 55.6258 26.809 54.2323 29.4645L31.6594 20.4361ZM55.4839 34.8387C55.4839 29.8581 59.5355 25.8064 64.5161 25.8064C69.4968 25.8064 73.5484 29.8581 73.5484 34.8387V36.129H55.4839V34.8387ZM61.9355 38.7097H67.0968V43.871H61.9355V38.7097ZM43.871 46.4516H49.0323V51.6129H43.871V46.4516ZM38.7097 54.1935H77.4193V59.3548H38.7097V54.1935ZM77.4193 72.2581H65.8064C65.0955 72.2581 64.5161 71.6787 64.5161 70.9677V68.3871C64.5161 67.6761 65.0955 67.0968 65.8064 67.0968H77.4193V72.2581ZM77.4193 64.5161H65.8064C63.6723 64.5161 61.9355 66.2529 61.9355 68.3871V70.9677C61.9355 73.1019 63.6723 74.8387 65.8064 74.8387H77.4193V77.4193H41.2903V69.6774H54.1935V61.9355H77.4193V64.5161Z" fill="#FEB300"/>
<path d="M49.0322 72.2587H51.6128V74.8392H49.0322V72.2587Z" fill="#FEB300"/>
<path d="M43.8706 72.2587H46.4515V74.8392H43.8706V72.2587Z" fill="#FEB300"/>
<path d="M54.1934 72.2587H56.774V74.8392H54.1934V72.2587Z" fill="#FEB300"/>
<path d="M14.6389 10.8678L15.5989 8.4727L17.9937 9.4328L17.0338 11.8279L14.6389 10.8678Z" fill="#FEB300"/>
<path d="M19.4268 12.7588L20.3846 10.3601L22.782 11.3176L21.8242 13.7162L19.4268 12.7588Z" fill="#FEB300"/>
<path d="M9.84229 8.93201L10.8002 6.53301L13.1978 7.49058L12.2398 9.88958L9.84229 8.93201Z" fill="#FEB300"/>
</svg>
