<svg width="80" height="80" viewBox="0 0 80 80" fill="none" xmlns="http://www.w3.org/2000/svg">
<path d="M78.6667 77.3346H1.33448C0.598086 77.3346 0.0012207 77.9312 0.0012207 78.6674C0.0012207 79.4035 0.598086 80.0002 1.33448 80.0002H78.6665C79.4029 80.0002 79.9998 79.4034 79.9998 78.6674C79.9998 77.9314 79.4031 77.3346 78.6667 77.3346Z" fill="#FEB300"/>
<path d="M78.6667 66.6656H64.0002C63.2639 66.6656 62.667 67.2626 62.667 67.999C62.667 68.7355 63.2639 69.3325 64.0002 69.3325H78.6667C79.403 69.3325 79.9999 68.7355 79.9999 67.999C79.9999 67.2626 79.403 66.6656 78.6667 66.6656Z" fill="#FEB300"/>
<path d="M78.6667 72.0001H64.0002C63.2639 72.0001 62.667 72.5971 62.667 73.3335C62.667 74.07 63.2639 74.6669 64.0002 74.6669H78.6667C79.403 74.6669 79.9999 74.07 79.9999 73.3335C79.9999 72.5971 79.403 72.0001 78.6667 72.0001Z" fill="#FEB300"/>
<path d="M58.667 66.6656H1.33448C0.598086 66.6656 0.0012207 67.2626 0.0012207 67.999C0.0012207 68.7355 0.598086 69.3325 1.33448 69.3325H58.6668C59.4032 69.3325 60.0001 68.7355 60.0001 67.999C60.0001 67.2626 59.4034 66.6656 58.667 66.6656Z" fill="#FEB300"/>
<path d="M1.33449 74.6673H16.0011C16.7375 74.6673 17.3343 74.0703 17.3343 73.3337C17.3343 72.5971 16.7375 72.0001 16.0011 72.0001H1.33449C0.59809 72.0001 0.0012207 72.5971 0.0012207 73.3337C0.0012207 74.0703 0.598246 74.6673 1.33449 74.6673Z" fill="#FEB300"/>
<path d="M58.6673 72.0001H21.3342C20.5978 72.0001 20.001 72.5971 20.001 73.3335C20.001 74.07 20.5978 74.6669 21.3342 74.6669H58.6671C59.4035 74.6669 60.0004 74.07 60.0004 73.3335C60.0004 72.5971 59.4037 72.0001 58.6673 72.0001Z" fill="#FEB300"/>
<path d="M9.11322 50.0739C8.90338 49.6437 8.47902 49.359 8.00121 49.3279C7.52357 49.2968 7.06592 49.5243 6.80218 49.9238C6.53843 50.3233 6.50906 50.8334 6.72531 51.2605C6.98046 51.7728 7.26873 52.2681 7.58794 52.7431C8.00715 53.3299 8.81698 53.4771 9.41587 53.0752C10.0148 52.6734 10.1855 51.8682 9.80117 51.2579C9.54712 50.8781 9.31728 50.4826 9.11322 50.0739Z" fill="#FEB300"/>
<path d="M8.00099 45.3337C8.00755 39.4453 12.7793 34.6735 18.6675 34.6668C19.4039 34.6668 20.0008 34.0697 20.0008 33.3335C20.0008 32.5971 19.4039 32.0002 18.6675 32.0002C11.3072 32.0083 5.34244 37.9733 5.33447 45.3337C5.33447 46.0701 5.93134 46.667 6.66773 46.667C7.40413 46.667 8.00099 46.0699 8.00099 45.3337Z" fill="#FEB300"/>
<path d="M18.6677 37.3327C14.2494 37.3327 10.6677 40.9145 10.6677 45.3329C10.6677 49.7513 14.2494 53.3331 18.6677 53.3331C23.0859 53.3331 26.6676 49.7513 26.6676 45.3329C26.6633 40.9162 23.0841 37.3371 18.6677 37.3327ZM18.6677 50.6663C15.7222 50.6663 13.3344 48.2785 13.3344 45.3329C13.3344 42.3874 15.7222 39.9995 18.6677 39.9995C21.6131 39.9995 24.0009 42.3874 24.0009 45.3329C24.0009 48.2785 21.6131 50.6663 18.6677 50.6663Z" fill="#FEB300"/>
<path d="M78.6667 61.3336H77.1868C78.9858 59.582 80.0003 57.1778 80 54.6669C79.9983 51.6166 78.5044 48.7601 76.0001 47.0189V28.0002C76.0001 26.5274 74.8062 25.3335 73.3334 25.3335H65.3335V13.3335C65.3335 12.5971 64.7367 12.0002 64.0003 12.0002H60.0003C59.2639 12.0002 58.6671 12.5971 58.6671 13.3335C58.6671 14.0699 59.2639 14.6668 60.0003 14.6668H62.667V25.3335H45.334C44.5976 25.3335 44.0007 25.9304 44.0007 26.6668V30.6668H38.9341C35.9054 26.1594 31.2469 23.0021 25.9384 21.8588L24.677 16.1388C24.5754 15.6725 24.2325 15.296 23.7775 15.1518C23.3225 15.0075 22.8253 15.1172 22.4734 15.4396C22.1216 15.7619 21.9689 16.2479 22.073 16.7135L23.1089 21.4108C22.5183 21.3615 21.9277 21.3335 21.3342 21.3335H14.6678C13.9314 21.3335 13.3345 21.9304 13.3345 22.6668C13.3345 23.4032 13.9315 24.0001 14.6678 24.0001H17.3344V26.7348C9.20802 27.303 2.39297 33.0846 0.507376 41.0098C-1.37822 48.935 2.10298 57.1663 9.10255 61.3336H1.33455C0.598156 61.3336 0.00129045 61.9306 0.00129045 62.6669C0.00129045 63.4032 0.598156 64.0002 1.33455 64.0002H78.6666C79.403 64.0002 79.9998 63.4033 79.9998 62.6669C79.9998 61.9305 79.4031 61.3336 78.6667 61.3336ZM20.001 24.0002H21.3342C31.6403 24.0076 39.9933 32.3607 40.0006 42.667C40.0006 43.4034 40.5975 44.0003 41.3339 44.0003C42.0703 44.0003 42.6672 43.4032 42.6672 42.667C42.6661 39.4318 41.9264 36.2396 40.5045 33.3337H69.3335C70.0698 33.3337 70.6667 32.7367 70.6667 32.0004C70.6667 31.2641 70.0698 30.6671 69.3335 30.6671H46.6673V28.0004H73.3335V45.7337C70.8303 44.9767 68.1235 45.3159 65.8843 46.667H37.266C37.298 46.2243 37.334 45.7843 37.334 45.3337C37.3188 35.5513 29.7578 27.4382 20.001 26.7351V24.0002ZM2.66797 45.3337C2.66797 36.4971 9.83129 29.3337 18.6677 29.3337C27.5041 29.3337 34.6674 36.4971 34.6674 45.3337C34.6674 54.1703 27.5041 61.3338 18.6677 61.3338C9.83519 61.3241 2.6775 54.1662 2.66797 45.3337ZM28.2329 61.3336C32.6461 58.6942 35.7777 54.3539 36.8913 49.3336H63.0242C60.4044 53.0684 60.8822 58.1525 64.1521 61.3336H28.2329ZM70.6669 61.3336C66.9869 61.3292 64.0048 58.347 64.0003 54.6669C64.0003 50.985 66.9849 48.0001 70.6669 48.0001C74.3487 48.0001 77.3335 50.985 77.3335 54.6669C77.3335 58.3488 74.3487 61.3336 70.6669 61.3336Z" fill="#FEB300"/>
<path d="M70.667 50.666C68.4579 50.666 66.667 52.457 66.667 54.666C66.667 56.8751 68.4579 58.666 70.667 58.666C72.876 58.666 74.667 56.8752 74.667 54.666C74.667 52.4568 72.876 50.666 70.667 50.666ZM70.667 55.9993C69.9306 55.9993 69.3337 55.4024 69.3337 54.666C69.3337 53.9296 69.9307 53.3327 70.667 53.3327C71.4034 53.3327 72.0002 53.9296 72.0002 54.666C72.0002 55.4024 71.4034 55.9993 70.667 55.9993Z" fill="#FEB300"/>
<path d="M52.0002 38.6664H64.0001C64.7364 38.6664 65.3333 38.0694 65.3333 37.333C65.3333 36.5965 64.7364 35.9996 64.0001 35.9996H52.0002C51.2639 35.9996 50.667 36.5965 50.667 37.333C50.667 38.0694 51.2639 38.6664 52.0002 38.6664Z" fill="#FEB300"/>
<path d="M52.0002 43.9999H64.0001C64.7364 43.9999 65.3333 43.4028 65.3333 42.6665C65.3333 41.9301 64.7364 41.3331 64.0001 41.3331H52.0002C51.2639 41.3331 50.667 41.9302 50.667 42.6665C50.667 43.403 51.2639 43.9999 52.0002 43.9999Z" fill="#FEB300"/>
<path d="M42.7898 10.267C42.7076 10.6166 42.6663 10.9745 42.6671 11.3338C42.6684 13.4152 44.0477 15.2442 46.0485 15.8175C48.0492 16.3908 50.1879 15.5697 51.2909 13.8046C52.0823 14.367 53.0293 14.6685 54.0002 14.6673C54.7366 14.6673 55.3335 14.0702 55.3335 13.334C55.3335 12.5977 54.7366 12.0007 54.0002 12.0007C53.0343 12.0046 52.2048 11.315 52.0323 10.3647C51.9412 9.8645 51.5862 9.45278 51.1048 9.28918C50.6234 9.12542 50.0911 9.23542 49.714 9.57637C49.3368 9.91732 49.174 10.4359 49.2884 10.9314C49.3187 11.0634 49.3339 11.1986 49.3337 11.3341C49.3337 12.4386 48.4383 13.3341 47.3338 13.3341C46.2292 13.3341 45.3338 12.4386 45.3338 11.3341C45.3343 10.8989 45.4744 10.4755 45.7338 10.1261C46.0321 9.72216 46.0781 9.1848 45.8528 8.73588C45.6275 8.28712 45.1693 8.00289 44.6671 8.00055C43.5626 8.00055 42.6671 7.10506 42.6671 6.0005C42.6671 4.89594 43.5626 4.00044 44.6671 4.00044C45.018 3.99701 45.3633 4.0892 45.6657 4.26717C46.2449 4.60921 46.988 4.46624 47.3989 3.93388C48.0239 3.13261 48.984 2.66509 50.0001 2.66713C50.8842 2.66713 51.732 3.01839 52.3571 3.6434C52.9823 4.26842 53.3333 5.11641 53.3333 6.0005C53.3374 6.14488 53.3257 6.28925 53.2987 6.43113C53.2201 6.78567 53.2893 7.15693 53.4907 7.45913C53.6916 7.76101 54.0071 7.96805 54.364 8.03242C55.3142 8.20509 56.0038 9.03464 55.9999 10.0004C55.9999 10.7369 56.5967 11.3338 57.3331 11.3338C58.0695 11.3338 58.6664 10.7369 58.6664 10.0004C58.6689 8.19555 57.6305 6.55114 55.9997 5.77768C55.9164 3.45433 54.4969 1.38897 52.3579 0.478631C50.2189 -0.431706 47.7464 -0.0226326 46.0146 1.52819C45.5771 1.3985 45.123 1.33287 44.6666 1.3335C42.4641 1.33959 40.5657 2.88494 40.1128 5.04047C39.6601 7.196 40.776 9.3748 42.7898 10.267Z" fill="#FEB300"/>
</svg>
