<svg width="70" height="80" viewBox="0 0 70 80" fill="none" xmlns="http://www.w3.org/2000/svg">
<path d="M14.1738 74.8377C9.91005 74.8377 6.44263 71.3655 6.44263 67.096C6.44263 62.8264 9.91005 59.3542 14.1738 59.3542C18.4375 59.3542 21.905 62.8264 21.905 67.096C21.905 71.3655 18.4375 74.8377 14.1738 74.8377ZM14.1738 61.9348C11.3313 61.9348 9.01968 64.2496 9.01968 67.096C9.01968 69.9423 11.3313 72.2571 14.1738 72.2571C17.0163 72.2571 19.3279 69.9423 19.3279 67.096C19.3279 64.2496 17.0163 61.9348 14.1738 61.9348Z" fill="#78b030"/>
<path d="M55.4065 18.0645C51.854 18.0645 48.9639 15.1704 48.9639 11.6131C48.9639 8.05575 51.854 5.16162 55.4065 5.16162C58.959 5.16162 61.8491 8.05575 61.8491 11.6131C61.8491 15.1704 58.959 18.0645 55.4065 18.0645ZM55.4065 7.7422C53.2753 7.7422 51.5409 9.47894 51.5409 11.6131C51.5409 13.7472 53.2753 15.484 55.4065 15.484C57.5377 15.484 59.2721 13.7472 59.2721 11.6131C59.2721 9.47894 57.5377 7.7422 55.4065 7.7422Z" fill="#78b030"/>
<path d="M14.1738 79.9997C7.06884 79.9997 1.28852 74.2114 1.28852 67.0966C1.28852 63.6425 2.69044 60.3238 5.1541 57.9006V25.1257C1.87094 22.4147 0 18.4677 0 14.1942C0 8.55559 3.33728 3.45115 8.50426 1.19054L10.3082 0.400879V13.5491L14.1738 16.4522L18.0393 13.5491V0.400879L19.8433 1.19054C25.0103 3.45115 28.3475 8.55559 28.3475 14.1942C28.3475 18.4677 26.4766 22.4147 23.1934 25.1257V57.9006C25.6571 60.3238 27.059 63.6425 27.059 67.0966C27.059 74.2114 21.2787 79.9997 14.1738 79.9997ZM7.73114 4.54404C4.5472 6.67304 2.57705 10.2756 2.57705 14.1942C2.57705 17.8664 4.26759 21.247 7.21702 23.4689L7.73114 23.856V59.0361L7.30207 59.4206C5.11802 61.3806 3.86557 64.1793 3.86557 67.0966C3.86557 72.7882 8.49009 77.4191 14.1738 77.4191C19.8574 77.4191 24.482 72.7882 24.482 67.0966C24.482 64.1793 23.2295 61.3806 21.0455 59.4193L20.6164 59.0348V23.8547L21.1305 23.4676C24.0799 21.247 25.7705 17.8664 25.7705 14.1942C25.7705 10.2756 23.8003 6.67304 20.6164 4.54404V14.8394L14.1738 19.678L7.73114 14.8394V4.54404Z" fill="#78b030"/>
<path d="M15.4622 54.1932H12.8852C11.4639 54.1932 10.3081 53.0358 10.3081 51.6126V30.9676C10.3081 29.5444 11.4639 28.387 12.8852 28.387H15.4622C16.8835 28.387 18.0393 29.5444 18.0393 30.9676V51.6126C18.0393 53.0358 16.8835 54.1932 15.4622 54.1932ZM12.8852 30.9676V51.6126H15.4635L15.4622 30.9676H12.8852Z" fill="#78b030"/>
<path d="M60.0014 73.5465H50.8103L46.1716 65.8048L50.8103 58.0631H60.0014L64.6401 65.8048L60.0014 73.5465ZM52.2702 70.966H58.5415L61.6339 65.8048L58.5415 60.6437H52.2702L49.1778 65.8048L52.2702 70.966Z" fill="#78b030"/>
<path d="M55.4069 79.9992C47.592 79.9992 41.2332 73.6315 41.2332 65.8058C41.2332 60.4536 44.2406 55.5814 48.9643 53.1672V21.2579C45.7675 19.1121 43.8102 15.4824 43.8102 11.6128C43.8102 5.20898 49.0133 0 55.4069 0C61.8006 0 67.0036 5.20898 67.0036 11.6128C67.0036 15.4824 65.0464 19.1121 61.8495 21.2579V53.1672C66.5733 55.5814 69.5807 60.4523 69.5807 65.8058C69.5807 73.6315 63.2218 79.9992 55.4069 79.9992ZM55.4069 2.58062C50.4332 2.58062 46.3873 6.63348 46.3873 11.6128C46.3873 14.8179 48.1164 17.8127 50.8984 19.4269L51.5413 19.7998V54.8278L50.7682 55.1659C46.5419 57.0162 43.8102 61.1929 43.8102 65.8058C43.8102 72.2096 49.0133 77.4186 55.4069 77.4186C61.8006 77.4186 67.0036 72.2096 67.0036 65.8058C67.0036 61.1929 64.272 57.0162 60.0456 55.1659L59.2725 54.8278V19.7998L59.9155 19.4269C62.6974 17.8127 64.4266 14.8179 64.4266 11.6128C64.4266 6.63348 60.3806 2.58062 55.4069 2.58062Z" fill="#78b030"/>
<path d="M54.1182 52.9032H56.6952V55.4833H54.1182V52.9032Z" fill="#78b030"/>
<path d="M54.1182 36.1298H56.6952V50.3227H54.1182V36.1298Z" fill="#78b030"/>
<path d="M56.6952 33.5474H54.1182V30.9667H56.6952V33.5474ZM56.6952 28.386H54.1182V25.8054H56.6952V28.386ZM56.6952 23.2247H54.1182V20.644H56.6952V23.2247Z" fill="#78b030"/>
</svg>
