<svg width="80" height="80" viewBox="0 0 80 80" fill="none" xmlns="http://www.w3.org/2000/svg">
<path d="M74.5282 55.8479L47.439 62.7081C47.2064 61.9061 46.7773 61.1484 46.1511 60.5184L37.5208 51.8357C36.4502 50.7592 35.0275 50.1667 33.5138 50.1667H16.2988C15.9741 47.1812 13.4534 44.8496 10.3992 44.8496H5.93506C2.66235 44.8496 0 47.5275 0 50.8206V62.8376C0 63.4904 0.526733 64.0197 1.17493 64.0197C1.82373 64.0197 2.35046 63.4904 2.35046 62.8376V50.8206C2.35046 48.8311 3.95935 47.2143 5.93506 47.2143H10.3992C12.1527 47.2143 13.6176 48.4891 13.9246 50.1667C14.0118 50.6389 13.9844 49.2247 13.9844 71.796C13.9844 73.7855 12.3755 75.403 10.3992 75.403H5.93506C3.95935 75.403 2.35046 73.7855 2.35046 71.796V67.5664C2.35046 66.9143 1.82373 66.3844 1.17493 66.3844C0.526733 66.3844 0 66.9143 0 67.5664V71.796C0 75.0892 2.66235 77.7677 5.93506 77.7677H10.3992C13.6725 77.7677 16.3348 75.0892 16.3348 71.796V69.7033C24.9896 71.2071 23.1274 70.6594 36.0266 77.0087C38.1226 78.0409 40.144 80.0004 44.4208 80.0004C46.701 80.0004 48.9233 79.355 50.8533 78.133L73.2056 66.7307C73.7848 66.4354 74.0161 65.7237 73.7225 65.1415C73.429 64.5594 72.7216 64.3267 72.1429 64.6214C72.0624 64.6626 49.7168 76.0575 49.6411 76.106C48.0774 77.1069 46.2726 77.6356 44.4208 77.6356C40.8557 77.6356 39.3073 75.9918 37.0593 74.8847C23.9435 68.4292 25.8075 68.9499 16.3348 67.3042V52.5308H33.5144C34.4012 52.5308 35.2332 52.8777 35.86 53.5083L44.4885 62.1892C46.1884 63.8993 45.0452 66.7688 42.6917 66.7688C41.9891 66.7688 41.3281 66.4931 40.8301 65.9932L33.0566 58.1696C32.5977 57.7078 31.853 57.7078 31.394 58.1696C30.9351 58.6314 30.9351 59.3805 31.394 59.8423L39.1687 67.6659C41.9714 70.4764 46.7963 69.042 47.5513 65.1182C76.5924 57.7631 74.989 58.145 75.2808 58.145C77.6569 58.145 78.4613 61.3983 76.3361 62.4827C75.7568 62.7781 75.5255 63.4897 75.8191 64.0719C76.1121 64.6546 76.8195 64.8873 77.3987 64.592C79.1296 63.709 79.9194 62.0062 79.9194 60.4545C79.9194 57.2473 76.7999 55.2725 74.5282 55.8479Z" fill="#78b030"/>
<path d="M4.17676 69.041C4.17676 71.2546 5.96692 73.0557 8.16724 73.0557C10.3676 73.0557 12.1577 71.2546 12.1577 69.041C12.1577 67.4346 11.2098 65.986 9.74316 65.3517C9.14685 65.0938 8.45593 65.3708 8.19958 65.9707C7.94263 66.5706 8.21851 67.2657 8.81421 67.5243C10.442 68.2286 9.94519 70.6909 8.16724 70.6909C7.06067 70.6909 6.26843 69.6047 6.60352 68.5411C7.11011 66.9354 4.17676 65.8669 4.17676 69.041Z" fill="#78b030"/>
<path d="M78.4247 29.0657L72.7582 26.9908C72.796 26.311 72.796 25.6399 72.7582 24.957L78.4241 22.8821C79.6674 22.4277 80.307 21.0473 79.8548 19.7965L77.9303 14.4769C77.4793 13.2298 76.1029 12.5838 74.8633 13.0376L69.1974 15.1125C68.794 14.5703 68.3594 14.0502 67.8974 13.5552L70.9125 8.30135C71.5723 7.15184 71.1792 5.67626 70.0366 5.01246L65.1636 2.18227C64.61 1.86051 63.9655 1.77454 63.3478 1.94156C62.7307 2.10797 62.2144 2.5065 61.8952 3.06345L58.8812 8.31425C58.2263 8.16012 57.5604 8.04284 56.8891 7.96362L55.8423 1.98946C55.6128 0.682133 54.3695 -0.193512 53.0701 0.0367594L47.5287 1.01925C46.2293 1.25014 45.3583 2.50097 45.5878 3.8083L46.6345 9.78C46.0333 10.0864 45.448 10.4266 44.8834 10.7993L40.2649 6.90008C39.2499 6.04285 37.7423 6.17917 36.8939 7.19728L33.277 11.5337C32.4268 12.5525 32.5586 14.0698 33.5718 14.9252L38.1885 18.8226C37.9224 19.4465 37.691 20.0863 37.4963 20.736H31.4697C30.1501 20.736 29.0771 21.8161 29.0771 23.1437V28.8041C29.0771 30.1317 30.1501 31.2118 31.4697 31.2118H37.4963C37.691 31.8621 37.9224 32.5013 38.1885 33.1252L33.5718 37.022C32.561 37.8756 32.4286 39.3972 33.277 40.4147L36.8939 44.7512C37.7417 45.7674 39.2542 45.9007 40.2649 45.0478L44.8834 41.1485C45.448 41.5212 46.0333 41.8614 46.6345 42.1678L45.5878 48.1395C45.3583 49.4499 46.2262 50.6971 47.5287 50.9286L53.0701 51.9111C54.3628 52.142 55.6122 51.2712 55.8423 49.9584L56.8891 43.9842C57.5604 43.905 58.2263 43.7877 58.8818 43.6336L61.8952 48.8844C62.5549 50.0345 64.021 50.43 65.1642 49.7662L70.0373 46.9354C71.1798 46.2716 71.5723 44.7966 70.9125 43.6471L67.8974 38.3926C68.3594 37.8983 68.794 37.3776 69.1974 36.8354L74.8633 38.9103C76.1041 39.364 77.4768 38.7242 77.9303 37.4709L79.8548 32.1519C80.307 30.9011 79.668 29.5207 78.4247 29.0657ZM77.6465 31.3426L75.7221 36.6622C75.7196 36.6677 75.716 36.6788 75.6995 36.6861C75.6836 36.6941 75.6726 36.6898 75.6671 36.688L69.1602 34.3048C68.6524 34.1194 68.0841 34.3054 67.7826 34.7568C67.157 35.6938 66.4289 36.5664 65.6177 37.3499C65.2277 37.727 65.1434 38.3226 65.4138 38.7936L68.877 44.8285C68.8892 44.8494 68.8819 44.8758 68.8617 44.8875L63.9887 47.7177C63.9685 47.73 63.9423 47.7226 63.9301 47.7023L60.4688 41.6711C60.199 41.2001 59.6442 40.9753 59.1248 41.1264C58.0506 41.4389 56.9354 41.6354 55.8099 41.7104C55.2704 41.746 54.8242 42.1482 54.7302 42.6849L53.5278 49.5476C53.5236 49.5709 53.5016 49.5863 53.4778 49.5826C53.4131 49.5709 47.8906 48.6154 47.9022 48.5497L49.1046 41.6907C49.198 41.1552 48.9166 40.6241 48.4229 40.4043C47.3975 39.9474 46.4172 39.3769 45.5097 38.7088C45.072 38.3865 44.4739 38.4073 44.0601 38.7567L38.7543 43.2357C38.7366 43.251 38.7097 43.2486 38.6945 43.2308L35.0775 38.8943C35.0623 38.8759 35.0647 38.8489 35.0824 38.8335L40.3857 34.3564C40.8008 34.0064 40.9241 33.4169 40.6848 32.9287C40.1892 31.9149 39.8016 30.8446 39.5343 29.7473C39.4055 29.2186 38.9343 28.8471 38.3929 28.8471H31.4697C31.4459 28.8471 31.427 28.8281 31.427 28.8041V23.1431C31.427 23.1198 31.4459 23.1001 31.4697 23.1001H38.3929C38.9343 23.1001 39.4049 22.7286 39.5343 22.1999C39.8016 21.1032 40.1892 20.0329 40.6848 19.0191C40.9241 18.5303 40.8008 17.9408 40.3857 17.5908L35.0824 13.1137C35.0781 13.1106 35.069 13.1027 35.0671 13.0849C35.0659 13.067 35.0732 13.0578 35.0775 13.0535L38.6939 8.71707C38.6981 8.71277 38.7054 8.70356 38.7231 8.70172C38.7408 8.70049 38.75 8.70786 38.7543 8.71154L44.0601 13.1905C44.4745 13.5411 45.0732 13.5608 45.5097 13.239C46.4172 12.5703 47.3975 11.9998 48.4229 11.5436C48.9166 11.3237 49.198 10.7926 49.1046 10.2571L47.9022 3.39811C47.898 3.37477 47.9138 3.35205 47.937 3.34837L53.4784 2.36526C53.4839 2.36465 53.4955 2.36219 53.5101 2.37263C53.5248 2.38246 53.5266 2.39474 53.5278 2.40027L54.7302 9.26297C54.8242 9.79904 55.2704 10.2019 55.8099 10.2375C56.936 10.3124 58.0512 10.5089 59.1248 10.8214C59.6442 10.9725 60.199 10.7478 60.4694 10.2774L63.9301 4.24551C63.9331 4.24059 63.9392 4.23015 63.9563 4.22586C63.9734 4.22094 63.9838 4.22709 63.9887 4.23015L68.8617 7.06034C68.8819 7.07201 68.8892 7.09842 68.8776 7.11929L65.4138 13.1542C65.1434 13.6252 65.2277 14.2209 65.6177 14.5979C66.4289 15.382 67.1576 16.2546 67.7826 17.1911C68.0841 17.6424 68.6524 17.8278 69.1602 17.6424L75.6671 15.2598C75.6891 15.2525 75.7135 15.2635 75.7221 15.2856L77.6465 20.6052C77.6483 20.6107 77.6526 20.6218 77.6447 20.6378C77.6374 20.6543 77.6264 20.658 77.6209 20.6605L71.1127 23.043C70.6055 23.2291 70.2893 23.7394 70.3467 24.2797C70.4621 25.3672 70.4712 26.494 70.3467 27.6681C70.2893 28.2085 70.6055 28.7188 71.1127 28.9048L77.6209 31.2874C77.6264 31.2898 77.6374 31.2935 77.6447 31.3101C77.6526 31.326 77.6483 31.3371 77.6465 31.3426Z" fill="#78b030"/>
<path d="M63.9283 18.2794L50.7161 31.5719L45.1478 25.9699C44.6888 25.5087 43.9448 25.5087 43.4858 25.9699C43.0269 26.4316 43.0269 27.1802 43.4858 27.6419L49.1853 33.376C50.0312 34.2271 51.4009 34.2271 52.2468 33.376L65.5903 19.9515C66.0493 19.4897 66.0493 18.7412 65.5903 18.2794C65.1313 17.8177 64.3873 17.8177 63.9283 18.2794Z" fill="#78b030"/>
</svg>
