<svg width="50" height="213" viewBox="0 0 50 213" fill="none" xmlns="http://www.w3.org/2000/svg">
<path d="M17.5412 212.904L0.00621033 212.904L0.00621256 187.331L25.6262 187.331L25.6262 189.626C17.8457 189.626 10.0757 189.626 2.29521 189.626L2.29521 210.61L18.5387 210.61L18.5387 205.916L23.3372 205.916L23.3372 194.853L23.3372 192.245L25.6262 192.245L25.6262 204.827L24.5342 205.916L23.3477 207.1L23.3372 207.121L18.5387 211.898L17.5412 212.904Z" fill="#E6E6E6"/>
<path fill-rule="evenodd" clip-rule="evenodd" d="M19.9667 166.369L0.00622559 166.369L0.00622579 164.064L20.1662 164.064L20.1662 166.369L19.9667 166.369Z" fill="#E6E6E6"/>
<path d="M31.4747 164.064L49.0097 164.064L49.0097 189.626L23.3792 189.626L23.3792 187.342C31.1597 187.342 38.9402 187.342 46.7102 187.342L46.7102 166.348L30.4667 166.348L30.4667 171.051L25.6787 171.051L25.6787 182.104L25.6787 184.712L23.3792 184.712L23.3792 172.141L24.4712 171.051L25.6577 169.857L25.6787 169.847L30.4667 165.059L31.4747 164.064Z" fill="#E6E6E6"/>
<path fill-rule="evenodd" clip-rule="evenodd" d="M48.8102 212.904L28.8392 212.904L28.8392 210.599L49.0097 210.599L49.0097 212.904L48.8102 212.904Z" fill="#E6E6E6"/>
<path d="M17.5412 158.564L0.00621033 158.564L0.00621256 132.991L25.6262 132.991L25.6262 135.286C17.8457 135.286 10.0757 135.286 2.29521 135.286L2.29521 156.269L18.5387 156.269L18.5387 151.576L23.3372 151.576L23.3372 140.524L23.3372 137.905L25.6262 137.905L25.6262 150.487L24.5342 151.576L23.3477 152.76L23.3372 152.781L18.5387 157.558L17.5412 158.564Z" fill="#E6E6E6"/>
<path fill-rule="evenodd" clip-rule="evenodd" d="M19.9667 112.029L0.00624847 112.029L0.00624868 109.724L20.1662 109.724L20.1662 112.029L19.9667 112.029Z" fill="#E6E6E6"/>
<path d="M31.4747 109.724L49.0097 109.724L49.0097 135.286L23.3792 135.286L23.3792 133.002C31.1597 133.002 38.9402 133.002 46.7102 133.002L46.7102 112.008L30.4667 112.008L30.4667 116.711L25.6787 116.711L25.6787 127.764L25.6787 130.372L23.3792 130.372L23.3792 117.801L24.4712 116.711L25.6577 115.517L25.6787 115.507L30.4667 110.729L31.4747 109.724Z" fill="#E6E6E6"/>
<path fill-rule="evenodd" clip-rule="evenodd" d="M48.8102 158.564L28.8392 158.564L28.8392 156.259L49.0097 156.259L49.0097 158.564L48.8102 158.564Z" fill="#E6E6E6"/>
<path d="M17.5412 103.941L0.0062294 103.941L0.00623164 78.379L25.6262 78.379L25.6262 80.6628C17.8457 80.6628 10.0757 80.6628 2.29523 80.6628L2.29523 101.657L18.5387 101.657L18.5387 96.9533L23.3372 96.9533L23.3372 85.9009L23.3372 83.2924L25.6262 83.2924L25.6262 95.8638L24.5342 96.9533L23.3477 98.1476L23.3372 98.1581L18.5387 102.946L17.5412 103.941Z" fill="#E6E6E6"/>
<path fill-rule="evenodd" clip-rule="evenodd" d="M19.9667 57.4058L0.00623703 57.4058L0.00623723 55.101L20.1662 55.101L20.1662 57.4058L19.9667 57.4058Z" fill="#E6E6E6"/>
<path d="M31.4747 55.1009L49.0098 55.1009L49.0098 80.6733L23.3792 80.6733L23.3792 78.379C31.1597 78.3791 38.9402 78.3791 46.7102 78.3791L46.7103 57.3952L30.4667 57.3952L30.4667 62.0886L25.6787 62.0886L25.6787 73.1514L25.6787 75.76L23.3792 75.76L23.3792 63.1781L24.4712 62.0886L25.6577 60.9047L25.6787 60.8838L30.4667 56.1066L31.4747 55.1009Z" fill="#E6E6E6"/>
<path fill-rule="evenodd" clip-rule="evenodd" d="M48.8103 103.941L28.8392 103.941L28.8392 101.636L49.0098 101.636L49.0098 103.941L48.8103 103.941Z" fill="#E6E6E6"/>
<path d="M17.5412 49.6011L0.00623322 49.6011L0.00623545 24.0392L25.6262 24.0392L25.6262 26.323C17.8457 26.323 10.0757 26.323 2.29524 26.323L2.29523 47.3173L18.5387 47.3173L18.5387 42.6135L23.3372 42.6135L23.3372 31.5611L23.3372 28.9525L25.6262 28.9525L25.6262 41.5239L24.5342 42.6135L23.3477 43.8077L23.3372 43.8182L18.5387 48.6058L17.5412 49.6011Z" fill="#E6E6E6"/>
<path fill-rule="evenodd" clip-rule="evenodd" d="M19.9667 3.07617L0.00623703 3.07617L0.00623723 0.760939L20.1662 0.760941L20.1662 3.07617L19.9667 3.07617Z" fill="#E6E6E6"/>
<path d="M31.4747 0.760878L49.0098 0.76088L49.0098 26.3333L23.3792 26.3332L23.3792 24.039C31.1597 24.039 38.9402 24.039 46.7102 24.039L46.7103 3.05516L30.4667 3.05516L30.4667 7.7485L25.6787 7.74849L25.6787 18.8113L25.6787 21.4199L23.3792 21.4199L23.3792 8.83802L24.4712 7.74849L25.6577 6.56469L25.6787 6.54373L30.4667 1.76659L31.4747 0.760878Z" fill="#E6E6E6"/>
<path fill-rule="evenodd" clip-rule="evenodd" d="M48.8103 49.6011L28.8392 49.6011L28.8392 47.2963L49.0098 47.2963L49.0098 49.6011L48.8103 49.6011Z" fill="#E6E6E6"/>
</svg>
