<svg width="50" height="194" viewBox="0 0 50 194" fill="none" xmlns="http://www.w3.org/2000/svg">
<path d="M17.5415 0.0961921L0.00645447 0.0961936L0.0064567 25.6686L25.6265 25.6686L25.6265 23.3743C17.846 23.3743 10.076 23.3743 2.29546 23.3743L2.29545 2.39048L18.539 2.39048L18.539 7.08381L23.3375 7.08381L23.3375 18.1467L23.3375 20.7552L25.6265 20.7552L25.6265 8.17334L24.5345 7.08381L23.348 5.9L23.3375 5.87905L18.539 1.10191L17.5415 0.0961921Z" fill="#E6E6E6" fill-opacity="0.2"/>
<path fill-rule="evenodd" clip-rule="evenodd" d="M19.967 46.6315L0.00650024 46.6315L0.00650045 48.9362L20.1665 48.9362L20.1665 46.6315L19.967 46.6315Z" fill="#E6E6E6" fill-opacity="0.2"/>
<path d="M31.475 48.9362L49.01 48.9362L49.01 23.3743L23.3795 23.3743L23.3795 25.6581C31.16 25.6581 38.9405 25.6581 46.7105 25.6581L46.7105 46.6524L30.467 46.6524L30.467 41.9486L25.679 41.9486L25.679 30.8962L25.679 28.2876L23.3795 28.2876L23.3795 40.859L24.4715 41.9486L25.658 43.1428L25.679 43.1533L30.467 47.9409L31.475 48.9362Z" fill="#E6E6E6" fill-opacity="0.2"/>
<path fill-rule="evenodd" clip-rule="evenodd" d="M48.8105 0.0961914L28.8395 0.0961932L28.8395 2.40096L49.01 2.40095L49.01 0.0961914L48.8105 0.0961914Z" fill="#E6E6E6" fill-opacity="0.2"/>
<path d="M17.5415 54.4362L0.00645447 54.4362L0.0064567 80.0086L25.6265 80.0086L25.6265 77.7143C17.846 77.7143 10.076 77.7143 2.29546 77.7143L2.29545 56.7305L18.539 56.7305L18.539 61.4238L23.3375 61.4238L23.3375 72.4762L23.3375 75.0953L25.6265 75.0953L25.6265 62.5134L24.5345 61.4238L23.348 60.24L23.3375 60.2191L18.539 55.4419L17.5415 54.4362Z" fill="#E6E6E6" fill-opacity="0.2"/>
<path fill-rule="evenodd" clip-rule="evenodd" d="M19.967 100.971L0.00650787 100.971L0.00650808 103.276L20.1665 103.276L20.1665 100.971L19.967 100.971Z" fill="#E6E6E6" fill-opacity="0.2"/>
<path d="M31.475 103.276L49.01 103.276L49.01 77.7143L23.3795 77.7143L23.3795 79.9981C31.16 79.9981 38.9405 79.9981 46.7105 79.9981L46.7105 100.992L30.467 100.992L30.467 96.2886L25.679 96.2886L25.679 85.2362L25.679 82.6276L23.3795 82.6276L23.3795 95.1991L24.4715 96.2886L25.658 97.4829L25.679 97.4933L30.467 102.27L31.475 103.276Z" fill="#E6E6E6" fill-opacity="0.2"/>
<path fill-rule="evenodd" clip-rule="evenodd" d="M48.8105 54.4362L28.8395 54.4362L28.8395 56.741L49.01 56.741L49.01 54.4362L48.8105 54.4362Z" fill="#E6E6E6" fill-opacity="0.2"/>
<path d="M17.5415 109.059L0.00645828 109.059L0.00646052 134.621L25.6265 134.621L25.6265 132.337C17.846 132.337 10.076 132.337 2.29546 132.337L2.29546 111.343L18.539 111.343L18.539 116.047L23.3375 116.047L23.3375 127.099L23.3375 129.708L25.6265 129.708L25.6265 117.136L24.5345 116.047L23.348 114.852L23.3375 114.842L18.539 110.054L17.5415 109.059Z" fill="#E6E6E6" fill-opacity="0.2"/>
<path fill-rule="evenodd" clip-rule="evenodd" d="M19.967 155.594L0.00649643 155.594L0.00649663 157.899L20.1665 157.899L20.1665 155.594L19.967 155.594Z" fill="#E6E6E6" fill-opacity="0.2"/>
<path d="M31.475 157.899L49.01 157.899L49.01 132.327L23.3795 132.327L23.3795 134.621C31.16 134.621 38.9405 134.621 46.7105 134.621L46.7105 155.605L30.467 155.605L30.467 150.911L25.679 150.911L25.679 139.849L25.679 137.24L23.3795 137.24L23.3795 149.822L24.4715 150.911L25.658 152.095L25.679 152.116L30.467 156.893L31.475 157.899Z" fill="#E6E6E6" fill-opacity="0.2"/>
<path fill-rule="evenodd" clip-rule="evenodd" d="M48.8105 109.059L28.8395 109.059L28.8395 111.364L49.01 111.364L49.01 109.059L48.8105 109.059Z" fill="#E6E6E6" fill-opacity="0.2"/>
<path d="M17.5415 163.399L0.0064621 163.399L0.00646433 188.961L25.6265 188.961L25.6265 186.677C17.846 186.677 10.076 186.677 2.29547 186.677L2.29546 165.683L18.539 165.683L18.539 170.387L23.3375 170.387L23.3375 181.439L23.3375 184.048L25.6265 184.048L25.6265 171.476L24.5345 170.387L23.348 169.192L23.3375 169.182L18.539 164.394L17.5415 163.399Z" fill="#E6E6E6" fill-opacity="0.2"/>
<path d="M31.475 212.239L49.01 212.239L49.01 186.667L23.3795 186.667L23.3795 188.961C31.16 188.961 38.9405 188.961 46.7105 188.961L46.7105 209.945L30.467 209.945L30.467 205.251L25.679 205.251L25.679 194.189L25.679 191.58L23.3795 191.58L23.3795 204.162L24.4715 205.251L25.658 206.435L25.679 206.456L30.467 211.233L31.475 212.239Z" fill="#E6E6E6" fill-opacity="0.2"/>
<path fill-rule="evenodd" clip-rule="evenodd" d="M48.8105 163.399L28.8395 163.399L28.8395 165.704L49.01 165.704L49.01 163.399L48.8105 163.399Z" fill="#E6E6E6" fill-opacity="0.2"/>
</svg>
