<svg width="50" height="194" viewBox="0 0 50 194" fill="none" xmlns="http://www.w3.org/2000/svg">
<path d="M32.4585 0.0961921L49.9935 0.0961936L49.9935 25.6686L24.3735 25.6686L24.3735 23.3743C32.154 23.3743 39.924 23.3743 47.7045 23.3743L47.7045 2.39048L31.461 2.39048L31.461 7.08381L26.6625 7.08381L26.6625 18.1467L26.6625 20.7552L24.3735 20.7552L24.3735 8.17334L25.4655 7.08381L26.652 5.9L26.6625 5.87905L31.461 1.10191L32.4585 0.0961921Z" fill="#E6E6E6" fill-opacity="0.2"/>
<path fill-rule="evenodd" clip-rule="evenodd" d="M30.033 46.6315L49.9935 46.6315L49.9935 48.9362L29.8335 48.9362L29.8335 46.6315L30.033 46.6315Z" fill="#E6E6E6" fill-opacity="0.2"/>
<path d="M18.525 48.9362L0.989988 48.9362L0.98999 23.3743L26.6205 23.3743L26.6205 25.6581C18.84 25.6581 11.0595 25.6581 3.28949 25.6581L3.28949 46.6524L19.533 46.6524L19.533 41.9486L24.321 41.9486L24.321 30.8962L24.321 28.2876L26.6205 28.2876L26.6205 40.859L25.5285 41.9486L24.342 43.1428L24.321 43.1533L19.533 47.9409L18.525 48.9362Z" fill="#E6E6E6" fill-opacity="0.2"/>
<path fill-rule="evenodd" clip-rule="evenodd" d="M1.18949 0.0961914L21.1605 0.0961932L21.1605 2.40096L0.98999 2.40095L0.98999 0.0961914L1.18949 0.0961914Z" fill="#E6E6E6" fill-opacity="0.2"/>
<path d="M32.4585 54.4362L49.9935 54.4362L49.9935 80.0086L24.3735 80.0086L24.3735 77.7143C32.154 77.7143 39.924 77.7143 47.7045 77.7143L47.7045 56.7305L31.461 56.7305L31.461 61.4238L26.6625 61.4238L26.6625 72.4762L26.6625 75.0953L24.3735 75.0953L24.3735 62.5134L25.4655 61.4238L26.652 60.24L26.6625 60.2191L31.461 55.4419L32.4585 54.4362Z" fill="#E6E6E6" fill-opacity="0.2"/>
<path fill-rule="evenodd" clip-rule="evenodd" d="M30.033 100.971L49.9935 100.971L49.9935 103.276L29.8335 103.276L29.8335 100.971L30.033 100.971Z" fill="#E6E6E6" fill-opacity="0.2"/>
<path d="M18.525 103.276L0.989988 103.276L0.98999 77.7143L26.6205 77.7143L26.6205 79.9981C18.84 79.9981 11.0595 79.9981 3.28949 79.9981L3.28949 100.992L19.533 100.992L19.533 96.2886L24.321 96.2886L24.321 85.2362L24.321 82.6276L26.6205 82.6276L26.6205 95.1991L25.5285 96.2886L24.342 97.4829L24.321 97.4933L19.533 102.27L18.525 103.276Z" fill="#E6E6E6" fill-opacity="0.2"/>
<path fill-rule="evenodd" clip-rule="evenodd" d="M1.18949 54.4362L21.1605 54.4362L21.1605 56.741L0.98999 56.741L0.98999 54.4362L1.18949 54.4362Z" fill="#E6E6E6" fill-opacity="0.2"/>
<path d="M32.4585 109.059L49.9935 109.059L49.9935 134.621L24.3735 134.621L24.3735 132.337C32.154 132.337 39.924 132.337 47.7045 132.337L47.7045 111.343L31.461 111.343L31.461 116.047L26.6625 116.047L26.6625 127.099L26.6625 129.708L24.3735 129.708L24.3735 117.136L25.4655 116.047L26.652 114.852L26.6625 114.842L31.461 110.054L32.4585 109.059Z" fill="#E6E6E6" fill-opacity="0.2"/>
<path fill-rule="evenodd" clip-rule="evenodd" d="M30.033 155.594L49.9935 155.594L49.9935 157.899L29.8335 157.899L29.8335 155.594L30.033 155.594Z" fill="#E6E6E6" fill-opacity="0.2"/>
<path d="M18.525 157.899L0.989988 157.899L0.98999 132.327L26.6205 132.327L26.6205 134.621C18.84 134.621 11.0595 134.621 3.28949 134.621L3.28949 155.605L19.533 155.605L19.533 150.911L24.321 150.911L24.321 139.849L24.321 137.24L26.6205 137.24L26.6205 149.822L25.5285 150.911L24.342 152.095L24.321 152.116L19.533 156.893L18.525 157.899Z" fill="#E6E6E6" fill-opacity="0.2"/>
<path fill-rule="evenodd" clip-rule="evenodd" d="M1.18949 109.059L21.1605 109.059L21.1605 111.364L0.98999 111.364L0.98999 109.059L1.18949 109.059Z" fill="#E6E6E6" fill-opacity="0.2"/>
<path d="M32.4585 163.399L49.9935 163.399L49.9935 188.961L24.3735 188.961L24.3735 186.677C32.154 186.677 39.924 186.677 47.7045 186.677L47.7045 165.683L31.461 165.683L31.461 170.387L26.6625 170.387L26.6625 181.439L26.6625 184.048L24.3735 184.048L24.3735 171.476L25.4655 170.387L26.652 169.192L26.6625 169.182L31.461 164.394L32.4585 163.399Z" fill="#E6E6E6" fill-opacity="0.2"/>
<path d="M18.525 212.239L0.989988 212.239L0.98999 186.667L26.6205 186.667L26.6205 188.961C18.84 188.961 11.0595 188.961 3.28949 188.961L3.28949 209.945L19.533 209.945L19.533 205.251L24.321 205.251L24.321 194.189L24.321 191.58L26.6205 191.58L26.6205 204.162L25.5285 205.251L24.342 206.435L24.321 206.456L19.533 211.233L18.525 212.239Z" fill="#E6E6E6" fill-opacity="0.2"/>
<path fill-rule="evenodd" clip-rule="evenodd" d="M1.18949 163.399L21.1605 163.399L21.1605 165.704L0.98999 165.704L0.98999 163.399L1.18949 163.399Z" fill="#E6E6E6" fill-opacity="0.2"/>
</svg>
