<svg width="50" height="213" viewBox="0 0 50 213" fill="none" xmlns="http://www.w3.org/2000/svg">
<path d="M32.4585 212.904L49.9935 212.904L49.9935 187.331L24.3735 187.331L24.3735 189.626C32.154 189.626 39.924 189.626 47.7045 189.626L47.7045 210.61L31.461 210.61L31.461 205.916L26.6625 205.916L26.6625 194.853L26.6625 192.245L24.3735 192.245L24.3735 204.827L25.4655 205.916L26.652 207.1L26.6625 207.121L31.461 211.898L32.4585 212.904Z" fill="#E6E6E6"/>
<path fill-rule="evenodd" clip-rule="evenodd" d="M30.033 166.369L49.9935 166.369L49.9935 164.064L29.8335 164.064L29.8335 166.369L30.033 166.369Z" fill="#E6E6E6"/>
<path d="M18.525 164.064L0.989988 164.064L0.98999 189.626L26.6205 189.626L26.6205 187.342C18.84 187.342 11.0595 187.342 3.28949 187.342L3.28949 166.348L19.533 166.348L19.533 171.051L24.321 171.051L24.321 182.104L24.321 184.712L26.6205 184.712L26.6205 172.141L25.5285 171.051L24.342 169.857L24.321 169.847L19.533 165.059L18.525 164.064Z" fill="#E6E6E6"/>
<path fill-rule="evenodd" clip-rule="evenodd" d="M1.18949 212.904L21.1605 212.904L21.1605 210.599L0.98999 210.599L0.98999 212.904L1.18949 212.904Z" fill="#E6E6E6"/>
<path d="M32.4585 158.564L49.9935 158.564L49.9935 132.991L24.3735 132.991L24.3735 135.286C32.154 135.286 39.924 135.286 47.7045 135.286L47.7045 156.269L31.461 156.269L31.461 151.576L26.6625 151.576L26.6625 140.524L26.6625 137.905L24.3735 137.905L24.3735 150.487L25.4655 151.576L26.652 152.76L26.6625 152.781L31.461 157.558L32.4585 158.564Z" fill="#E6E6E6"/>
<path fill-rule="evenodd" clip-rule="evenodd" d="M30.033 112.029L49.9935 112.029L49.9935 109.724L29.8335 109.724L29.8335 112.029L30.033 112.029Z" fill="#E6E6E6"/>
<path d="M18.525 109.724L0.989988 109.724L0.98999 135.286L26.6205 135.286L26.6205 133.002C18.84 133.002 11.0595 133.002 3.28949 133.002L3.28949 112.008L19.533 112.008L19.533 116.711L24.321 116.711L24.321 127.764L24.321 130.372L26.6205 130.372L26.6205 117.801L25.5285 116.711L24.342 115.517L24.321 115.507L19.533 110.729L18.525 109.724Z" fill="#E6E6E6"/>
<path fill-rule="evenodd" clip-rule="evenodd" d="M1.18949 158.564L21.1605 158.564L21.1605 156.259L0.98999 156.259L0.98999 158.564L1.18949 158.564Z" fill="#E6E6E6"/>
<path d="M32.4585 103.941L49.9935 103.941L49.9935 78.379L24.3735 78.379L24.3735 80.6628C32.154 80.6628 39.924 80.6628 47.7045 80.6628L47.7045 101.657L31.461 101.657L31.461 96.9533L26.6625 96.9533L26.6625 85.9009L26.6625 83.2924L24.3735 83.2924L24.3735 95.8638L25.4655 96.9533L26.652 98.1476L26.6625 98.1581L31.461 102.946L32.4585 103.941Z" fill="#E6E6E6"/>
<path fill-rule="evenodd" clip-rule="evenodd" d="M30.033 57.4058L49.9935 57.4058L49.9935 55.101L29.8335 55.101L29.8335 57.4058L30.033 57.4058Z" fill="#E6E6E6"/>
<path d="M18.525 55.1009L0.989988 55.1009L0.98999 80.6733L26.6205 80.6733L26.6205 78.379C18.84 78.3791 11.0595 78.3791 3.28949 78.3791L3.28949 57.3952L19.533 57.3952L19.533 62.0886L24.321 62.0886L24.321 73.1514L24.321 75.76L26.6205 75.76L26.6205 63.1781L25.5285 62.0886L24.342 60.9047L24.321 60.8838L19.533 56.1066L18.525 55.1009Z" fill="#E6E6E6"/>
<path fill-rule="evenodd" clip-rule="evenodd" d="M1.18949 103.941L21.1605 103.941L21.1605 101.636L0.98999 101.636L0.98999 103.941L1.18949 103.941Z" fill="#E6E6E6"/>
<path d="M32.4585 49.6011L49.9935 49.6011L49.9935 24.0392L24.3735 24.0392L24.3735 26.323C32.154 26.323 39.924 26.323 47.7045 26.323L47.7045 47.3173L31.461 47.3173L31.461 42.6135L26.6625 42.6135L26.6625 31.5611L26.6625 28.9525L24.3735 28.9525L24.3735 41.5239L25.4655 42.6135L26.652 43.8077L26.6625 43.8182L31.461 48.6058L32.4585 49.6011Z" fill="#E6E6E6"/>
<path fill-rule="evenodd" clip-rule="evenodd" d="M30.033 3.07617L49.9935 3.07617L49.9935 0.760939L29.8335 0.760941L29.8335 3.07617L30.033 3.07617Z" fill="#E6E6E6"/>
<path d="M18.525 0.760878L0.989988 0.76088L0.98999 26.3333L26.6205 26.3332L26.6205 24.039C18.84 24.039 11.0595 24.039 3.28949 24.039L3.28949 3.05516L19.533 3.05516L19.533 7.7485L24.321 7.74849L24.321 18.8113L24.321 21.4199L26.6205 21.4199L26.6205 8.83802L25.5285 7.74849L24.342 6.56469L24.321 6.54373L19.533 1.76659L18.525 0.760878Z" fill="#E6E6E6"/>
<path fill-rule="evenodd" clip-rule="evenodd" d="M1.18949 49.6011L21.1605 49.6011L21.1605 47.2963L0.98999 47.2963L0.98999 49.6011L1.18949 49.6011Z" fill="#E6E6E6"/>
</svg>
