<svg width="7" height="38" viewBox="0 0 7 38" fill="none" xmlns="http://www.w3.org/2000/svg">
<path d="M0.212006 1C0.212006 0.570252 0.336273 0.285706 0.591566 0.133584C0.440636 0.0436484 0.243914 6.05452e-07 -3.24077e-06 6.27311e-07L1.18314 5.21282e-07C0.939221 5.43141e-07 0.742496 0.0436483 0.591566 0.133584C0.84686 0.285706 0.971134 0.570252 0.971134 1L0.971135 9C0.971135 9.24866 0.851772 9.81351 0.971135 10L6.79796 18C7.09636 18.4352 7.03668 19.627 6.79796 20L0.971136 28L0.971137 37C0.971137 37.4522 0.833543 37.7436 0.550486 37.8892C0.696837 37.9583 0.900729 38 1.18314 38L0 38C0.222363 38 0.405505 37.9637 0.550486 37.8892C0.148688 37.6995 0.180594 37.3038 0.212009 37L0.212006 1Z" fill="#007344"/>
</svg>
