<svg width="164" height="164" fill="none" xmlns="http://www.w3.org/2000/svg"><g clip-path="url(#a)"><path d="M146.062 99.938V8.968a6.52 6.52 0 0 0-6.559-6.405H9.123a6.521 6.521 0 0 0-6.56 6.406V134.53a6.52 6.52 0 0 0 6.56 6.407h136.939v-41Z" fill="#fff"/><path d="M139.503 2.563H9.123a6.521 6.521 0 0 0-6.56 6.406v19.219h143.499V8.968a6.52 6.52 0 0 0-6.559-6.405Zm-8.815 110.187a2.56 2.56 0 0 1-1.812-.751 2.559 2.559 0 0 1-.751-1.811v-10.25a2.561 2.561 0 1 1 5.125 0v10.25c0 .679-.27 1.331-.751 1.811a2.559 2.559 0 0 1-1.811.751Zm0-20.5a2.561 2.561 0 0 1-2.563-2.563v-10.25a2.561 2.561 0 1 1 5.125 0v10.25a2.561 2.561 0 0 1-2.562 2.563Zm0-20.5a2.561 2.561 0 0 1-2.563-2.563v-10.25a2.561 2.561 0 1 1 5.125 0v10.25a2.561 2.561 0 0 1-2.562 2.563Zm0-20.5a2.561 2.561 0 0 1-2.563-2.563v-2.562h-2.563A2.56 2.56 0 0 1 123 43.562 2.561 2.561 0 0 1 125.562 41h5.126a2.56 2.56 0 0 1 2.562 2.563v5.124a2.561 2.561 0 0 1-2.562 2.563Zm-14.437-5.125h-9.315a2.561 2.561 0 0 1-1.812-4.374 2.56 2.56 0 0 1 1.812-.751h9.315a2.56 2.56 0 0 1 2.562 2.563 2.561 2.561 0 0 1-2.562 2.562Zm-18.643 0h-9.314a2.563 2.563 0 0 1 0-5.125h9.314a2.563 2.563 0 0 1 0 5.125Zm-18.63 0h-9.327a2.563 2.563 0 0 1 0-5.125h9.315a2.563 2.563 0 0 1 0 5.125h.013Zm-18.641 0h-9.315a2.563 2.563 0 0 1 0-5.125h9.315a2.563 2.563 0 0 1 0 5.125Zm-18.63 0H32.38a2.563 2.563 0 0 1 0-5.125h9.315a2.563 2.563 0 0 1 0 5.125h.012ZM17.938 51.25a2.563 2.563 0 0 1-2.563-2.563v-5.124A2.563 2.563 0 0 1 17.938 41h5.125a2.563 2.563 0 0 1 0 5.125H20.5v2.563a2.563 2.563 0 0 1-2.563 2.562Zm0 61.5a2.561 2.561 0 0 1-2.563-2.562v-10.25a2.563 2.563 0 0 1 5.125 0v10.25a2.56 2.56 0 0 1-2.563 2.562Zm0-20.5a2.563 2.563 0 0 1-2.563-2.563v-10.25a2.563 2.563 0 0 1 5.125 0v10.25a2.563 2.563 0 0 1-2.563 2.563Zm0-20.5a2.563 2.563 0 0 1-2.563-2.563v-10.25a2.563 2.563 0 0 1 5.125 0v10.25a2.563 2.563 0 0 1-2.563 2.563Zm5.125 56.375h-5.125a2.561 2.561 0 0 1-2.563-2.563v-5.124a2.561 2.561 0 0 1 4.375-1.812c.48.48.75 1.132.75 1.812V123h2.563a2.561 2.561 0 1 1 0 5.125Zm93.188 0h-9.328a2.561 2.561 0 1 1 0-5.125h9.315a2.563 2.563 0 0 1 0 5.125h.013Zm-18.63 0h-9.327a2.56 2.56 0 0 1-1.812-4.374 2.56 2.56 0 0 1 1.812-.751h9.314a2.561 2.561 0 1 1 0 5.125h.013Zm-18.642 0H69.65a2.56 2.56 0 0 1-1.811-4.374A2.56 2.56 0 0 1 69.65 123h9.315a2.561 2.561 0 1 1 0 5.125h.013Zm-18.63 0h-9.327a2.561 2.561 0 0 1-1.812-4.374 2.561 2.561 0 0 1 1.812-.751h9.315a2.56 2.56 0 0 1 1.812 4.374 2.56 2.56 0 0 1-1.812.751h.013Zm-18.642 0H32.38a2.561 2.561 0 1 1 0-5.125h9.315a2.56 2.56 0 0 1 1.812 4.374 2.56 2.56 0 0 1-1.812.751h.012Z" fill="#E3EFFF"/><path d="M89.688 89.688 61.5 58.938l-28.188 30.75h15.376v20.5h25.624v-20.5h15.376Z" fill="#67A8FF"/><path d="M74.306 112.749H48.681a2.564 2.564 0 0 1-2.562-2.562V92.249H33.306a2.563 2.563 0 0 1-1.883-4.292l28.187-30.75a2.64 2.64 0 0 1 3.78 0l28.188 30.75a2.563 2.563 0 0 1-1.897 4.292H76.87v17.938a2.564 2.564 0 0 1-2.563 2.562Zm-23.062-5.125h20.5V89.687a2.562 2.562 0 0 1 2.562-2.563h9.546L61.494 62.781 39.136 87.124h9.545a2.562 2.562 0 0 1 2.563 2.563v17.937Z" fill="#67A8FF"/><path d="M146.062 30.75H2.562a2.563 2.563 0 0 1 0-5.125h143.5A2.561 2.561 0 0 1 147.874 30c-.48.48-1.132.75-1.812.75Zm-15.374-17.937a2.562 2.562 0 1 0 0 5.124 2.562 2.562 0 0 0 0-5.125Zm-10.25 0a2.562 2.562 0 1 0 0 5.124 2.562 2.562 0 0 0 0-5.125Zm-10.25 0a2.562 2.562 0 1 0 0 5.124 2.562 2.562 0 0 0 0-5.125Z" fill="#CFE3FF"/><path d="M79.438 143.5H8.904A8.97 8.97 0 0 1 0 134.531V8.969A8.969 8.969 0 0 1 8.905 0H139.72a8.969 8.969 0 0 1 8.905 8.969v85.844a2.561 2.561 0 1 1-5.125 0V8.969a3.844 3.844 0 0 0-3.78-3.844H8.905a3.844 3.844 0 0 0-3.78 3.844V134.53a3.844 3.844 0 0 0 3.78 3.844h70.532a2.561 2.561 0 1 1 0 5.125Z" fill="#CFE3FF"/><path d="M161.438 161.438h-71.75v-56.376h71.75v56.376Z" fill="#E3EFFF"/><path d="M161.438 164h-71.75a2.561 2.561 0 0 1-2.563-2.562v-56.376a2.56 2.56 0 0 1 2.563-2.562h71.75c.679 0 1.331.27 1.811.751.481.48.751 1.132.751 1.811v56.376c0 .679-.27 1.331-.751 1.811a2.559 2.559 0 0 1-1.811.751Zm-69.188-5.125h66.625v-51.25H92.25v51.25Z" fill="#CEE3FF"/><path d="m161.438 161.438-52.532-21.782-19.219 10.981v10.801h71.751Z" fill="#fff"/><path d="M161.437 163.999h-71.75a2.564 2.564 0 0 1-2.562-2.562v-10.801a2.56 2.56 0 0 1 1.281-2.229l19.219-10.981a2.558 2.558 0 0 1 2.255-.141l52.531 21.782a2.56 2.56 0 0 1 1.541 2.866 2.568 2.568 0 0 1-.887 1.484 2.569 2.569 0 0 1-1.628.582Zm-69.187-5.125h56.375L109.086 142.5l-16.836 9.622v6.752Z" fill="#CFE3FF"/><path d="m118.167 143.501 20.628-11.275 22.64 11.236v17.976l-43.268-17.937Z" fill="#fff"/><path d="M161.439 163.999a2.562 2.562 0 0 1-.986-.192l-43.255-17.938a2.557 2.557 0 0 1-1.572-2.229 2.556 2.556 0 0 1 1.328-2.383l20.615-11.275a2.564 2.564 0 0 1 2.371 0l22.639 11.224a2.561 2.561 0 0 1 1.423 2.293v17.938a2.563 2.563 0 0 1-2.563 2.562Zm-37.336-20.82 34.774 14.414v-12.556l-20.026-9.93-14.748 8.072Z" fill="#CFE3FF"/><path d="M112.75 130.688a7.688 7.688 0 1 0 0-15.376 7.688 7.688 0 0 0 0 15.376Z" fill="#F5F9FF"/><path d="M112.75 133.25a10.255 10.255 0 0 1-9.47-6.327 10.246 10.246 0 0 1 2.222-11.171 10.252 10.252 0 0 1 15.771 1.553 10.255 10.255 0 0 1-1.275 12.943 10.25 10.25 0 0 1-7.248 3.002Zm0-15.375a5.125 5.125 0 1 0 .001 10.25 5.125 5.125 0 0 0-.001-10.25Z" fill="#CFE3FF"/></g><defs><clipPath id="a"><path fill="#fff" d="M0 0h164v164H0z"/></clipPath></defs></svg>