<svg width="12" height="12" viewBox="0 0 12 12" fill="none" xmlns="http://www.w3.org/2000/svg">
<path fill-rule="evenodd" clip-rule="evenodd" d="M1.43002 12C1.06382 12 0.697608 11.8608 0.419137 11.5804C-0.139712 11.0216 -0.139712 10.1175 0.419137 9.55871L9.55909 0.41912C10.1179 -0.139707 11.022 -0.139707 11.5809 0.41912C12.1397 0.977947 12.1397 1.88199 11.5809 2.44082L2.44091 11.5804C2.16244 11.8608 1.79623 12 1.43002 12Z" fill="#C7C7C7"/>
<path fill-rule="evenodd" clip-rule="evenodd" d="M10.5709 12C10.2049 12 9.83893 11.8609 9.56064 11.5807L0.418871 2.43888C-0.139624 1.88049 -0.139624 0.977171 0.418871 0.418787C0.979271 -0.139596 1.88277 -0.139596 2.43936 0.418787L11.5811 9.56065C12.1396 10.119 12.1396 11.0224 11.5811 11.5807C11.3028 11.8609 10.935 12 10.5709 12Z" fill="#C7C7C7"/>
</svg>
