<svg width="164" height="164" viewBox="0 0 164 164" fill="none" xmlns="http://www.w3.org/2000/svg">
<path d="M46.9511 135.236C46.7185 135.59 46.2431 135.688 45.8926 135.451C36.5562 129.144 29.0343 120.501 24.0765 110.384C23.8904 110.004 24.0532 109.547 24.4353 109.365C24.8173 109.183 25.2738 109.346 25.46 109.726C30.2975 119.591 37.6323 128.019 46.735 134.172C47.0854 134.409 47.1837 134.883 46.9511 135.236Z" fill="#FEFEFE"/>
<path d="M18.3506 85.3412C17.9282 85.3634 17.5674 85.0389 17.5502 84.6163C17.1663 75.1618 18.8672 65.7352 22.536 57.0063C26.2048 48.2774 31.749 40.4661 38.772 34.1247C39.0859 33.8412 39.5703 33.872 39.85 34.1893C40.1297 34.5065 40.0989 34.9902 39.785 35.2738C32.9353 41.4624 27.5274 49.0837 23.9481 57.5998C20.3688 66.1158 18.7081 75.3121 19.08 84.536C19.097 84.9586 18.773 85.3191 18.3506 85.3412Z" fill="#FEFEFE"/>
<path d="M65.9775 144.074C65.8597 144.479 66.0929 144.904 66.4997 145.017C76.468 147.784 86.9598 148.114 97.089 145.974C107.468 143.781 117.145 139.063 125.265 132.236C133.384 125.41 139.695 116.686 143.637 106.839C147.58 96.9908 149.033 86.3226 147.868 75.779C146.703 65.2354 142.956 55.1419 136.958 46.3925C130.96 37.6431 122.897 30.5079 113.483 25.6189C104.069 20.7299 93.5951 18.2381 82.9881 18.3641C72.636 18.487 62.4694 21.0999 53.3458 25.9769C52.9735 26.1759 52.8386 26.6412 53.042 27.0111C53.2455 27.381 53.7101 27.5155 54.0824 27.3166C62.9857 22.5606 72.9056 20.0127 83.0063 19.8927C93.3619 19.7697 103.588 22.2025 112.779 26.9756C121.97 31.7487 129.842 38.7148 135.697 47.2569C141.553 55.7989 145.211 65.6532 146.349 75.9469C147.486 86.2406 146.067 96.656 142.218 106.27C138.369 115.885 132.208 124.402 124.281 131.066C116.354 137.731 106.906 142.338 96.773 144.479C86.8897 146.567 76.653 146.246 66.9261 143.549C66.5193 143.436 66.0952 143.669 65.9775 144.074Z" fill="#FEFEFE"/>
<path d="M122.879 107.926C123.148 108.091 123.233 108.443 123.066 108.71C118.595 115.829 112.338 121.653 104.918 125.601C104.639 125.75 104.294 125.64 104.149 125.359C104.004 125.079 104.114 124.734 104.393 124.586C111.628 120.733 117.729 115.054 122.091 108.114C122.259 107.847 122.61 107.761 122.879 107.926Z" fill="#FEFEFE"/>
<path d="M86.3862 130.496C86.4132 130.81 86.1803 131.087 85.8656 131.111C78.8254 131.632 71.7541 130.599 65.154 128.08C58.554 125.562 52.5915 121.623 47.6881 116.544C47.4689 116.317 47.4798 115.955 47.7094 115.739C47.939 115.522 48.3004 115.533 48.5197 115.76C53.3048 120.713 59.1223 124.556 65.5614 127.013C72.0005 129.47 78.899 130.479 85.7676 129.972C86.0823 129.949 86.3591 130.181 86.3862 130.496Z" fill="#FEFEFE"/>
<path d="M128.992 93.5215C129.297 93.5992 129.608 93.4148 129.682 93.1087C131.497 85.6069 131.482 77.7755 129.634 70.276C127.74 62.5918 123.981 55.4932 118.688 49.609C113.396 43.7249 106.734 39.2367 99.2932 36.542C91.852 33.8474 83.8611 33.0295 76.0284 34.1609C68.1956 35.2922 60.7627 38.3377 54.3881 43.0278C48.0135 47.7179 42.894 53.9077 39.483 61.0489C36.072 68.1901 34.4748 76.0624 34.8329 83.9683C35.1824 91.6843 37.3838 99.1999 41.2476 105.881C41.4053 106.154 41.7555 106.243 42.0263 106.082C42.297 105.921 42.3858 105.571 42.2282 105.299C38.4602 98.7785 36.3133 91.4453 35.9723 83.9167C35.6226 76.1981 37.182 68.5125 40.5121 61.5405C43.8423 54.5685 48.8405 48.5254 55.064 43.9465C61.2876 39.3676 68.5443 36.3942 76.1914 35.2897C83.8386 34.1852 91.6401 34.9837 98.9049 37.6144C106.17 40.2452 112.674 44.627 117.84 50.3718C123.007 56.1165 126.678 63.0468 128.526 70.5489C130.33 77.8663 130.346 85.5073 128.577 92.8273C128.503 93.1334 128.687 93.4438 128.992 93.5215Z" fill="#FEFEFE"/>
</svg>
