<svg width="164" height="164" viewBox="0 0 164 164" fill="none" xmlns="http://www.w3.org/2000/svg">
<path d="M68.7632 112H98.2368C99.7603 112 101 110.759 101 109.234V55.7656C101 54.2408 99.7603 53 98.2368 53H68.7632C67.2397 53 66 54.2408 66 55.7656V109.234C66 110.759 67.2397 112 68.7632 112ZM67.8421 55.7656C67.8421 55.2568 68.2547 54.8438 68.7632 54.8438H98.2368C98.7453 54.8438 99.1579 55.2568 99.1579 55.7656V109.234C99.1579 109.743 98.7453 110.156 98.2368 110.156H68.7632C68.2547 110.156 67.8421 109.743 67.8421 109.234V55.7656Z" fill="#FEFEFE"/>
<rect x="71.5312" y="64.0605" width="23.9492" height="36.8792" fill="white"/>
<path d="M70.6054 102.781H96.3949C96.9033 102.781 97.3159 102.368 97.3159 101.859V63.1406C97.3159 62.6318 96.9033 62.2188 96.3949 62.2188H70.6054C70.097 62.2188 69.6843 62.6318 69.6843 63.1406V101.859C69.6843 102.368 70.097 102.781 70.6054 102.781ZM71.5264 64.0625H95.4738V100.938H71.5264V64.0625Z" fill="#FEFEFE"/>
<path d="M84.4211 108.312C85.4384 108.312 86.2632 107.487 86.2632 106.469C86.2632 105.45 85.4384 104.625 84.4211 104.625C83.4037 104.625 82.5789 105.45 82.5789 106.469C82.5789 107.487 83.4037 108.312 84.4211 108.312Z" fill="#FEFEFE"/>
<path d="M79.8158 60.375H87.1842C87.6926 60.375 88.1053 59.962 88.1053 59.4531C88.1053 58.9443 87.6926 58.5312 87.1842 58.5312H79.8158C79.3074 58.5312 78.8947 58.9443 78.8947 59.4531C78.8947 59.962 79.3074 60.375 79.8158 60.375Z" fill="#FEFEFE"/>
<path d="M46.951 135.236C46.7184 135.59 46.2431 135.688 45.8926 135.451C36.5562 129.144 29.0343 120.501 24.0765 110.384C23.8904 110.004 24.0532 109.547 24.4352 109.365V109.365C24.8172 109.183 25.2738 109.346 25.46 109.726C30.2975 119.591 37.6322 128.019 46.7349 134.172C47.0854 134.409 47.1836 134.883 46.951 135.236V135.236Z" fill="#FEFEFE"/>
<path d="M18.3504 85.3412C17.928 85.3634 17.5671 85.0389 17.55 84.6163C17.1661 75.1618 18.867 65.7352 22.5358 57.0063C26.2046 48.2774 31.7488 40.4661 38.7717 34.1247C39.0857 33.8412 39.57 33.872 39.8497 34.1893V34.1893C40.1295 34.5065 40.0987 34.9902 39.7848 35.2738C32.935 41.4624 27.5272 49.0837 23.9479 57.5998C20.3686 66.1158 18.7079 75.3121 19.0797 84.536C19.0968 84.9586 18.7728 85.3191 18.3504 85.3412V85.3412Z" fill="#FEFEFE"/>
<path d="M65.9774 144.074C65.8597 144.479 66.0928 144.904 66.4996 145.017C76.468 147.784 86.9597 148.114 97.0889 145.974C107.468 143.781 117.145 139.063 125.265 132.236C133.384 125.41 139.694 116.686 143.637 106.839C147.58 96.9908 149.033 86.3226 147.868 75.779C146.703 65.2354 142.956 55.1419 136.958 46.3925C130.96 37.6431 122.897 30.5079 113.483 25.6189C104.069 20.7299 93.595 18.2381 82.988 18.3641C72.6359 18.4871 62.4694 21.0999 53.3457 25.9769C52.9734 26.1759 52.8386 26.6411 53.042 27.0111V27.0111C53.2454 27.381 53.71 27.5155 54.0824 27.3166C62.9857 22.5606 72.9055 20.0127 83.0062 19.8927C93.3618 19.7697 103.588 22.2025 112.779 26.9756C121.97 31.7487 129.841 38.7148 135.697 47.2569C141.553 55.7989 145.211 65.6532 146.349 75.9469C147.486 86.2406 146.067 96.656 142.218 106.27C138.369 115.885 132.208 124.402 124.281 131.066C116.354 137.731 106.906 142.338 96.7729 144.479C86.8897 146.567 76.6529 146.246 66.926 143.549C66.5192 143.436 66.0951 143.669 65.9774 144.074V144.074Z" fill="#FEFEFE"/>
<path d="M122.879 107.926C123.148 108.091 123.233 108.443 123.066 108.71C118.595 115.829 112.338 121.653 104.918 125.601C104.639 125.75 104.294 125.64 104.149 125.359V125.359C104.004 125.079 104.114 124.734 104.393 124.586C111.628 120.733 117.729 115.054 122.091 108.114C122.259 107.847 122.61 107.761 122.879 107.926V107.926Z" fill="#FEFEFE"/>
<path d="M86.3861 130.496C86.4132 130.81 86.1802 131.087 85.8655 131.111C78.8253 131.632 71.754 130.599 65.154 128.081C58.5539 125.562 52.5914 121.623 47.6881 116.544C47.4689 116.317 47.4798 115.955 47.7094 115.739V115.739C47.939 115.522 48.3004 115.533 48.5196 115.76C53.3048 120.713 59.1223 124.556 65.5614 127.013C72.0005 129.47 78.899 130.479 85.7675 129.972C86.0822 129.949 86.3591 130.181 86.3861 130.496V130.496Z" fill="#FEFEFE"/>
<path d="M128.992 93.5215C129.297 93.5992 129.608 93.4148 129.682 93.1087C131.497 85.6069 131.482 77.7755 129.634 70.276C127.74 62.5918 123.981 55.4932 118.688 49.609C113.396 43.7249 106.734 39.2367 99.2932 36.542C91.852 33.8474 83.8612 33.0295 76.0284 34.1609C68.1956 35.2922 60.7627 38.3377 54.3881 43.0278C48.0135 47.7179 42.894 53.9077 39.483 61.0489C36.072 68.1901 34.4748 76.0624 34.8329 83.9683C35.1824 91.6843 37.3838 99.1999 41.2476 105.881C41.4053 106.154 41.7555 106.243 42.0263 106.082V106.082C42.297 105.921 42.3858 105.571 42.2282 105.299C38.4602 98.7785 36.3133 91.4453 35.9723 83.9167C35.6226 76.1981 37.182 68.5125 40.5121 61.5405C43.8423 54.5685 48.8405 48.5254 55.064 43.9465C61.2876 39.3676 68.5443 36.3942 76.1914 35.2897C83.8386 34.1852 91.6401 34.9837 98.9049 37.6144C106.17 40.2452 112.674 44.627 117.84 50.3718C123.007 56.1165 126.678 63.0468 128.526 70.5489C130.33 77.8663 130.346 85.5073 128.577 92.8273C128.503 93.1334 128.687 93.4438 128.992 93.5215V93.5215Z" fill="#FEFEFE"/>
</svg>
