<svg width="164" height="164" viewBox="0 0 164 164" fill="none" xmlns="http://www.w3.org/2000/svg">
<path d="M54.0627 83.7316C54.7154 99.4238 67.6493 112 83.5 112C99.3507 112 112.285 99.4238 112.937 83.7316C112.972 83.6339 113 83.5325 113 83.4219C113 83.3555 112.976 83.2983 112.963 83.2375C112.969 82.9904 113 82.7489 113 82.5C113 66.2344 99.7656 53 83.5 53C67.2344 53 54 66.2344 54 82.5C54 82.7489 54.0313 82.9904 54.0369 83.2375C54.024 83.2983 54 83.3555 54 83.4219C54 83.5325 54.0277 83.6339 54.0627 83.7316ZM99.9481 94.9306C97.5162 93.9128 94.9054 93.1255 92.1767 92.5872C92.468 89.9082 92.6395 87.126 92.6929 84.3456H101.875C101.707 88.1327 101.034 91.7077 99.9481 94.9306ZM103.717 84.3438H111.062C110.719 89.5173 108.964 94.3055 106.152 98.3175C104.753 97.3348 103.245 96.4387 101.622 95.6625C102.811 92.2166 103.543 88.3926 103.717 84.3438ZM76.8422 94.0898C79.0142 93.7506 81.2433 93.5625 83.5 93.5625C85.7567 93.5625 87.9858 93.7506 90.1559 94.0898C88.8764 103.926 86.0812 110.156 83.5 110.156C80.9188 110.156 78.1236 103.926 76.8422 94.0898ZM79.6429 109.537C74.5707 107.911 70.2803 103.137 67.6917 96.66C69.989 95.692 72.4596 94.9361 75.0483 94.4162C75.8945 100.862 77.4414 106.478 79.6429 109.537ZM76.6302 72.7447C78.874 73.0913 81.175 73.2812 83.5 73.2812C85.825 73.2812 88.126 73.0913 90.3698 72.7447C90.6869 75.7316 90.875 78.9913 90.875 82.5H76.125C76.125 78.9913 76.3131 75.7316 76.6302 72.7447ZM90.8473 84.3438C90.7957 87.1555 90.6298 89.8031 90.368 92.2553C88.126 91.9087 85.8268 91.7188 83.5 91.7188C81.1732 91.7188 78.874 91.9087 76.6302 92.2553C76.3112 89.2573 76.1932 86.6189 76.1508 84.3438H90.8473ZM91.9536 94.4162C94.5422 94.9361 97.011 95.692 99.3102 96.66C96.7215 103.137 92.4311 107.911 87.359 109.537C89.5586 106.478 91.1055 100.862 91.9536 94.4162ZM92.7188 82.5C92.7188 79.1149 92.5307 75.6855 92.1767 72.4147C94.9054 71.8763 97.5162 71.0872 99.9481 70.0713C101.209 73.8122 101.938 78.0271 101.938 82.5H92.7188ZM91.9536 70.5838C91.1055 64.1381 89.5604 58.5202 87.3571 55.4632C92.4293 57.0894 96.7197 61.8629 99.3083 68.34C97.011 69.308 94.5422 70.0657 91.9536 70.5838ZM90.1578 70.9102C87.9858 71.2494 85.7567 71.4375 83.5 71.4375C81.2433 71.4375 79.0142 71.2494 76.8422 70.9102C78.1236 61.0738 80.9188 54.8438 83.5 54.8438C86.0812 54.8438 88.8764 61.0738 90.1578 70.9102ZM75.0464 70.5838C72.4578 70.0639 69.989 69.308 67.6898 68.34C70.2785 61.8629 74.5689 57.0894 79.641 55.4632C77.4414 58.522 75.8945 64.1381 75.0464 70.5838ZM74.8233 72.4147C74.4693 75.6855 74.2812 79.1149 74.2812 82.5H65.0625C65.0625 78.0271 65.7908 73.8123 67.0519 70.0694C69.4838 71.0872 72.0946 71.8745 74.8233 72.4147ZM74.3071 84.3438C74.3605 87.1241 74.532 89.9063 74.8233 92.5872C72.0946 93.1255 69.4838 93.9147 67.0519 94.9306C65.9659 91.7077 65.293 88.1327 65.1252 84.3438H74.3071ZM65.3759 95.6625C63.7534 96.4406 62.2471 97.3348 60.8477 98.3175C58.036 94.3055 56.2807 89.5192 55.9378 84.3438H63.2833C63.4566 88.3926 64.1886 92.2166 65.3759 95.6625ZM61.9521 99.7944C63.2151 98.9112 64.5647 98.0944 66.0212 97.3883C67.8724 101.97 70.5366 105.774 73.7392 108.346C69.0819 106.579 65.0201 103.611 61.9521 99.7944ZM93.2608 108.344C96.4653 105.774 99.1276 101.968 100.979 97.3864C102.435 98.0944 103.785 98.9094 105.048 99.7925C101.98 103.611 97.9181 106.579 93.2608 108.344ZM103.781 82.5C103.781 77.7671 102.992 73.3052 101.624 69.3375C103.247 68.5594 104.755 67.6652 106.154 66.6825C109.296 71.1702 111.156 76.6184 111.156 82.5H103.781ZM105.05 65.2056C103.787 66.0888 102.437 66.9037 100.981 67.6117C99.1295 63.03 96.4653 59.2245 93.2627 56.6543C97.9181 58.4206 101.98 61.3891 105.05 65.2056ZM73.7392 56.6562C70.5348 59.2263 67.8724 63.0318 66.0212 67.6136C64.5628 66.9056 63.2151 66.0888 61.9521 65.2056C65.0201 61.3891 69.0819 58.4206 73.7392 56.6562ZM60.8477 66.6825C62.2453 67.6652 63.7534 68.5594 65.3759 69.3375C64.0079 73.3052 63.2188 77.7671 63.2188 82.5H55.8438C55.8438 76.6184 57.7041 71.1702 60.8477 66.6825Z" fill="#FEFEFE"/>
<path d="M76.62 72.747C76.62 72.747 80.2615 72.8555 83.8604 72.8555C87.4592 72.8555 90.5591 72.5684 90.5591 72.5684L90.793 77.5425L90.8884 82.4957H76.009C76.009 82.4957 76.1525 79.4566 76.2509 77.4798C76.3493 75.503 76.62 72.747 76.62 72.747Z" fill="#FEFEFE"/>
<path d="M103.715 84.328C103.715 84.328 105.441 84.3017 107.382 84.3017C109.322 84.3017 111.066 84.3017 111.066 84.3017L110.918 86.0284C110.918 86.0284 110.703 87.4409 110.625 87.789C110.547 88.137 110.395 88.9179 110.191 89.6643C109.987 90.4106 109.668 91.5495 109.668 91.5495C109.668 91.5495 108.92 93.7727 108.215 95.0612C107.509 96.3496 106.154 98.3279 106.154 98.3279L101.651 95.6667C101.651 95.6667 102.911 91.0167 103.252 89.0345C103.592 87.0523 103.715 84.328 103.715 84.328Z" fill="#FEFEFE"/>
<path d="M67.5512 96.7215C67.5512 96.7215 69.4442 95.9136 71.4326 95.3204C73.4209 94.7271 75.0597 94.4063 75.0597 94.4063C75.0597 94.4063 75.3891 96.9795 75.7773 98.8667C76.6753 103.232 79.6484 109.531 79.6484 109.554C79.6484 109.578 77.6559 108.862 76.7349 108.264C76.2693 107.961 75.2489 107.29 74.3075 106.448C73.3133 105.639 72.4315 104.606 71.8359 103.871C71.4156 103.351 70.2331 101.83 69.5345 100.518C68.8359 99.2065 67.5512 96.7215 67.5512 96.7215Z" fill="#FEFEFE"/>
<path d="M67.5525 68.2823C67.5525 68.2823 69.4453 69.0907 71.4338 69.6835C73.4223 70.2763 75.0614 70.5962 75.0614 70.5962C75.0614 70.5962 75.4696 68.0155 75.8603 66.121C76.7643 61.7385 79.6559 55.3868 79.7009 55.3868C79.7459 55.3868 77.7009 56.0352 76.755 56.6864C75.8091 57.3376 75.2672 57.6656 74.3243 58.5118C73.3285 59.3248 72.445 60.3627 71.8483 61.1017C71.4271 61.6232 70.2421 63.152 69.5415 64.4693C68.841 65.7865 67.5525 68.2823 67.5525 68.2823Z" fill="#FEFEFE"/>
<path d="M46.951 135.236C46.7184 135.59 46.2431 135.688 45.8926 135.451C36.5562 129.144 29.0343 120.501 24.0765 110.384C23.8904 110.004 24.0532 109.547 24.4352 109.365V109.365C24.8172 109.183 25.2738 109.346 25.46 109.726C30.2975 119.591 37.6322 128.019 46.7349 134.172C47.0854 134.409 47.1836 134.883 46.951 135.236V135.236Z" fill="#FEFEFE"/>
<path d="M18.3504 85.3412C17.928 85.3634 17.5671 85.0389 17.55 84.6163C17.1661 75.1618 18.867 65.7352 22.5358 57.0063C26.2046 48.2774 31.7488 40.4661 38.7717 34.1247C39.0857 33.8412 39.57 33.872 39.8497 34.1893V34.1893C40.1295 34.5065 40.0987 34.9902 39.7848 35.2738C32.935 41.4624 27.5272 49.0837 23.9479 57.5998C20.3686 66.1158 18.7079 75.3121 19.0797 84.536C19.0968 84.9586 18.7728 85.3191 18.3504 85.3412V85.3412Z" fill="#FEFEFE"/>
<path d="M65.9774 144.074C65.8597 144.479 66.0928 144.904 66.4996 145.017C76.468 147.784 86.9597 148.114 97.0889 145.974C107.468 143.781 117.145 139.063 125.265 132.236C133.384 125.41 139.694 116.686 143.637 106.839C147.58 96.9908 149.033 86.3226 147.868 75.779C146.703 65.2354 142.956 55.1419 136.958 46.3925C130.96 37.6431 122.897 30.5079 113.483 25.6189C104.069 20.7299 93.595 18.2381 82.988 18.3641C72.6359 18.4871 62.4694 21.0999 53.3457 25.9769C52.9734 26.1759 52.8386 26.6411 53.042 27.0111V27.0111C53.2454 27.381 53.71 27.5155 54.0824 27.3166C62.9857 22.5606 72.9055 20.0127 83.0062 19.8927C93.3618 19.7697 103.588 22.2025 112.779 26.9756C121.97 31.7487 129.841 38.7148 135.697 47.2569C141.553 55.7989 145.211 65.6532 146.349 75.9469C147.486 86.2406 146.067 96.656 142.218 106.27C138.369 115.885 132.208 124.402 124.281 131.066C116.354 137.731 106.906 142.338 96.7729 144.479C86.8897 146.567 76.6529 146.246 66.926 143.549C66.5192 143.436 66.0951 143.669 65.9774 144.074V144.074Z" fill="#FEFEFE"/>
<path d="M122.879 107.926C123.148 108.091 123.233 108.443 123.066 108.71C118.595 115.829 112.338 121.653 104.918 125.601C104.639 125.75 104.294 125.64 104.149 125.359V125.359C104.004 125.079 104.114 124.734 104.393 124.586C111.628 120.733 117.729 115.054 122.091 108.114C122.259 107.847 122.61 107.761 122.879 107.926V107.926Z" fill="#FEFEFE"/>
<path d="M86.3861 130.496C86.4132 130.81 86.1802 131.087 85.8655 131.111C78.8253 131.632 71.754 130.599 65.154 128.08C58.5539 125.562 52.5914 121.623 47.6881 116.544C47.4689 116.317 47.4798 115.955 47.7094 115.739V115.739C47.939 115.522 48.3004 115.533 48.5196 115.76C53.3048 120.713 59.1223 124.556 65.5614 127.013C72.0005 129.47 78.899 130.479 85.7675 129.972C86.0822 129.949 86.3591 130.181 86.3861 130.496V130.496Z" fill="#FEFEFE"/>
<path d="M128.992 93.5215C129.297 93.5992 129.608 93.4148 129.682 93.1087C131.497 85.6069 131.482 77.7755 129.634 70.276C127.74 62.5918 123.981 55.4932 118.688 49.609C113.396 43.7249 106.734 39.2367 99.2932 36.542C91.852 33.8474 83.8612 33.0295 76.0284 34.1609C68.1956 35.2922 60.7627 38.3377 54.3881 43.0278C48.0135 47.7179 42.894 53.9077 39.483 61.0489C36.072 68.1901 34.4748 76.0624 34.8329 83.9683C35.1824 91.6843 37.3838 99.1999 41.2476 105.881C41.4053 106.154 41.7555 106.243 42.0263 106.082V106.082C42.297 105.921 42.3858 105.571 42.2282 105.299C38.4602 98.7785 36.3133 91.4453 35.9723 83.9167C35.6226 76.1981 37.182 68.5125 40.5121 61.5405C43.8423 54.5685 48.8405 48.5254 55.064 43.9465C61.2876 39.3676 68.5443 36.3942 76.1914 35.2897C83.8386 34.1852 91.6401 34.9837 98.9049 37.6144C106.17 40.2452 112.674 44.627 117.84 50.3718C123.007 56.1165 126.678 63.0468 128.526 70.5489C130.33 77.8663 130.346 85.5073 128.577 92.8273C128.503 93.1334 128.687 93.4438 128.992 93.5215V93.5215Z" fill="#FEFEFE"/>
</svg>
