<svg width="164" height="164" viewBox="0 0 164 164" fill="none" xmlns="http://www.w3.org/2000/svg">
<path d="M108.381 74.5C108.039 74.5 107.762 74.78 107.762 75.125V100.125C107.762 100.47 107.485 100.75 107.143 100.75H58.8571C58.5154 100.75 58.2381 100.47 58.2381 100.125V75.125C58.2381 74.78 57.9608 74.5 57.619 74.5C57.2773 74.5 57 74.78 57 75.125V100.125C57 101.159 57.8332 102 58.8571 102H107.143C108.167 102 109 101.159 109 100.125V75.125C109 74.78 108.723 74.5 108.381 74.5Z" fill="#FEFEFE"/>
<path d="M107.143 62H58.8571C57.8332 62 57 62.8412 57 63.875V71.375C57 71.72 57.2773 72 57.619 72H108.381C108.723 72 109 71.72 109 71.375V63.875C109 62.8412 108.167 62 107.143 62ZM107.762 70.75H58.2381V63.875C58.2381 63.53 58.5154 63.25 58.8571 63.25H107.143C107.485 63.25 107.762 63.53 107.762 63.875V70.75Z" fill="#FEFEFE"/>
<path d="M78.6667 97C79.0084 97 79.2857 96.72 79.2857 96.375V76.375C79.2857 76.03 79.0084 75.75 78.6667 75.75H62.5714C62.2297 75.75 61.9524 76.03 61.9524 76.375V96.375C61.9524 96.72 62.2297 97 62.5714 97H78.6667ZM63.1905 77H78.0476V95.75H63.1905V77Z" fill="#FEFEFE"/>
<path d="M84.8571 80.75H103.429C103.77 80.75 104.048 80.47 104.048 80.125C104.048 79.78 103.77 79.5 103.429 79.5H84.8571C84.5154 79.5 84.2381 79.78 84.2381 80.125C84.2381 80.47 84.5154 80.75 84.8571 80.75Z" fill="#FEFEFE"/>
<path d="M84.8571 87H103.429C103.77 87 104.048 86.72 104.048 86.375C104.048 86.03 103.77 85.75 103.429 85.75H84.8571C84.5154 85.75 84.2381 86.03 84.2381 86.375C84.2381 86.72 84.5154 87 84.8571 87Z" fill="#FEFEFE"/>
<path d="M84.8571 93.25H103.429C103.77 93.25 104.048 92.97 104.048 92.625C104.048 92.28 103.77 92 103.429 92H84.8571C84.5154 92 84.2381 92.28 84.2381 92.625C84.2381 92.97 84.5154 93.25 84.8571 93.25Z" fill="#FEFEFE"/>
<path d="M61.9524 68.25C62.6362 68.25 63.1905 67.6904 63.1905 67C63.1905 66.3096 62.6362 65.75 61.9524 65.75C61.2686 65.75 60.7143 66.3096 60.7143 67C60.7143 67.6904 61.2686 68.25 61.9524 68.25Z" fill="#FEFEFE"/>
<path d="M66.9048 68.25C67.5885 68.25 68.1429 67.6904 68.1429 67C68.1429 66.3096 67.5885 65.75 66.9048 65.75C66.221 65.75 65.6667 66.3096 65.6667 67C65.6667 67.6904 66.221 68.25 66.9048 68.25Z" fill="#FEFEFE"/>
<path d="M71.8571 68.25C72.5409 68.25 73.0952 67.6904 73.0952 67C73.0952 66.3096 72.5409 65.75 71.8571 65.75C71.1734 65.75 70.619 66.3096 70.619 67C70.619 67.6904 71.1734 68.25 71.8571 68.25Z" fill="#FEFEFE"/>
<rect x="63.1953" y="76.9951" width="14.8516" height="18.7596" fill="#FEA632"/>
<path d="M46.951 135.236C46.7184 135.59 46.2431 135.688 45.8926 135.451C36.5562 129.144 29.0343 120.501 24.0765 110.384C23.8904 110.004 24.0532 109.547 24.4352 109.365V109.365C24.8172 109.183 25.2738 109.346 25.46 109.726C30.2975 119.591 37.6322 128.019 46.735 134.172C47.0854 134.409 47.1836 134.883 46.951 135.236V135.236Z" fill="#FEFEFE"/>
<path d="M18.3504 85.3412C17.928 85.3634 17.5671 85.0389 17.55 84.6163C17.1661 75.1618 18.867 65.7352 22.5358 57.0063C26.2046 48.2774 31.7488 40.4661 38.7717 34.1247C39.0857 33.8412 39.57 33.872 39.8497 34.1893V34.1893C40.1295 34.5065 40.0987 34.9902 39.7848 35.2738C32.935 41.4624 27.5272 49.0837 23.9479 57.5998C20.3686 66.1158 18.7079 75.3121 19.0797 84.536C19.0968 84.9586 18.7728 85.3191 18.3504 85.3412V85.3412Z" fill="#FEFEFE"/>
<path d="M65.9774 144.074C65.8597 144.479 66.0928 144.904 66.4996 145.017C76.468 147.784 86.9597 148.114 97.0889 145.974C107.468 143.781 117.145 139.063 125.265 132.236C133.384 125.41 139.694 116.686 143.637 106.839C147.58 96.9908 149.033 86.3226 147.868 75.779C146.703 65.2354 142.956 55.1419 136.958 46.3925C130.96 37.6431 122.897 30.5079 113.483 25.6189C104.069 20.7299 93.595 18.2381 82.988 18.3641C72.6359 18.4871 62.4694 21.0999 53.3457 25.9769C52.9734 26.1759 52.8386 26.6411 53.042 27.0111V27.0111C53.2454 27.381 53.71 27.5155 54.0824 27.3166C62.9857 22.5606 72.9055 20.0127 83.0062 19.8927C93.3618 19.7697 103.588 22.2025 112.779 26.9756C121.97 31.7487 129.841 38.7148 135.697 47.2569C141.553 55.7989 145.211 65.6532 146.349 75.9469C147.486 86.2406 146.067 96.656 142.218 106.27C138.369 115.885 132.208 124.402 124.281 131.066C116.354 137.731 106.906 142.338 96.7729 144.479C86.8897 146.567 76.6529 146.246 66.926 143.549C66.5192 143.436 66.0951 143.669 65.9774 144.074V144.074Z" fill="#FEFEFE"/>
<path d="M122.879 107.926C123.148 108.091 123.233 108.443 123.066 108.71C118.595 115.829 112.338 121.653 104.918 125.601C104.639 125.75 104.294 125.64 104.149 125.359V125.359C104.004 125.079 104.114 124.734 104.393 124.586C111.628 120.733 117.729 115.054 122.091 108.114C122.259 107.847 122.61 107.761 122.879 107.926V107.926Z" fill="#FEFEFE"/>
<path d="M86.3861 130.496C86.4132 130.81 86.1802 131.087 85.8655 131.111C78.8253 131.632 71.754 130.599 65.154 128.08C58.5539 125.562 52.5914 121.623 47.6881 116.544C47.4689 116.317 47.4798 115.955 47.7094 115.739V115.739C47.939 115.522 48.3004 115.533 48.5196 115.76C53.3048 120.713 59.1223 124.556 65.5614 127.013C72.0005 129.47 78.899 130.479 85.7675 129.972C86.0822 129.949 86.3591 130.181 86.3861 130.496V130.496Z" fill="#FEFEFE"/>
<path d="M128.992 93.5215C129.297 93.5992 129.608 93.4148 129.682 93.1087C131.497 85.6069 131.482 77.7755 129.634 70.276C127.74 62.5918 123.981 55.4932 118.688 49.609C113.396 43.7249 106.734 39.2367 99.2932 36.542C91.852 33.8474 83.8612 33.0295 76.0284 34.1609C68.1956 35.2922 60.7627 38.3377 54.3881 43.0278C48.0135 47.7179 42.894 53.9077 39.483 61.0489C36.072 68.1901 34.4748 76.0624 34.8329 83.9683C35.1824 91.6843 37.3838 99.1999 41.2476 105.881C41.4053 106.154 41.7555 106.243 42.0263 106.082V106.082C42.297 105.921 42.3858 105.571 42.2282 105.299C38.4602 98.7785 36.3133 91.4453 35.9723 83.9167C35.6226 76.1981 37.182 68.5125 40.5121 61.5405C43.8423 54.5685 48.8405 48.5254 55.064 43.9465C61.2876 39.3676 68.5443 36.3942 76.1914 35.2897C83.8386 34.1852 91.6401 34.9837 98.9049 37.6144C106.17 40.2452 112.674 44.627 117.84 50.3718C123.007 56.1165 126.678 63.0468 128.526 70.5489C130.33 77.8663 130.346 85.5073 128.577 92.8273C128.503 93.1334 128.687 93.4438 128.992 93.5215V93.5215Z" fill="#FEFEFE"/>
</svg>
