<svg width="60" height="155" viewBox="0 0 60 155" fill="none" xmlns="http://www.w3.org/2000/svg">
<path d="M57.5 152.5L2.5 152.5L2.49999 16.0355L16.0355 2.5L43.9645 2.5L57.5 16.0355L57.5 152.5Z" fill="#333780" stroke="#333780" stroke-width="5"/>
<path d="M30 0V155" stroke="#143357" stroke-width="5"/>
<path d="M14 99L16.3805 104.723L22.5595 105.219L17.8518 109.252L19.2901 115.281L14 112.05L8.70993 115.281L10.1482 109.252L5.44049 105.219L11.6195 104.723L14 99Z" fill="#C762D8"/>
<path d="M46 99L48.3805 104.723L54.5595 105.219L49.8518 109.252L51.2901 115.281L46 112.05L40.7099 115.281L42.1482 109.252L37.4405 105.219L43.6195 104.723L46 99Z" fill="#C762D8"/>
</svg>
