<svg width="1200" height="369" fill="none" xmlns="http://www.w3.org/2000/svg"><g opacity=".3"><path d="M192.926 131.048C136.893 37.056.726.304.726.304v67.56c0 8.203 5.85 15.293 13.77 17.428 24.909 6.716 80.304 25.464 138.665 70.459 66.021 50.901 73.866 79.881 74.666 87.999.061.623.88.831 1.111.248 3.053-7.677 8.916-37.588-36.012-112.95z" fill="#fff"/><path d="M192.926 131.048C136.893 37.056.726.304.726.304v67.56c0 8.203 5.85 15.293 13.77 17.428 24.909 6.716 80.304 25.464 138.665 70.459 66.021 50.901 73.866 79.881 74.666 87.999.061.623.88.831 1.111.248 3.053-7.677 8.916-37.588-36.012-112.95z" fill="url(#paint0_linear)"/><mask id="a" style="mask-type:alpha" maskUnits="userSpaceOnUse" x="0" y="0" width="231" height="245"><path d="M192.924 131.047C136.89 37.057.723.303.723.303v67.561c0 8.203 5.85 15.293 13.77 17.428 24.91 6.716 80.305 25.463 138.665 70.459 66.021 50.901 73.866 79.881 74.666 87.998.062.624.88.831 1.112.249 3.052-7.677 8.916-37.588-36.012-112.951z" fill="#C4C4C4"/><path d="M192.924 131.047C136.89 37.057.723.303.723.303v67.561c0 8.203 5.85 15.293 13.77 17.428 24.91 6.716 80.305 25.463 138.665 70.459 66.021 50.901 73.866 79.881 74.666 87.998.062.624.88.831 1.112.249 3.052-7.677 8.916-37.588-36.012-112.951z" fill="url(#paint1_linear)"/></mask><g mask="url(#a)"><path opacity=".3" d="M194.152 153.688C144.059 69.662 22.328 36.806 22.328 36.806V95.7c0 8.203 5.87 15.3 13.776 17.484 22.922 6.331 71.441 23.224 122.498 62.588 58.37 45.003 65.873 70.839 66.724 78.422.07.623.885.828 1.108.242 2.748-7.214 7.451-34.099-32.282-100.748z" fill="url(#paint2_linear)"/></g><path d="M188.106 229.26C137.207 152.741.728 107.374.728 107.374v72.104c0 8.25 5.92 15.33 13.962 17.172 24.618 5.64 77.412 20.268 122.519 49.901 54.252 35.641 59.68 64.127 60.214 70.116.044.49.598.758.973.439 5.14-4.372 28.785-29.102-10.29-87.846z" fill="#fff"/><path d="M188.106 229.26C137.207 152.741.728 107.374.728 107.374v72.104c0 8.25 5.92 15.33 13.962 17.172 24.618 5.64 77.412 20.268 122.519 49.901 54.252 35.641 59.68 64.127 60.214 70.116.044.49.598.758.973.439 5.14-4.372 28.785-29.102-10.29-87.846z" fill="url(#paint3_linear)"/><mask id="b" style="mask-type:alpha" maskUnits="userSpaceOnUse" x="0" y="107" width="211" height="211"><path d="M188.106 229.26C137.207 152.741.728 107.374.728 107.374v72.104c0 8.25 5.92 15.33 13.962 17.172 24.618 5.64 77.412 20.268 122.519 49.901 54.252 35.641 59.68 64.127 60.214 70.116.044.49.598.758.973.439 5.14-4.372 28.785-29.102-10.29-87.846z" fill="#C4C4C4"/><path d="M188.106 229.26C137.207 152.741.728 107.374.728 107.374v72.104c0 8.25 5.92 15.33 13.962 17.172 24.618 5.64 77.412 20.268 122.519 49.901 54.252 35.641 59.68 64.127 60.214 70.116.044.49.598.758.973.439 5.14-4.372 28.785-29.102-10.29-87.846z" fill="url(#paint4_linear)"/></mask><g mask="url(#b)"><path opacity=".54" d="M183.827 247.818c-43.364-65.191-159.64-103.843-159.64-103.843v59.315c0 8.25 5.942 15.335 13.972 17.228 21.757 5.129 65.101 17.59 102.306 42.032 45.676 30.007 50.731 54.061 51.282 59.548.05.49.603.775.975.452 4.626-4.014 24.083-25.155-8.895-74.732z" fill="url(#paint5_linear)"/></g><path d="M182.583 335.655c-4.799-8.233-35.053-58.625-56.6-58.625 0 0 11.705 21.549 14.704 39.106 3.189 18.668 0 52.561 0 52.561s13.592-6.597 21.9-12.828c6.939-5.204 16.69-15.026 19.716-18.123.558-.571.682-1.401.28-2.091z" fill="#fff"/><path d="M182.583 335.655c-4.799-8.233-35.053-58.625-56.6-58.625 0 0 11.705 21.549 14.704 39.106 3.189 18.668 0 52.561 0 52.561s13.592-6.597 21.9-12.828c6.939-5.204 16.69-15.026 19.716-18.123.558-.571.682-1.401.28-2.091z" fill="url(#paint6_linear)"/><mask id="c" style="mask-type:alpha" maskUnits="userSpaceOnUse" x="125" y="277" width="58" height="92"><path d="M182.583 335.655c-4.799-8.233-35.053-58.625-56.6-58.625 0 0 11.705 21.549 14.704 39.106 3.189 18.668 0 52.561 0 52.561s13.592-6.597 21.9-12.828c6.939-5.204 16.69-15.026 19.716-18.123.558-.571.682-1.401.28-2.091z" fill="#C4C4C4"/><path d="M182.583 335.655c-4.799-8.233-35.053-58.625-56.6-58.625 0 0 11.705 21.549 14.704 39.106 3.189 18.668 0 52.561 0 52.561s13.592-6.597 21.9-12.828c6.939-5.204 16.69-15.026 19.716-18.123.558-.571.682-1.401.28-2.091z" fill="url(#paint7_linear)"/></mask><g mask="url(#c)"><path opacity=".7" d="M167.465 352.233c-2.815-9.511-21.423-69.562-43.955-75.203 0 0 6.656 25.241 5.26 44.099-1.484 20.05-13.546 54.108-13.546 54.108s15.879-3.241 26.151-7.485c8.624-3.564 21.415-11.189 25.299-13.545.691-.418 1.021-1.2.791-1.974z" fill="url(#paint8_linear)"/></g></g><g opacity=".3"><path d="M1007.07 131.048C1063.11 37.056 1199.27.304 1199.27.304v67.56c0 8.203-5.85 15.293-13.77 17.428-24.9 6.716-80.3 25.464-138.66 70.459-66.022 50.901-73.867 79.881-74.667 87.999-.061.623-.88.831-1.111.248-3.053-7.677-8.916-37.588 36.008-112.95z" fill="#fff"/><path d="M1007.07 131.048C1063.11 37.056 1199.27.304 1199.27.304v67.56c0 8.203-5.85 15.293-13.77 17.428-24.9 6.716-80.3 25.464-138.66 70.459-66.022 50.901-73.867 79.881-74.667 87.999-.061.623-.88.831-1.111.248-3.053-7.677-8.916-37.588 36.008-112.95z" fill="url(#paint9_linear)"/><mask id="d" style="mask-type:alpha" maskUnits="userSpaceOnUse" x="969" y="0" width="231" height="245"><path d="M1007.08 131.047C1063.11 37.057 1199.28.303 1199.28.303v67.561c0 8.203-5.85 15.293-13.77 17.428-24.91 6.716-80.31 25.463-138.67 70.459-66.019 50.901-73.864 79.881-74.664 87.998-.062.624-.88.831-1.112.249-3.052-7.677-8.916-37.588 36.016-112.951z" fill="#C4C4C4"/><path d="M1007.08 131.047C1063.11 37.057 1199.28.303 1199.28.303v67.561c0 8.203-5.85 15.293-13.77 17.428-24.91 6.716-80.31 25.463-138.67 70.459-66.019 50.901-73.864 79.881-74.664 87.998-.062.624-.88.831-1.112.249-3.052-7.677-8.916-37.588 36.016-112.951z" fill="url(#paint10_linear)"/></mask><g mask="url(#d)"><path opacity=".3" d="M1005.85 153.688c50.09-84.026 171.82-116.882 171.82-116.882V95.7c0 8.203-5.87 15.3-13.77 17.484-22.93 6.331-71.44 23.224-122.5 62.588-58.372 45.003-65.875 70.839-66.726 78.422-.07.623-.885.828-1.108.242-2.748-7.214-7.451-34.099 32.284-100.748z" fill="url(#paint11_linear)"/></g><path d="M1011.89 229.26c50.9-76.519 187.38-121.886 187.38-121.886v72.104c0 8.25-5.92 15.33-13.96 17.172-24.62 5.64-77.41 20.268-122.52 49.901-54.25 35.641-59.68 64.127-60.21 70.116-.05.49-.6.758-.98.439-5.136-4.372-28.781-29.102 10.29-87.846z" fill="#fff"/><path d="M1011.89 229.26c50.9-76.519 187.38-121.886 187.38-121.886v72.104c0 8.25-5.92 15.33-13.96 17.172-24.62 5.64-77.41 20.268-122.52 49.901-54.25 35.641-59.68 64.127-60.21 70.116-.05.49-.6.758-.98.439-5.136-4.372-28.781-29.102 10.29-87.846z" fill="url(#paint12_linear)"/><mask id="e" style="mask-type:alpha" maskUnits="userSpaceOnUse" x="989" y="107" width="211" height="211"><path d="M1011.89 229.26c50.9-76.519 187.38-121.886 187.38-121.886v72.104c0 8.25-5.92 15.33-13.96 17.172-24.62 5.64-77.41 20.268-122.52 49.901-54.25 35.641-59.68 64.127-60.21 70.116-.05.49-.6.758-.98.439-5.136-4.372-28.781-29.102 10.29-87.846z" fill="#C4C4C4"/><path d="M1011.89 229.26c50.9-76.519 187.38-121.886 187.38-121.886v72.104c0 8.25-5.92 15.33-13.96 17.172-24.62 5.64-77.41 20.268-122.52 49.901-54.25 35.641-59.68 64.127-60.21 70.116-.05.49-.6.758-.98.439-5.136-4.372-28.781-29.102 10.29-87.846z" fill="url(#paint13_linear)"/></mask><g mask="url(#e)"><path opacity=".54" d="M1016.17 247.818c43.37-65.191 159.64-103.843 159.64-103.843v59.315c0 8.25-5.94 15.335-13.97 17.228-21.76 5.129-65.1 17.59-102.3 42.032-45.68 30.007-50.74 54.061-51.29 59.548-.05.49-.6.775-.97.452-4.63-4.014-24.085-25.155 8.89-74.732z" fill="url(#paint14_linear)"/></g><path d="M1017.42 335.655c4.8-8.233 35.05-58.625 56.6-58.625 0 0-11.71 21.549-14.71 39.106-3.19 18.668 0 52.561 0 52.561s-13.59-6.597-21.9-12.828c-6.94-5.204-16.69-15.026-19.71-18.123-.56-.571-.69-1.401-.28-2.091z" fill="#fff"/><path d="M1017.42 335.655c4.8-8.233 35.05-58.625 56.6-58.625 0 0-11.71 21.549-14.71 39.106-3.19 18.668 0 52.561 0 52.561s-13.59-6.597-21.9-12.828c-6.94-5.204-16.69-15.026-19.71-18.123-.56-.571-.69-1.401-.28-2.091z" fill="url(#paint15_linear)"/><mask id="f" style="mask-type:alpha" maskUnits="userSpaceOnUse" x="1017" y="277" width="58" height="92"><path d="M1017.42 335.655c4.8-8.233 35.05-58.625 56.6-58.625 0 0-11.71 21.549-14.71 39.106-3.19 18.668 0 52.561 0 52.561s-13.59-6.597-21.9-12.828c-6.94-5.204-16.69-15.026-19.71-18.123-.56-.571-.69-1.401-.28-2.091z" fill="#C4C4C4"/><path d="M1017.42 335.655c4.8-8.233 35.05-58.625 56.6-58.625 0 0-11.71 21.549-14.71 39.106-3.19 18.668 0 52.561 0 52.561s-13.59-6.597-21.9-12.828c-6.94-5.204-16.69-15.026-19.71-18.123-.56-.571-.69-1.401-.28-2.091z" fill="url(#paint16_linear)"/></mask><g mask="url(#f)"><path opacity=".7" d="M1032.53 352.233c2.82-9.511 21.43-69.562 43.96-75.203 0 0-6.66 25.241-5.26 44.099 1.48 20.05 13.55 54.108 13.55 54.108s-15.88-3.241-26.16-7.485c-8.62-3.564-21.41-11.189-25.29-13.545-.69-.418-1.02-1.2-.8-1.974z" fill="url(#paint17_linear)"/></g></g><defs><linearGradient id="paint1_linear" x1="201.783" y1="6.443" x2="182.712" y2="274.272" gradientUnits="userSpaceOnUse"><stop stop-color="#CA49FF"/><stop offset="1" stop-color="#3CDCC9"/></linearGradient><linearGradient id="paint9_linear" x1="998.215" y1="6.443" x2="1017.29" y2="274.272" gradientUnits="userSpaceOnUse"><stop stop-color="#CA49FF"/><stop offset="1" stop-color="#3CDCC9"/></linearGradient><linearGradient id="paint2_linear" x1="258.956" y1="285.728" x2="-1.384" y2="59.643" gradientUnits="userSpaceOnUse"><stop stop-color="#fff"/><stop offset="1" stop-color="#fff" stop-opacity="0"/></linearGradient><linearGradient id="paint3_linear" x1="290.77" y1="404.46" x2="-36.041" y2="443.26" gradientUnits="userSpaceOnUse"><stop stop-color="#3CDCC9"/><stop offset="1" stop-color="#AE84F3"/></linearGradient><linearGradient id="paint4_linear" x1="274.99" y1="380.694" x2="-71.184" y2="443.174" gradientUnits="userSpaceOnUse"><stop stop-color="#3CDCC9"/><stop offset="1" stop-color="#AE84F3"/></linearGradient><linearGradient id="paint5_linear" x1="229.306" y1="347.068" x2="15.473" y2="149.775" gradientUnits="userSpaceOnUse"><stop stop-color="#fff"/><stop offset="1" stop-color="#fff" stop-opacity="0"/></linearGradient><linearGradient id="paint6_linear" x1="125.983" y1="277.03" x2="198.876" y2="352.195" gradientUnits="userSpaceOnUse"><stop stop-color="#7ADE69"/><stop offset="1" stop-color="#8EECEE"/></linearGradient><linearGradient id="paint7_linear" x1="125.983" y1="277.03" x2="198.876" y2="352.195" gradientUnits="userSpaceOnUse"><stop stop-color="#7ADE69"/><stop offset="1" stop-color="#8EECEE"/></linearGradient><linearGradient id="paint8_linear" x1="165.401" y1="401.107" x2="81.318" y2="318.6" gradientUnits="userSpaceOnUse"><stop stop-color="#fff"/><stop offset="1" stop-color="#fff" stop-opacity="0"/></linearGradient><linearGradient id="paint0_linear" x1="201.785" y1="6.443" x2="182.714" y2="274.272" gradientUnits="userSpaceOnUse"><stop stop-color="#CA49FF"/><stop offset="1" stop-color="#3CDCC9"/></linearGradient><linearGradient id="paint10_linear" x1="998.217" y1="6.443" x2="1017.29" y2="274.272" gradientUnits="userSpaceOnUse"><stop stop-color="#CA49FF"/><stop offset="1" stop-color="#3CDCC9"/></linearGradient><linearGradient id="paint11_linear" x1="941.044" y1="285.728" x2="1201.38" y2="59.643" gradientUnits="userSpaceOnUse"><stop stop-color="#fff"/><stop offset="1" stop-color="#fff" stop-opacity="0"/></linearGradient><linearGradient id="paint12_linear" x1="909.23" y1="404.46" x2="1236.04" y2="443.26" gradientUnits="userSpaceOnUse"><stop stop-color="#3CDCC9"/><stop offset="1" stop-color="#AE84F3"/></linearGradient><linearGradient id="paint13_linear" x1="925.01" y1="380.694" x2="1271.18" y2="443.174" gradientUnits="userSpaceOnUse"><stop stop-color="#3CDCC9"/><stop offset="1" stop-color="#AE84F3"/></linearGradient><linearGradient id="paint14_linear" x1="970.694" y1="347.068" x2="1184.53" y2="149.775" gradientUnits="userSpaceOnUse"><stop stop-color="#fff"/><stop offset="1" stop-color="#fff" stop-opacity="0"/></linearGradient><linearGradient id="paint15_linear" x1="1074.02" y1="277.03" x2="1001.12" y2="352.195" gradientUnits="userSpaceOnUse"><stop stop-color="#7ADE69"/><stop offset="1" stop-color="#8EECEE"/></linearGradient><linearGradient id="paint16_linear" x1="1074.02" y1="277.03" x2="1001.12" y2="352.195" gradientUnits="userSpaceOnUse"><stop stop-color="#7ADE69"/><stop offset="1" stop-color="#8EECEE"/></linearGradient><linearGradient id="paint17_linear" x1="1034.6" y1="401.107" x2="1118.68" y2="318.6" gradientUnits="userSpaceOnUse"><stop stop-color="#fff"/><stop offset="1" stop-color="#fff" stop-opacity="0"/></linearGradient></defs></svg>