<svg width="1200" height="369" viewBox="0 0 1200 369" fill="none" xmlns="http://www.w3.org/2000/svg">
<g opacity="0.3">
<path d="M192.926 131.048C136.893 37.0563 0.725159 0.303589 0.725159 0.303589V67.8641C0.725159 76.0673 6.57559 83.1567 14.4959 85.2921C39.4046 92.0077 94.8005 110.756 153.161 155.751C219.182 206.652 227.027 235.632 227.827 243.75C227.888 244.373 228.707 244.581 228.938 243.998C231.991 236.321 237.854 206.41 192.926 131.048Z" fill="white"/>
<path d="M192.926 131.048C136.893 37.0563 0.725159 0.303589 0.725159 0.303589V67.8641C0.725159 76.0673 6.57559 83.1567 14.4959 85.2921C39.4046 92.0077 94.8005 110.756 153.161 155.751C219.182 206.652 227.027 235.632 227.827 243.75C227.888 244.373 228.707 244.581 228.938 243.998C231.991 236.321 237.854 206.41 192.926 131.048Z" fill="url(#paint0_linear)"/>
<mask id="mask0" style="mask-type:alpha" maskUnits="userSpaceOnUse" x="0" y="0" width="231" height="245">
<path d="M192.924 131.047C136.89 37.0562 0.722733 0.303467 0.722733 0.303467V67.864C0.722733 76.0671 6.57315 83.1566 14.4935 85.292C39.4022 92.0076 94.7981 110.755 153.158 155.751C219.179 206.652 227.024 235.632 227.824 243.749C227.886 244.373 228.704 244.58 228.936 243.998C231.988 236.321 237.852 206.41 192.924 131.047Z" fill="#C4C4C4"/>
<path d="M192.924 131.047C136.89 37.0562 0.722733 0.303467 0.722733 0.303467V67.864C0.722733 76.0671 6.57315 83.1566 14.4935 85.292C39.4022 92.0076 94.7981 110.755 153.158 155.751C219.179 206.652 227.024 235.632 227.824 243.749C227.886 244.373 228.704 244.58 228.936 243.998C231.988 236.321 237.852 206.41 192.924 131.047Z" fill="url(#paint1_linear)"/>
</mask>
<g mask="url(#mask0)">
<path opacity="0.3" d="M194.152 153.688C144.059 69.6624 22.3283 36.8063 22.3283 36.8063V95.6995C22.3283 103.903 28.1973 111 36.1043 113.184C59.0255 119.515 107.545 136.408 158.602 175.772C216.972 220.775 224.475 246.611 225.326 254.194C225.396 254.817 226.211 255.022 226.434 254.436C229.182 247.222 233.885 220.337 194.152 153.688Z" fill="url(#paint2_linear)"/>
</g>
<path d="M188.106 229.26C137.207 152.741 0.727951 107.374 0.727951 107.374V179.478C0.727951 187.728 6.64824 194.808 14.6898 196.65C39.3083 202.29 92.1023 216.918 137.209 246.551C191.461 282.192 196.889 310.678 197.423 316.667C197.467 317.157 198.021 317.425 198.396 317.106C203.536 312.734 227.181 288.004 188.106 229.26Z" fill="white"/>
<path d="M188.106 229.26C137.207 152.741 0.727951 107.374 0.727951 107.374V179.478C0.727951 187.728 6.64824 194.808 14.6898 196.65C39.3083 202.29 92.1023 216.918 137.209 246.551C191.461 282.192 196.889 310.678 197.423 316.667C197.467 317.157 198.021 317.425 198.396 317.106C203.536 312.734 227.181 288.004 188.106 229.26Z" fill="url(#paint3_linear)"/>
<mask id="mask1" style="mask-type:alpha" maskUnits="userSpaceOnUse" x="0" y="107" width="211" height="211">
<path d="M188.106 229.26C137.207 152.741 0.727951 107.374 0.727951 107.374V179.478C0.727951 187.728 6.64824 194.808 14.6898 196.65C39.3083 202.29 92.1023 216.918 137.209 246.551C191.461 282.192 196.889 310.678 197.423 316.667C197.467 317.157 198.021 317.425 198.396 317.106C203.536 312.734 227.181 288.004 188.106 229.26Z" fill="#C4C4C4"/>
<path d="M188.106 229.26C137.207 152.741 0.727951 107.374 0.727951 107.374V179.478C0.727951 187.728 6.64824 194.808 14.6898 196.65C39.3083 202.29 92.1023 216.918 137.209 246.551C191.461 282.192 196.889 310.678 197.423 316.667C197.467 317.157 198.021 317.425 198.396 317.106C203.536 312.734 227.181 288.004 188.106 229.26Z" fill="url(#paint4_linear)"/>
</mask>
<g mask="url(#mask1)">
<path opacity="0.54" d="M183.827 247.818C140.463 182.627 24.1876 143.975 24.1876 143.975V203.29C24.1876 211.54 30.1292 218.625 38.159 220.518C59.9155 225.647 103.26 238.108 140.465 262.55C186.141 292.557 191.196 316.611 191.747 322.098C191.797 322.588 192.35 322.873 192.722 322.55C197.348 318.536 216.805 297.395 183.827 247.818Z" fill="url(#paint5_linear)"/>
</g>
<path d="M182.583 335.655C177.784 327.422 147.53 277.03 125.983 277.03C125.983 277.03 137.688 298.579 140.687 316.136C143.876 334.804 140.687 368.697 140.687 368.697C140.687 368.697 154.279 362.1 162.587 355.869C169.526 350.665 179.277 340.843 182.303 337.746C182.861 337.175 182.985 336.345 182.583 335.655Z" fill="white"/>
<path d="M182.583 335.655C177.784 327.422 147.53 277.03 125.983 277.03C125.983 277.03 137.688 298.579 140.687 316.136C143.876 334.804 140.687 368.697 140.687 368.697C140.687 368.697 154.279 362.1 162.587 355.869C169.526 350.665 179.277 340.843 182.303 337.746C182.861 337.175 182.985 336.345 182.583 335.655Z" fill="url(#paint6_linear)"/>
<mask id="mask2" style="mask-type:alpha" maskUnits="userSpaceOnUse" x="125" y="277" width="58" height="92">
<path d="M182.583 335.655C177.784 327.422 147.53 277.03 125.983 277.03C125.983 277.03 137.688 298.579 140.687 316.136C143.876 334.804 140.687 368.697 140.687 368.697C140.687 368.697 154.279 362.1 162.587 355.869C169.526 350.665 179.277 340.843 182.303 337.746C182.861 337.175 182.985 336.345 182.583 335.655Z" fill="#C4C4C4"/>
<path d="M182.583 335.655C177.784 327.422 147.53 277.03 125.983 277.03C125.983 277.03 137.688 298.579 140.687 316.136C143.876 334.804 140.687 368.697 140.687 368.697C140.687 368.697 154.279 362.1 162.587 355.869C169.526 350.665 179.277 340.843 182.303 337.746C182.861 337.175 182.985 336.345 182.583 335.655Z" fill="url(#paint7_linear)"/>
</mask>
<g mask="url(#mask2)">
<path opacity="0.7" d="M167.465 352.233C164.65 342.722 146.042 282.671 123.51 277.03C123.51 277.03 130.166 302.271 128.77 321.129C127.286 341.179 115.224 375.237 115.224 375.237C115.224 375.237 131.103 371.996 141.375 367.752C149.999 364.188 162.79 356.563 166.674 354.207C167.365 353.789 167.695 353.007 167.465 352.233Z" fill="url(#paint8_linear)"/>
</g>
</g>
<g opacity="0.3">
<path d="M1007.07 131.048C1063.11 37.0563 1199.27 0.303589 1199.27 0.303589V67.8641C1199.27 76.0673 1193.42 83.1567 1185.5 85.2921C1160.6 92.0077 1105.2 110.756 1046.84 155.751C980.818 206.652 972.973 235.632 972.173 243.75C972.112 244.373 971.293 244.581 971.062 243.998C968.009 236.321 962.146 206.41 1007.07 131.048Z" fill="white"/>
<path d="M1007.07 131.048C1063.11 37.0563 1199.27 0.303589 1199.27 0.303589V67.8641C1199.27 76.0673 1193.42 83.1567 1185.5 85.2921C1160.6 92.0077 1105.2 110.756 1046.84 155.751C980.818 206.652 972.973 235.632 972.173 243.75C972.112 244.373 971.293 244.581 971.062 243.998C968.009 236.321 962.146 206.41 1007.07 131.048Z" fill="url(#paint9_linear)"/>
<mask id="mask3" style="mask-type:alpha" maskUnits="userSpaceOnUse" x="969" y="0" width="231" height="245">
<path d="M1007.08 131.047C1063.11 37.0562 1199.28 0.303467 1199.28 0.303467V67.864C1199.28 76.0671 1193.43 83.1566 1185.51 85.292C1160.6 92.0076 1105.2 110.755 1046.84 155.751C980.821 206.652 972.976 235.632 972.176 243.749C972.114 244.373 971.296 244.58 971.064 243.998C968.012 236.321 962.148 206.41 1007.08 131.047Z" fill="#C4C4C4"/>
<path d="M1007.08 131.047C1063.11 37.0562 1199.28 0.303467 1199.28 0.303467V67.864C1199.28 76.0671 1193.43 83.1566 1185.51 85.292C1160.6 92.0076 1105.2 110.755 1046.84 155.751C980.821 206.652 972.976 235.632 972.176 243.749C972.114 244.373 971.296 244.58 971.064 243.998C968.012 236.321 962.148 206.41 1007.08 131.047Z" fill="url(#paint10_linear)"/>
</mask>
<g mask="url(#mask3)">
<path opacity="0.3" d="M1005.85 153.688C1055.94 69.6624 1177.67 36.8063 1177.67 36.8063V95.6995C1177.67 103.903 1171.8 111 1163.9 113.184C1140.97 119.515 1092.46 136.408 1041.4 175.772C983.028 220.775 975.525 246.611 974.674 254.194C974.604 254.817 973.789 255.022 973.566 254.436C970.818 247.222 966.115 220.337 1005.85 153.688Z" fill="url(#paint11_linear)"/>
</g>
<path d="M1011.89 229.26C1062.79 152.741 1199.27 107.374 1199.27 107.374V179.478C1199.27 187.728 1193.35 194.808 1185.31 196.65C1160.69 202.29 1107.9 216.918 1062.79 246.551C1008.54 282.192 1003.11 310.678 1002.58 316.667C1002.53 317.157 1001.98 317.425 1001.6 317.106C996.464 312.734 972.819 288.004 1011.89 229.26Z" fill="white"/>
<path d="M1011.89 229.26C1062.79 152.741 1199.27 107.374 1199.27 107.374V179.478C1199.27 187.728 1193.35 194.808 1185.31 196.65C1160.69 202.29 1107.9 216.918 1062.79 246.551C1008.54 282.192 1003.11 310.678 1002.58 316.667C1002.53 317.157 1001.98 317.425 1001.6 317.106C996.464 312.734 972.819 288.004 1011.89 229.26Z" fill="url(#paint12_linear)"/>
<mask id="mask4" style="mask-type:alpha" maskUnits="userSpaceOnUse" x="989" y="107" width="211" height="211">
<path d="M1011.89 229.26C1062.79 152.741 1199.27 107.374 1199.27 107.374V179.478C1199.27 187.728 1193.35 194.808 1185.31 196.65C1160.69 202.29 1107.9 216.918 1062.79 246.551C1008.54 282.192 1003.11 310.678 1002.58 316.667C1002.53 317.157 1001.98 317.425 1001.6 317.106C996.464 312.734 972.819 288.004 1011.89 229.26Z" fill="#C4C4C4"/>
<path d="M1011.89 229.26C1062.79 152.741 1199.27 107.374 1199.27 107.374V179.478C1199.27 187.728 1193.35 194.808 1185.31 196.65C1160.69 202.29 1107.9 216.918 1062.79 246.551C1008.54 282.192 1003.11 310.678 1002.58 316.667C1002.53 317.157 1001.98 317.425 1001.6 317.106C996.464 312.734 972.819 288.004 1011.89 229.26Z" fill="url(#paint13_linear)"/>
</mask>
<g mask="url(#mask4)">
<path opacity="0.54" d="M1016.17 247.818C1059.54 182.627 1175.81 143.975 1175.81 143.975V203.29C1175.81 211.54 1169.87 218.625 1161.84 220.518C1140.08 225.647 1096.74 238.108 1059.54 262.55C1013.86 292.557 1008.8 316.611 1008.25 322.098C1008.2 322.588 1007.65 322.873 1007.28 322.55C1002.65 318.536 983.195 297.395 1016.17 247.818Z" fill="url(#paint14_linear)"/>
</g>
<path d="M1017.42 335.655C1022.22 327.422 1052.47 277.03 1074.02 277.03C1074.02 277.03 1062.31 298.579 1059.31 316.136C1056.12 334.804 1059.31 368.697 1059.31 368.697C1059.31 368.697 1045.72 362.1 1037.41 355.869C1030.47 350.665 1020.72 340.843 1017.7 337.746C1017.14 337.175 1017.01 336.345 1017.42 335.655Z" fill="white"/>
<path d="M1017.42 335.655C1022.22 327.422 1052.47 277.03 1074.02 277.03C1074.02 277.03 1062.31 298.579 1059.31 316.136C1056.12 334.804 1059.31 368.697 1059.31 368.697C1059.31 368.697 1045.72 362.1 1037.41 355.869C1030.47 350.665 1020.72 340.843 1017.7 337.746C1017.14 337.175 1017.01 336.345 1017.42 335.655Z" fill="url(#paint15_linear)"/>
<mask id="mask5" style="mask-type:alpha" maskUnits="userSpaceOnUse" x="1017" y="277" width="58" height="92">
<path d="M1017.42 335.655C1022.22 327.422 1052.47 277.03 1074.02 277.03C1074.02 277.03 1062.31 298.579 1059.31 316.136C1056.12 334.804 1059.31 368.697 1059.31 368.697C1059.31 368.697 1045.72 362.1 1037.41 355.869C1030.47 350.665 1020.72 340.843 1017.7 337.746C1017.14 337.175 1017.01 336.345 1017.42 335.655Z" fill="#C4C4C4"/>
<path d="M1017.42 335.655C1022.22 327.422 1052.47 277.03 1074.02 277.03C1074.02 277.03 1062.31 298.579 1059.31 316.136C1056.12 334.804 1059.31 368.697 1059.31 368.697C1059.31 368.697 1045.72 362.1 1037.41 355.869C1030.47 350.665 1020.72 340.843 1017.7 337.746C1017.14 337.175 1017.01 336.345 1017.42 335.655Z" fill="url(#paint16_linear)"/>
</mask>
<g mask="url(#mask5)">
<path opacity="0.7" d="M1032.53 352.233C1035.35 342.722 1053.96 282.671 1076.49 277.03C1076.49 277.03 1069.83 302.271 1071.23 321.129C1072.71 341.179 1084.78 375.237 1084.78 375.237C1084.78 375.237 1068.9 371.996 1058.62 367.752C1050 364.188 1037.21 356.563 1033.33 354.207C1032.64 353.789 1032.31 353.007 1032.53 352.233Z" fill="url(#paint17_linear)"/>
</g>
</g>
<defs>
<linearGradient id="paint0_linear" x1="201.785" y1="6.44322" x2="182.714" y2="274.272" gradientUnits="userSpaceOnUse">
<stop stop-color="#CA49FF"/>
<stop offset="1" stop-color="#3CDCC9"/>
</linearGradient>
<linearGradient id="paint1_linear" x1="201.783" y1="6.4431" x2="182.712" y2="274.272" gradientUnits="userSpaceOnUse">
<stop stop-color="#CA49FF"/>
<stop offset="1" stop-color="#3CDCC9"/>
</linearGradient>
<linearGradient id="paint2_linear" x1="258.956" y1="285.728" x2="-1.38377" y2="59.6431" gradientUnits="userSpaceOnUse">
<stop stop-color="white"/>
<stop offset="1" stop-color="white" stop-opacity="0"/>
</linearGradient>
<linearGradient id="paint3_linear" x1="290.77" y1="404.46" x2="-36.0409" y2="443.26" gradientUnits="userSpaceOnUse">
<stop stop-color="#3CDCC9"/>
<stop offset="1" stop-color="#AE84F3"/>
</linearGradient>
<linearGradient id="paint4_linear" x1="274.99" y1="380.694" x2="-71.1838" y2="443.174" gradientUnits="userSpaceOnUse">
<stop stop-color="#3CDCC9"/>
<stop offset="1" stop-color="#AE84F3"/>
</linearGradient>
<linearGradient id="paint5_linear" x1="229.306" y1="347.068" x2="15.4735" y2="149.775" gradientUnits="userSpaceOnUse">
<stop stop-color="white"/>
<stop offset="1" stop-color="white" stop-opacity="0"/>
</linearGradient>
<linearGradient id="paint6_linear" x1="125.983" y1="277.03" x2="198.876" y2="352.195" gradientUnits="userSpaceOnUse">
<stop stop-color="#7ADE69"/>
<stop offset="1" stop-color="#8EECEE"/>
</linearGradient>
<linearGradient id="paint7_linear" x1="125.983" y1="277.03" x2="198.876" y2="352.195" gradientUnits="userSpaceOnUse">
<stop stop-color="#7ADE69"/>
<stop offset="1" stop-color="#8EECEE"/>
</linearGradient>
<linearGradient id="paint8_linear" x1="165.401" y1="401.107" x2="81.3178" y2="318.6" gradientUnits="userSpaceOnUse">
<stop stop-color="white"/>
<stop offset="1" stop-color="white" stop-opacity="0"/>
</linearGradient>
<linearGradient id="paint9_linear" x1="998.215" y1="6.44322" x2="1017.29" y2="274.272" gradientUnits="userSpaceOnUse">
<stop stop-color="#CA49FF"/>
<stop offset="1" stop-color="#3CDCC9"/>
</linearGradient>
<linearGradient id="paint10_linear" x1="998.217" y1="6.4431" x2="1017.29" y2="274.272" gradientUnits="userSpaceOnUse">
<stop stop-color="#CA49FF"/>
<stop offset="1" stop-color="#3CDCC9"/>
</linearGradient>
<linearGradient id="paint11_linear" x1="941.044" y1="285.728" x2="1201.38" y2="59.6431" gradientUnits="userSpaceOnUse">
<stop stop-color="white"/>
<stop offset="1" stop-color="white" stop-opacity="0"/>
</linearGradient>
<linearGradient id="paint12_linear" x1="909.23" y1="404.46" x2="1236.04" y2="443.26" gradientUnits="userSpaceOnUse">
<stop stop-color="#3CDCC9"/>
<stop offset="1" stop-color="#AE84F3"/>
</linearGradient>
<linearGradient id="paint13_linear" x1="925.01" y1="380.694" x2="1271.18" y2="443.174" gradientUnits="userSpaceOnUse">
<stop stop-color="#3CDCC9"/>
<stop offset="1" stop-color="#AE84F3"/>
</linearGradient>
<linearGradient id="paint14_linear" x1="970.694" y1="347.068" x2="1184.53" y2="149.775" gradientUnits="userSpaceOnUse">
<stop stop-color="white"/>
<stop offset="1" stop-color="white" stop-opacity="0"/>
</linearGradient>
<linearGradient id="paint15_linear" x1="1074.02" y1="277.03" x2="1001.12" y2="352.195" gradientUnits="userSpaceOnUse">
<stop stop-color="#7ADE69"/>
<stop offset="1" stop-color="#8EECEE"/>
</linearGradient>
<linearGradient id="paint16_linear" x1="1074.02" y1="277.03" x2="1001.12" y2="352.195" gradientUnits="userSpaceOnUse">
<stop stop-color="#7ADE69"/>
<stop offset="1" stop-color="#8EECEE"/>
</linearGradient>
<linearGradient id="paint17_linear" x1="1034.6" y1="401.107" x2="1118.68" y2="318.6" gradientUnits="userSpaceOnUse">
<stop stop-color="white"/>
<stop offset="1" stop-color="white" stop-opacity="0"/>
</linearGradient>
</defs>
</svg>
