<svg width="150" height="133" fill="none" xmlns="http://www.w3.org/2000/svg"><g opacity=".3"><rect x=".46" y=".796" width="108.563" height="76.153" rx="10.089" transform="matrix(.86603 .5 0 1 27.651 .257)" fill="#fff"/><rect x=".46" y=".796" width="108.563" height="76.153" rx="10.089" transform="matrix(.86603 .5 0 1 27.651 .257)" stroke="#000" stroke-width="1.062"/><rect x=".46" y=".796" width="108.563" height="76.153" rx="10.089" transform="matrix(.86603 .5 0 1 27.651 .257)" stroke="url(#paint0_linear)" stroke-width="1.062"/><rect x=".46" y=".796" width="108.563" height="76.153" rx="10.089" transform="matrix(.86603 .5 0 1 27.651 .257)" stroke="url(#paint1_linear)" stroke-width="1.062"/><path d="M47.573 46.184v8.83l-1.07-.617v-7.774l-3.676-2.122v7.774l-1.07-.618v-8.831l5.816 3.358zm6.9 9.501c0 .527-.066.964-.199 1.313-.132.348-.32.605-.563.77-.235.17-.518.245-.85.224-.33-.03-.691-.157-1.081-.383a4.72 4.72 0 01-1.082-.866 6.093 6.093 0 01-.86-1.21 6.558 6.558 0 01-.552-1.415 6.012 6.012 0 01-.199-1.542c0-.519.066-.952.199-1.3.132-.357.316-.62.552-.79.242-.166.53-.234.86-.204.331.021.692.144 1.082.37.39.225.75.518 1.081.879.332.352.615.75.85 1.191.243.446.43.924.563 1.434.133.501.199 1.01.199 1.53zm-1.07-.618c0-.748-.148-1.423-.442-2.026-.287-.607-.68-1.056-1.181-1.344-.5-.29-.898-.298-1.192-.026-.287.268-.43.775-.43 1.523 0 .747.143 1.425.43 2.032.294.604.692 1.05 1.192 1.339.5.288.894.299 1.18.031.295-.271.442-.781.442-1.529zm1.808 3.389l.617.357c.243-.268.435-.578.574-.93.148-.349.258-.731.331-1.148.074-.424.122-.88.144-1.37.022-.496.037-1.023.044-1.58l3.763 2.173v5.658l.773.446v2.817l-.971-.561V62.47l-4.304-2.485v1.848l-.971-.56v-2.817zm4.447 2.568V56.36l-1.798-1.04a20.94 20.94 0 01-.055 1.179c-.03.382-.077.754-.144 1.115a5.236 5.236 0 01-.286.994 3.575 3.575 0 01-.453.834l2.737 1.58zm7.522 5.31l-1.027-.592V60.11l-2.56-1.479v5.633l-1.027-.593v-6.626l4.614 2.663v6.627zm6.59-2.821v6.627l-.994-.574V64.52c-.22.195-.463.433-.728.713-.265.28-.53.578-.795.892a24.95 24.95 0 00-1.39 1.759l-.916-.529v-6.627l.993.574v4.766c.191-.255.408-.529.651-.822a15.795 15.795 0 011.534-1.65c.265-.247.511-.448.74-.606l.905.523zm4.256 9.237a5.362 5.362 0 01-1.225-.962 5.938 5.938 0 01-.883-1.224 5.912 5.912 0 01-.53-1.389 6.444 6.444 0 01-.176-1.503c0-.51.062-.941.187-1.294.133-.348.317-.607.552-.777.236-.179.523-.255.861-.23.346.022.728.153 1.148.395a6.88 6.88 0 011.512 1.192l-.232.873a4.82 4.82 0 00-.54-.516 4.541 4.541 0 00-.64-.446c-.575-.332-1.016-.378-1.325-.14-.302.242-.453.762-.453 1.56 0 .358.033.704.1 1.04.073.34.183.658.33.955.155.302.35.58.586.835.235.246.522.467.86.662.273.157.52.27.74.338.22.068.394.104.519.108l.143 1.077a.823.823 0 01-.254-.019 3.55 3.55 0 01-.375-.127 4.144 4.144 0 01-.453-.185 3.826 3.826 0 01-.452-.223zm4.733-1.027c.228.319.474.699.74 1.14.264.434.522.888.772 1.364.257.48.496.958.717 1.434.22.467.408.894.563 1.28l-1.214-.7a17.117 17.117 0 00-.574-1.211 27.013 27.013 0 00-1.39-2.46 16.88 16.88 0 00-.685-.993v3.134l-1.026-.592v-6.627l1.026.593v2.842a80.1 80.1 0 00.607-.325l.684-.395c.236-.136.453-.266.652-.39.198-.13.36-.241.485-.33l1.192.688c-.162.11-.353.233-.574.37-.213.13-.438.265-.673.4l-.684.421-.618.357zm5.773 6.086c.243.14.456.259.64.356.191.094.35.16.475.198v-1.975a2.261 2.261 0 00-.365-.312 5.078 5.078 0 00-1.092-.644 1.214 1.214 0 00-.475-.108.476.476 0 00-.353.127c-.096.08-.143.236-.143.465 0 .425.117.79.353 1.096.235.298.555.563.96.797zm-.088-5.99c.412.238.757.501 1.037.79.287.285.515.59.684.918.177.323.302.663.375 1.02.074.348.11.709.11 1.083v4.141l-.374-.14a15.824 15.824 0 01-1.18-.542 8.8 8.8 0 01-.685-.356 5.893 5.893 0 01-.894-.631 4.367 4.367 0 01-.707-.765 3.428 3.428 0 01-.63-2.007c.001-.365.064-.643.189-.835a.77.77 0 01.53-.33c.22-.035.478-.005.772.088.294.094.603.234.927.42.103.06.21.13.32.211.11.072.213.149.31.23a8.035 8.035 0 01.419.33v-.33a3.46 3.46 0 00-.056-.606 2.348 2.348 0 00-.198-.624 2.237 2.237 0 00-.398-.587 2.467 2.467 0 00-.64-.51 5.333 5.333 0 00-.894-.426 2.533 2.533 0 00-.563-.16l-.12-1.05c.132.008.352.072.661.19.31.11.644.27 1.005.478zM41.58 63.087a5.86 5.86 0 001.347 0c.22-.034.43-.079.629-.134.206-.06.39-.14.551-.242l1.148.663v8.831l-1.644-.95v-6.358a3.14 3.14 0 01-.74.044 7.88 7.88 0 01-.794-.102l-.497-1.752zm11.393 9.14c0 1.486-.246 2.486-.739 3-.486.51-1.159.517-2.02.02-.86-.497-1.537-1.283-2.03-2.358-.486-1.079-.729-2.362-.729-3.848 0-.74.063-1.358.188-1.855.132-.492.32-.864.563-1.115.243-.25.533-.38.872-.388.338-.009.717.108 1.136.35.861.497 1.534 1.285 2.02 2.364.493 1.075.74 2.351.74 3.83zm-1.677-.97c0-.44-.018-.85-.055-1.229a6.642 6.642 0 00-.177-1.045 2.907 2.907 0 00-.33-.803 1.484 1.484 0 00-.52-.516c-.206-.119-.378-.146-.518-.083-.133.068-.243.209-.331.421-.081.217-.14.497-.177.841-.037.336-.055.724-.055 1.166 0 .442.018.856.055 1.242.037.387.096.735.177 1.045.088.315.198.582.33.803.14.225.313.397.52.516.205.12.378.147.518.083.14-.063.25-.204.331-.42.081-.217.14-.497.177-.841.037-.344.055-.737.055-1.18zm10.601 6.122c0 1.486-.246 2.487-.74 3-.485.51-1.158.517-2.019.02-.86-.497-1.538-1.283-2.03-2.358-.486-1.079-.729-2.362-.729-3.848 0-.74.063-1.358.188-1.855.132-.492.32-.864.563-1.114a1.22 1.22 0 01.871-.39c.339-.008.718.11 1.137.351.861.497 1.534 1.285 2.02 2.364.493 1.075.74 2.351.74 3.83zm-1.677-.969c0-.442-.019-.852-.056-1.23a6.644 6.644 0 00-.176-1.045 2.905 2.905 0 00-.331-.803 1.483 1.483 0 00-.519-.516c-.206-.118-.379-.146-.519-.082-.132.068-.242.208-.33.42-.082.217-.14.497-.177.841-.037.336-.055.724-.055 1.166 0 .442.018.856.055 1.243.037.386.095.735.176 1.045.089.314.199.582.331.802.14.226.313.398.52.517.205.118.378.146.518.082.14-.063.25-.203.33-.42.082-.217.14-.497.177-.841.037-.344.056-.737.056-1.179zM68.17 81c0 1.487-.247 2.487-.74 3.001-.485.51-1.159.516-2.02.02-.86-.498-1.537-1.284-2.03-2.358-.486-1.08-.728-2.362-.728-3.849 0-.739.062-1.357.187-1.854.133-.493.32-.864.563-1.115.243-.25.533-.38.872-.389.338-.008.717.108 1.137.35.86.498 1.534 1.286 2.02 2.365.492 1.074.739 2.35.739 3.829zm-1.678-.969c0-.441-.018-.851-.055-1.23a6.643 6.643 0 00-.177-1.044 2.906 2.906 0 00-.33-.803 1.484 1.484 0 00-.52-.516c-.205-.12-.378-.147-.518-.083-.132.068-.243.208-.331.42-.081.217-.14.497-.177.842a10.83 10.83 0 00-.055 1.166c0 .441.019.856.055 1.242.037.387.096.735.177 1.045.088.314.198.582.33.803.14.225.314.397.52.516.206.119.379.147.518.083.14-.064.25-.204.331-.42.081-.217.14-.498.177-.842.037-.344.055-.737.055-1.178zm7.95 4.59c0 1.487-.246 2.488-.74 3.002-.485.51-1.158.516-2.019.019-.86-.497-1.538-1.283-2.03-2.358-.486-1.079-.729-2.362-.729-3.849 0-.739.063-1.357.188-1.854.132-.492.32-.864.563-1.115.242-.25.533-.38.871-.388.339-.009.718.108 1.137.35.861.497 1.534 1.285 2.02 2.364.493 1.075.74 2.351.74 3.83zm-1.677-.968c0-.442-.019-.852-.055-1.23a6.642 6.642 0 00-.177-1.045 2.904 2.904 0 00-.331-.803 1.482 1.482 0 00-.519-.516c-.206-.119-.379-.146-.519-.083-.132.068-.242.209-.33.421-.082.217-.14.497-.177.841-.037.336-.055.724-.055 1.166 0 .442.018.856.055 1.243.037.386.095.734.176 1.044.089.315.199.582.331.803.14.225.313.397.52.516.205.12.378.147.518.083.14-.063.25-.204.33-.42a3.53 3.53 0 00.178-.841c.036-.344.055-.737.055-1.18zm5.7 7.726v-1.363l-.882-.51V88.27l.883.51v-.994l-.883-.51v-1.58l.883.51V82.28l2.516 1.453c1.016.586 1.755 1.251 2.218 1.995.471.747.707 1.537.707 2.37 0 .493-.096.9-.287 1.223-.192.323-.512.487-.96.49-.442.01-1.045-.207-1.81-.65l-.718-.413v.994l1.7.98v1.237l-1.7-.981v1.363l-1.666-.962zm2.22-3.893c.47.272.842.393 1.114.363.28-.025.42-.246.42-.662 0-.773-.442-1.415-1.325-1.925l-.762-.44v2.346l.552.318zM85.502 97.8l-1.689-.974 3.708-10.195 1.667.962L85.502 97.8zM91 94.755c-.015.289-.03.603-.044.943l-.044 1.032a39.24 39.24 0 01-.034.988c-.007.31-.014.582-.022.816l-1.6-.924c.015-.46.037-.973.066-1.542.037-.565.074-1.139.11-1.72.045-.587.089-1.156.133-1.708.052-.548.1-1.039.144-1.472l1.368.79c.316.777.607 1.56.872 2.351.265.79.544 1.652.839 2.587.309-.637.61-1.215.905-1.733a9.52 9.52 0 01.794-1.236l1.39.803c.052.488.1 1.034.144 1.637.052.608.096 1.228.133 1.86a86.943 86.943 0 01.176 3.467l-1.633-.943a92.113 92.113 0 00-.066-2.014l-.066-1.937-1.214 2.383-1.137-.656L91 94.755zm6.486 4.306c0-.595.078-1.069.232-1.421.162-.357.372-.61.63-.758a1.4 1.4 0 01.882-.166c.339.042.684.166 1.037.37a5.15 5.15 0 011.954 2.007c.478.853.717 1.845.717 2.975 0 .111-.004.232-.011.363-.007.124-.015.234-.022.332l-3.73-2.154c.037.412.195.813.474 1.204.28.391.655.722 1.126.994.302.174.596.315.883.421.294.102.533.159.717.172l.221 1.669c-.088 0-.206-.017-.353-.051a3.63 3.63 0 01-.497-.159 6.505 6.505 0 01-.574-.229 7.26 7.26 0 01-.618-.319 6.202 6.202 0 01-2.328-2.338 6.098 6.098 0 01-.563-1.434 6.346 6.346 0 01-.177-1.478zm3.863 1.503a2.632 2.632 0 00-.077-.516 2.047 2.047 0 00-.188-.516 2.236 2.236 0 00-.32-.478 1.756 1.756 0 00-.475-.388c-.183-.107-.342-.16-.474-.16a.475.475 0 00-.331.09.679.679 0 00-.21.299 2.291 2.291 0 00-.1.414l2.175 1.255zm2.582 2.167c0-.485.066-.901.199-1.249.14-.353.338-.612.596-.778.257-.174.57-.248.938-.223.368.026.787.175 1.258.447.309.178.592.375.85.592.257.208.507.442.75.701l-.342 1.319a8.14 8.14 0 00-.508-.472 4.056 4.056 0 00-.618-.433c-.485-.28-.849-.316-1.092-.108-.236.212-.353.603-.353 1.172 0 .603.11 1.134.331 1.593.228.463.622.856 1.181 1.179.198.115.412.217.64.306.228.089.438.142.629.159l.232 1.689a3.233 3.233 0 01-.718-.172 5.45 5.45 0 01-.949-.447 6.07 6.07 0 01-1.368-1.057 6.304 6.304 0 01-.949-1.3 5.937 5.937 0 01-.541-1.421 6.848 6.848 0 01-.166-1.497z" fill="#242328"/><path opacity=".5" d="M42.118 75.588c.28.037.552.036.816-.004.265-.045.508-.151.729-.318l.486.28v5.887l-.685-.395v-4.791a.91.91 0 01-.22.068 1.46 1.46 0 01-.28.034 2.4 2.4 0 01-.316-.005 2.308 2.308 0 01-.317-.038l-.213-.718zm5.54 4.923c0-.985.149-1.658.448-2.017.304-.357.724-.381 1.258-.073.535.309.952.816 1.25 1.521.305.708.457 1.555.457 2.54 0 .986-.152 1.657-.456 2.014-.3.36-.716.385-1.25.076-.535-.309-.955-.817-1.259-1.525-.3-.705-.449-1.55-.449-2.536zm2.692 1.555c0-.323-.017-.639-.051-.947a4.41 4.41 0 00-.162-.85 2.548 2.548 0 00-.302-.684 1.356 1.356 0 00-.47-.467c-.187-.108-.344-.133-.472-.076-.127.05-.23.16-.309.33a2.53 2.53 0 00-.162.663 9.853 9.853 0 000 1.835c.035.31.089.592.162.85.079.26.182.493.31.697.127.198.284.35.47.459.187.107.344.135.471.084.128-.056.228-.17.302-.344.078-.17.132-.39.162-.662a7.05 7.05 0 00.051-.888zm1.46.843c0-.986.15-1.658.449-2.018.304-.357.723-.38 1.258-.072.535.309.952.816 1.25 1.52.305.709.457 1.555.457 2.54 0 .986-.152 1.657-.456 2.014-.3.36-.716.385-1.25.077-.536-.309-.955-.817-1.259-1.525-.3-.705-.449-1.55-.449-2.536zm2.693 1.555c0-.323-.017-.639-.051-.948a4.402 4.402 0 00-.162-.85 2.55 2.55 0 00-.302-.683 1.356 1.356 0 00-.47-.467c-.187-.108-.344-.134-.472-.077-.127.051-.23.162-.309.332a2.535 2.535 0 00-.162.662 9.853 9.853 0 000 1.835c.035.309.089.592.162.85.079.26.182.493.31.696.127.199.284.352.47.46.186.107.343.135.471.084.127-.056.228-.171.302-.344.078-.17.132-.39.162-.663a7.05 7.05 0 00.051-.887zm1.46.843c0-.986.15-1.659.449-2.018.304-.357.723-.381 1.258-.072.535.308.952.815 1.25 1.52.305.708.457 1.555.457 2.54 0 .986-.152 1.657-.456 2.014-.3.36-.716.385-1.251.077-.535-.31-.954-.817-1.258-1.525-.3-.706-.449-1.55-.449-2.536zm2.693 1.554c0-.323-.017-.638-.052-.947a4.402 4.402 0 00-.161-.85 2.548 2.548 0 00-.302-.683 1.355 1.355 0 00-.471-.468c-.186-.107-.343-.133-.47-.076-.128.05-.231.161-.31.331a2.531 2.531 0 00-.162.663 9.822 9.822 0 000 1.835c.035.309.089.592.162.85.079.26.182.492.31.696.127.198.284.351.47.459.186.107.343.136.47.085.128-.057.229-.171.303-.344.078-.17.132-.391.161-.663a7.05 7.05 0 00.052-.888zm3.509 4.974V90.68l-.64-.37v-.552l.64.37v-.757l-.64-.37v-.645l.64.37v-2.957l1.383.799c.642.37 1.118.796 1.427 1.274.314.481.471 1.008.471 1.58 0 .578-.17.933-.508 1.067-.338.127-.836 0-1.493-.379l-.618-.356v.756l1.214.7v.553l-1.214-.701v1.155l-.662-.382zm1.184-2.425c.447.257.792.372 1.038.344.25-.026.375-.26.375-.701 0-.385-.103-.73-.31-1.037-.205-.306-.526-.585-.963-.837l-.662-.382v2.311l.522.301zm2.907 6.359l-.7-.404 2.495-6.784.684.395-2.48 6.793zm6.255 2.142a3.574 3.574 0 01-.816-.642 3.96 3.96 0 01-.59-.815 3.94 3.94 0 01-.352-.926 4.303 4.303 0 01-.118-1.003c0-.34.042-.627.125-.862.088-.233.211-.405.368-.519a.816.816 0 01.574-.152c.23.014.485.102.765.263a4.569 4.569 0 011.008.794l-.154.582a3.212 3.212 0 00-.361-.344 3.03 3.03 0 00-.427-.297c-.382-.221-.677-.252-.883-.094-.2.162-.301.509-.301 1.041 0 .238.022.469.066.692.049.227.122.44.22.638.104.2.234.386.39.556.157.164.349.312.575.442.18.105.345.18.492.225.148.045.263.07.346.072l.096.718a.548.548 0 01-.17-.013 2.367 2.367 0 01-.25-.085 2.747 2.747 0 01-.301-.123 2.531 2.531 0 01-.302-.148zm1.544-1.411c0-.391.05-.703.147-.935.098-.238.228-.406.39-.505a.846.846 0 01.56-.11c.21.025.426.101.647.228.515.298.91.713 1.184 1.245.275.527.412 1.17.412 1.929v.136c0 .05-.002.097-.007.14l-2.62-1.512c.03.475.145.89.347 1.244.2.354.515.654.941.9.24.14.442.233.604.281.166.045.291.07.375.072l.096.718c-.084.003-.231-.028-.442-.093a3.485 3.485 0 01-.706-.323 3.906 3.906 0 01-.868-.671 3.91 3.91 0 01-.95-1.755 4.482 4.482 0 01-.11-.99zm2.627 1.083a2.143 2.143 0 00-.236-1.011 1.636 1.636 0 00-.655-.727.821.821 0 00-.419-.131.475.475 0 00-.302.097.66.66 0 00-.198.277 1.664 1.664 0 00-.088.399l1.898 1.096zm2.991 3.791c.162.094.304.173.427.238.127.063.233.106.316.132v-1.317a1.487 1.487 0 00-.242-.208 3.343 3.343 0 00-.729-.43.81.81 0 00-.316-.071.317.317 0 00-.236.085c-.064.053-.095.157-.095.31 0 .283.078.527.235.73.157.199.37.376.64.531zm-.059-3.993c.275.159.505.335.692.527.191.19.343.394.456.612.118.215.201.442.25.68.05.232.074.472.074.722v2.761a17.668 17.668 0 00-.25-.094 10.182 10.182 0 01-.788-.361 5.857 5.857 0 01-.456-.238 3.867 3.867 0 01-.596-.42 2.926 2.926 0 01-.47-.51 2.285 2.285 0 01-.42-1.338c0-.244.042-.429.125-.556a.514.514 0 01.353-.221 1.13 1.13 0 01.515.06 3.158 3.158 0 011.038.573 5.349 5.349 0 01.28.22v-.22c0-.13-.013-.265-.038-.404a1.564 1.564 0 00-.397-.807 1.647 1.647 0 00-.427-.34 3.554 3.554 0 00-.596-.284 1.694 1.694 0 00-.375-.107l-.08-.7c.088.005.235.048.44.127.207.073.43.18.67.318zm5.742 7.844l-.684-.395v-1.954l-1.766-1.02v1.954l-.684-.395v-4.417l.684.395v1.801l1.766 1.019v-1.801l.684.395v4.418zm2.84 1.741a3.568 3.568 0 01-.817-.641 3.964 3.964 0 01-.588-.816 3.932 3.932 0 01-.353-.926 4.29 4.29 0 01-.118-1.002c0-.34.042-.628.125-.863.088-.232.21-.405.368-.518a.816.816 0 01.574-.153c.23.014.485.102.765.264a4.583 4.583 0 011.008.794l-.155.582a3.203 3.203 0 00-.36-.344 3.007 3.007 0 00-.427-.298c-.383-.22-.677-.252-.883-.093-.2.161-.301.508-.301 1.041 0 .238.022.468.066.692.049.227.122.439.22.637a2.5 2.5 0 00.39.557c.157.164.349.311.574.442.182.104.346.179.493.225.147.045.263.069.346.072l.096.718a.577.577 0 01-.17-.013 2.368 2.368 0 01-.25-.085 2.723 2.723 0 01-.301-.123 2.566 2.566 0 01-.302-.149z" fill="#242328"/><g clip-path="url(#clip0)" stroke-width="1.5" stroke-linecap="round" stroke-linejoin="round"><path d="M41.434 23.474v-2.25c0-.827.582-1.163 1.299-.749L44.68 21.6m7.143 12.37v2.25c0 .828-.582 1.164-1.299.75l-1.948-1.125" stroke="#CA49FF"/><path d="M48.576 23.849l1.948 1.125c.717.414 1.299 1.42 1.299 2.249v2.249" stroke="#3CDCC9"/><path d="M44.68 33.596l-1.947-1.125c-.717-.414-1.299-1.421-1.299-2.25v-2.248" stroke="#CA49FF"/></g><path d="M109.928 62.654c-2.537-6.38-8.704-11.863-8.704-11.863 0 2.472 1.553 5.519 3.483 7.703a44.802 44.802 0 013.42 4.412c2.014 2.954 2.832 4.7 3.163 5.66.095.274.368.439.361.19-.023-.88-.348-2.645-1.723-6.102z" fill="#C4C4C4"/><path d="M109.928 62.654c-2.537-6.38-8.704-11.863-8.704-11.863 0 2.472 1.553 5.519 3.483 7.703a44.802 44.802 0 013.42 4.412c2.014 2.954 2.832 4.7 3.163 5.66.095.274.368.439.361.19-.023-.88-.348-2.645-1.723-6.102z" fill="url(#paint2_linear)"/><mask id="a" style="mask-type:alpha" maskUnits="userSpaceOnUse" x="101" y="50" width="11" height="19"><path d="M109.929 62.654c-2.537-6.38-8.704-11.863-8.704-11.863 0 2.472 1.553 5.519 3.483 7.703a44.805 44.805 0 013.42 4.412c2.013 2.955 2.832 4.7 3.163 5.66.095.275.367.44.361.19-.023-.88-.348-2.645-1.723-6.102z" fill="#C4C4C4"/><path d="M109.929 62.654c-2.537-6.38-8.704-11.863-8.704-11.863 0 2.472 1.553 5.519 3.483 7.703a44.805 44.805 0 013.42 4.412c2.013 2.955 2.832 4.7 3.163 5.66.095.275.367.44.361.19-.023-.88-.348-2.645-1.723-6.102z" fill="url(#paint3_linear)"/></mask><g mask="url(#a)"><path opacity=".3" d="M109.984 63.87c-2.269-5.704-7.781-10.605-7.781-10.605 0 2.21 1.388 4.933 3.113 6.886a40 40 0 013.058 3.944c1.726 2.533 2.47 4.071 2.789 4.95.099.275.37.432.357.18-.042-.818-.357-2.391-1.536-5.355z" fill="url(#paint4_linear)"/></g><path d="M109.711 67.663c-2.305-5.332-8.486-11.273-8.486-11.273 0 2.608 1.656 5.77 3.742 7.972a32.745 32.745 0 012.439 2.875c1.894 2.53 2.474 4.08 2.652 4.807.052.213.254.42.348.314.332-.371.696-1.477-.695-4.695z" fill="#C4C4C4"/><path d="M109.711 67.663c-2.305-5.332-8.486-11.273-8.486-11.273 0 2.608 1.656 5.77 3.742 7.972a32.745 32.745 0 012.439 2.875c1.894 2.53 2.474 4.08 2.652 4.807.052.213.254.42.348.314.332-.371.696-1.477-.695-4.695z" fill="url(#paint5_linear)"/><mask id="b" style="mask-type:alpha" maskUnits="userSpaceOnUse" x="101" y="56" width="10" height="17"><path d="M109.711 67.663c-2.305-5.332-8.486-11.273-8.486-11.273 0 2.608 1.656 5.77 3.742 7.972a32.745 32.745 0 012.439 2.875c1.894 2.53 2.474 4.08 2.652 4.807.052.213.254.42.348.314.332-.371.696-1.477-.695-4.695z" fill="#C4C4C4"/><path d="M109.711 67.663c-2.305-5.332-8.486-11.273-8.486-11.273 0 2.608 1.656 5.77 3.742 7.972a32.745 32.745 0 012.439 2.875c1.894 2.53 2.474 4.08 2.652 4.807.052.213.254.42.348.314.332-.371.696-1.477-.695-4.695z" fill="url(#paint6_linear)"/></mask><g mask="url(#b)"><path opacity=".54" d="M109.516 68.522c-1.963-4.543-7.229-9.604-7.229-9.604 0 2.221 1.41 4.915 3.188 6.791a27.978 27.978 0 012.078 2.45c1.55 2.071 2.067 3.37 2.239 4.019.057.214.261.419.348.305.273-.352.517-1.323-.624-3.96z" fill="url(#paint7_linear)"/></g><path d="M109.256 72.575c-.47-1.136-1.55-3.57-2.359-4.038 0 0 .53 1.433.666 2.43.145 1.06 0 2.749 0 2.749s.616.01.992-.099c.19-.054.426-.17.613-.272.194-.105.231-.423.088-.77z" fill="#C4C4C4"/><path d="M109.256 72.575c-.47-1.136-1.55-3.57-2.359-4.038 0 0 .53 1.433.666 2.43.145 1.06 0 2.749 0 2.749s.616.01.992-.099c.19-.054.426-.17.613-.272.194-.105.231-.423.088-.77z" fill="url(#paint8_linear)"/><mask id="c" style="mask-type:alpha" maskUnits="userSpaceOnUse" x="106" y="68" width="4" height="6"><path d="M109.256 72.575c-.47-1.136-1.55-3.57-2.359-4.038 0 0 .53 1.433.666 2.43.145 1.06 0 2.749 0 2.749s.616.01.992-.099c.19-.054.426-.17.613-.272.194-.105.231-.423.088-.77z" fill="#C4C4C4"/><path d="M109.256 72.575c-.47-1.136-1.55-3.57-2.359-4.038 0 0 .53 1.433.666 2.43.145 1.06 0 2.749 0 2.749s.616.01.992-.099c.19-.054.426-.17.613-.272.194-.105.231-.423.088-.77z" fill="url(#paint9_linear)"/></mask><g mask="url(#c)"><path opacity=".7" d="M108.656 73.044c-.292-1.188-1.019-3.834-1.871-4.571 0 0 .302 1.494.239 2.444-.068 1.01-.614 2.475-.614 2.475s.719.246 1.184.292c.242.024.556.009.802-.011.237-.02.346-.28.26-.629z" fill="url(#paint10_linear)"/></g></g><g opacity=".1"><rect x=".46" y=".796" width="108.563" height="76.153" rx="10.089" transform="matrix(.86603 .5 0 1 54.589 .257)" fill="#fff"/><rect x=".46" y=".796" width="108.563" height="76.153" rx="10.089" transform="matrix(.86603 .5 0 1 54.589 .257)" stroke="#000" stroke-width="1.062"/><rect x=".46" y=".796" width="108.563" height="76.153" rx="10.089" transform="matrix(.86603 .5 0 1 54.589 .257)" stroke="url(#paint11_linear)" stroke-width="1.062"/><rect x=".46" y=".796" width="108.563" height="76.153" rx="10.089" transform="matrix(.86603 .5 0 1 54.589 .257)" stroke="url(#paint12_linear)" stroke-width="1.062"/><path d="M74.51 46.184v8.83l-1.07-.617v-7.774l-3.675-2.122v7.774l-1.07-.618v-8.831l5.815 3.358zm6.9 9.501c0 .527-.066.964-.198 1.313-.133.348-.32.605-.563.77-.236.17-.519.245-.85.224-.331-.03-.692-.157-1.082-.383a4.72 4.72 0 01-1.081-.866 6.093 6.093 0 01-.86-1.21 6.558 6.558 0 01-.553-1.415 6.012 6.012 0 01-.198-1.542c0-.519.066-.952.198-1.3.133-.357.317-.62.552-.79.243-.166.53-.234.86-.204.332.021.692.144 1.082.37.39.225.75.518 1.082.879.331.352.614.75.85 1.191a6.313 6.313 0 01.761 2.964zm-1.07-.618c0-.748-.147-1.423-.442-2.026-.287-.607-.68-1.056-1.18-1.344-.5-.29-.898-.298-1.192-.026-.287.268-.43.775-.43 1.523 0 .747.143 1.425.43 2.032.294.604.691 1.05 1.192 1.339.5.288.893.299 1.18.031.295-.271.442-.781.442-1.529zm1.808 3.389l.618.357c.243-.268.434-.578.574-.93a5.36 5.36 0 00.331-1.148c.073-.424.121-.88.143-1.37a49.74 49.74 0 00.045-1.58l3.763 2.173v5.658l.772.446v2.817l-.97-.561V62.47l-4.305-2.485v1.848l-.971-.56v-2.817zm4.448 2.568V56.36l-1.8-1.039a20.94 20.94 0 01-.055 1.179c-.029.382-.077.754-.143 1.115a5.236 5.236 0 01-.287.994 3.575 3.575 0 01-.452.834l2.737 1.58zm7.521 5.31l-1.026-.592V60.11l-2.56-1.479v5.633l-1.027-.593v-6.626l4.613 2.663v6.627zm6.59-2.821v6.627l-.993-.574V64.52c-.22.195-.464.433-.729.713-.264.28-.53.578-.794.892a24.95 24.95 0 00-1.39 1.759l-.917-.529v-6.627l.993.574v4.766c.192-.255.409-.529.652-.822a15.795 15.795 0 011.534-1.65c.265-.247.511-.448.74-.606l.904.523zm4.256 9.237a5.392 5.392 0 01-1.225-.962 5.934 5.934 0 01-.882-1.224 5.9 5.9 0 01-.53-1.389 6.434 6.434 0 01-.177-1.503c0-.51.063-.941.188-1.294.132-.348.316-.607.552-.777.235-.179.522-.255.861-.23.345.022.728.153 1.147.395a6.885 6.885 0 011.512 1.192l-.232.873a4.766 4.766 0 00-.54-.516 4.57 4.57 0 00-.64-.446c-.574-.332-1.016-.378-1.325-.14-.301.242-.452.762-.452 1.56 0 .358.033.704.099 1.04.074.34.184.658.331.955.155.302.35.58.585.835.236.246.522.467.861.662a3.7 3.7 0 00.739.338c.221.068.394.104.519.108l.144 1.077a.823.823 0 01-.254-.019 3.528 3.528 0 01-.376-.127 4.222 4.222 0 01-.452-.185 3.863 3.863 0 01-.453-.223zm4.733-1.027c.228.319.475.699.74 1.14.265.434.522.888.772 1.364.258.48.497.958.718 1.434.22.467.408.894.562 1.28l-1.214-.7a17 17 0 00-.573-1.211 27.027 27.027 0 00-1.391-2.46 17.13 17.13 0 00-.684-.993v3.134l-1.027-.592v-6.627l1.027.593v2.842l.607-.325.684-.395c.235-.136.452-.266.651-.39.199-.13.361-.241.486-.33l1.192.688c-.162.11-.354.233-.574.37a28.96 28.96 0 01-.673.4l-.685.421-.618.357zm5.773 6.086c.243.14.457.259.64.356.192.094.35.16.475.198v-1.975a2.291 2.291 0 00-.364-.312 5.12 5.12 0 00-1.093-.644 1.212 1.212 0 00-.474-.108.474.474 0 00-.353.127c-.096.08-.144.236-.144.465 0 .425.118.79.353 1.096.236.298.556.563.96.797zm-.088-5.99a4.72 4.72 0 011.038.79c.286.285.515.59.684.918.176.323.301.663.375 1.02.074.348.11.709.11 1.083v4.141c-.088-.034-.213-.08-.375-.14a16.608 16.608 0 01-1.181-.542 8.778 8.778 0 01-.684-.356 5.869 5.869 0 01-.894-.631 4.354 4.354 0 01-.706-.765 3.436 3.436 0 01-.629-2.007c0-.365.062-.643.187-.835a.772.772 0 01.53-.33c.221-.035.478-.005.773.088.294.094.603.234.927.42.103.06.209.13.32.211.11.072.213.149.309.23a8.638 8.638 0 01.419.33v-.33c0-.196-.018-.398-.055-.606a2.345 2.345 0 00-.199-.624 2.226 2.226 0 00-.397-.587 2.468 2.468 0 00-.64-.51 5.375 5.375 0 00-.894-.426 2.532 2.532 0 00-.563-.16l-.121-1.05c.132.008.353.072.662.19.309.11.644.27 1.004.478zm-46.863-8.732a5.855 5.855 0 001.346 0c.22-.034.43-.079.63-.134.205-.06.39-.14.55-.242l1.149.663v8.831l-1.645-.95v-6.358a3.14 3.14 0 01-.74.044 7.88 7.88 0 01-.794-.102l-.496-1.752zm11.393 9.14c0 1.486-.247 2.486-.74 3-.485.51-1.158.517-2.02.02-.86-.497-1.537-1.283-2.03-2.358-.485-1.079-.728-2.362-.728-3.848 0-.74.062-1.358.188-1.855.132-.492.32-.864.562-1.115.243-.25.534-.38.872-.388.339-.009.718.108 1.137.35.86.497 1.534 1.285 2.02 2.364.492 1.075.739 2.351.739 3.83zm-1.678-.97c0-.44-.018-.85-.055-1.229a6.642 6.642 0 00-.176-1.045 2.907 2.907 0 00-.331-.803 1.484 1.484 0 00-.52-.516c-.205-.119-.378-.146-.518-.083-.132.068-.243.209-.33.421-.082.217-.14.497-.177.841a13.14 13.14 0 000 2.408c.036.387.095.735.176 1.045.088.315.199.582.331.803.14.225.313.397.519.516.206.12.379.147.519.083.14-.063.25-.204.33-.42.082-.217.14-.497.177-.841.037-.344.055-.737.055-1.18zm10.602 6.122c0 1.486-.247 2.487-.74 3-.485.51-1.159.517-2.02.02-.86-.497-1.537-1.283-2.03-2.358-.486-1.079-.728-2.362-.728-3.848 0-.74.062-1.358.187-1.855.133-.492.32-.864.563-1.114.243-.251.534-.38.872-.39.338-.008.717.11 1.137.351.86.497 1.534 1.285 2.02 2.364.492 1.075.739 2.351.739 3.83zm-1.678-.969c0-.442-.018-.852-.055-1.23a6.644 6.644 0 00-.177-1.045 2.905 2.905 0 00-.33-.803 1.483 1.483 0 00-.52-.516c-.205-.118-.378-.146-.518-.082-.133.068-.243.208-.331.42-.081.217-.14.497-.177.841a13.433 13.433 0 000 2.409c.037.386.096.735.177 1.045.088.314.198.582.33.802.14.226.314.398.52.517.206.118.379.146.518.082.14-.063.25-.203.331-.42.081-.217.14-.497.177-.841.037-.344.055-.737.055-1.179zm7.95 4.59c0 1.487-.246 2.487-.74 3.001-.485.51-1.158.516-2.019.02-.86-.498-1.538-1.284-2.03-2.358-.486-1.08-.729-2.362-.729-3.849 0-.739.063-1.357.188-1.854.132-.493.32-.864.563-1.115.242-.25.533-.38.871-.389.339-.008.718.108 1.137.35.861.498 1.534 1.286 2.02 2.365.493 1.074.74 2.35.74 3.829zm-1.677-.969c0-.441-.019-.851-.056-1.23a6.643 6.643 0 00-.176-1.044 2.906 2.906 0 00-.331-.803 1.484 1.484 0 00-.519-.516c-.206-.12-.379-.147-.519-.083-.132.068-.242.208-.33.42-.082.217-.14.497-.177.842a10.83 10.83 0 00-.055 1.166c0 .441.018.856.055 1.242.037.387.095.735.176 1.045.089.314.199.582.331.803.14.225.313.397.52.516.205.119.378.147.518.083.14-.064.25-.204.33-.42.082-.217.14-.498.177-.842.037-.344.056-.737.056-1.178zm7.95 4.59c0 1.487-.247 2.488-.74 3.002-.485.51-1.159.516-2.02.019-.86-.497-1.537-1.283-2.03-2.358-.486-1.079-.728-2.362-.728-3.849 0-.739.062-1.357.187-1.854.133-.492.32-.864.563-1.115.243-.25.534-.38.872-.388.338-.009.717.108 1.137.35.86.497 1.534 1.285 2.019 2.364.493 1.075.74 2.351.74 3.83zm-1.678-.968c0-.442-.018-.852-.055-1.23a6.642 6.642 0 00-.177-1.045 2.904 2.904 0 00-.33-.803 1.482 1.482 0 00-.52-.516c-.205-.119-.378-.146-.518-.083-.133.068-.243.209-.331.421-.081.217-.14.497-.177.841a13.433 13.433 0 000 2.409c.037.386.096.734.177 1.044.088.315.198.582.33.803.14.225.314.397.52.516.206.12.379.147.518.083.14-.063.25-.204.331-.42.081-.217.14-.497.177-.841.037-.344.055-.737.055-1.18zm5.701 7.726v-1.363l-.883-.51V88.27l.883.51v-.994l-.883-.51v-1.58l.883.51V82.28l2.517 1.453c1.015.586 1.754 1.251 2.218 1.995.471.747.706 1.537.706 2.37 0 .493-.095.9-.287 1.223-.191.323-.511.487-.96.49-.441.01-1.045-.207-1.81-.65l-.717-.413v.994l1.699.98v1.237l-1.699-.981v1.363l-1.667-.962zm2.219-3.893c.471.272.842.393 1.114.363.28-.025.42-.246.42-.662 0-.773-.442-1.415-1.325-1.925l-.761-.44v2.346l.552.318zM112.44 97.8l-1.688-.974 3.708-10.195 1.666.962L112.44 97.8zm5.498-3.044l-.044.943-.044 1.032a36.19 36.19 0 01-.033.988c-.007.31-.015.582-.022.816l-1.6-.924c.014-.46.036-.973.066-1.542l.11-1.72c.044-.587.089-1.156.133-1.708.051-.548.099-1.039.143-1.472l1.369.79c.316.777.607 1.56.871 2.351.265.79.545 1.652.839 2.587a30.44 30.44 0 01.905-1.733c.295-.527.559-.939.795-1.236l1.39.803c.052.488.1 1.034.144 1.637.051.608.095 1.228.132 1.86a91.908 91.908 0 01.177 3.467l-1.634-.943a84.627 84.627 0 00-.066-2.014l-.066-1.937-1.214 2.383-1.137-.656-1.214-3.772zm6.487 4.306c0-.595.077-1.069.232-1.421.161-.357.371-.61.629-.758a1.39 1.39 0 01.883-.166 2.76 2.76 0 011.037.37 5.148 5.148 0 011.953 2.007c.479.853.718 1.845.718 2.975 0 .111-.004.232-.011.363l-.022.332-3.731-2.154c.037.412.195.813.475 1.204.279.391.655.722 1.126.994.301.174.596.315.882.421.295.102.534.159.718.172l.221 1.669c-.089 0-.206-.017-.354-.051a3.621 3.621 0 01-.496-.159 6.385 6.385 0 01-.574-.229 7.26 7.26 0 01-.618-.319 6.186 6.186 0 01-2.329-2.338 6.098 6.098 0 01-.563-1.434 6.382 6.382 0 01-.176-1.478zm3.862 1.503a2.632 2.632 0 00-.077-.516 2.043 2.043 0 00-.187-.516 2.236 2.236 0 00-.32-.478 1.787 1.787 0 00-.475-.388c-.184-.107-.342-.16-.475-.16a.476.476 0 00-.331.09.676.676 0 00-.209.299 2.3 2.3 0 00-.1.414l2.174 1.255zm2.583 2.167c0-.485.066-.901.198-1.249.14-.353.339-.612.596-.778.258-.174.571-.248.938-.223.368.026.788.175 1.259.447.309.178.592.375.849.592.258.208.508.442.751.701l-.342 1.319a8.432 8.432 0 00-.508-.472 4.158 4.158 0 00-.618-.433c-.486-.28-.85-.316-1.093-.108-.235.212-.353.603-.353 1.172 0 .603.111 1.134.331 1.593.228.463.622.856 1.181 1.179.199.115.412.217.64.306.228.089.438.142.629.159l.232 1.689a3.24 3.24 0 01-.717-.172 5.416 5.416 0 01-.949-.447 6.098 6.098 0 01-1.369-1.057 6.341 6.341 0 01-.949-1.3 5.937 5.937 0 01-.541-1.421 6.908 6.908 0 01-.165-1.497z" fill="#242328"/><path opacity=".5" d="M69.055 75.588a2.9 2.9 0 00.817-.004c.265-.045.508-.151.728-.318l.486.28v5.887l-.684-.395v-4.791a.91.91 0 01-.221.068 1.45 1.45 0 01-.28.034 2.4 2.4 0 01-.316-.005 2.308 2.308 0 01-.316-.038l-.214-.718zm5.54 4.923c0-.985.15-1.658.448-2.017.305-.357.724-.381 1.259-.073.534.309.951.816 1.25 1.521.304.708.457 1.555.457 2.54 0 .986-.153 1.657-.457 2.014-.299.36-.716.385-1.25.076-.535-.309-.954-.817-1.259-1.525-.299-.705-.448-1.55-.448-2.536zm2.693 1.555c0-.323-.018-.639-.052-.947a4.41 4.41 0 00-.162-.85 2.548 2.548 0 00-.302-.684 1.356 1.356 0 00-.47-.467c-.187-.108-.344-.133-.471-.076-.128.05-.23.16-.31.33a2.53 2.53 0 00-.161.663 9.853 9.853 0 000 1.835c.034.31.088.592.162.85.078.26.181.493.309.697.127.198.284.35.47.459.187.107.344.135.471.084.128-.056.229-.17.302-.344.079-.17.133-.39.162-.662a7.05 7.05 0 00.052-.888zm1.46.843c0-.986.15-1.658.448-2.018.305-.357.724-.38 1.259-.072.534.309.951.816 1.25 1.52.305.709.457 1.555.457 2.54 0 .986-.153 1.657-.457 2.014-.299.36-.716.385-1.25.077-.535-.309-.954-.817-1.258-1.525-.3-.705-.45-1.55-.45-2.536zm2.692 1.555c0-.323-.017-.639-.051-.948a4.402 4.402 0 00-.162-.85 2.55 2.55 0 00-.302-.683 1.356 1.356 0 00-.47-.467c-.187-.108-.344-.134-.471-.077-.128.051-.23.162-.31.332a2.535 2.535 0 00-.161.662 9.853 9.853 0 000 1.835c.034.309.088.592.162.85.078.26.181.493.309.696.127.199.284.352.47.46.187.107.344.135.472.084.127-.056.227-.171.301-.344.079-.17.133-.39.162-.663a7.05 7.05 0 00.052-.887zm1.46.843c0-.986.15-1.659.45-2.018.303-.357.723-.381 1.258-.072.534.308.951.815 1.25 1.52.304.708.456 1.555.456 2.54 0 .986-.152 1.657-.456 2.014-.299.36-.716.385-1.25.077-.535-.31-.955-.817-1.259-1.525-.299-.706-.448-1.55-.448-2.536zm2.693 1.554c0-.323-.017-.638-.051-.947a4.402 4.402 0 00-.162-.85 2.548 2.548 0 00-.302-.683 1.355 1.355 0 00-.47-.468c-.187-.107-.344-.133-.471-.076-.128.05-.23.161-.31.331a2.531 2.531 0 00-.161.663 9.822 9.822 0 000 1.835c.034.309.088.592.162.85.078.26.181.492.309.696.127.198.284.351.47.459.187.107.344.136.471.085.128-.057.228-.171.302-.344.079-.17.133-.391.162-.663a7.05 7.05 0 00.051-.888zm3.51 4.974V90.68l-.64-.37v-.552l.64.37v-.757l-.64-.37v-.645l.64.37v-2.957l1.382.799c.643.37 1.119.796 1.428 1.274.314.481.47 1.008.47 1.58 0 .578-.169.933-.507 1.067-.339.127-.836 0-1.494-.379l-.618-.356v.756l1.214.7v.553l-1.214-.701v1.155l-.662-.382zm1.184-2.425c.446.257.792.372 1.037.344.25-.026.375-.26.375-.701 0-.385-.103-.73-.309-1.037-.206-.306-.527-.585-.963-.837l-.663-.382v2.311l.523.301zm2.906 6.359l-.699-.404 2.494-6.784.685.395-2.48 6.793zm6.256 2.142a3.574 3.574 0 01-.817-.642 3.96 3.96 0 01-.589-.815 3.94 3.94 0 01-.353-.926 4.303 4.303 0 01-.117-1.003c0-.34.041-.627.125-.862.088-.233.21-.405.368-.519a.816.816 0 01.573-.152c.23.014.486.102.766.263a4.569 4.569 0 011.007.794l-.154.582a3.195 3.195 0 00-.36-.344 3.03 3.03 0 00-.427-.297c-.383-.221-.677-.252-.883-.094-.201.162-.302.509-.302 1.041 0 .238.022.469.066.692.05.227.123.44.221.638.103.2.233.386.39.556.157.164.348.312.574.442.181.105.346.18.493.225.147.045.262.07.346.072l.095.718a.548.548 0 01-.169-.013 2.397 2.397 0 01-.25-.085 2.747 2.747 0 01-.302-.123 2.531 2.531 0 01-.301-.148zm1.544-1.411c0-.391.049-.703.147-.935.098-.238.228-.406.39-.505a.845.845 0 01.559-.11c.211.025.427.101.647.228a3 3 0 011.185 1.245c.275.527.412 1.17.412 1.929v.136a1.2 1.2 0 01-.008.14l-2.619-1.512c.03.475.145.89.346 1.244.201.354.515.654.942.9.24.14.441.233.603.281.167.045.292.07.375.072l.096.718c-.083.003-.231-.028-.441-.093a3.491 3.491 0 01-.707-.323 3.91 3.91 0 01-.868-.671 3.922 3.922 0 01-.949-1.755 4.452 4.452 0 01-.11-.99zm2.626 1.083a2.14 2.14 0 00-.235-1.011 1.635 1.635 0 00-.655-.727.822.822 0 00-.419-.131.474.474 0 00-.302.097.663.663 0 00-.199.277 1.683 1.683 0 00-.088.399l1.898 1.096zm2.992 3.791c.162.094.304.173.426.238.128.063.233.106.317.132v-1.317a1.477 1.477 0 00-.243-.208 3.338 3.338 0 00-.728-.43.814.814 0 00-.317-.071.317.317 0 00-.235.085c-.064.053-.096.157-.096.31 0 .283.079.527.236.73.157.199.37.376.64.531zm-.059-3.993c.274.159.505.335.691.527.192.19.344.394.457.612.117.215.201.442.25.68.049.232.073.472.073.722v2.761a17.462 17.462 0 00-.25-.094 5.854 5.854 0 01-1.243-.599 3.834 3.834 0 01-.596-.42 2.893 2.893 0 01-.471-.51 2.274 2.274 0 01-.419-1.338c0-.244.041-.429.125-.556a.513.513 0 01.353-.221 1.13 1.13 0 01.515.06 3.169 3.169 0 011.037.573 5.007 5.007 0 01.28.22v-.22c0-.13-.012-.265-.037-.404a1.611 1.611 0 00-.132-.416 1.519 1.519 0 00-.265-.391 1.643 1.643 0 00-.427-.34 3.558 3.558 0 00-.596-.284 1.7 1.7 0 00-.375-.107l-.081-.7c.088.005.235.048.441.127.206.073.429.18.67.318zm5.742 7.844l-.684-.395v-1.954l-1.766-1.02v1.954l-.684-.395v-4.417l.684.395v1.801l1.766 1.019v-1.801l.684.395v4.418zm2.84 1.741a3.537 3.537 0 01-.817-.641 3.95 3.95 0 01-.589-.816 3.95 3.95 0 01-.353-.926 4.317 4.317 0 01-.118-1.002c0-.34.042-.628.125-.863.089-.232.211-.405.368-.518a.817.817 0 01.574-.153c.231.014.486.102.765.264a4.485 4.485 0 011.008.794l-.154.582a3.15 3.15 0 00-.361-.344 2.978 2.978 0 00-.426-.298c-.383-.22-.677-.252-.883-.093-.201.161-.302.508-.302 1.041 0 .238.022.468.066.692.049.227.123.439.221.637.103.201.233.387.39.557.157.164.348.311.574.442.181.104.346.179.493.225.147.045.262.069.346.072l.095.718a.577.577 0 01-.169-.013 2.32 2.32 0 01-.25-.085 2.75 2.75 0 01-.302-.123 2.55 2.55 0 01-.301-.149z" fill="#242328"/><g clip-path="url(#clip1)" stroke-width="1.5" stroke-linecap="round" stroke-linejoin="round"><path d="M68.372 23.474v-2.25c0-.827.581-1.163 1.298-.749l1.948 1.125m7.142 12.37v2.25c0 .828-.581 1.164-1.298.75l-1.948-1.125" stroke="#CA49FF"/><path d="M75.514 23.849l1.948 1.125c.717.414 1.298 1.42 1.298 2.249v2.249" stroke="#3CDCC9"/><path d="M71.618 33.596L69.67 32.47c-.717-.414-1.298-1.421-1.298-2.25v-2.248" stroke="#CA49FF"/></g><path d="M136.866 62.654c-2.538-6.38-8.705-11.863-8.705-11.863 0 2.472 1.554 5.519 3.483 7.703a44.644 44.644 0 013.421 4.412c2.013 2.954 2.832 4.7 3.163 5.66.094.274.367.439.36.19-.023-.88-.347-2.645-1.722-6.102z" fill="#C4C4C4"/><path d="M136.866 62.654c-2.538-6.38-8.705-11.863-8.705-11.863 0 2.472 1.554 5.519 3.483 7.703a44.644 44.644 0 013.421 4.412c2.013 2.954 2.832 4.7 3.163 5.66.094.274.367.439.36.19-.023-.88-.347-2.645-1.722-6.102z" fill="url(#paint13_linear)"/><mask id="d" style="mask-type:alpha" maskUnits="userSpaceOnUse" x="128" y="50" width="11" height="19"><path d="M136.867 62.654c-2.538-6.38-8.705-11.863-8.705-11.863 0 2.472 1.554 5.519 3.483 7.703a44.646 44.646 0 013.421 4.412c2.013 2.955 2.832 4.7 3.163 5.66.094.275.367.44.36.19-.023-.88-.347-2.645-1.722-6.102z" fill="#C4C4C4"/><path d="M136.867 62.654c-2.538-6.38-8.705-11.863-8.705-11.863 0 2.472 1.554 5.519 3.483 7.703a44.646 44.646 0 013.421 4.412c2.013 2.955 2.832 4.7 3.163 5.66.094.275.367.44.36.19-.023-.88-.347-2.645-1.722-6.102z" fill="url(#paint14_linear)"/></mask><g mask="url(#d)"><path opacity=".3" d="M136.922 63.87c-2.269-5.704-7.782-10.605-7.782-10.605 0 2.21 1.389 4.933 3.114 6.886a40 40 0 013.058 3.944c1.725 2.533 2.469 4.071 2.788 4.95.1.275.371.432.358.18-.042-.818-.358-2.391-1.536-5.355z" fill="url(#paint15_linear)"/></g><path d="M136.649 67.663c-2.305-5.332-8.486-11.273-8.486-11.273 0 2.608 1.655 5.77 3.742 7.972a32.745 32.745 0 012.439 2.875c1.894 2.53 2.474 4.08 2.651 4.807.052.213.254.42.348.314.333-.371.697-1.477-.694-4.695z" fill="#C4C4C4"/><path d="M136.649 67.663c-2.305-5.332-8.486-11.273-8.486-11.273 0 2.608 1.655 5.77 3.742 7.972a32.745 32.745 0 012.439 2.875c1.894 2.53 2.474 4.08 2.651 4.807.052.213.254.42.348.314.333-.371.697-1.477-.694-4.695z" fill="url(#paint16_linear)"/><mask id="e" style="mask-type:alpha" maskUnits="userSpaceOnUse" x="128" y="56" width="10" height="17"><path d="M136.649 67.663c-2.305-5.332-8.486-11.273-8.486-11.273 0 2.608 1.655 5.77 3.742 7.972a32.745 32.745 0 012.439 2.875c1.894 2.53 2.474 4.08 2.651 4.807.052.213.254.42.348.314.333-.371.697-1.477-.694-4.695z" fill="#C4C4C4"/><path d="M136.649 67.663c-2.305-5.332-8.486-11.273-8.486-11.273 0 2.608 1.655 5.77 3.742 7.972a32.745 32.745 0 012.439 2.875c1.894 2.53 2.474 4.08 2.651 4.807.052.213.254.42.348.314.333-.371.697-1.477-.694-4.695z" fill="url(#paint17_linear)"/></mask><g mask="url(#e)"><path opacity=".54" d="M136.454 68.522c-1.964-4.543-7.23-9.604-7.23-9.604 0 2.221 1.411 4.915 3.188 6.791a27.806 27.806 0 012.078 2.45c1.551 2.071 2.068 3.37 2.24 4.019.057.214.26.419.348.305.272-.352.516-1.323-.624-3.96z" fill="url(#paint18_linear)"/></g><path d="M136.193 72.575c-.469-1.136-1.549-3.57-2.358-4.038 0 0 .53 1.433.666 2.43.144 1.06 0 2.749 0 2.749s.615.01.992-.099c.189-.054.425-.17.613-.272.194-.105.231-.423.087-.77z" fill="#C4C4C4"/><path d="M136.193 72.575c-.469-1.136-1.549-3.57-2.358-4.038 0 0 .53 1.433.666 2.43.144 1.06 0 2.749 0 2.749s.615.01.992-.099c.189-.054.425-.17.613-.272.194-.105.231-.423.087-.77z" fill="url(#paint19_linear)"/><mask id="f" style="mask-type:alpha" maskUnits="userSpaceOnUse" x="133" y="68" width="4" height="6"><path d="M136.193 72.575c-.469-1.136-1.549-3.57-2.358-4.038 0 0 .53 1.433.666 2.43.144 1.06 0 2.749 0 2.749s.615.01.992-.099c.189-.054.425-.17.613-.272.194-.105.231-.423.087-.77z" fill="#C4C4C4"/><path d="M136.193 72.575c-.469-1.136-1.549-3.57-2.358-4.038 0 0 .53 1.433.666 2.43.144 1.06 0 2.749 0 2.749s.615.01.992-.099c.189-.054.425-.17.613-.272.194-.105.231-.423.087-.77z" fill="url(#paint20_linear)"/></mask><g mask="url(#f)"><path opacity=".7" d="M135.593 73.044c-.292-1.188-1.019-3.834-1.87-4.571 0 0 .301 1.494.238 2.444-.067 1.01-.613 2.475-.613 2.475s.719.246 1.184.292c.242.024.555.009.801-.011.237-.02.346-.28.26-.629z" fill="url(#paint21_linear)"/></g></g><rect x=".46" y=".796" width="108.563" height="76.153" rx="10.089" transform="matrix(.86603 .5 0 1 .714 .257)" fill="#fff"/><rect x=".46" y=".796" width="108.563" height="76.153" rx="10.089" transform="matrix(.86603 .5 0 1 .714 .257)" stroke="#000" stroke-width="1.062"/><rect x=".46" y=".796" width="108.563" height="76.153" rx="10.089" transform="matrix(.86603 .5 0 1 .714 .257)" stroke="url(#paint22_linear)" stroke-width="1.062"/><rect x=".46" y=".796" width="108.563" height="76.153" rx="10.089" transform="matrix(.86603 .5 0 1 .714 .257)" stroke="url(#paint23_linear)" stroke-width="1.062"/><path d="M20.635 46.184v8.83l-1.07-.617v-7.774l-3.675-2.122v7.774l-1.07-.618v-8.831l5.815 3.358zm6.9 9.501c0 .527-.066.964-.198 1.313-.133.348-.32.605-.563.77-.236.17-.519.245-.85.224-.331-.03-.692-.157-1.081-.383a4.72 4.72 0 01-1.082-.866 6.093 6.093 0 01-.86-1.21 6.558 6.558 0 01-.553-1.415 6.012 6.012 0 01-.198-1.542c0-.519.066-.952.198-1.3.133-.357.317-.62.552-.79.243-.166.53-.234.86-.204.332.021.692.144 1.082.37.39.225.75.518 1.082.879.331.352.614.75.85 1.191a6.313 6.313 0 01.761 2.964zm-1.07-.618c0-.748-.147-1.423-.442-2.026-.287-.607-.68-1.056-1.18-1.344-.5-.29-.898-.298-1.192-.026-.287.268-.43.775-.43 1.523 0 .747.143 1.425.43 2.032.294.604.691 1.05 1.192 1.339.5.288.893.299 1.18.031.295-.271.442-.781.442-1.529zm1.808 3.389l.618.357c.243-.268.434-.578.574-.93a5.36 5.36 0 00.331-1.148c.073-.424.121-.88.143-1.37a49.74 49.74 0 00.045-1.58l3.763 2.173v5.658l.772.446v2.817l-.97-.561V62.47l-4.305-2.485v1.848l-.971-.56v-2.817zm4.448 2.568V56.36l-1.8-1.039a20.94 20.94 0 01-.055 1.179c-.029.382-.077.754-.143 1.115a5.236 5.236 0 01-.287.994 3.575 3.575 0 01-.452.834l2.737 1.58zm7.521 5.31l-1.026-.592V60.11l-2.56-1.479v5.633l-1.027-.593v-6.626l4.613 2.663v6.627zm6.59-2.821v6.627l-.993-.574V64.52c-.22.195-.464.433-.729.713-.264.28-.53.578-.794.892a24.95 24.95 0 00-1.39 1.759l-.917-.529v-6.627l.993.574v4.766c.192-.255.409-.529.652-.822a15.795 15.795 0 011.534-1.65c.265-.247.511-.448.74-.606l.904.523zm4.257 9.237a5.362 5.362 0 01-1.225-.962 5.938 5.938 0 01-.883-1.224 5.912 5.912 0 01-.53-1.389 6.444 6.444 0 01-.177-1.503c0-.51.063-.941.188-1.294.132-.348.316-.607.552-.777.235-.179.522-.255.86-.23.346.022.729.153 1.148.395a6.88 6.88 0 011.512 1.192l-.231.873a4.82 4.82 0 00-.541-.516 4.541 4.541 0 00-.64-.446c-.574-.332-1.016-.378-1.325-.14-.301.242-.452.762-.452 1.56 0 .358.033.704.1 1.04.073.34.183.658.33.955.155.302.35.58.585.835.236.246.523.467.86.662.273.157.52.27.74.338.221.068.394.104.52.108l.143 1.077a.823.823 0 01-.254-.019 3.55 3.55 0 01-.376-.127 4.144 4.144 0 01-.452-.185 3.826 3.826 0 01-.452-.223zm4.732-1.027c.228.319.475.699.74 1.14.265.434.522.888.772 1.364.258.48.497.958.718 1.434.22.467.408.894.562 1.28l-1.213-.7a17.117 17.117 0 00-.574-1.211 27.013 27.013 0 00-1.391-2.46 16.88 16.88 0 00-.684-.993v3.134l-1.027-.592v-6.627l1.027.593v2.842l.607-.325.684-.395c.235-.136.453-.266.651-.39.199-.13.36-.241.486-.33l1.192.688c-.162.11-.354.233-.574.37-.214.13-.438.265-.673.4l-.685.421-.618.357zm5.773 6.086c.243.14.457.259.64.356.192.094.35.16.475.198v-1.975a2.261 2.261 0 00-.364-.312 5.078 5.078 0 00-1.093-.644 1.214 1.214 0 00-.474-.108.476.476 0 00-.353.127c-.096.08-.144.236-.144.465 0 .425.118.79.353 1.096.236.298.556.563.96.797zm-.088-5.99a4.72 4.72 0 011.038.79c.286.285.515.59.684.918.176.323.301.663.375 1.02.073.348.11.709.11 1.083v4.141c-.088-.034-.213-.08-.375-.14a15.824 15.824 0 01-1.18-.542 8.8 8.8 0 01-.685-.356 5.893 5.893 0 01-.894-.631 4.367 4.367 0 01-.706-.765 3.428 3.428 0 01-.63-2.007c0-.365.063-.643.188-.835a.77.77 0 01.53-.33c.22-.035.478-.005.773.088.294.094.603.234.927.42.103.06.21.13.32.211.11.072.213.149.309.23a8.035 8.035 0 01.419.33v-.33c0-.196-.018-.398-.055-.606a2.348 2.348 0 00-.199-.624 2.237 2.237 0 00-.397-.587 2.467 2.467 0 00-.64-.51 5.333 5.333 0 00-.894-.426 2.533 2.533 0 00-.563-.16l-.121-1.05c.132.008.353.072.662.19.309.11.644.27 1.004.478zm-46.863-8.732a5.855 5.855 0 001.346 0c.22-.034.43-.079.63-.134.205-.06.39-.14.55-.242l1.149.663v8.831l-1.645-.95v-6.358a3.14 3.14 0 01-.74.044 7.88 7.88 0 01-.794-.102l-.496-1.752zm11.393 9.14c0 1.486-.247 2.486-.74 3-.485.51-1.158.517-2.02.02-.86-.497-1.537-1.283-2.03-2.358-.485-1.079-.728-2.362-.728-3.848 0-.74.062-1.358.188-1.855.132-.492.32-.864.562-1.115.243-.25.534-.38.872-.388.339-.009.718.108 1.137.35.86.497 1.534 1.285 2.02 2.364.492 1.075.739 2.351.739 3.83zm-1.678-.97c0-.44-.018-.85-.055-1.229a6.642 6.642 0 00-.176-1.045 2.907 2.907 0 00-.331-.803 1.484 1.484 0 00-.52-.516c-.205-.119-.378-.146-.518-.083-.132.068-.243.209-.33.421a3.53 3.53 0 00-.178.841 13.395 13.395 0 000 2.408c.037.387.096.735.177 1.045.088.315.199.582.331.803.14.225.313.397.519.516.206.12.379.147.519.083.14-.063.25-.204.33-.42.082-.217.14-.497.177-.841.037-.344.055-.737.055-1.18zM34.96 77.38c0 1.486-.247 2.487-.74 3-.485.51-1.158.517-2.02.02-.86-.497-1.537-1.283-2.03-2.358-.486-1.079-.728-2.362-.728-3.848 0-.74.062-1.358.187-1.855.133-.492.32-.864.563-1.114.243-.251.534-.38.872-.39.338-.008.717.11 1.137.351.86.497 1.534 1.285 2.02 2.364.492 1.075.739 2.351.739 3.83zm-1.678-.969c0-.442-.018-.852-.055-1.23a6.644 6.644 0 00-.177-1.045 2.905 2.905 0 00-.33-.803 1.483 1.483 0 00-.52-.516c-.205-.118-.378-.146-.518-.082-.133.068-.243.208-.331.42-.081.217-.14.497-.177.841-.037.336-.055.724-.055 1.166 0 .442.018.856.055 1.243.037.386.096.735.177 1.045.088.314.198.582.33.802.14.226.314.398.52.517.206.118.379.146.518.082.14-.063.25-.203.331-.42.081-.217.14-.497.177-.841.037-.344.055-.737.055-1.179zm7.95 4.59c0 1.487-.246 2.487-.74 3.001-.485.51-1.158.516-2.019.02-.86-.498-1.538-1.284-2.03-2.358-.486-1.08-.729-2.362-.729-3.849 0-.739.063-1.357.188-1.854.132-.493.32-.864.563-1.115.242-.25.533-.38.871-.389.339-.008.718.108 1.137.35.861.498 1.534 1.286 2.02 2.365.493 1.074.74 2.35.74 3.829zm-1.677-.969c0-.441-.019-.851-.056-1.23a6.643 6.643 0 00-.176-1.044 2.906 2.906 0 00-.331-.803 1.484 1.484 0 00-.519-.516c-.206-.12-.379-.147-.519-.083-.132.068-.242.208-.33.42-.082.217-.14.497-.177.842a10.83 10.83 0 00-.055 1.166c0 .441.018.856.055 1.242.037.387.095.735.176 1.045.089.314.199.582.331.803.14.225.313.397.52.516.205.119.378.147.518.083.14-.064.25-.204.33-.42.082-.217.14-.498.177-.842.037-.344.056-.737.056-1.178zm7.95 4.59c0 1.487-.247 2.488-.74 3.002-.485.51-1.159.516-2.02.019-.86-.497-1.537-1.283-2.03-2.358-.486-1.079-.728-2.362-.728-3.849 0-.739.062-1.357.187-1.854.133-.492.32-.864.563-1.115.243-.25.533-.38.872-.388.338-.009.717.108 1.137.35.86.497 1.534 1.285 2.02 2.364.492 1.075.739 2.351.739 3.83zm-1.678-.968c0-.442-.018-.852-.055-1.23a6.642 6.642 0 00-.177-1.045 2.904 2.904 0 00-.33-.803 1.482 1.482 0 00-.52-.516c-.205-.119-.378-.146-.518-.083-.133.068-.243.209-.331.421-.081.217-.14.497-.177.841-.037.336-.055.724-.055 1.166 0 .442.018.856.055 1.243.037.386.096.734.177 1.044.088.315.198.582.33.803.14.225.314.397.52.516.206.12.379.147.518.083.14-.063.25-.204.331-.42.081-.217.14-.497.177-.841.037-.344.055-.737.055-1.18zm5.701 7.726v-1.363l-.883-.51V88.27l.883.51v-.994l-.883-.51v-1.58l.883.51V82.28l2.517 1.453c1.015.586 1.754 1.251 2.218 1.995.47.747.706 1.537.706 2.37 0 .493-.095.9-.287 1.223-.191.323-.511.487-.96.49-.441.01-1.045-.207-1.81-.65l-.717-.413v.994l1.7.98v1.237l-1.7-.981v1.363l-1.667-.962zm2.219-3.893c.47.272.842.393 1.114.363.28-.025.42-.246.42-.662 0-.773-.442-1.415-1.325-1.925l-.761-.44v2.346l.552.318zM58.565 97.8l-1.688-.974 3.708-10.195 1.666.962L58.565 97.8zm5.498-3.044l-.044.943-.044 1.032a39.24 39.24 0 01-.033.988c-.007.31-.015.582-.022.816l-1.6-.924c.014-.46.036-.973.066-1.542l.11-1.72c.044-.587.088-1.156.133-1.708.051-.548.099-1.039.143-1.472l1.369.79c.316.777.607 1.56.871 2.351.265.79.545 1.652.84 2.587.308-.637.61-1.215.904-1.733.294-.527.56-.939.795-1.236l1.39.803c.052.488.1 1.034.144 1.637.051.608.096 1.228.132 1.86a86.943 86.943 0 01.177 3.467l-1.634-.943a92.113 92.113 0 00-.066-2.014l-.066-1.937-1.214 2.383-1.137-.656-1.214-3.772zm6.487 4.306c0-.595.077-1.069.232-1.421.161-.357.371-.61.629-.758a1.4 1.4 0 01.882-.166 2.77 2.77 0 011.038.37 5.15 5.15 0 011.953 2.007c.478.853.718 1.845.718 2.975 0 .111-.004.232-.011.363l-.022.332-3.73-2.154c.036.412.194.813.474 1.204.28.391.655.722 1.126.994.301.174.596.315.883.421.294.102.533.159.717.172l.22 1.669c-.088 0-.206-.017-.353-.051a3.614 3.614 0 01-.496-.159 6.431 6.431 0 01-.574-.229 7.277 7.277 0 01-.618-.319 6.197 6.197 0 01-2.329-2.338 6.098 6.098 0 01-.563-1.434 6.346 6.346 0 01-.176-1.478zm3.862 1.503a2.648 2.648 0 00-.077-.516 2.026 2.026 0 00-.187-.516 2.214 2.214 0 00-.32-.478 1.764 1.764 0 00-.475-.388c-.184-.107-.342-.16-.475-.16a.475.475 0 00-.33.09.679.679 0 00-.21.299 2.291 2.291 0 00-.1.414l2.174 1.255zm2.583 2.167c0-.485.066-.901.198-1.249.14-.353.339-.612.596-.778.258-.174.57-.248.938-.223.368.026.788.175 1.258.447.31.178.593.375.85.592.258.208.508.442.75.701l-.341 1.319a8.305 8.305 0 00-.508-.472 4.147 4.147 0 00-.618-.433c-.486-.28-.85-.316-1.093-.108-.235.212-.353.603-.353 1.172 0 .603.11 1.134.331 1.593.228.463.622.856 1.181 1.179.199.115.412.217.64.306.228.089.438.142.63.159l.231 1.689a3.236 3.236 0 01-.717-.172 5.445 5.445 0 01-.95-.447 6.09 6.09 0 01-1.368-1.057 6.323 6.323 0 01-.949-1.3 5.932 5.932 0 01-.54-1.421 6.884 6.884 0 01-.166-1.497z" fill="#242328"/><path opacity=".5" d="M15.18 75.588a2.9 2.9 0 00.817-.004c.265-.045.508-.151.728-.318l.486.28v5.887l-.684-.395v-4.791a.91.91 0 01-.221.068 1.45 1.45 0 01-.28.034 2.4 2.4 0 01-.316-.005 2.308 2.308 0 01-.316-.038l-.214-.718zm5.54 4.923c0-.985.15-1.658.449-2.017.304-.357.723-.381 1.258-.073.534.309.951.816 1.25 1.521.305.708.457 1.555.457 2.54 0 .986-.152 1.657-.457 2.014-.299.36-.716.385-1.25.076-.535-.309-.954-.817-1.258-1.525-.3-.705-.45-1.55-.45-2.536zm2.693 1.555c0-.323-.018-.639-.052-.947a4.41 4.41 0 00-.162-.85 2.548 2.548 0 00-.302-.684 1.356 1.356 0 00-.47-.467c-.187-.108-.344-.133-.471-.076-.128.05-.23.16-.31.33a2.53 2.53 0 00-.161.663 9.853 9.853 0 000 1.835c.034.31.088.592.162.85.078.26.181.493.309.697.127.198.284.35.47.459.187.107.344.135.472.084.127-.056.228-.17.301-.344.079-.17.133-.39.162-.662a7.05 7.05 0 00.052-.888zm1.46.843c0-.986.15-1.658.448-2.018.305-.357.724-.38 1.259-.072.534.309.951.816 1.25 1.52.305.709.457 1.555.457 2.54 0 .986-.152 1.657-.457 2.014-.299.36-.716.385-1.25.077-.535-.309-.954-.817-1.258-1.525-.3-.705-.45-1.55-.45-2.536zm2.692 1.555c0-.323-.017-.639-.051-.948a4.402 4.402 0 00-.162-.85 2.55 2.55 0 00-.302-.683 1.356 1.356 0 00-.47-.467c-.187-.108-.344-.134-.471-.077-.128.051-.23.162-.31.332a2.535 2.535 0 00-.161.662 9.853 9.853 0 000 1.835c.034.309.088.592.162.85.078.26.181.493.309.696.127.199.284.352.47.46.187.107.344.135.471.084.128-.056.229-.171.302-.344.079-.17.133-.39.162-.663a7.05 7.05 0 00.052-.887zm1.46.843c0-.986.15-1.659.45-2.018.303-.357.723-.381 1.258-.072.534.308.951.815 1.25 1.52.304.708.456 1.555.456 2.54 0 .986-.152 1.657-.456 2.014-.299.36-.716.385-1.25.077-.535-.31-.954-.817-1.259-1.525-.299-.706-.448-1.55-.448-2.536zm2.693 1.554c0-.323-.017-.638-.051-.947a4.402 4.402 0 00-.162-.85 2.548 2.548 0 00-.302-.683 1.355 1.355 0 00-.47-.468c-.187-.107-.344-.133-.471-.076-.128.05-.23.161-.31.331a2.531 2.531 0 00-.161.663 9.822 9.822 0 000 1.835c.034.309.088.592.162.85.078.26.181.492.309.696.127.198.284.351.47.459.187.107.344.136.471.085.128-.057.229-.171.302-.344.079-.17.133-.391.162-.663a7.05 7.05 0 00.051-.888zm3.51 4.974V90.68l-.64-.37v-.552l.64.37v-.757l-.64-.37v-.645l.64.37v-2.957l1.382.799c.643.37 1.119.796 1.428 1.274.314.481.47 1.008.47 1.58 0 .578-.169.933-.507 1.067-.338.127-.836 0-1.494-.379l-.618-.356v.756l1.214.7v.553l-1.214-.701v1.155l-.662-.382zm1.184-2.425c.446.257.792.372 1.037.344.25-.026.375-.26.375-.701 0-.385-.103-.73-.309-1.037-.206-.306-.527-.585-.964-.837l-.662-.382v2.311l.523.301zm2.906 6.359l-.699-.404 2.494-6.784.685.395-2.48 6.793zm6.256 2.142a3.574 3.574 0 01-.817-.642 3.96 3.96 0 01-.589-.815 3.94 3.94 0 01-.353-.926 4.303 4.303 0 01-.117-1.003c0-.34.041-.627.125-.862.088-.233.21-.405.367-.519a.816.816 0 01.574-.152c.23.014.486.102.765.263a4.569 4.569 0 011.008.794l-.154.582a3.212 3.212 0 00-.36-.344 3.03 3.03 0 00-.427-.297c-.383-.221-.677-.252-.883-.094-.201.162-.302.509-.302 1.041 0 .238.022.469.066.692.05.227.123.44.221.638.103.2.233.386.39.556.157.164.348.312.574.442.181.105.346.18.493.225.147.045.262.07.346.072l.095.718a.548.548 0 01-.169-.013 2.367 2.367 0 01-.25-.085 2.747 2.747 0 01-.302-.123 2.531 2.531 0 01-.301-.148zm1.544-1.411c0-.391.049-.703.147-.935.098-.238.228-.406.39-.505a.846.846 0 01.559-.11c.21.025.427.101.647.228a3 3 0 011.185 1.245c.275.527.412 1.17.412 1.929v.136c0 .05-.003.097-.008.14l-2.619-1.512c.03.475.145.89.346 1.244.201.354.515.654.942.9.24.14.441.233.603.281.167.045.292.07.375.072l.096.718c-.083.003-.23-.028-.441-.093a3.485 3.485 0 01-.707-.323 3.906 3.906 0 01-.868-.671 3.91 3.91 0 01-.95-1.755 4.482 4.482 0 01-.11-.99zm2.626 1.083a2.143 2.143 0 00-.235-1.011 1.636 1.636 0 00-.655-.727.821.821 0 00-.42-.131.475.475 0 00-.301.097.66.66 0 00-.199.277 1.664 1.664 0 00-.088.399l1.898 1.096zm2.992 3.791c.162.094.304.173.426.238.128.063.233.106.317.132v-1.317a1.487 1.487 0 00-.243-.208 3.343 3.343 0 00-.728-.43.81.81 0 00-.317-.071.317.317 0 00-.235.085c-.064.053-.096.157-.096.31 0 .283.079.527.236.73.157.199.37.376.64.531zm-.06-3.993c.276.159.506.335.692.527.192.19.344.394.457.612.117.215.2.442.25.68.049.232.073.472.073.722v2.761a17.668 17.668 0 00-.25-.094 10.182 10.182 0 01-.787-.361 5.857 5.857 0 01-.456-.238 3.867 3.867 0 01-.596-.42 2.926 2.926 0 01-.471-.51 2.285 2.285 0 01-.42-1.338c0-.244.042-.429.126-.556a.514.514 0 01.353-.221 1.13 1.13 0 01.515.06 3.158 3.158 0 011.037.573 5.349 5.349 0 01.28.22v-.22c0-.13-.012-.265-.037-.404a1.564 1.564 0 00-.397-.807 1.647 1.647 0 00-.427-.34 3.554 3.554 0 00-.596-.284 1.694 1.694 0 00-.375-.107l-.081-.7c.088.005.235.048.441.127.206.073.43.18.67.318zm5.743 7.844l-.684-.395v-1.954l-1.766-1.02v1.954l-.684-.395v-4.417l.684.395v1.801l1.766 1.019v-1.801l.684.395v4.418zm2.84 1.741a3.568 3.568 0 01-.817-.641 3.964 3.964 0 01-.589-.816 3.932 3.932 0 01-.353-.926 4.29 4.29 0 01-.118-1.002c0-.34.042-.628.125-.863.089-.232.211-.405.368-.518a.816.816 0 01.574-.153c.23.014.486.102.765.264a4.583 4.583 0 011.008.794l-.154.582a3.203 3.203 0 00-.36-.344 3.007 3.007 0 00-.427-.298c-.383-.22-.677-.252-.883-.093-.201.161-.302.508-.302 1.041 0 .238.022.468.066.692.05.227.123.439.221.637a2.5 2.5 0 00.39.557c.157.164.348.311.574.442.181.104.346.179.493.225.147.045.262.069.345.072l.096.718a.577.577 0 01-.169-.013 2.368 2.368 0 01-.25-.085 2.723 2.723 0 01-.302-.123 2.566 2.566 0 01-.302-.149z" fill="#242328"/><g clip-path="url(#clip2)" stroke-width="1.5" stroke-linecap="round" stroke-linejoin="round"><path d="M14.497 23.474v-2.25c0-.827.581-1.163 1.298-.749l1.948 1.125m7.142 12.37v2.25c0 .828-.581 1.164-1.298.75l-1.948-1.125" stroke="#CA49FF"/><path d="M21.639 23.849l1.948 1.125c.717.414 1.298 1.42 1.298 2.249v2.249" stroke="#3CDCC9"/><path d="M17.743 33.596l-1.948-1.125c-.717-.414-1.298-1.421-1.298-2.25v-2.248" stroke="#CA49FF"/></g><path d="M82.99 62.654c-2.537-6.38-8.704-11.863-8.704-11.863 0 2.472 1.554 5.519 3.483 7.703a44.646 44.646 0 013.42 4.412c2.014 2.954 2.833 4.7 3.164 5.66.094.274.367.439.36.19-.023-.88-.347-2.645-1.722-6.102z" fill="#C4C4C4"/><path d="M82.99 62.654c-2.537-6.38-8.704-11.863-8.704-11.863 0 2.472 1.554 5.519 3.483 7.703a44.646 44.646 0 013.42 4.412c2.014 2.954 2.833 4.7 3.164 5.66.094.274.367.439.36.19-.023-.88-.347-2.645-1.722-6.102z" fill="url(#paint24_linear)"/><mask id="g" style="mask-type:alpha" maskUnits="userSpaceOnUse" x="74" y="50" width="11" height="19"><path d="M82.992 62.654c-2.538-6.38-8.705-11.863-8.705-11.863 0 2.472 1.554 5.519 3.483 7.703a44.663 44.663 0 013.42 4.412c2.014 2.955 2.833 4.7 3.164 5.66.094.275.367.44.36.19-.023-.88-.347-2.645-1.722-6.102z" fill="#C4C4C4"/><path d="M82.992 62.654c-2.538-6.38-8.705-11.863-8.705-11.863 0 2.472 1.554 5.519 3.483 7.703a44.663 44.663 0 013.42 4.412c2.014 2.955 2.833 4.7 3.164 5.66.094.275.367.44.36.19-.023-.88-.347-2.645-1.722-6.102z" fill="url(#paint25_linear)"/></mask><g mask="url(#g)"><path opacity=".3" d="M83.046 63.87c-2.268-5.704-7.78-10.605-7.78-10.605 0 2.21 1.388 4.933 3.113 6.886a39.94 39.94 0 013.058 3.944c1.725 2.533 2.47 4.071 2.788 4.95.1.275.37.432.358.18-.043-.818-.358-2.391-1.537-5.355z" fill="url(#paint26_linear)"/></g><path d="M82.774 67.663c-2.305-5.332-8.486-11.273-8.486-11.273 0 2.608 1.655 5.77 3.742 7.972a32.745 32.745 0 012.439 2.875c1.894 2.53 2.474 4.08 2.651 4.807.052.213.254.42.348.314.333-.371.697-1.477-.694-4.695z" fill="#C4C4C4"/><path d="M82.774 67.663c-2.305-5.332-8.486-11.273-8.486-11.273 0 2.608 1.655 5.77 3.742 7.972a32.745 32.745 0 012.439 2.875c1.894 2.53 2.474 4.08 2.651 4.807.052.213.254.42.348.314.333-.371.697-1.477-.694-4.695z" fill="url(#paint27_linear)"/><mask id="h" style="mask-type:alpha" maskUnits="userSpaceOnUse" x="74" y="56" width="10" height="17"><path d="M82.774 67.663c-2.305-5.332-8.486-11.273-8.486-11.273 0 2.608 1.655 5.77 3.742 7.972a32.745 32.745 0 012.439 2.875c1.894 2.53 2.474 4.08 2.651 4.807.052.213.254.42.348.314.333-.371.697-1.477-.694-4.695z" fill="#C4C4C4"/><path d="M82.774 67.663c-2.305-5.332-8.486-11.273-8.486-11.273 0 2.608 1.655 5.77 3.742 7.972a32.745 32.745 0 012.439 2.875c1.894 2.53 2.474 4.08 2.651 4.807.052.213.254.42.348.314.333-.371.697-1.477-.694-4.695z" fill="url(#paint28_linear)"/></mask><g mask="url(#h)"><path opacity=".54" d="M82.579 68.522c-1.964-4.543-7.23-9.604-7.23-9.604 0 2.221 1.41 4.915 3.188 6.791a27.892 27.892 0 012.078 2.45c1.55 2.071 2.068 3.37 2.24 4.019.057.214.26.419.348.305.272-.352.516-1.323-.624-3.96z" fill="url(#paint29_linear)"/></g><path d="M82.318 72.575c-.47-1.136-1.55-3.57-2.358-4.038 0 0 .53 1.433.666 2.43.144 1.06 0 2.749 0 2.749s.615.01.992-.099c.19-.054.425-.17.613-.272.194-.105.23-.423.087-.77z" fill="#C4C4C4"/><path d="M82.318 72.575c-.47-1.136-1.55-3.57-2.358-4.038 0 0 .53 1.433.666 2.43.144 1.06 0 2.749 0 2.749s.615.01.992-.099c.19-.054.425-.17.613-.272.194-.105.23-.423.087-.77z" fill="url(#paint30_linear)"/><mask id="i" style="mask-type:alpha" maskUnits="userSpaceOnUse" x="79" y="68" width="4" height="6"><path d="M82.318 72.575c-.47-1.136-1.55-3.57-2.358-4.038 0 0 .53 1.433.666 2.43.144 1.06 0 2.749 0 2.749s.615.01.992-.099c.19-.054.425-.17.613-.272.194-.105.23-.423.087-.77z" fill="#C4C4C4"/><path d="M82.318 72.575c-.47-1.136-1.55-3.57-2.358-4.038 0 0 .53 1.433.666 2.43.144 1.06 0 2.749 0 2.749s.615.01.992-.099c.19-.054.425-.17.613-.272.194-.105.23-.423.087-.77z" fill="url(#paint31_linear)"/></mask><g mask="url(#i)"><path opacity=".7" d="M81.718 73.044c-.292-1.188-1.019-3.834-1.87-4.571 0 0 .301 1.494.238 2.444-.067 1.01-.613 2.475-.613 2.475s.719.246 1.184.292c.242.024.556.009.801-.011.237-.02.346-.28.26-.629z" fill="url(#paint32_linear)"/></g><defs><linearGradient id="paint0_linear" x1="13.907" y1="1.929" x2="17.871" y2="86.296" gradientUnits="userSpaceOnUse"><stop stop-color="#CA49FF"/><stop offset="1" stop-color="#3CDCC9"/></linearGradient><linearGradient id="paint1_linear" x1="71.403" y1="-.599" x2="48.025" y2="84.44" gradientUnits="userSpaceOnUse"><stop stop-color="#7ADE69"/><stop offset="1" stop-color="#8EECEE"/></linearGradient><linearGradient id="paint2_linear" x1="110.329" y1="56.369" x2="103.859" y2="66.179" gradientUnits="userSpaceOnUse"><stop stop-color="#CA49FF"/><stop offset="1" stop-color="#3CDCC9"/></linearGradient><linearGradient id="paint3_linear" x1="110.33" y1="56.37" x2="103.86" y2="66.179" gradientUnits="userSpaceOnUse"><stop stop-color="#CA49FF"/><stop offset="1" stop-color="#3CDCC9"/></linearGradient><linearGradient id="paint4_linear" x1="112.919" y1="72.469" x2="99.708" y2="54.908" gradientUnits="userSpaceOnUse"><stop stop-color="#fff"/><stop offset="1" stop-color="#fff" stop-opacity="0"/></linearGradient><linearGradient id="paint5_linear" x1="114.361" y1="79.51" x2="100.325" y2="80.872" gradientUnits="userSpaceOnUse"><stop stop-color="#3CDCC9"/><stop offset="1" stop-color="#AE84F3"/></linearGradient><linearGradient id="paint6_linear" x1="113.646" y1="77.854" x2="99.097" y2="79.94" gradientUnits="userSpaceOnUse"><stop stop-color="#3CDCC9"/><stop offset="1" stop-color="#AE84F3"/></linearGradient><linearGradient id="paint7_linear" x1="111.576" y1="74.902" x2="101.177" y2="59.476" gradientUnits="userSpaceOnUse"><stop stop-color="#fff"/><stop offset="1" stop-color="#fff" stop-opacity="0"/></linearGradient><linearGradient id="paint8_linear" x1="106.897" y1="68.537" x2="110.094" y2="74.431" gradientUnits="userSpaceOnUse"><stop stop-color="#7ADE69"/><stop offset="1" stop-color="#8EECEE"/></linearGradient><linearGradient id="paint9_linear" x1="106.897" y1="68.537" x2="110.094" y2="74.431" gradientUnits="userSpaceOnUse"><stop stop-color="#7ADE69"/><stop offset="1" stop-color="#8EECEE"/></linearGradient><linearGradient id="paint10_linear" x1="108.683" y1="76.057" x2="104.804" y2="69.586" gradientUnits="userSpaceOnUse"><stop stop-color="#fff"/><stop offset="1" stop-color="#fff" stop-opacity="0"/></linearGradient><linearGradient id="paint11_linear" x1="13.907" y1="1.929" x2="17.871" y2="86.296" gradientUnits="userSpaceOnUse"><stop stop-color="#CA49FF"/><stop offset="1" stop-color="#3CDCC9"/></linearGradient><linearGradient id="paint12_linear" x1="71.403" y1="-.599" x2="48.025" y2="84.44" gradientUnits="userSpaceOnUse"><stop stop-color="#7ADE69"/><stop offset="1" stop-color="#8EECEE"/></linearGradient><linearGradient id="paint13_linear" x1="137.267" y1="56.369" x2="130.797" y2="66.179" gradientUnits="userSpaceOnUse"><stop stop-color="#CA49FF"/><stop offset="1" stop-color="#3CDCC9"/></linearGradient><linearGradient id="paint14_linear" x1="137.268" y1="56.37" x2="130.798" y2="66.179" gradientUnits="userSpaceOnUse"><stop stop-color="#CA49FF"/><stop offset="1" stop-color="#3CDCC9"/></linearGradient><linearGradient id="paint15_linear" x1="139.856" y1="72.469" x2="126.645" y2="54.908" gradientUnits="userSpaceOnUse"><stop stop-color="#fff"/><stop offset="1" stop-color="#fff" stop-opacity="0"/></linearGradient><linearGradient id="paint16_linear" x1="141.298" y1="79.51" x2="127.262" y2="80.872" gradientUnits="userSpaceOnUse"><stop stop-color="#3CDCC9"/><stop offset="1" stop-color="#AE84F3"/></linearGradient><linearGradient id="paint17_linear" x1="140.583" y1="77.854" x2="126.034" y2="79.94" gradientUnits="userSpaceOnUse"><stop stop-color="#3CDCC9"/><stop offset="1" stop-color="#AE84F3"/></linearGradient><linearGradient id="paint18_linear" x1="138.514" y1="74.902" x2="128.114" y2="59.476" gradientUnits="userSpaceOnUse"><stop stop-color="#fff"/><stop offset="1" stop-color="#fff" stop-opacity="0"/></linearGradient><linearGradient id="paint19_linear" x1="133.835" y1="68.537" x2="137.032" y2="74.431" gradientUnits="userSpaceOnUse"><stop stop-color="#7ADE69"/><stop offset="1" stop-color="#8EECEE"/></linearGradient><linearGradient id="paint20_linear" x1="133.835" y1="68.537" x2="137.032" y2="74.431" gradientUnits="userSpaceOnUse"><stop stop-color="#7ADE69"/><stop offset="1" stop-color="#8EECEE"/></linearGradient><linearGradient id="paint21_linear" x1="135.62" y1="76.057" x2="131.741" y2="69.586" gradientUnits="userSpaceOnUse"><stop stop-color="#fff"/><stop offset="1" stop-color="#fff" stop-opacity="0"/></linearGradient><linearGradient id="paint22_linear" x1="13.907" y1="1.929" x2="17.871" y2="86.296" gradientUnits="userSpaceOnUse"><stop stop-color="#CA49FF"/><stop offset="1" stop-color="#3CDCC9"/></linearGradient><linearGradient id="paint23_linear" x1="71.403" y1="-.599" x2="48.025" y2="84.44" gradientUnits="userSpaceOnUse"><stop stop-color="#7ADE69"/><stop offset="1" stop-color="#8EECEE"/></linearGradient><linearGradient id="paint24_linear" x1="83.392" y1="56.369" x2="76.922" y2="66.179" gradientUnits="userSpaceOnUse"><stop stop-color="#CA49FF"/><stop offset="1" stop-color="#3CDCC9"/></linearGradient><linearGradient id="paint25_linear" x1="83.393" y1="56.37" x2="76.923" y2="66.179" gradientUnits="userSpaceOnUse"><stop stop-color="#CA49FF"/><stop offset="1" stop-color="#3CDCC9"/></linearGradient><linearGradient id="paint26_linear" x1="85.981" y1="72.469" x2="72.77" y2="54.908" gradientUnits="userSpaceOnUse"><stop stop-color="#fff"/><stop offset="1" stop-color="#fff" stop-opacity="0"/></linearGradient><linearGradient id="paint27_linear" x1="87.423" y1="79.51" x2="73.387" y2="80.872" gradientUnits="userSpaceOnUse"><stop stop-color="#3CDCC9"/><stop offset="1" stop-color="#AE84F3"/></linearGradient><linearGradient id="paint28_linear" x1="86.709" y1="77.854" x2="72.159" y2="79.94" gradientUnits="userSpaceOnUse"><stop stop-color="#3CDCC9"/><stop offset="1" stop-color="#AE84F3"/></linearGradient><linearGradient id="paint29_linear" x1="84.639" y1="74.902" x2="74.239" y2="59.476" gradientUnits="userSpaceOnUse"><stop stop-color="#fff"/><stop offset="1" stop-color="#fff" stop-opacity="0"/></linearGradient><linearGradient id="paint30_linear" x1="79.96" y1="68.537" x2="83.157" y2="74.431" gradientUnits="userSpaceOnUse"><stop stop-color="#7ADE69"/><stop offset="1" stop-color="#8EECEE"/></linearGradient><linearGradient id="paint31_linear" x1="79.96" y1="68.537" x2="83.157" y2="74.431" gradientUnits="userSpaceOnUse"><stop stop-color="#7ADE69"/><stop offset="1" stop-color="#8EECEE"/></linearGradient><linearGradient id="paint32_linear" x1="81.745" y1="76.057" x2="77.867" y2="69.586" gradientUnits="userSpaceOnUse"><stop stop-color="#fff"/><stop offset="1" stop-color="#fff" stop-opacity="0"/></linearGradient><clipPath id="clip0"><path fill="#fff" transform="matrix(.86603 .5 0 1 38.837 15.227)" d="M0 0h17.994v17.994H0z"/></clipPath><clipPath id="clip1"><path fill="#fff" transform="matrix(.86603 .5 0 1 65.774 15.227)" d="M0 0h17.994v17.994H0z"/></clipPath><clipPath id="clip2"><path fill="#fff" transform="matrix(.86603 .5 0 1 11.9 15.227)" d="M0 0h17.994v17.994H0z"/></clipPath></defs></svg>