<svg width="164" height="164" viewBox="0 0 164 164" fill="none" xmlns="http://www.w3.org/2000/svg">
<g clip-path="url(#clip0_2_300)">
<path d="M68.1818 104H98.7273C99.9302 104 100.909 103.012 100.909 101.797V90.7812C100.909 90.7666 100.902 90.7548 100.9 90.7401C100.98 90.6887 101.063 90.6403 101.142 90.5859L112.758 102.315C112.9 102.459 113.087 102.531 113.273 102.531C113.459 102.531 113.645 102.459 113.788 102.317C114.071 102.03 114.071 101.565 113.788 101.278L102.278 89.6562C104.116 87.9128 105.273 85.4438 105.273 82.7031C105.273 79.3294 103.526 76.364 100.9 74.6661C100.902 74.6514 100.909 74.6397 100.909 74.625V70.9531C100.909 70.9282 100.897 70.9076 100.896 70.8841C100.893 70.8503 100.884 70.8209 100.877 70.7886C100.852 70.6843 100.81 70.5903 100.746 70.5081C100.736 70.4949 100.737 70.4787 100.727 70.4655L89.0909 57.2467C89.0865 57.2423 89.0807 57.2423 89.0764 57.2379C88.9891 57.1425 88.8771 57.0793 88.752 57.0411C88.7244 57.0323 88.6996 57.0294 88.6705 57.025C88.6284 57.0176 88.5891 57 88.5455 57H68.1818C66.9789 57 66 57.9885 66 59.2031V101.797C66 103.012 66.9789 104 68.1818 104ZM103.818 82.7031C103.818 87.1578 100.228 90.7812 95.8182 90.7812C91.408 90.7812 87.8182 87.1578 87.8182 82.7031C87.8182 78.2484 91.408 74.625 95.8182 74.625C100.228 74.625 103.818 78.2484 103.818 82.7031ZM89.2727 59.6658L98.5629 70.2188H90C89.68 70.2188 89.2727 69.6019 89.2727 69.1172V59.6658ZM67.4545 59.2031C67.4545 58.7977 67.7818 58.4688 68.1818 58.4688H87.8182V69.1172C87.8182 70.3054 88.7709 71.6875 90 71.6875H99.4545V73.8921C98.3345 73.4192 97.1069 73.1562 95.8182 73.1562C93.1447 73.1562 90.7331 74.2872 89.0124 76.0938H74C73.5985 76.0938 73.2727 76.4227 73.2727 76.8281C73.2727 77.2335 73.5985 77.5625 74 77.5625H87.8647C87.0429 78.8535 86.5236 80.3546 86.4015 81.9688H74C73.5985 81.9688 73.2727 82.2977 73.2727 82.7031C73.2727 83.1085 73.5985 83.4375 74 83.4375H86.4C86.5222 85.0517 87.0429 86.5527 87.8633 87.8438H74C73.5985 87.8438 73.2727 88.1727 73.2727 88.5781C73.2727 88.9835 73.5985 89.3125 74 89.3125H88.9091C88.9396 89.3125 88.9658 89.2993 88.9964 89.2949C90.7185 91.1117 93.1375 92.25 95.8182 92.25C97.1069 92.25 98.3345 91.9871 99.4545 91.5127V101.797C99.4545 102.202 99.1273 102.531 98.7273 102.531H68.1818C67.7745 102.531 67.4545 102.208 67.4545 101.797V59.2031Z" fill="#FEFEFE"/>
<path d="M74 71.6875H82.7273C83.1287 71.6875 83.4545 71.3585 83.4545 70.9531C83.4545 70.5478 83.1287 70.2188 82.7273 70.2188H74C73.5985 70.2188 73.2727 70.5478 73.2727 70.9531C73.2727 71.3585 73.5985 71.6875 74 71.6875Z" fill="#FEFEFE"/>
<path d="M74 95.1875H92.9091C93.3105 95.1875 93.6363 94.8585 93.6363 94.4531C93.6363 94.0478 93.3105 93.7188 92.9091 93.7188H74C73.5985 93.7188 73.2727 94.0478 73.2727 94.4531C73.2727 94.8585 73.5985 95.1875 74 95.1875Z" fill="#FEFEFE"/>
<path d="M89.2323 70.4632L89.2323 59.6406L99.8915 70.5869L89.2323 70.4632Z" fill="#FEFEFE"/>
</g>
<path d="M46.9511 135.236C46.7185 135.59 46.2431 135.688 45.8926 135.451C36.5562 129.144 29.0343 120.501 24.0765 110.384C23.8904 110.004 24.0532 109.547 24.4353 109.365V109.365C24.8173 109.183 25.2738 109.346 25.46 109.726C30.2975 119.591 37.6323 128.019 46.735 134.172C47.0854 134.409 47.1837 134.883 46.9511 135.236V135.236Z" fill="#FEFEFE"/>
<path d="M18.3504 85.3412C17.928 85.3634 17.5671 85.0389 17.55 84.6163C17.1661 75.1618 18.867 65.7352 22.5358 57.0063C26.2046 48.2774 31.7488 40.4661 38.7717 34.1247C39.0857 33.8412 39.57 33.872 39.8497 34.1893V34.1893C40.1295 34.5065 40.0987 34.9902 39.7848 35.2738C32.935 41.4624 27.5272 49.0837 23.9479 57.5998C20.3686 66.1158 18.7079 75.3121 19.0797 84.536C19.0968 84.9586 18.7728 85.3191 18.3504 85.3412V85.3412Z" fill="#FEFEFE"/>
<path d="M65.9774 144.074C65.8596 144.479 66.0928 144.904 66.4995 145.017C76.4679 147.784 86.9597 148.114 97.0889 145.974C107.467 143.781 117.145 139.063 125.264 132.236C133.384 125.41 139.694 116.686 143.637 106.839C147.58 96.9908 149.033 86.3226 147.868 75.779C146.703 65.2354 142.956 55.1419 136.958 46.3925C130.96 37.6431 122.897 30.5079 113.483 25.6189C104.069 20.7299 93.595 18.2381 82.988 18.3641C72.6359 18.4871 62.4693 21.0999 53.3457 25.9769C52.9734 26.1759 52.8385 26.6411 53.0419 27.0111V27.0111C53.2453 27.381 53.71 27.5155 54.0823 27.3166C62.9856 22.5606 72.9054 20.0127 83.0062 19.8927C93.3618 19.7697 103.588 22.2025 112.779 26.9756C121.97 31.7487 129.841 38.7148 135.697 47.2569C141.553 55.7989 145.211 65.6532 146.348 75.9469C147.486 86.2406 146.067 96.656 142.218 106.27C138.369 115.885 132.208 124.402 124.281 131.066C116.354 137.731 106.905 142.338 96.7728 144.479C86.8896 146.567 76.6528 146.246 66.9259 143.549C66.5191 143.436 66.0951 143.669 65.9774 144.074V144.074Z" fill="#FEFEFE"/>
<path d="M122.879 107.926C123.148 108.091 123.233 108.443 123.066 108.71C118.595 115.829 112.338 121.653 104.918 125.601C104.639 125.75 104.294 125.64 104.149 125.359V125.359C104.004 125.079 104.114 124.734 104.393 124.586C111.628 120.733 117.729 115.054 122.091 108.114C122.259 107.847 122.61 107.761 122.879 107.926V107.926Z" fill="#FEFEFE"/>
<path d="M86.3862 130.496C86.4132 130.81 86.1803 131.087 85.8655 131.111C78.8254 131.632 71.7541 130.599 65.154 128.081C58.554 125.562 52.5915 121.623 47.6881 116.544C47.4689 116.317 47.4798 115.955 47.7094 115.739V115.739C47.939 115.522 48.3004 115.533 48.5197 115.76C53.3048 120.713 59.1223 124.556 65.5614 127.013C72.0005 129.47 78.899 130.479 85.7676 129.972C86.0823 129.949 86.3591 130.181 86.3862 130.496V130.496Z" fill="#FEFEFE"/>
<path d="M128.992 93.5215C129.297 93.5992 129.608 93.4148 129.682 93.1087C131.497 85.6069 131.482 77.7755 129.634 70.276C127.74 62.5918 123.981 55.4932 118.688 49.609C113.396 43.7249 106.734 39.2367 99.2932 36.542C91.852 33.8474 83.8612 33.0295 76.0284 34.1609C68.1956 35.2922 60.7627 38.3377 54.3881 43.0278C48.0135 47.7179 42.894 53.9077 39.483 61.0489C36.072 68.1901 34.4748 76.0624 34.8329 83.9683C35.1824 91.6843 37.3838 99.1999 41.2476 105.881C41.4053 106.154 41.7555 106.243 42.0263 106.082V106.082C42.297 105.921 42.3858 105.571 42.2282 105.299C38.4602 98.7785 36.3133 91.4453 35.9723 83.9167C35.6226 76.1981 37.182 68.5125 40.5121 61.5405C43.8423 54.5685 48.8405 48.5254 55.064 43.9465C61.2876 39.3676 68.5443 36.3942 76.1914 35.2897C83.8386 34.1852 91.6401 34.9837 98.9049 37.6144C106.17 40.2452 112.674 44.627 117.84 50.3718C123.007 56.1165 126.678 63.0468 128.526 70.5489C130.33 77.8663 130.346 85.5073 128.577 92.8273C128.503 93.1334 128.687 93.4438 128.992 93.5215V93.5215Z" fill="#FEFEFE"/>
<defs>
<clipPath id="clip0_2_300">
<rect width="48" height="47" fill="white" transform="translate(66 57)"/>
</clipPath>
</defs>
</svg>
