<svg width="164" height="164" viewBox="0 0 164 164" fill="none" xmlns="http://www.w3.org/2000/svg">
<g clip-path="url(#clip0_0_1)">
<path d="M60 103.766C60 104.154 60.315 104.469 60.7031 104.469H104.453C104.547 104.469 104.639 104.451 104.724 104.415C104.81 104.378 104.887 104.326 104.952 104.261C104.954 104.26 104.955 104.26 104.956 104.258C104.961 104.254 104.961 104.246 104.966 104.242C105.038 104.164 105.084 104.07 105.117 103.967C105.127 103.935 105.131 103.904 105.136 103.87C105.142 103.835 105.157 103.804 105.157 103.768C105.157 103.711 105.138 103.662 105.125 103.61C105.121 103.59 105.129 103.571 105.122 103.551L100.679 89.8894C100.645 89.7839 100.586 89.6869 100.507 89.6095L76.4362 65.5373C76.4109 65.498 76.3927 65.4558 76.3589 65.4206L71.1009 60.1627C70.2473 59.3091 68.858 59.3091 68.003 60.1627L60.6413 67.5244C60.2278 67.9378 60 68.4877 60 69.0727C60 69.6577 60.2278 70.2089 60.6413 70.6223L65.7825 75.7636C65.8078 75.8016 65.8247 75.8452 65.8584 75.8789L89.8913 100.073C89.9742 100.158 90.0755 100.218 90.1894 100.252L99.6295 103.065H60.7031C60.315 103.063 60 103.378 60 103.766ZM68.9466 73.7878L91.0064 95.565L90.195 98.3803L67.3505 75.3839L68.9466 73.7878ZM92.085 94.6552L69.9394 72.795L73.3664 69.368L95.3137 91.373V94.6552H92.085ZM96.1898 90.2606L74.3606 68.3738L75.8217 66.9127L98.6184 89.7094L96.1898 90.2606ZM92.3269 96.0614H96.0169C96.405 96.0614 96.72 95.7464 96.72 95.3583V91.5825L99.5423 90.9412L103.372 102.712L91.4353 99.1552L92.3269 96.0614ZM61.4062 69.0727C61.4062 68.8631 61.4878 68.6677 61.6355 68.5186L68.9972 61.1569C69.3023 60.8517 69.7987 60.8503 70.1067 61.1569L74.8486 65.8988L66.3787 74.3686L61.6369 69.6267C61.4878 69.4791 61.4062 69.2822 61.4062 69.0727Z" fill="#FEFEFE"/>
<path d="M69.9124 72.8301L73.3498 69.3386L95.5398 91.185L95.3284 94.6765L92.1024 94.6765L69.9124 72.8301Z" fill="#FEA632"/>
</g>
<path d="M46.9511 135.236C46.7185 135.59 46.2431 135.688 45.8926 135.451C36.5562 129.144 29.0343 120.501 24.0765 110.384C23.8904 110.004 24.0532 109.547 24.4353 109.365V109.365C24.8173 109.183 25.2738 109.346 25.46 109.726C30.2975 119.591 37.6323 128.019 46.735 134.172C47.0854 134.409 47.1837 134.883 46.9511 135.236V135.236Z" fill="#FEFEFE"/>
<path d="M18.3504 85.3412C17.928 85.3634 17.5671 85.0389 17.55 84.6163C17.1661 75.1618 18.867 65.7352 22.5358 57.0063C26.2046 48.2774 31.7488 40.4661 38.7717 34.1247C39.0857 33.8412 39.57 33.872 39.8497 34.1893V34.1893C40.1295 34.5065 40.0987 34.9902 39.7848 35.2738C32.935 41.4624 27.5272 49.0837 23.9479 57.5998C20.3686 66.1158 18.7079 75.3121 19.0797 84.536C19.0968 84.9586 18.7728 85.3191 18.3504 85.3412V85.3412Z" fill="#FEFEFE"/>
<path d="M65.9774 144.074C65.8596 144.479 66.0928 144.904 66.4995 145.017C76.4679 147.784 86.9597 148.114 97.0889 145.974C107.467 143.781 117.145 139.063 125.264 132.236C133.384 125.41 139.694 116.686 143.637 106.839C147.58 96.9908 149.033 86.3226 147.868 75.779C146.703 65.2354 142.956 55.1419 136.958 46.3925C130.96 37.6431 122.897 30.5079 113.483 25.6189C104.069 20.7299 93.595 18.2381 82.988 18.3641C72.6359 18.4871 62.4693 21.0999 53.3457 25.9769C52.9734 26.1759 52.8385 26.6411 53.0419 27.0111V27.0111C53.2453 27.381 53.71 27.5155 54.0823 27.3166C62.9856 22.5606 72.9054 20.0127 83.0062 19.8927C93.3618 19.7697 103.588 22.2025 112.779 26.9756C121.97 31.7487 129.841 38.7148 135.697 47.2569C141.553 55.7989 145.211 65.6532 146.348 75.9469C147.486 86.2406 146.067 96.656 142.218 106.27C138.369 115.885 132.208 124.402 124.281 131.066C116.354 137.731 106.905 142.338 96.7728 144.479C86.8896 146.567 76.6528 146.246 66.9259 143.549C66.5191 143.436 66.0951 143.669 65.9774 144.074V144.074Z" fill="#FEFEFE"/>
<path d="M122.879 107.926C123.148 108.091 123.233 108.443 123.066 108.71C118.595 115.829 112.338 121.653 104.918 125.601C104.639 125.75 104.294 125.64 104.149 125.359V125.359C104.004 125.079 104.114 124.734 104.393 124.586C111.628 120.733 117.729 115.054 122.091 108.114C122.259 107.847 122.61 107.761 122.879 107.926V107.926Z" fill="#FEFEFE"/>
<path d="M86.3862 130.496C86.4132 130.81 86.1803 131.087 85.8655 131.111C78.8254 131.632 71.7541 130.599 65.154 128.081C58.554 125.562 52.5915 121.623 47.6881 116.544C47.4689 116.317 47.4798 115.955 47.7094 115.739V115.739C47.939 115.522 48.3004 115.533 48.5197 115.76C53.3048 120.713 59.1223 124.556 65.5614 127.013C72.0005 129.47 78.899 130.479 85.7676 129.972C86.0823 129.949 86.3591 130.181 86.3862 130.496V130.496Z" fill="#FEFEFE"/>
<path d="M128.992 93.5215C129.297 93.5992 129.608 93.4148 129.682 93.1087C131.497 85.6069 131.482 77.7755 129.634 70.276C127.74 62.5918 123.981 55.4932 118.688 49.609C113.396 43.7249 106.734 39.2367 99.2932 36.542C91.852 33.8474 83.8612 33.0295 76.0284 34.1609C68.1956 35.2922 60.7627 38.3377 54.3881 43.0278C48.0135 47.7179 42.894 53.9077 39.483 61.0489C36.072 68.1901 34.4748 76.0624 34.8329 83.9683C35.1824 91.6843 37.3838 99.1999 41.2476 105.881C41.4053 106.154 41.7555 106.243 42.0263 106.082V106.082C42.297 105.921 42.3858 105.571 42.2282 105.299C38.4602 98.7785 36.3133 91.4453 35.9723 83.9167C35.6226 76.1981 37.182 68.5125 40.5121 61.5405C43.8423 54.5685 48.8405 48.5254 55.064 43.9465C61.2876 39.3676 68.5443 36.3942 76.1914 35.2897C83.8386 34.1852 91.6401 34.9837 98.9049 37.6144C106.17 40.2452 112.674 44.627 117.84 50.3718C123.007 56.1165 126.678 63.0468 128.526 70.5489C130.33 77.8663 130.346 85.5073 128.577 92.8273C128.503 93.1334 128.687 93.4438 128.992 93.5215V93.5215Z" fill="#FEFEFE"/>
<defs>
<clipPath id="clip0_0_1">
<rect width="45" height="45" fill="white" transform="translate(60 59.499)"/>
</clipPath>
</defs>
</svg>
