<svg width="164" height="164" viewBox="0 0 164 164" fill="none" xmlns="http://www.w3.org/2000/svg">
<path d="M64.9821 107H98.0179C99.1662 107 100 106.034 100 104.703V61.8281C100 60.4975 99.1662 59.5312 98.0179 59.5312H92.7321C92.3674 59.5312 92.0714 59.8743 92.0714 60.2969C92.0714 60.7195 92.3674 61.0625 92.7321 61.0625H98.0179C98.4315 61.0625 98.6786 61.3488 98.6786 61.8281V104.703C98.6786 105.182 98.4315 105.469 98.0179 105.469H64.9821C64.5685 105.469 64.3214 105.182 64.3214 104.703V61.8281C64.3214 61.3488 64.5685 61.0625 64.9821 61.0625H70.2679C70.6326 61.0625 70.9286 60.7195 70.9286 60.2969C70.9286 59.8743 70.6326 59.5312 70.2679 59.5312H64.9821C63.8338 59.5312 63 60.4975 63 61.8281V104.703C63 106.034 63.8338 107 64.9821 107Z" fill="#FEFEFE"/>
<path d="M70.2679 65.6562C70.6326 65.6562 70.9286 65.3132 70.9286 64.8906C70.9286 64.468 70.6326 64.125 70.2679 64.125H67.625C67.2603 64.125 66.9643 64.468 66.9643 64.8906V101.641C66.9643 102.063 67.2603 102.406 67.625 102.406H95.375C95.7397 102.406 96.0357 102.063 96.0357 101.641V64.8906C96.0357 64.468 95.7397 64.125 95.375 64.125H92.7321C92.3674 64.125 92.0714 64.468 92.0714 64.8906C92.0714 65.3132 92.3674 65.6562 92.7321 65.6562H94.7143V100.875H68.2857V65.6562H70.2679Z" fill="#FEFEFE"/>
<path d="M74.8929 68.7188H88.1071C89.7127 68.7188 90.75 67.5167 90.75 65.6562V58.7656C90.75 58.343 90.454 58 90.0893 58H72.9107C72.546 58 72.25 58.343 72.25 58.7656V65.6562C72.25 67.5167 73.2873 68.7188 74.8929 68.7188ZM73.5714 59.5312H89.4286V65.6562C89.4286 66.673 88.9832 67.1875 88.1071 67.1875H74.8929C74.0167 67.1875 73.5714 66.673 73.5714 65.6562V59.5312Z" fill="#FEFEFE"/>
<path d="M74.2322 82.5H88.768C89.1327 82.5 89.4287 82.157 89.4287 81.7344C89.4287 81.3118 89.1327 80.9688 88.768 80.9688H74.2322C73.8675 80.9688 73.5715 81.3118 73.5715 81.7344C73.5715 82.157 73.8675 82.5 74.2322 82.5Z" fill="#FEFEFE"/>
<path d="M74.2322 76.375H88.768C89.1327 76.375 89.4287 76.032 89.4287 75.6094C89.4287 75.1868 89.1327 74.8438 88.768 74.8438H74.2322C73.8675 74.8438 73.5715 75.1868 73.5715 75.6094C73.5715 76.032 73.8675 76.375 74.2322 76.375Z" fill="#FEFEFE"/>
<path d="M74.2322 88.625H88.768C89.1327 88.625 89.4287 88.282 89.4287 87.8594C89.4287 87.4368 89.1327 87.0938 88.768 87.0938H74.2322C73.8675 87.0938 73.5715 87.4368 73.5715 87.8594C73.5715 88.282 73.8675 88.625 74.2322 88.625Z" fill="#FEFEFE"/>
<path d="M74.2322 94.75H88.768C89.1327 94.75 89.4287 94.407 89.4287 93.9844C89.4287 93.5618 89.1327 93.2188 88.768 93.2188H74.2322C73.8675 93.2188 73.5715 93.5618 73.5715 93.9844C73.5715 94.407 73.8675 94.75 74.2322 94.75Z" fill="#FEFEFE"/>
<path d="M73.5715 59.4863H89.4287V66.3042C89.4287 66.8565 88.981 67.3042 88.4287 67.3042H74.5715C74.0192 67.3042 73.5715 66.8565 73.5715 66.3042V59.4863Z" fill="#FEFEFE"/>
<path d="M46.951 135.236C46.7184 135.59 46.2431 135.688 45.8926 135.451C36.5561 129.144 29.0343 120.501 24.0765 110.384C23.8903 110.004 24.0532 109.547 24.4352 109.365V109.365C24.8172 109.183 25.2737 109.346 25.46 109.726C30.2975 119.591 37.6322 128.019 46.7349 134.172C47.0854 134.409 47.1836 134.883 46.951 135.236V135.236Z" fill="#FEFEFE"/>
<path d="M18.3504 85.3412C17.928 85.3634 17.5671 85.0389 17.55 84.6163C17.1661 75.1618 18.867 65.7352 22.5358 57.0063C26.2046 48.2774 31.7488 40.4661 38.7717 34.1247C39.0857 33.8412 39.57 33.872 39.8497 34.1893V34.1893C40.1295 34.5065 40.0987 34.9902 39.7848 35.2738C32.935 41.4624 27.5272 49.0837 23.9479 57.5998C20.3686 66.1158 18.7079 75.3121 19.0797 84.536C19.0968 84.9586 18.7728 85.3191 18.3504 85.3412V85.3412Z" fill="#FEFEFE"/>
<path d="M65.9774 144.074C65.8597 144.479 66.0928 144.904 66.4996 145.017C76.468 147.784 86.9597 148.114 97.0889 145.974C107.468 143.781 117.145 139.063 125.265 132.236C133.384 125.41 139.694 116.686 143.637 106.839C147.58 96.9908 149.033 86.3226 147.868 75.779C146.703 65.2354 142.956 55.1419 136.958 46.3925C130.96 37.6431 122.897 30.5079 113.483 25.6189C104.069 20.7299 93.5951 18.2381 82.9881 18.3641C72.6359 18.4871 62.4694 21.0999 53.3457 25.9769C52.9734 26.1759 52.8386 26.6411 53.042 27.0111V27.0111C53.2454 27.381 53.71 27.5155 54.0824 27.3166C62.9857 22.5606 72.9055 20.0127 83.0062 19.8927C93.3618 19.7697 103.588 22.2025 112.779 26.9756C121.97 31.7487 129.841 38.7148 135.697 47.2569C141.553 55.7989 145.211 65.6532 146.349 75.9469C147.486 86.2406 146.067 96.656 142.218 106.27C138.369 115.885 132.208 124.402 124.281 131.066C116.354 137.731 106.906 142.338 96.7729 144.479C86.8897 146.567 76.6529 146.246 66.926 143.549C66.5192 143.436 66.0952 143.669 65.9774 144.074V144.074Z" fill="#FEFEFE"/>
<path d="M122.879 107.926C123.148 108.091 123.233 108.443 123.066 108.71C118.595 115.829 112.338 121.653 104.918 125.601C104.639 125.75 104.294 125.64 104.149 125.359V125.359C104.004 125.079 104.114 124.734 104.393 124.586C111.628 120.733 117.729 115.054 122.091 108.114C122.259 107.847 122.61 107.761 122.879 107.926V107.926Z" fill="#FEFEFE"/>
<path d="M86.3861 130.496C86.4132 130.81 86.1802 131.087 85.8655 131.111C78.8253 131.632 71.754 130.599 65.154 128.08C58.5539 125.562 52.5914 121.623 47.6881 116.544C47.4689 116.317 47.4798 115.955 47.7094 115.739V115.739C47.939 115.522 48.3004 115.533 48.5196 115.76C53.3048 120.713 59.1223 124.556 65.5614 127.013C72.0005 129.47 78.899 130.479 85.7675 129.972C86.0822 129.949 86.3591 130.181 86.3861 130.496V130.496Z" fill="#FEFEFE"/>
<path d="M128.992 93.5215C129.297 93.5992 129.608 93.4148 129.682 93.1087C131.497 85.6069 131.482 77.7755 129.634 70.276C127.74 62.5918 123.981 55.4932 118.688 49.609C113.396 43.7249 106.734 39.2367 99.2932 36.542C91.852 33.8474 83.8612 33.0295 76.0284 34.1609C68.1956 35.2922 60.7627 38.3377 54.3881 43.0278C48.0135 47.7179 42.894 53.9077 39.483 61.0489C36.072 68.1901 34.4748 76.0624 34.8329 83.9683C35.1824 91.6843 37.3838 99.1999 41.2476 105.881C41.4053 106.154 41.7555 106.243 42.0263 106.082V106.082C42.297 105.921 42.3858 105.571 42.2282 105.299C38.4602 98.7785 36.3133 91.4453 35.9723 83.9167C35.6226 76.1981 37.182 68.5125 40.5121 61.5405C43.8423 54.5685 48.8405 48.5254 55.064 43.9465C61.2876 39.3676 68.5443 36.3942 76.1914 35.2897C83.8386 34.1852 91.6401 34.9837 98.9049 37.6144C106.17 40.2452 112.674 44.627 117.84 50.3718C123.007 56.1165 126.678 63.0468 128.526 70.5489C130.33 77.8663 130.346 85.5073 128.577 92.8273C128.503 93.1334 128.687 93.4438 128.992 93.5215V93.5215Z" fill="#FEFEFE"/>
</svg>
