<svg width="164" height="164" viewBox="0 0 164 164" fill="none" xmlns="http://www.w3.org/2000/svg">
<path d="M66.9821 104H100.018C101.166 104 102 103.034 102 101.703V58.8281C102 57.4975 101.166 56.5312 100.018 56.5312H94.7321C94.3674 56.5312 94.0714 56.8743 94.0714 57.2969C94.0714 57.7195 94.3674 58.0625 94.7321 58.0625H100.018C100.431 58.0625 100.679 58.3488 100.679 58.8281V101.703C100.679 102.182 100.431 102.469 100.018 102.469H66.9821C66.5685 102.469 66.3214 102.182 66.3214 101.703V58.8281C66.3214 58.3488 66.5685 58.0625 66.9821 58.0625H72.2679C72.6326 58.0625 72.9286 57.7195 72.9286 57.2969C72.9286 56.8743 72.6326 56.5312 72.2679 56.5312H66.9821C65.8338 56.5312 65 57.4975 65 58.8281V101.703C65 103.034 65.8338 104 66.9821 104Z" fill="#FEFEFE"/>
<path d="M72.2679 62.6562C72.6326 62.6562 72.9286 62.3132 72.9286 61.8906C72.9286 61.468 72.6326 61.125 72.2679 61.125H69.6251C69.2604 61.125 68.9644 61.468 68.9644 61.8906V98.6406C68.9644 99.0632 69.2604 99.4062 69.6251 99.4062H97.3751C97.7398 99.4062 98.0358 99.0632 98.0358 98.6406V61.8906C98.0358 61.468 97.7398 61.125 97.3751 61.125H94.7322C94.3675 61.125 94.0715 61.468 94.0715 61.8906C94.0715 62.3132 94.3675 62.6562 94.7322 62.6562H96.7144V97.875H70.2858V62.6562H72.2679Z" fill="#FEFEFE"/>
<path d="M76.8929 65.7188H90.1071C91.7127 65.7188 92.75 64.5167 92.75 62.6562V55.7656C92.75 55.343 92.454 55 92.0893 55H74.9107C74.546 55 74.25 55.343 74.25 55.7656V62.6562C74.25 64.5167 75.2873 65.7188 76.8929 65.7188ZM75.5714 56.5312H91.4286V62.6562C91.4286 63.673 90.9832 64.1875 90.1071 64.1875H76.8929C76.0167 64.1875 75.5714 63.673 75.5714 62.6562V56.5312Z" fill="#FEFEFE"/>
<path d="M76.232 79.5H90.7677C91.1324 79.5 91.4284 79.157 91.4284 78.7344C91.4284 78.3118 91.1324 77.9688 90.7677 77.9688H76.232C75.8673 77.9688 75.5713 78.3118 75.5713 78.7344C75.5713 79.157 75.8673 79.5 76.232 79.5Z" fill="#FEFEFE"/>
<path d="M76.232 73.375H90.7677C91.1324 73.375 91.4284 73.032 91.4284 72.6094C91.4284 72.1868 91.1324 71.8438 90.7677 71.8438H76.232C75.8673 71.8438 75.5713 72.1868 75.5713 72.6094C75.5713 73.032 75.8673 73.375 76.232 73.375Z" fill="#FEFEFE"/>
<path d="M76.232 85.625H90.7677C91.1324 85.625 91.4284 85.282 91.4284 84.8594C91.4284 84.4368 91.1324 84.0938 90.7677 84.0938H76.232C75.8673 84.0938 75.5713 84.4368 75.5713 84.8594C75.5713 85.282 75.8673 85.625 76.232 85.625Z" fill="#FEFEFE"/>
<path d="M76.232 91.75H90.7677C91.1324 91.75 91.4284 91.407 91.4284 90.9844C91.4284 90.5618 91.1324 90.2188 90.7677 90.2188H76.232C75.8673 90.2188 75.5713 90.5618 75.5713 90.9844C75.5713 91.407 75.8673 91.75 76.232 91.75Z" fill="#FEFEFE"/>
<path d="M75.5713 56.4863H91.4285V63.3042C91.4285 63.8565 90.9808 64.3042 90.4285 64.3042H76.5713C76.019 64.3042 75.5713 63.8565 75.5713 63.3042V56.4863Z" fill="#FEFEFE"/>
<path d="M46.9511 135.236C46.7185 135.59 46.2431 135.688 45.8926 135.451C36.5562 129.144 29.0343 120.501 24.0765 110.384C23.8904 110.004 24.0532 109.547 24.4353 109.365V109.365C24.8173 109.183 25.2738 109.346 25.46 109.726C30.2975 119.591 37.6323 128.019 46.735 134.172C47.0854 134.409 47.1837 134.883 46.9511 135.236V135.236Z" fill="#FEFEFE"/>
<path d="M18.3506 85.3412C17.9282 85.3634 17.5674 85.0389 17.5502 84.6163C17.1663 75.1618 18.8672 65.7352 22.536 57.0063C26.2048 48.2774 31.749 40.4661 38.772 34.1247C39.0859 33.8412 39.5703 33.872 39.85 34.1893V34.1893C40.1297 34.5065 40.0989 34.9902 39.785 35.2738C32.9353 41.4624 27.5274 49.0837 23.9481 57.5998C20.3688 66.1158 18.7081 75.3121 19.08 84.536C19.097 84.9586 18.773 85.3191 18.3506 85.3412V85.3412Z" fill="#FEFEFE"/>
<path d="M65.9775 144.074C65.8597 144.48 66.0929 144.904 66.4997 145.017C76.468 147.784 86.9598 148.114 97.089 145.974C107.468 143.781 117.145 139.063 125.265 132.236C133.384 125.41 139.695 116.686 143.637 106.839C147.58 96.9908 149.033 86.3226 147.868 75.7791C146.703 65.2355 142.956 55.142 136.958 46.3926C130.96 37.6432 122.897 30.508 113.483 25.619C104.069 20.73 93.5951 18.2381 82.9881 18.3641C72.636 18.4871 62.4694 21.0999 53.3458 25.977C52.9735 26.176 52.8386 26.6412 53.042 27.0111V27.0111C53.2455 27.381 53.7101 27.5155 54.0824 27.3166C62.9857 22.5607 72.9056 20.0128 83.0063 19.8928C93.3619 19.7698 103.588 22.2026 112.779 26.9757C121.97 31.7488 129.842 38.7149 135.697 47.2569C141.553 55.799 145.211 65.6533 146.349 75.947C147.486 86.2407 146.067 96.656 142.218 106.27C138.369 115.885 132.208 124.402 124.281 131.066C116.354 137.731 106.906 142.338 96.773 144.479C86.8897 146.567 76.653 146.246 66.9261 143.549C66.5193 143.436 66.0952 143.669 65.9775 144.074V144.074Z" fill="#FEFEFE"/>
<path d="M122.879 107.926C123.148 108.091 123.233 108.443 123.066 108.71C118.595 115.829 112.338 121.653 104.918 125.601C104.639 125.75 104.294 125.64 104.149 125.359V125.359C104.004 125.079 104.114 124.734 104.393 124.586C111.628 120.733 117.729 115.054 122.091 108.114C122.259 107.847 122.61 107.761 122.879 107.926V107.926Z" fill="#FEFEFE"/>
<path d="M86.3862 130.496C86.4132 130.81 86.1803 131.087 85.8655 131.111C78.8254 131.632 71.7541 130.599 65.154 128.08C58.554 125.562 52.5915 121.623 47.6881 116.544C47.4689 116.317 47.4798 115.955 47.7094 115.739V115.739C47.939 115.522 48.3004 115.533 48.5197 115.76C53.3048 120.713 59.1223 124.556 65.5614 127.013C72.0005 129.47 78.899 130.479 85.7676 129.972C86.0823 129.949 86.3591 130.181 86.3862 130.496V130.496Z" fill="#FEFEFE"/>
<path d="M128.992 93.5215C129.297 93.5992 129.608 93.4148 129.682 93.1087C131.497 85.6069 131.482 77.7755 129.634 70.276C127.74 62.5918 123.981 55.4932 118.688 49.609C113.396 43.7249 106.734 39.2367 99.2932 36.542C91.852 33.8474 83.8612 33.0295 76.0284 34.1609C68.1956 35.2922 60.7627 38.3377 54.3881 43.0278C48.0135 47.7179 42.894 53.9077 39.483 61.0489C36.072 68.1901 34.4748 76.0624 34.8329 83.9683C35.1824 91.6843 37.3838 99.1999 41.2476 105.881C41.4053 106.154 41.7555 106.243 42.0263 106.082V106.082C42.297 105.921 42.3858 105.571 42.2282 105.299C38.4602 98.7785 36.3133 91.4453 35.9723 83.9167C35.6226 76.1981 37.182 68.5125 40.5121 61.5405C43.8423 54.5685 48.8405 48.5254 55.064 43.9465C61.2876 39.3676 68.5443 36.3942 76.1914 35.2897C83.8386 34.1852 91.6401 34.9837 98.9049 37.6144C106.17 40.2452 112.674 44.627 117.84 50.3718C123.007 56.1165 126.678 63.0468 128.526 70.5489C130.33 77.8663 130.346 85.5073 128.577 92.8273C128.503 93.1334 128.687 93.4438 128.992 93.5215V93.5215Z" fill="#FEFEFE"/>
</svg>
