<svg width="164" height="164" viewBox="0 0 164 164" fill="none" xmlns="http://www.w3.org/2000/svg">
<path d="M93.0275 92.5901H107.984C108.672 92.5901 109.231 92.0305 109.231 91.3429V75.5449C109.231 75.5258 109.223 75.5091 109.22 75.4909C109.218 75.4726 109.215 75.4568 109.21 75.4393C109.19 75.3678 109.16 75.3013 109.108 75.2506L103.289 69.4311C103.238 69.3804 103.171 69.3496 103.1 69.3296C103.082 69.3247 103.067 69.3213 103.048 69.3188C103.031 69.3172 103.014 69.3089 102.995 69.3089H93.0225C92.3323 69.3089 91.7703 69.8684 91.7703 70.5561V91.3429C91.7703 92.0305 92.334 92.5901 93.0275 92.5901ZM103.411 70.7282L107.812 75.1292H103.827C103.598 75.1292 103.411 74.9429 103.411 74.7134V70.7282ZM92.6017 70.5561C92.6017 70.3266 92.7905 70.1403 93.0225 70.1403H102.579V74.7134C102.579 75.4011 103.139 75.9606 103.827 75.9606H108.4V91.3429C108.4 91.5724 108.213 91.7586 107.984 91.7586H93.0275C92.7921 91.7586 92.6017 91.5724 92.6017 91.3429V70.5561Z" fill="#FEFEFE"/>
<path d="M95.5119 79.2858H105.49C105.719 79.2858 105.905 79.0996 105.905 78.8701C105.905 78.6406 105.719 78.4544 105.49 78.4544H95.5119C95.2824 78.4544 95.0962 78.6406 95.0962 78.8701C95.0962 79.0996 95.2824 79.2858 95.5119 79.2858Z" fill="#FEFEFE"/>
<path d="M95.5119 82.6121H105.49C105.719 82.6121 105.905 82.4258 105.905 82.1963C105.905 81.9668 105.719 81.7806 105.49 81.7806H95.5119C95.2824 81.7806 95.0962 81.9668 95.0962 82.1963C95.0962 82.4258 95.2824 82.6121 95.5119 82.6121Z" fill="#FEFEFE"/>
<path d="M95.5119 75.9616H99.6693C99.8988 75.9616 100.085 75.7754 100.085 75.5459C100.085 75.3164 99.8988 75.1301 99.6693 75.1301H95.5119C95.2824 75.1301 95.0962 75.3164 95.0962 75.5459C95.0962 75.7754 95.2824 75.9616 95.5119 75.9616Z" fill="#FEFEFE"/>
<path d="M95.5119 85.9382H105.49C105.719 85.9382 105.905 85.7519 105.905 85.5224C105.905 85.293 105.719 85.1067 105.49 85.1067H95.5119C95.2824 85.1067 95.0962 85.293 95.0962 85.5224C95.0962 85.7519 95.2824 85.9382 95.5119 85.9382Z" fill="#FEFEFE"/>
<path d="M95.5119 89.2653H105.49C105.719 89.2653 105.905 89.0791 105.905 88.8496C105.905 88.6201 105.719 88.4338 105.49 88.4338H95.5119C95.2824 88.4338 95.0962 88.6201 95.0962 88.8496C95.0962 89.0791 95.2824 89.2653 95.5119 89.2653Z" fill="#FEFEFE"/>
<path d="M59.6618 83.2818C59.8128 83.3178 60.0179 83.504 60.0771 83.6739L60.3775 84.3982C60.4453 84.5372 60.4324 84.8126 60.3517 84.9448L59.1529 86.9047C58.8964 87.3252 58.9496 87.9207 59.2945 88.3069L60.3097 89.3212C60.6632 89.6352 61.2871 89.6919 61.6938 89.4456L63.6537 88.2468C63.7764 88.1713 64.0399 88.1447 64.2244 88.2314L64.9478 88.53C65.0936 88.5806 65.2799 88.7848 65.3159 88.9359L65.8539 91.1704C65.9681 91.6441 66.4203 92.0336 66.906 92.0783C66.906 92.0783 67.2037 92.1057 67.65 92.1057C68.0962 92.1057 68.3948 92.0783 68.3948 92.0783C68.8796 92.0345 69.3319 91.6441 69.446 91.1704L69.9849 88.9359C70.0209 88.7857 70.2063 88.5806 70.3762 88.5214L71.1004 88.2211C71.2283 88.1584 71.5243 88.1713 71.647 88.2468L73.607 89.4456C73.7795 89.5511 73.9854 89.6069 74.2042 89.6069C74.5003 89.6069 74.7869 89.5031 75.0091 89.3049L76.0234 88.2897C76.3512 87.9216 76.4044 87.326 76.1478 86.9056L74.9491 84.9456C74.8684 84.8135 74.8555 84.538 74.9336 84.375L75.2322 83.6516C75.2829 83.5057 75.4871 83.3195 75.6381 83.2835L77.8726 82.7454C78.3463 82.6313 78.7359 82.1791 78.7805 81.6934C78.7805 81.6934 78.808 81.3956 78.808 80.9494C78.808 80.5032 78.7805 80.2046 78.7805 80.2046C78.7368 79.7197 78.3463 79.2675 77.8726 79.1525L75.639 78.6154C75.488 78.5793 75.2829 78.3931 75.2237 78.2232L74.9233 77.499C74.8555 77.3599 74.8684 77.0845 74.9491 76.9523L76.1478 74.9924C76.4044 74.5719 76.3512 73.9764 76.0063 73.5903L74.9911 72.576C74.6367 72.261 74.012 72.2044 73.607 72.4515L71.647 73.6503C71.5243 73.725 71.26 73.7533 71.0764 73.6658L70.353 73.3671C70.2071 73.3165 70.0218 73.1123 69.9857 72.9613L69.4468 70.7267C69.3327 70.2531 68.8805 69.8635 68.3948 69.8189C68.3948 69.8189 68.0953 69.7923 67.6491 69.7923C67.2029 69.7923 66.9043 69.8197 66.9043 69.8197C66.4194 69.8635 65.9672 70.2539 65.8522 70.7276L65.315 72.9604C65.279 73.1114 65.0928 73.3165 64.9229 73.3757L64.1986 73.6761C64.0699 73.7387 63.7747 73.725 63.652 73.6503L61.693 72.4515C61.2871 72.2044 60.6761 72.2473 60.2908 72.5923L59.2765 73.6074C58.9487 73.9755 58.8955 74.5711 59.1521 74.9916L60.3509 76.9515C60.4315 77.0836 60.4444 77.3591 60.3663 77.5221L60.0677 78.2455C60.0171 78.3914 59.8128 78.5776 59.6618 78.6136L57.4273 79.1517C56.9536 79.2658 56.564 79.718 56.5194 80.2037C56.5194 80.2037 56.4937 80.5015 56.4937 80.9477C56.4937 81.3939 56.5211 81.6925 56.5211 81.6925C56.5649 82.1774 56.9553 82.6296 57.429 82.7446L59.6618 83.2818ZM57.3518 80.9477C57.3518 80.5547 57.3749 80.2895 57.3758 80.281C57.3861 80.1651 57.5174 80.0132 57.6298 79.9858L59.8643 79.4477C60.2977 79.343 60.7344 78.9466 60.87 78.5493L61.148 77.8739C61.3437 77.4732 61.3162 76.8845 61.0837 76.5035L59.8849 74.5445C59.8274 74.4492 59.8437 74.2604 59.9004 74.1961L60.8795 73.2161C60.9575 73.1466 61.1566 73.1294 61.2459 73.1835L63.2058 74.3823C63.5774 74.6097 64.2141 74.6251 64.5513 74.4578L65.2275 74.1781C65.6488 74.033 66.0453 73.5963 66.15 73.1621L66.6872 70.9284C66.7146 70.8151 66.8665 70.6838 66.9824 70.6735C66.9909 70.6735 67.2561 70.6504 67.6491 70.6504C68.0421 70.6504 68.3073 70.6735 68.3159 70.6744C68.4317 70.6847 68.5836 70.816 68.611 70.9284L69.1491 73.1621C69.2538 73.5954 69.6494 74.033 70.0475 74.1686L70.7229 74.4466C71.115 74.6389 71.7226 74.6088 72.0933 74.3823L74.0859 73.199C74.1752 73.1449 74.3527 73.1578 74.4007 73.199L75.3807 74.1781C75.4545 74.2613 75.4708 74.4492 75.4133 74.5445L74.2145 76.5044C73.982 76.8845 73.9545 77.4741 74.139 77.8499L74.4187 78.5261C74.5638 78.9474 75.0005 79.3439 75.4347 79.4486L77.6684 79.9858C77.7817 80.0132 77.913 80.1651 77.9233 80.281C77.9233 80.2895 77.9464 80.5547 77.9464 80.9477C77.9464 81.3407 77.9233 81.6059 77.9224 81.6145C77.9121 81.7303 77.7808 81.8822 77.6684 81.9096L75.4339 82.4477C75.0005 82.5524 74.5638 82.9488 74.4282 83.3461L74.1502 84.0215C73.9545 84.4222 73.982 85.0109 74.2145 85.3919L75.4133 87.3509C75.4708 87.4462 75.4545 87.635 75.3979 87.6993L74.4187 88.6793C74.3724 88.7205 74.2883 88.7471 74.2034 88.7471C74.1441 88.7471 74.0892 88.7342 74.0532 88.7119L72.0933 87.5131C71.7226 87.2866 71.0858 87.2703 70.7477 87.4376L70.0716 87.7173C69.6502 87.8624 69.2538 88.3 69.1499 88.7334L68.6119 90.967C68.5844 91.0803 68.4326 91.2116 68.3167 91.2219C68.3073 91.2219 68.0421 91.245 67.6491 91.245C67.2561 91.245 66.9909 91.2219 66.9824 91.221C66.8665 91.2107 66.7146 91.0794 66.6872 90.967L66.1491 88.7325C66.0444 88.2991 65.648 87.8624 65.2507 87.7268L64.5753 87.4488C64.4003 87.3629 64.1883 87.3183 63.9618 87.3183C63.6795 87.3183 63.4109 87.3878 63.2049 87.514L61.2459 88.7128C61.1566 88.7668 60.9447 88.7376 60.8975 88.6973L59.9175 87.7173C59.8437 87.6341 59.86 87.4471 59.9175 87.3518L61.0837 85.391C61.3162 85.0109 61.3437 84.4213 61.1592 84.0455L60.8795 83.3693C60.7344 82.948 60.2977 82.5515 59.8635 82.4468L57.6298 81.9096C57.5165 81.8822 57.3852 81.7303 57.3749 81.6145C57.3749 81.6059 57.3518 81.3407 57.3518 80.9477Z" fill="#FEA632"/>
<path fill-rule="evenodd" clip-rule="evenodd" d="M68.5765 70.672C68.2176 69.8828 67.0931 69.893 66.7486 70.6885L65.44 73.71C65.2272 74.2014 64.6651 74.4379 64.165 74.2466L61.0736 73.0638C60.2928 72.765 59.5119 73.4994 59.7621 74.2971L60.8591 77.7942C61.021 78.3104 60.743 78.8617 60.2317 79.0385L57.374 80.0267C56.513 80.3244 56.4661 81.5246 57.3014 81.8885L60.3166 83.2022C60.7891 83.408 61.0278 83.9393 60.8679 84.4292L59.8442 87.5658C59.575 88.3907 60.4122 89.1435 61.204 88.7885L63.965 87.5504C64.4697 87.3241 65.0622 87.5504 65.2875 88.0555L66.6879 91.1956C67.0468 92.0004 68.1958 91.9811 68.5276 91.1648L69.7357 88.1925C69.9391 87.6922 70.503 87.4437 71.0094 87.6313L74.2864 88.845C75.0917 89.1432 75.8737 88.3546 75.5685 87.5519L74.3549 84.3595C74.1528 83.8281 74.434 83.2353 74.9734 83.0555L78.1502 81.9966C79.0379 81.7007 79.0692 80.4565 78.1974 80.1163L74.9118 78.8343C74.399 78.6342 74.1443 78.0573 74.3421 77.5435L75.5487 74.4089C75.859 73.6028 75.0702 72.809 74.2621 73.1142L71.2338 74.2579C70.741 74.4441 70.1883 74.216 69.9702 73.7364L68.5765 70.672ZM72.3687 80.9474C72.3687 83.5501 70.2518 85.667 67.6491 85.667C65.0465 85.667 62.9295 83.5501 62.9295 80.9474C62.9295 78.3448 65.0465 76.2278 67.6491 76.2278C70.2518 76.2278 72.3687 78.3448 72.3687 80.9474ZM71.5106 80.9474C71.5106 78.8184 69.7781 77.0859 67.6491 77.0859C65.5201 77.0859 63.7876 78.8184 63.7876 80.9474C63.7876 83.0764 65.5201 84.8089 67.6491 84.8089C69.7781 84.8089 71.5106 83.0764 71.5106 80.9474Z" fill="#FEA632"/>
<path fill-rule="evenodd" clip-rule="evenodd" d="M100.737 63.7298L98.459 65.2189V64.6794C98.459 59.5168 91.2635 54.8154 83.362 54.8154C75.4605 54.8154 68.265 59.5168 68.265 64.6794V65.2046L69.3061 65.2332V64.6794C69.3061 59.9869 75.6937 55.7154 82.8414 55.5148H83.8826C91.0302 55.7154 97.4178 59.9869 97.4178 64.6794V65.2189L95.096 63.7019C94.994 63.6352 94.8607 63.6025 94.7274 63.6025C94.5942 63.6025 94.4609 63.6359 94.3589 63.7019C94.1558 63.8345 94.1558 64.0502 94.3589 64.1828L97.5688 66.2794C97.6636 66.342 97.7947 66.3801 97.9384 66.3801C98.0821 66.3801 98.2133 66.342 98.307 66.2801L101.473 64.2114C101.676 64.0787 101.676 63.8631 101.473 63.7304C101.27 63.5978 100.94 63.5971 100.737 63.7298Z" fill="#FEFEFE"/>
<path fill-rule="evenodd" clip-rule="evenodd" d="M66.4489 100.593L68.727 99.1039V99.6433C68.727 104.806 75.9226 109.507 83.824 109.507C91.7255 109.507 98.9211 104.806 98.9211 99.6433V99.1182L97.8799 99.0896V99.6433C97.8799 104.336 91.4923 108.607 84.3446 108.808H83.3035C76.1558 108.607 69.7682 104.336 69.7682 99.6433V99.1039L72.09 100.621C72.192 100.688 72.3253 100.72 72.4586 100.72C72.5919 100.72 72.7251 100.687 72.8272 100.621C73.0302 100.488 73.0302 100.273 72.8272 100.14L69.6172 98.0433C69.5225 97.9808 69.3913 97.9427 69.2476 97.9427C69.1039 97.9427 68.9727 97.9808 68.879 98.0427L65.7128 100.111C65.5098 100.244 65.5098 100.46 65.7128 100.592C65.9158 100.725 66.2459 100.726 66.4489 100.593Z" fill="#FEFEFE"/>
<path d="M46.9511 135.236C46.7185 135.59 46.2431 135.688 45.8926 135.451C36.5562 129.144 29.0343 120.501 24.0765 110.384C23.8904 110.004 24.0532 109.547 24.4353 109.365V109.365C24.8173 109.183 25.2738 109.346 25.46 109.726C30.2975 119.591 37.6323 128.019 46.735 134.172C47.0854 134.409 47.1837 134.883 46.9511 135.236V135.236Z" fill="#FEFEFE"/>
<path d="M18.3504 85.3412C17.928 85.3634 17.5671 85.0389 17.55 84.6163C17.1661 75.1618 18.867 65.7352 22.5358 57.0063C26.2046 48.2774 31.7488 40.4661 38.7717 34.1247C39.0857 33.8412 39.57 33.872 39.8497 34.1893V34.1893C40.1295 34.5065 40.0987 34.9902 39.7848 35.2738C32.935 41.4624 27.5272 49.0837 23.9479 57.5998C20.3686 66.1158 18.7079 75.3121 19.0797 84.536C19.0968 84.9586 18.7728 85.3191 18.3504 85.3412V85.3412Z" fill="#FEFEFE"/>
<path d="M65.9774 144.074C65.8596 144.479 66.0928 144.904 66.4995 145.017C76.4679 147.784 86.9597 148.114 97.0889 145.974C107.467 143.781 117.145 139.063 125.264 132.236C133.384 125.41 139.694 116.686 143.637 106.839C147.58 96.9908 149.033 86.3226 147.868 75.779C146.703 65.2354 142.956 55.1419 136.958 46.3925C130.96 37.6431 122.897 30.5079 113.483 25.6189C104.069 20.7299 93.595 18.2381 82.988 18.3641C72.6359 18.4871 62.4693 21.0999 53.3457 25.9769C52.9734 26.1759 52.8385 26.6411 53.0419 27.0111V27.0111C53.2453 27.381 53.71 27.5155 54.0823 27.3166C62.9856 22.5606 72.9054 20.0127 83.0062 19.8927C93.3618 19.7697 103.588 22.2025 112.779 26.9756C121.97 31.7487 129.841 38.7148 135.697 47.2569C141.553 55.7989 145.211 65.6532 146.348 75.9469C147.486 86.2406 146.067 96.656 142.218 106.27C138.369 115.885 132.208 124.402 124.281 131.066C116.354 137.731 106.905 142.338 96.7728 144.479C86.8896 146.567 76.6528 146.246 66.9259 143.549C66.5191 143.436 66.0951 143.669 65.9774 144.074V144.074Z" fill="#FEFEFE"/>
<path d="M122.879 107.926C123.148 108.091 123.233 108.443 123.066 108.71C118.595 115.829 112.338 121.653 104.918 125.601C104.639 125.75 104.294 125.64 104.149 125.359V125.359C104.004 125.079 104.114 124.734 104.393 124.586C111.628 120.733 117.729 115.054 122.091 108.114C122.259 107.847 122.61 107.761 122.879 107.926V107.926Z" fill="#FEFEFE"/>
<path d="M86.3862 130.496C86.4132 130.81 86.1803 131.087 85.8655 131.111C78.8254 131.632 71.7541 130.599 65.154 128.08C58.554 125.562 52.5915 121.623 47.6881 116.544C47.4689 116.317 47.4798 115.955 47.7094 115.739V115.739C47.939 115.522 48.3004 115.533 48.5197 115.76C53.3048 120.713 59.1223 124.556 65.5614 127.013C72.0005 129.47 78.899 130.479 85.7676 129.972C86.0823 129.949 86.3591 130.181 86.3862 130.496V130.496Z" fill="#FEFEFE"/>
<path d="M128.992 93.5215C129.297 93.5992 129.608 93.4148 129.682 93.1087C131.497 85.6069 131.482 77.7755 129.634 70.276C127.74 62.5918 123.981 55.4932 118.688 49.609C113.396 43.7249 106.734 39.2367 99.2932 36.542C91.852 33.8474 83.8612 33.0295 76.0284 34.1609C68.1956 35.2922 60.7627 38.3377 54.3881 43.0278C48.0135 47.7179 42.894 53.9077 39.483 61.0489C36.072 68.1901 34.4748 76.0624 34.8329 83.9683C35.1824 91.6843 37.3838 99.1999 41.2476 105.881C41.4053 106.154 41.7555 106.243 42.0263 106.082V106.082C42.297 105.921 42.3858 105.571 42.2282 105.299C38.4602 98.7785 36.3133 91.4453 35.9723 83.9167C35.6226 76.1981 37.182 68.5125 40.5121 61.5405C43.8423 54.5685 48.8405 48.5254 55.064 43.9465C61.2876 39.3676 68.5443 36.3942 76.1914 35.2897C83.8386 34.1852 91.6401 34.9837 98.9049 37.6144C106.17 40.2452 112.674 44.627 117.84 50.3718C123.007 56.1165 126.678 63.0468 128.526 70.5489C130.33 77.8663 130.346 85.5073 128.577 92.8273C128.503 93.1334 128.687 93.4438 128.992 93.5215V93.5215Z" fill="#FEFEFE"/>
</svg>
