<svg width="164" height="164" viewBox="0 0 164 164" fill="none" xmlns="http://www.w3.org/2000/svg">
<path d="M105.423 64C105.104 64 104.85 64.259 104.85 64.5781V100.422C104.85 100.741 105.104 101 105.423 101C105.741 101 105.998 100.741 105.998 100.422V64.5781C105.998 64.259 105.74 64 105.423 64Z" fill="#FEFEFE"/>
<path d="M103.375 65.3921C103.179 65.2962 102.942 65.3204 102.77 65.4557L102.12 65.9702C98.6952 68.6932 92.9671 73.25 81.275 73.25H65.3257C63.657 73.25 62.3 74.6375 62.3 76.3418V88.7299C62.3 90.3949 63.657 91.75 65.3257 91.75H69.2288C69.33 93.0508 69.8061 96.1368 72.0509 98.4112C73.746 100.129 76.0759 101 78.975 101C79.2924 101 79.55 100.741 79.55 100.422C79.55 100.103 79.2924 99.8437 78.975 99.8437C76.3967 99.8437 74.3451 99.0899 72.8731 97.6029C70.9561 95.6651 70.4961 92.9502 70.3857 91.75H73.8299C73.9277 92.5386 74.2439 93.9249 75.295 94.9898C76.2024 95.909 77.4409 96.375 78.975 96.375C79.2924 96.375 79.55 96.116 79.55 95.7969C79.55 95.4777 79.2924 95.2187 78.975 95.2187C77.7618 95.2187 76.8004 94.8696 76.1184 94.1827C75.3629 93.4208 75.0903 92.3952 74.9903 91.75H81.1957C92.9441 91.75 98.7182 96.3322 102.168 99.0702L102.769 99.5454C102.871 99.6264 102.996 99.6668 103.122 99.6668C103.208 99.6668 103.294 99.6472 103.373 99.6079C103.571 99.5107 103.697 99.3096 103.697 99.0887V65.9113C103.698 65.6904 103.572 65.4892 103.375 65.3921ZM63.45 88.7299V76.3418C63.45 75.2746 64.2907 74.4062 65.3257 74.4062H69.2V90.5937H65.3257C64.2734 90.5937 63.45 89.7751 63.45 88.7299ZM102.55 97.8978C98.9459 95.0465 92.9728 90.5937 81.1968 90.5937H74.5303C74.4762 90.5764 74.421 90.5591 74.3601 90.5579C74.3589 90.5579 74.3589 90.5579 74.3578 90.5579C74.2957 90.5579 74.237 90.5752 74.1807 90.5937H70.35V74.4062H81.275C93.0476 74.4062 98.9781 69.9385 102.55 67.1034V97.8978Z" fill="#FEFEFE"/>
<path d="M60.575 89.2719C60.8924 89.2719 61.15 89.0129 61.15 88.6937V76.3057C61.15 75.9865 60.8924 75.7275 60.575 75.7275C60.2576 75.7275 60 75.9854 60 76.3057V88.6937C60 89.0129 60.2576 89.2719 60.575 89.2719Z" fill="#FEFEFE"/>
<path d="M63.3972 76.3682C63.3972 75.2636 64.2926 74.3682 65.3972 74.3682H69.2637V90.6288H65.3972C64.2926 90.6288 63.3972 89.7334 63.3972 88.6288V76.3682Z" fill="#FEFEFE"/>
<path d="M46.9511 135.236C46.7185 135.59 46.2431 135.688 45.8926 135.451C36.5562 129.144 29.0343 120.501 24.0765 110.384C23.8904 110.004 24.0532 109.547 24.4353 109.365V109.365C24.8173 109.183 25.2738 109.346 25.46 109.726C30.2975 119.591 37.6323 128.019 46.735 134.172C47.0854 134.409 47.1837 134.883 46.9511 135.236V135.236Z" fill="#FEFEFE"/>
<path d="M18.3504 85.3412C17.928 85.3634 17.5671 85.0389 17.55 84.6163C17.1661 75.1618 18.867 65.7352 22.5358 57.0063C26.2046 48.2774 31.7488 40.4661 38.7717 34.1247C39.0857 33.8412 39.57 33.872 39.8497 34.1893V34.1893C40.1295 34.5065 40.0987 34.9902 39.7848 35.2738C32.935 41.4624 27.5272 49.0837 23.9479 57.5998C20.3686 66.1158 18.7079 75.3121 19.0797 84.536C19.0968 84.9586 18.7728 85.3191 18.3504 85.3412V85.3412Z" fill="#FEFEFE"/>
<path d="M65.9774 144.074C65.8596 144.479 66.0928 144.904 66.4995 145.017C76.4679 147.784 86.9597 148.114 97.0889 145.974C107.467 143.781 117.145 139.063 125.264 132.236C133.384 125.41 139.694 116.686 143.637 106.839C147.58 96.9908 149.033 86.3226 147.868 75.779C146.703 65.2354 142.956 55.1419 136.958 46.3925C130.96 37.6431 122.897 30.5079 113.483 25.6189C104.069 20.7299 93.595 18.2381 82.988 18.3641C72.6359 18.4871 62.4693 21.0999 53.3457 25.9769C52.9734 26.1759 52.8385 26.6411 53.0419 27.0111V27.0111C53.2453 27.381 53.71 27.5155 54.0823 27.3166C62.9856 22.5606 72.9054 20.0127 83.0062 19.8927C93.3618 19.7697 103.588 22.2025 112.779 26.9756C121.97 31.7487 129.841 38.7148 135.697 47.2569C141.553 55.7989 145.211 65.6532 146.348 75.9469C147.486 86.2406 146.067 96.656 142.218 106.27C138.369 115.885 132.208 124.402 124.281 131.066C116.354 137.731 106.905 142.338 96.7728 144.479C86.8896 146.567 76.6528 146.246 66.9259 143.549C66.5191 143.436 66.0951 143.669 65.9774 144.074V144.074Z" fill="#FEFEFE"/>
<path d="M122.879 107.926C123.148 108.091 123.233 108.443 123.066 108.71C118.595 115.829 112.338 121.653 104.918 125.601C104.639 125.75 104.294 125.64 104.149 125.359V125.359C104.004 125.079 104.114 124.734 104.393 124.586C111.628 120.733 117.729 115.054 122.091 108.114C122.259 107.847 122.61 107.761 122.879 107.926V107.926Z" fill="#FEFEFE"/>
<path d="M86.3862 130.496C86.4132 130.81 86.1803 131.087 85.8655 131.111C78.8254 131.632 71.7541 130.599 65.154 128.08C58.554 125.562 52.5915 121.623 47.6881 116.544C47.4689 116.317 47.4798 115.955 47.7094 115.739V115.739C47.939 115.522 48.3004 115.533 48.5197 115.76C53.3048 120.713 59.1223 124.556 65.5614 127.013C72.0005 129.47 78.899 130.479 85.7676 129.972C86.0823 129.949 86.3591 130.181 86.3862 130.496V130.496Z" fill="#FEFEFE"/>
<path d="M128.992 93.5215C129.297 93.5992 129.608 93.4148 129.682 93.1087C131.497 85.6069 131.482 77.7755 129.634 70.276C127.74 62.5918 123.981 55.4932 118.688 49.609C113.396 43.7249 106.734 39.2367 99.2932 36.542C91.852 33.8474 83.8612 33.0295 76.0284 34.1609C68.1956 35.2922 60.7627 38.3377 54.3881 43.0278C48.0135 47.7179 42.894 53.9077 39.483 61.0489C36.072 68.1901 34.4748 76.0624 34.8329 83.9683C35.1824 91.6843 37.3838 99.1999 41.2476 105.881C41.4053 106.154 41.7555 106.243 42.0263 106.082V106.082C42.297 105.921 42.3858 105.571 42.2282 105.299C38.4602 98.7785 36.3133 91.4453 35.9723 83.9167C35.6226 76.1981 37.182 68.5125 40.5121 61.5405C43.8423 54.5685 48.8405 48.5254 55.064 43.9465C61.2876 39.3676 68.5443 36.3942 76.1914 35.2897C83.8386 34.1852 91.6401 34.9837 98.9049 37.6144C106.17 40.2452 112.674 44.627 117.84 50.3718C123.007 56.1165 126.678 63.0468 128.526 70.5489C130.33 77.8663 130.346 85.5073 128.577 92.8273C128.503 93.1334 128.687 93.4438 128.992 93.5215V93.5215Z" fill="#FEFEFE"/>
</svg>
