<svg width="21" height="21" viewBox="0 0 21 21" fill="none" xmlns="http://www.w3.org/2000/svg">
<g clip-path="url(#clip0_31_105)">
<path d="M13.243 2.90576L11.2994 4.90182C11.1664 5.03795 11.1667 5.25534 11.3001 5.39114L14.5936 8.75007L0.349986 8.75007C0.156802 8.75007 -4.06219e-07 8.90688 -3.97774e-07 9.10006L-2.75382e-07 11.9001C-2.66937e-07 12.0933 0.156802 12.2501 0.349986 12.2501L14.5936 12.2501L11.3001 15.609C11.1671 15.7448 11.1667 15.9618 11.2994 16.0979L13.243 18.094C13.3088 18.1619 13.3991 18.2001 13.4936 18.2001C13.5881 18.2001 13.6784 18.1616 13.7442 18.094L20.9006 10.744C20.9668 10.6761 21 10.5879 21 10.5C21 10.4119 20.9667 10.324 20.9006 10.2558L13.7442 2.90576C13.6784 2.8382 13.5881 2.80006 13.4936 2.80006C13.3991 2.80006 13.3087 2.8382 13.243 2.90576Z" fill="black" fill-opacity="0.2"/>
</g>
<defs>
<clipPath id="clip0_31_105">
<rect width="21" height="21" fill="white" transform="translate(0 21) rotate(-90)"/>
</clipPath>
</defs>
</svg>
