<svg width="94" height="46" viewBox="0 0 94 46" fill="none" xmlns="http://www.w3.org/2000/svg">
<path d="M0.629274 44.7726C-0.133482 44.0098 -0.202824 42.8162 0.42125 41.9751L0.629274 41.7342L19.1615 23.2009L0.629274 4.66768C-0.133482 3.90492 -0.202824 2.71133 0.42125 1.87024L0.629274 1.62927C1.39203 0.866515 2.58562 0.797175 3.42671 1.42125L3.66768 1.62927L23.7201 21.6817C24.4829 22.4445 24.5522 23.6381 23.9282 24.4792L23.7201 24.7201L3.66768 44.7726C2.82865 45.6116 1.46831 45.6116 0.629274 44.7726Z" fill="white" fill-opacity="0.3"/>
<path d="M34.9786 44.7726C34.2159 44.0098 34.1465 42.8162 34.7706 41.9751L34.9786 41.7342L53.5109 23.2009L34.9786 4.66768C34.2159 3.90492 34.1465 2.71133 34.7706 1.87024L34.9786 1.62927C35.7414 0.866515 36.935 0.797175 37.7761 1.42125L38.017 1.62927L58.0695 21.6817C58.8322 22.4445 58.9016 23.6381 58.2775 24.4792L58.0695 24.7201L38.017 44.7726C37.178 45.6116 35.8177 45.6116 34.9786 44.7726Z" fill="white" fill-opacity="0.4"/>
<path d="M69.328 44.3707C68.5652 43.608 68.4959 42.4144 69.12 41.5733L69.328 41.3323L87.8603 22.7991L69.328 4.26582C68.5652 3.50306 68.4959 2.30947 69.12 1.46838L69.328 1.22742C70.0908 0.464659 71.2844 0.39532 72.1254 1.01939L72.3664 1.22742L92.4189 21.2799C93.1816 22.0426 93.251 23.2362 92.6269 24.0773L92.4189 24.3183L72.3664 44.3707C71.5274 45.2098 70.167 45.2098 69.328 44.3707Z" fill="white" fill-opacity="0.7"/>
</svg>
