<svg width="510" height="363" viewBox="0 0 510 363" fill="none" xmlns="http://www.w3.org/2000/svg">
<path d="M505.986 194.385C302.486 51.8846 254.336 273.977 166.911 184.431C79.486 94.885 70.9856 226.384 5.9857 182.385" stroke="white" stroke-width="2"/>
<path d="M16.3618 179.022C16.4777 179.426 16.2758 179.846 15.904 180.015L15.7875 180.058L5.96522 182.874L8.78148 192.697C8.8974 193.101 8.69544 193.521 8.32366 193.69L8.20718 193.733C7.80292 193.849 7.38281 193.647 7.21397 193.275L7.17112 193.159L4.12365 182.531C4.00774 182.127 4.20969 181.707 4.58147 181.538L4.69795 181.495L15.3257 178.447C15.7704 178.32 16.2343 178.577 16.3618 179.022Z" fill="white"/>
</svg>
