<svg width="247" height="239" viewBox="0 0 247 239" fill="none" xmlns="http://www.w3.org/2000/svg">
<path d="M69.5004 233.075C170.5 198.575 130 87.6499 102.5 107C75.0005 126.35 148.458 181.753 188.397 130.413C223.174 85.7079 190.075 15.6016 152.992 15.2741" stroke="white" stroke-width="2"/>
<path d="M158.826 25.3766C159.185 25.1805 159.319 24.7494 159.157 24.3712L159.1 24.2596L153.725 15.3981L162.446 10.6335C162.805 10.4375 162.939 10.0063 162.778 9.62817L162.72 9.51659C162.499 9.15187 162.052 8.99445 161.675 9.13089L161.565 9.18073L152.128 14.3357C151.77 14.5318 151.635 14.9629 151.797 15.341L151.854 15.4526L157.67 25.0407C157.914 25.4419 158.431 25.5923 158.826 25.3766Z" fill="white"/>
</svg>
