<svg width="78" height="100" viewBox="0 0 78 100" fill="none" xmlns="http://www.w3.org/2000/svg">
<mask id="path-1-inside-1_238_52" fill="white">
<path fill-rule="evenodd" clip-rule="evenodd" d="M4 0C1.79086 0 0 1.79086 0 4V86C0 88.2091 1.79086 90 4 90H29.7157L39 99.2843L48.2843 90H74C76.2091 90 78 88.2091 78 86V4C78 1.79086 76.2091 0 74 0H4Z"/>
</mask>
<path fill-rule="evenodd" clip-rule="evenodd" d="M4 0C1.79086 0 0 1.79086 0 4V86C0 88.2091 1.79086 90 4 90H29.7157L39 99.2843L48.2843 90H74C76.2091 90 78 88.2091 78 86V4C78 1.79086 76.2091 0 74 0H4Z" fill="white"/>
<path d="M29.7157 90L31.1299 88.5858L30.5442 88H29.7157V90ZM39 99.2843L37.5858 100.698L39 102.113L40.4142 100.698L39 99.2843ZM48.2843 90V88H47.4558L46.8701 88.5858L48.2843 90ZM2 4C2 2.89543 2.89543 2 4 2V-2C0.686292 -2 -2 0.686291 -2 4H2ZM2 86V4H-2V86H2ZM4 88C2.89543 88 2 87.1046 2 86H-2C-2 89.3137 0.68629 92 4 92V88ZM29.7157 88H4V92H29.7157V88ZM40.4142 97.8701L31.1299 88.5858L28.3015 91.4142L37.5858 100.698L40.4142 97.8701ZM46.8701 88.5858L37.5858 97.8701L40.4142 100.698L49.6985 91.4142L46.8701 88.5858ZM74 88H48.2843V92H74V88ZM76 86C76 87.1046 75.1046 88 74 88V92C77.3137 92 80 89.3137 80 86H76ZM76 4V86H80V4H76ZM74 2C75.1046 2 76 2.89543 76 4H80C80 0.686291 77.3137 -2 74 -2V2ZM4 2H74V-2H4V2Z" fill="#B48A52" mask="url(#path-1-inside-1_238_52)"/>
<path d="M42.4674 46.8744C43.4458 46.9676 44.3427 47.1656 45.1581 47.4685C45.9967 47.748 46.7189 48.1324 47.3246 48.6216C47.9303 49.0875 48.3962 49.6466 48.7224 50.2989C49.0718 50.9512 49.2465 51.6734 49.2465 52.4655C49.2465 53.5371 49.0369 54.4806 48.6175 55.2959C48.2215 56.1113 47.6507 56.7985 46.9053 57.3576C46.1831 57.8934 45.2978 58.3011 44.2495 58.5807C43.2012 58.8602 42.0364 59 40.7551 59H34.7098C34.2905 59 33.8129 59 33.2771 59C32.7646 59.0233 32.2754 59.0582 31.8094 59.1048C31.5299 59.1281 31.2503 59.1398 30.9708 59.1398C30.6912 59.1631 30.4233 59.1747 30.1671 59.1747L30.1321 58.9301C30.1088 58.8602 30.0972 58.802 30.0972 58.7554C30.0972 58.6855 30.0972 58.6273 30.0972 58.5807C30.0972 58.3244 30.1321 58.1613 30.202 58.0915C30.2952 57.9983 30.4 57.94 30.5165 57.9167C31.3319 57.8003 31.9026 57.6372 32.2288 57.4275C32.5782 57.2179 32.7529 56.8801 32.7529 56.4141V38.9072C32.7529 38.4412 32.6015 38.1151 32.2987 37.9287C31.9958 37.7191 31.4018 37.5443 30.5165 37.4046C30.3301 37.358 30.2137 37.2764 30.1671 37.16C30.1205 37.0202 30.0972 36.8571 30.0972 36.6707C30.0972 36.6242 30.0972 36.5776 30.0972 36.531C30.0972 36.4611 30.1088 36.4028 30.1321 36.3563C30.1321 36.2631 30.1438 36.1815 30.1671 36.1116C30.866 36.1582 31.6464 36.2048 32.5083 36.2514C33.3936 36.2747 34.1157 36.2864 34.6749 36.2864H39.4971C40.9881 36.2864 42.2228 36.4378 43.2012 36.7406C44.1796 37.0202 44.9601 37.4162 45.5425 37.9287C46.1249 38.4412 46.5325 39.0353 46.7655 39.7109C47.0218 40.3632 47.1499 41.0504 47.1499 41.7726C47.1499 43.1238 46.7073 44.207 45.822 45.0224C44.9368 45.8144 43.8185 46.3968 42.4674 46.7696V46.8744ZM37.1559 56.0647C37.1559 56.6005 37.4005 56.9499 37.8897 57.113C38.4022 57.2528 38.9846 57.3227 39.6369 57.3227C41.2443 57.3227 42.4441 56.9849 43.2361 56.3093C44.0282 55.6104 44.4242 54.4922 44.4242 52.9547C44.4242 52.116 44.2728 51.3822 43.97 50.7532C43.6904 50.1242 43.306 49.6117 42.8168 49.2157C42.3276 48.7963 41.7568 48.4818 41.1046 48.2722C40.4523 48.0625 39.765 47.9577 39.0429 47.9577H37.1559V56.0647ZM37.715 46.2105C38.6235 46.2105 39.3807 46.094 39.9864 45.861C40.592 45.6281 41.0696 45.3136 41.4191 44.9175C41.7918 44.4982 42.0481 44.0323 42.1878 43.5198C42.3509 43.0073 42.4324 42.4715 42.4324 41.9124C42.4324 41.3765 42.3393 40.8757 42.1529 40.4098C41.9898 39.9205 41.7219 39.5012 41.3492 39.1518C40.9764 38.8023 40.4872 38.5344 39.8815 38.3481C39.2758 38.1384 38.5536 38.0336 37.715 38.0336H37.1559V46.2105H37.715Z" fill="#A27D4B"/>
<path d="M11.0071 43.2112L12.8347 45.039L11.0071 46.888V43.2112ZM19.8049 24.9408H12.8984V16.1421H11.0071V26.8252H19.8049V39.577L16.3481 43.4733L12.8913 39.577V30.9483H15.3989V39.9241H17.2831V29.0568C15.1722 29.0568 13.0897 29.0568 11 29.0568V30.9412V40.2783L19.7978 50.2176V65.7606L39.0368 75.1189L58.2759 65.7606V50.2247L60.9039 47.2493L59.6359 45.8466L56.3845 49.5233V64.5846L39.0368 73.022L21.6891 64.5846V49.5233L17.5948 44.9044L21.6891 40.2854V26.8252V24.9408H19.8049ZM58.2759 24.9408H65.1823V16.1421H67.0666V26.8252H58.2688V39.577L61.7256 43.4733L65.1823 39.577V30.9483H62.6748V39.9241H60.7905V29.0568C62.9014 29.0568 64.984 29.0568 67.0737 29.0568V40.2854L63.0006 44.9044L67.0737 49.5233V65.8526H65.1894V50.2247L61.6335 46.2079L59.6076 43.8984L56.3916 40.2854V26.8252V24.9408H58.2759ZM11.0071 65.8456V49.5233L14.2584 45.8466L15.5052 47.2493L12.8984 50.2247V65.8456H11.0071ZM39.0368 22.433H62.6677V16.1421H48.0684V14.6544H58.1059L56.2216 12.77H46.1842V18.0336H60.7834V20.5414H39.9789V18.0336H44.4558V12.3307H42.5857V16.1492H39.9719V10H39.0297H38.0876V16.1421H35.4809V12.3307H33.6108V18.0336H38.0876V20.5414H17.2831V18.0336H31.8824V12.77H21.845L19.9607 14.6544H29.9982V16.1421H15.3989V22.4259H39.0368V22.433ZM39.0368 26.8252H54.5003V24.9408H39.0368H23.5521V26.8252H39.0368ZM39.0368 77.9172L60.7834 67.3333V49.8634H62.6677V65.8456V68.5163L39.0368 80L15.406 68.5163V65.8456V49.8634H17.2902V67.3333L39.0368 77.9172ZM56.3916 43.2112L58.2404 45.039L56.3916 46.888V43.2112ZM67.0737 43.2112L65.2248 45.039L67.0737 46.888V43.2112ZM21.6891 43.2112L19.8403 45.039L21.6891 46.888V43.2112Z" fill="#B48A52"/>
</svg>
